ply
format ascii 1.0
comment Created by Open3D
element vertex 22
property double x
property double y
property double z
end_header
0.585057 -0.727778 -0.028681
0.607015 -0.561235 -0.0273514
0.742371 -0.479133 -0.0380729
0.730263 -0.49073 -0.0363554
-0.0761913 -2.13222 0.0858928
0.613869 -0.721733 0.124817
0.770847 -0.48098 0.118423
0.055129 -2.10204 0.518989
0.953428 -0.537519 0.341326
0.632744 -0.57772 0.0875493
0.65429 -0.716417 0.324265
0.663525 -0.622456 0.348281
0.763508 -0.514089 0.362705
0.743004 -0.560061 0.514065
0.72665 -0.743897 0.528214
0.68409 -0.619585 0.479897
0.793036 -0.480068 0.348075
0.760874 -0.500371 0.124387
0.278353 -2.07343 0.572226
-0.00231125 -2.036 0.106954
-0.0584579 -2.17077 0.269266
0.698076 -0.734686 0.441593
