ply
format ascii 1.0
comment Created by Open3D
element vertex 497
property double x
property double y
property double z
end_header
-0.229974 0.790338 0.828296
-0.216544 0.779396 0.814211
-0.211218 0.798493 0.831113
-0.202923 0.807231 0.837451
-0.195087 0.818651 0.846607
0.088505 0.805491 0.815619
0.0963891 0.788853 0.800125
0.105367 0.78269 0.795196
0.114856 0.780636 0.794491
0.12501 0.78267 0.798013
0.133354 0.774088 0.79097
0.138701 0.750779 0.769138
0.147761 0.748325 0.768434
0.159194 0.756861 0.778998
0.17245 0.772147 0.796604
0.183086 0.774802 0.801534
0.194342 0.779374 0.808577
0.2233 0.773054 0.809985
0.226898 0.751264 0.790266
0.24373 0.772071 0.814915
-0.231177 0.769948 0.773841
-0.22272 0.776215 0.777279
-0.215495 0.787289 0.785531
-0.205633 0.789172 0.784843
0.180118 0.791661 0.781405
0.195028 0.731145 0.729148
0.243997 0.79641 0.801345
-0.246523 0.79043 0.75464
-0.230536 0.771929 0.734644
-0.224048 0.785471 0.744642
-0.221855 0.816261 0.770637
-0.214193 0.828318 0.779302
0.189304 0.743121 0.699984
0.197619 0.737867 0.697318
0.210166 0.747564 0.708649
-0.256614 0.789934 0.723236
-0.235066 0.755264 0.689499
-0.226436 0.760279 0.691445
-0.217928 0.765926 0.694041
-0.222964 0.821393 0.740753
0.181318 0.746465 0.670036
0.189903 0.741971 0.668089
0.198601 0.738114 0.666792
-0.251281 0.756415 0.658237
-0.242908 0.762416 0.660745
-0.235317 0.771311 0.665761
-0.229254 0.786127 0.675793
-0.22409 0.805418 0.689587
0.177564 0.75384 0.640054
0.185453 0.746321 0.635664
0.192378 0.735712 0.628767
-0.255475 0.759587 0.63214
-0.246379 0.76342 0.632749
-0.239115 0.773204 0.638227
-0.239123 0.808018 0.663789
-0.231579 0.819287 0.670484
0.167509 0.765025 0.618142
0.174219 0.751312 0.609013
0.183426 0.749118 0.609013
-0.271066 0.770978 0.610426
-0.261075 0.772708 0.609254
-0.252801 0.779714 0.612185
-0.242741 0.781208 0.611013
-0.233136 0.784127 0.611013
-0.222629 0.783808 0.608667
-0.213201 0.787264 0.609254
-0.201744 0.782751 0.603976
-0.192312 0.785955 0.604563
-0.182117 0.785886 0.602804
-0.171954 0.785685 0.601044
-0.161822 0.785353 0.599285
-0.15262 0.789668 0.601044
-0.141246 0.781906 0.594008
-0.133195 0.793175 0.601044
-0.122733 0.789943 0.597526
0.16603 0.81095 0.618049
0.165196 0.760628 0.582281
0.175449 0.762485 0.585212
0.185577 0.763419 0.587558
-0.28087 0.775802 0.587674
-0.269423 0.77375 0.583704
-0.26017 0.777778 0.584271
-0.25339 0.789534 0.590509
-0.24709 0.803599 0.598449
-0.231132 0.786037 0.583704
-0.224158 0.798325 0.590509
-0.21413 0.800221 0.589942
-0.203885 0.801193 0.588808
-0.191311 0.79243 0.580868
-0.182867 0.800337 0.584838
-0.170581 0.791253 0.576898
-0.160693 0.79248 0.576331
-0.149714 0.787921 0.571794
-0.139888 0.788888 0.571227
-0.12952 0.786483 0.568391
-0.109719 0.786163 0.566123
-0.0987987 0.777648 0.559317
-0.0887718 0.774711 0.556482
-0.0800256 0.783115 0.561586
-0.069507 0.774196 0.55478
-0.0602618 0.778275 0.557049
-0.0508168 0.780599 0.558183
-0.0412787 0.781986 0.55875
-0.0317492 0.78408 0.559884
-0.0220754 0.782764 0.55875
-0.0124093 0.779682 0.556482
-0.00283594 0.778952 0.555915
0.00672321 0.778928 0.555915
0.0164378 0.787022 0.561586
0.0267127 0.806518 0.575197
0.160587 0.823572 0.597315
0.157226 0.756196 0.551378
0.168782 0.764669 0.55875
0.176852 0.756924 0.55478
-0.287926 0.777073 0.558387
-0.274483 0.769463 0.550768
-0.271983 0.793445 0.564917
-0.262225 0.796723 0.564917
-0.256648 0.813505 0.574169
-0.0194904 0.82931 0.558931
-0.00911654 0.795929 0.537163
0.000651415 0.795981 0.537163
0.0103722 0.793396 0.535531
0.0200296 0.790694 0.533898
0.0296585 0.788712 0.53281
0.0388228 0.779074 0.526823
0.0465613 0.751754 0.509409
0.057595 0.773706 0.524102
0.0673947 0.776282 0.526279
0.0763901 0.77039 0.523014
0.0865231 0.775228 0.526823
0.0961379 0.774939 0.527367
0.10564 0.773701 0.527367
0.115898 0.777321 0.530633
0.128339 0.793216 0.542061
0.146495 0.783238 0.537707
0.150858 0.755906 0.520837
0.160481 0.755637 0.521926
-0.293256 0.782728 0.536344
-0.282757 0.783866 0.534771
-0.276482 0.796924 0.541064
-0.267494 0.802679 0.542638
-0.261012 0.816438 0.549455
0.0860115 0.793749 0.513269
0.0947398 0.784179 0.508025
0.104023 0.780425 0.506452
0.112864 0.774033 0.503305
0.12117 0.765019 0.498585
0.128987 0.754239 0.492817
0.140212 0.76349 0.499634
0.148108 0.75419 0.494914
0.160116 0.765655 0.503305
-0.311486 0.800751 0.520154
-0.293544 0.782593 0.506626
-0.287106 0.795107 0.512137
-0.276767 0.796932 0.511135
-0.27209 0.815893 0.520655
0.132657 0.779628 0.480571
0.139489 0.763484 0.472053
0.145945 0.747292 0.463535
-0.299926 0.775085 0.478925
-0.285775 0.766391 0.471715
-0.288256 0.802833 0.490942
-0.278383 0.80631 0.490942
-0.273182 0.823807 0.499114
0.12971 0.751583 0.441432
0.136077 0.734409 0.43278
-0.306987 0.781476 0.455929
-0.301725 0.796851 0.462329
-0.292224 0.801331 0.462786
-0.287593 0.81999 0.471014
0.118168 0.766518 0.423018
0.128624 0.771146 0.426218
0.13484 0.752018 0.417076
-0.313625 0.783697 0.434048
-0.303008 0.78497 0.432739
-0.296188 0.796216 0.436664
-0.294015 0.820959 0.447564
-0.293337 0.851719 0.461517
0.112446 0.758437 0.39655
0.119766 0.744557 0.390446
0.130264 0.751014 0.39437
-0.324203 0.790125 0.412235
-0.310506 0.783858 0.407292
-0.308245 0.807224 0.416767
-0.30173 0.820369 0.421299
-0.301236 0.851544 0.434483
0.108781 0.783667 0.383808
0.112603 0.745365 0.366916
0.120981 0.739435 0.364856
-0.322575 0.780471 0.384834
-0.311957 0.810478 0.394984
-0.305203 0.822872 0.398888
0.10211 0.746411 0.346183
0.110859 0.742369 0.345012
0.117196 0.72368 0.337594
-0.338362 0.791151 0.366247
-0.325116 0.786627 0.362585
-0.321229 0.805278 0.36881
-0.316603 0.823081 0.374669
-0.31063 0.838266 0.379429
0.0949622 0.768083 0.332192
0.101251 0.744747 0.323404
0.110807 0.746207 0.324502
-0.336497 0.78809 0.34253
-0.318799 0.800469 0.344251
-0.305572 0.795562 0.340808
-0.291532 0.787812 0.336332
-0.281842 0.79133 0.336332
-0.273638 0.799168 0.338054
-0.257329 0.782854 0.330479
-0.247419 0.785058 0.330134
-0.239402 0.793426 0.3322
-0.235926 0.817944 0.340464
-0.20566 0.826073 0.340464
0.0954323 0.763669 0.310508
0.105049 0.764301 0.311197
0.116622 0.777814 0.316706
-0.358911 0.806973 0.327394
-0.335043 0.805896 0.323875
-0.327919 0.816994 0.326434
-0.306795 0.85441 0.335713
-0.284995 0.824924 0.323875
-0.266907 0.804043 0.315236
-0.262116 0.823533 0.320995
-0.246007 0.806721 0.313956
-0.236089 0.809679 0.313956
-0.216649 0.777785 0.301798
-0.206373 0.777634 0.300838
-0.189169 0.790767 0.303718
-0.156119 0.777668 0.296999
-0.146053 0.776729 0.296039
-0.136511 0.778463 0.296039
-0.1268 0.779143 0.295719
-0.117229 0.780641 0.295719
-0.105154 0.763236 0.28932
0.0840943 0.771561 0.29124
0.0918883 0.757312 0.28676
0.100521 0.751435 0.285161
-0.347941 0.789034 0.298509
-0.337962 0.820272 0.306245
-0.328933 0.827018 0.307138
-0.150109 0.815225 0.288095
-0.135534 0.790665 0.279764
-0.123552 0.778129 0.275301
-0.114553 0.783365 0.276491
-0.105571 0.789442 0.277979
0.0862431 0.76297 0.269053
0.094896 0.756169 0.267267
-0.361315 0.808718 0.282059
-0.341169 0.789202 0.274685
-0.34356 0.822678 0.283698
0.0259095 0.778552 0.251743
0.0356078 0.781058 0.252562
0.0458558 0.791123 0.255567
0.0555607 0.790501 0.255567
0.0633233 0.767718 0.249285
0.0716854 0.756354 0.246281
0.0814995 0.760197 0.247646
0.0908221 0.75914 0.247646
-0.349303 0.820251 0.261755
0.0400099 0.773349 0.231459
0.0489548 0.764103 0.229206
0.0600584 0.786616 0.235215
0.0680279 0.76653 0.230207
0.0774293 0.765637 0.230207
0.0866038 0.762705 0.229707
-0.352548 0.812809 0.237176
-0.359249 0.88816 0.253872
0.0627671 0.773345 0.211679
0.0711998 0.761853 0.209197
0.0811891 0.766731 0.210551
-0.357288 0.785784 0.211498
-0.357514 0.84024 0.221849
-0.361372 0.878958 0.229561
0.0601676 0.784518 0.195667
0.0675739 0.758358 0.19039
0.0767779 0.756498 0.190187
0.0528347 0.780656 0.174967
0.0601577 0.753476 0.170158
0.0694949 0.75366 0.170336
-0.293952 0.588963 0.137257
0.0497287 0.770249 0.155089
0.0564357 0.733131 0.149352
0.0667207 0.747146 0.151677
0.0429768 0.789979 0.138682
0.0491933 0.740934 0.132295
0.0578668 0.735335 0.131643
0.0398148 0.756695 0.116924
0.0580734 0.751524 0.116496
0.0329712 0.792433 0.101464
0.0376576 0.706409 0.0943871
0.0462527 0.704899 0.0943048
-0.392874 0.786857 0.0885382
-0.385806 0.797007 0.088892
-0.407378 0.926661 0.0963796
-0.398325 0.9371 0.0967334
0.0301391 0.747107 0.0807558
-0.429303 0.812795 0.0687332
-0.393787 0.791698 0.0675362
-0.386623 0.801884 0.0677414
-0.338334 0.799601 0.0669889
-0.333731 0.816668 0.0674678
-0.328398 0.832809 0.0679124
0.0227476 0.789954 0.0643212
0.0505404 0.770637 0.0637056
-0.383288 0.901846 0.0483397
-0.335615 0.817729 0.0473177
-0.317053 0.800416 0.0470728
-0.30864 0.807981 0.0471154
-0.288647 0.784508 0.0468066
-0.278663 0.787049 0.046796
-0.269954 0.793248 0.0468279
-0.246202 0.786281 0.0466789
-0.243748 0.813178 0.046945
-0.244822 0.854543 0.0473709
0.0206057 0.733641 0.0457207
-0.42362 0.801592 0.0260635
-0.406512 0.792463 0.0262841
-0.413975 0.832381 0.0257463
-0.407604 0.845521 0.0256222
-0.266002 0.817459 0.0267115
-0.247443 0.792941 0.0271113
-0.239101 0.800715 0.0270424
-0.229257 0.803589 0.0270424
-0.218863 0.804409 0.02707
-0.204545 0.78959 0.0273181
-0.197885 0.804678 0.0271389
-0.184217 0.790472 0.0273733
-0.173241 0.786808 0.027456
-0.162779 0.784955 0.0275112
0.0125226 0.771557 0.0279248
0.0403325 0.760591 0.0280627
-0.421203 0.7935 0.00563766
-0.411434 0.798609 0.00563766
-0.417283 0.834861 0.00433071
-0.411814 0.849805 0.00391996
-0.191059 0.815318 0.00791549
-0.174078 0.78639 0.00911041
-0.163592 0.784555 0.00925977
-0.155887 0.796308 0.00888636
-0.144833 0.791282 0.00914775
-0.135451 0.794969 0.00907307
-0.125056 0.792624 0.00922243
-0.115029 0.792122 0.00929712
-0.105832 0.797436 0.00914775
-0.0937417 0.779827 0.00985724
-0.0886222 0.821647 0.00832624
0.0117046 0.759369 0.0108281
-0.440909 0.810885 -0.0174016
-0.430001 0.814465 -0.0172777
-0.418619 0.81701 -0.017092
-0.421774 0.848956 -0.0189496
-0.42077 0.87389 -0.0203118
-0.113877 0.792097 -0.00978547
-0.103522 0.788483 -0.00947588
-0.0932742 0.784736 -0.00916628
-0.0828314 0.777878 -0.00867092
-0.0733679 0.77983 -0.00873284
-0.0637164 0.779676 -0.00867092
-0.054272 0.782391 -0.00879476
-0.0442516 0.775025 -0.00829941
-0.035253 0.788474 -0.00910436
-0.0255746 0.788847 -0.00910436
-0.0161653 0.807065 -0.0102189
0.00358998 0.801231 -0.0098474
0.0115017 0.712318 -0.00433655
0.0202082 0.711126 -0.00427463
0.0323877 0.7856 -0.0089186
0.0427253 0.7971 -0.00966163
-0.444038 0.812206 -0.038998
-0.428416 0.807041 -0.0379709
-0.426717 0.828169 -0.0395115
-0.425902 0.852045 -0.0413089
-0.429357 0.88588 -0.0440478
-0.0462669 0.792796 -0.0277
-0.0368193 0.799276 -0.0282135
-0.0263739 0.781744 -0.0266729
-0.0157199 0.73619 -0.0227357
-0.00713784 0.778171 -0.0263305
0.00240918 0.776207 -0.0261594
0.0116201 0.753206 -0.0241908
0.0200856 0.723127 -0.021623
0.0310919 0.77858 -0.0264161
0.0406439 0.778139 -0.0264161
0.0521282 0.808407 -0.0290695
0.0651084 0.848441 -0.0325787
-0.468637 0.837885 -0.0649957
-0.435243 0.800684 -0.0596102
-0.432287 0.81918 -0.0612588
-0.428942 0.837721 -0.0629074
-0.426082 0.858087 -0.0647758
0.00347685 0.775158 -0.0445528
0.012989 0.775057 -0.0445528
0.0229054 0.78676 -0.0458717
0.0324663 0.784434 -0.0456519
0.045467 0.841526 -0.0520265
0.0549456 0.829007 -0.0507076
-0.465207 0.825615 -0.0857806
-0.441205 0.80607 -0.0819101
-0.437809 0.823666 -0.0837786
-0.431313 0.836018 -0.0848463
-0.429473 0.858075 -0.0873822
-0.00740715 0.767252 -0.0614896
-0.48751 0.848543 -0.114085
-0.453643 0.812122 -0.106344
-0.450185 0.829806 -0.108555
-0.44636 0.847526 -0.110767
-0.441721 0.864394 -0.112821
-0.015648 0.818504 -0.0884912
-0.00553574 0.786049 -0.0832777
0.0041208 0.787045 -0.0834357
-1.48504 0.868498 -0.274411
-0.494607 0.852703 -0.138794
-0.457482 0.811629 -0.128809
-0.446067 0.814597 -0.128264
-0.445296 0.837362 -0.131895
-0.439961 0.852368 -0.133892
-0.0171424 0.775135 -0.0999428
-0.00749295 0.763488 -0.0977642
0.00188262 0.771389 -0.0992166
-0.507891 0.860927 -0.16573
-0.468758 0.81689 -0.153624
-0.0250083 0.813234 -0.126745
-0.0144934 0.774334 -0.118538
-0.00499001 0.774454 -0.118538
-0.461191 0.816896 -0.176151
-0.461926 0.842109 -0.181419
-0.452934 0.850289 -0.182106
-0.0275049 0.783809 -0.139964
-0.0179082 0.785061 -0.140193
-0.00834432 0.791062 -0.141567
-0.471071 0.800129 -0.197177
-0.436592 0.832585 -0.200207
-0.43722 0.859485 -0.206522
-0.417301 0.845657 -0.200965
-0.426755 0.892697 -0.213089
-0.032372 0.768171 -0.155501
-0.0229907 0.770445 -0.156007
-0.0136064 0.776474 -0.157522
-0.407539 0.811659 -0.215302
-0.401345 0.82437 -0.21779
-0.389142 0.824891 -0.216407
-0.377388 0.82611 -0.215302
-0.361764 0.818381 -0.211431
-0.0370395 0.77376 -0.176871
-0.0277207 0.778959 -0.178254
-0.0182077 0.781162 -0.178807
-0.0407773 0.770819 -0.195581
-0.0312814 0.770308 -0.195282
-0.0217821 0.768726 -0.194683
-0.300712 0.809566 -0.247235
-0.290755 0.813195 -0.247235
-0.0470646 0.77132 -0.216234
-0.037214 0.764278 -0.21365
-0.0281213 0.772243 -0.216234
-1.64047 0.878962 -0.637783
-0.213833 0.805769 -0.259144
-0.201453 0.798312 -0.25534
-0.188647 0.787933 -0.250499
-0.181598 0.802099 -0.254994
-0.175187 0.820802 -0.261219
-0.16348 0.814602 -0.258107
-0.0487078 0.766432 -0.234939
-0.0392989 0.766972 -0.234939
-0.0300102 0.771148 -0.236322
-1.61748 0.861873 -0.67892
-0.183388 0.81517 -0.282877
-0.166957 0.787367 -0.270697
-0.157649 0.791179 -0.271435
-0.147928 0.793054 -0.271435
-0.138185 0.79481 -0.271435
-0.127673 0.791859 -0.26959
-0.118776 0.79888 -0.271805
-0.110741 0.813167 -0.276972
-0.0994817 0.804321 -0.272912
-0.0894996 0.804558 -0.272543
-0.0575064 0.776725 -0.260362
-0.047146 0.764387 -0.255195
-0.0377147 0.76398 -0.254826
-0.118017 0.795538 -0.292606
-0.106577 0.784152 -0.287125
-0.0951107 0.769866 -0.280468
-0.0860431 0.774636 -0.282035
-0.0771292 0.782047 -0.284775
-0.0663382 0.76826 -0.278511
-0.0568425 0.768098 -0.278119
-0.0472055 0.765063 -0.276553
-0.0688474 0.787428 -0.309685
-0.0577145 0.769161 -0.300976
-0.0494436 0.787973 -0.30927
-0.618717 1.21386 -0.693363
-2.41515 -1.6314 -1.64234
1.02651 0.502348 -0.90902
1.05331 0.499429 -0.928432
0.875625 0.594875 -0.934216
1.12136 -0.301539 -1.03092
