ply
format ascii 1.0
comment Created by Open3D
element vertex 43
property double x
property double y
property double z
end_header
0.568997 -0.483506 -0.346527
0.710833 -0.474889 -0.308268
0.0301696 -2.02996 -0.282453
0.800273 -0.499076 -0.0631272
0.0514202 -2.03684 -0.156993
0.165163 -2.10224 -0.090962
-0.0930696 -2.08109 -0.0224202
0.0481023 -2.03458 0.0625324
0.185676 -2.09927 0.0658886
-0.111255 -2.06098 -0.161853
0.217994 -2.1309 0.112109
0.905917 -0.535269 0.122858
-0.0357414 -2.15298 0.318978
0.210593 -2.07847 0.286374
0.133967 -2.1391 0.933709
0.666247 -0.551285 0.204569
0.0858362 -2.07561 0.506775
0.399015 -2.10693 0.965821
0.235636 -2.06651 0.512009
0.739918 -0.506503 0.11897
0.0896943 -2.13659 0.781852
-0.116359 -2.15939 0.0348583
0.36564 -2.1199 0.70019
0.62988 -0.625814 0.173308
0.113533 -2.08712 0.708542
0.266815 -2.05917 0.754259
0.899551 -0.518494 0.221277
0.709467 -0.528194 0.236837
0.410966 -2.13845 0.906421
1.00787 -0.544668 0.544073
0.147001 -2.0976 0.855092
0.798262 -0.511355 0.861952
0.170537 -2.1375 0.995615
0.00608599 -2.12658 0.418272
0.784782 -0.739159 0.799238
0.772004 -0.521556 0.76671
0.546424 -0.517131 -0.227761
0.898354 -0.518728 0.875379
0.262389 -2.06523 0.948646
0.0725141 -2.04827 0.28466
-0.174269 -2.13418 -0.195151
0.40414 -2.18321 0.810039
0.931035 -0.503635 0.747217
