ply
format ascii 1.0
comment Created by Open3D
element vertex 422
property double x
property double y
property double z
end_header
1.53218 0.0103445 -0.516843
1.35665 0.322048 -0.456383
1.68388 -0.656517 -0.557117
1.65339 -0.454107 -0.552303
1.65617 -1.03384 -0.56
1.66949 -0.904833 -0.557816
1.36528 -1.88157 -0.561644
0.938869 0.820896 -0.307224
0.845853 0.890253 -0.3127
1.12427 -2.17003 -0.530461
1.18026 0.618619 -0.353381
1.43639 0.231746 -0.387503
1.29502 0.467219 -0.374429
1.60805 -0.0596863 -0.350595
1.54959 0.0424483 -0.393418
1.70847 -0.876327 -0.4
1.72706 -0.662302 -0.387576
1.70828 -1.03892 -0.365658
-0.308876 1.22976 0.753591
0.365653 -2.72485 -0.328519
0.811024 -2.48877 -0.37281
1.3968 -1.93291 -0.351181
1.41835 -1.87731 -0.374409
0.958067 0.83048 -0.149398
0.662509 1.01088 -0.18863
0.176443 1.2049 -0.0984136
1.41398 -1.95599 -0.163739
1.25482 0.696147 0.498028
1.57815 0.329701 0.447893
-1.17172 1.05253 0.296726
1.47264 -1.88203 -0.136613
0.579151 1.09228 0.289124
0.363689 1.15624 -0.122913
-0.987044 -2.74853 0.0845802
1.76035 -1.04045 -0.15317
1.60549 -0.263289 -0.52796
1.70587 0.0149544 0.276017
1.93399 -0.894109 0.419163
0.669976 -2.5649 -0.35946
1.73944 -0.434705 -0.15874
1.6846 -0.210605 -0.165656
1.30888 0.510754 -0.178568
1.57163 0.0935642 -0.165146
1.48058 0.236707 -0.1677
-1.7845 0.593391 0.422371
-2.03658 -1.50934 1.15865
-0.713672 -2.82643 -0.0697297
-0.532495 -2.85377 -0.0870239
-0.323609 -2.86774 -0.101223
-0.475405 1.25947 0.231235
0.270408 -2.8 -0.0659084
-2.21655 -1.39835 0.5239
0.362429 -2.74852 -0.168511
0.819643 -2.52369 -0.160838
0.998107 -2.41337 -0.149035
1.31558 -2.07311 -0.158881
0.678981 1.01288 -0.0181974
-1.87406 0.474593 0.383486
-0.852692 -2.79328 0.0219218
1.80507 -1.05408 -0.00373317
-1.84498 -1.99033 0.939983
-1.42358 -2.53916 0.136911
-2.23982 -1.42944 0.384007
1.80667 -0.6953 -0.0178138
-1.21674 -2.65392 0.108767
-0.543281 -2.85635 0.068016
-1.97659 -0.287753 1.46477
-1.56757 -2.3521 0.686633
-0.32474 -2.87937 0.0679902
-0.305433 1.23867 0.321624
0.376975 -2.77414 0.0628325
0.848359 -2.53795 0.0566042
1.02705 -2.43551 0.0681864
1.43782 -1.99144 0.0418306
0.226579 -2.79509 -0.234661
1.84596 -1.05232 0.116292
1.78714 -0.418149 0.024694
1.63532 -0.204831 -0.385466
1.66099 0.013507 0.0542439
1.54595 -1.88018 0.208628
1.60761 0.151639 0.109254
1.51533 0.258476 0.0579467
1.22003 0.657427 0.0626974
0.710056 -2.58435 -0.125836
0.983583 0.843283 0.0595559
1.68974 -0.436249 -0.389291
-0.492576 1.25609 0.147396
-0.510672 1.24516 0.137197
-0.93967 1.1468 0.15842
-1.84305 -2.18073 0.311307
-2.26371 -1.29513 0.492163
1.77925 -0.665543 -0.16978
1.84264 -0.898626 0.100382
-1.2211 -2.63635 0.277457
-0.992178 -2.73605 0.277889
-1.81005 0.386355 0.938067
-2.03499 -1.73408 0.713933
-1.72213 0.294862 1.37763
-0.834444 -2.78984 0.301323
1.39026 0.397788 -0.15977
-0.549703 -2.85204 0.277397
-0.325882 -2.87941 0.276966
0.365778 -2.80398 0.270678
0.421559 -2.78391 0.260501
0.878412 -2.55468 0.239033
-0.339836 1.24341 0.115624
0.576577 1.08437 0.0678617
0.562268 1.13543 0.878374
-0.321576 -2.88171 0.706445
0.352429 1.16895 0.0653907
-0.145122 1.25286 0.0678229
0.788602 -2.62203 0.290127
1.17037 -2.37499 0.294132
-2.00936 -1.90579 0.46861
1.80252 -0.885405 -0.0179346
1.89056 -1.04991 0.303063
0.578736 -2.67853 0.0664691
-1.30964 -2.56031 0.49809
1.80742 -0.114636 0.407961
1.90751 -0.890275 0.284958
-1.19875 -2.6259 0.481494
-0.998698 -2.71435 0.486498
-0.689711 -2.81432 0.477076
1.30123 -2.2958 0.479636
1.83524 -0.653983 0.086356
1.54553 -2.04574 0.464204
-1.87383 -2.00851 0.736877
-1.45287 -2.5043 0.279793
1.61765 -1.95666 0.452494
-2.30099 -1.10778 0.523693
1.75873 -0.886678 -0.176347
1.9058 -1.04204 0.426525
1.50233 -2.01318 0.271202
1.88329 -0.653874 0.283888
0.802497 0.931334 -0.16984
1.77704 -0.179982 0.256261
1.07415 -2.28763 -0.402541
-2.06078 -1.79062 0.502505
0.966354 -2.39132 -0.383981
-1.99816 -1.88048 0.565641
-1.4551 -2.46962 0.488454
-1.92649 -2.01456 0.509581
-1.82319 -2.16075 0.489189
-1.6981 -2.27109 0.51958
-0.767773 1.13152 0.725507
-0.152 -2.88116 0.283285
-0.776114 1.15984 0.508311
1.59793 -1.90797 0.303441
-0.117654 -2.8752 0.497551
0.433459 -2.80986 0.487912
0.481032 -2.80232 0.551011
1.51103 -1.88284 0.0346388
1.19928 0.63552 -0.168663
1.63207 0.189162 0.297932
1.92963 -0.662893 0.426083
1.10759 -2.31621 -0.155756
0.803756 0.95605 0.0570613
1.86717 -0.437078 0.290347
-1.53722 0.547513 1.21749
1.25189 -2.23956 0.0691915
1.26335 0.734546 0.659744
-1.14455 1.03629 0.490094
1.55231 0.297438 0.268145
1.20969 -2.20853 -0.143428
1.05537 0.726075 -0.335296
-1.43402 0.888645 0.333633
1.8303 -0.479517 0.110822
-2.02165 -1.93992 0.337187
-2.2939 -0.682814 0.527073
1.43494 0.448386 0.290553
1.58142 -0.161815 -0.537851
1.34898 0.549329 0.267008
1.06442 0.743867 -0.172941
-1.79386 -2.13156 0.714453
-2.28459 -0.42586 0.522617
-2.24304 -1.24782 0.649182
-0.813032 -2.77744 0.70509
1.37178 -1.90031 -0.506871
-0.696149 -2.8165 0.706078
-0.551386 -2.8542 0.708024
-0.0955675 -2.8867 0.707925
1.13316 0.794696 0.516514
1.85199 -0.208525 0.450867
1.41247 0.417738 0.0536755
1.58621 -0.11622 -0.495242
1.5871 0.0939183 -0.0202026
1.35116 0.566531 0.410106
1.40165 0.606048 0.628612
1.24026 0.683914 0.282029
-0.160868 1.25202 0.253004
-0.315005 1.25675 0.255326
-0.565527 1.23587 0.307937
-1.29103 -2.51989 0.988039
0.596766 -2.75507 0.503734
-0.771005 1.19781 0.285575
1.18534 -2.17069 -0.368495
1.59417 0.356528 0.580796
-1.41261 0.8651 0.502842
-2.14109 0.0138637 0.480271
-2.30951 -0.90787 0.529551
-1.67469 -2.23927 0.752958
-0.995114 1.11081 0.285112
-1.54305 -2.33939 0.82625
-0.0896238 -2.90117 0.854837
-1.57003 0.612472 1.11401
0.0350625 -2.91244 0.857523
1.7503 0.0212762 0.466089
-1.97413 0.336494 0.39583
-0.733933 -2.81822 0.267086
-2.09385 -1.563 0.742273
0.723435 1.03788 0.315442
0.559983 1.07338 -0.145083
-0.331372 -2.89832 0.896063
0.353434 1.1692 0.284429
-0.55851 1.1591 1.12729
0.145027 1.21439 0.275382
-2.03407 -1.321 1.37994
0.452817 -2.79305 0.68731
-1.52319 0.540125 1.31765
-1.64614 -2.21223 0.955919
-2.25952 -0.904579 0.723065
-0.281717 1.22119 1.00289
-2.25515 -1.09783 0.709326
1.73448 -0.213499 0.0596229
1.01878 0.870039 0.283296
0.949893 -2.59666 0.547937
-1.96455 -1.5631 1.36737
-0.093792 1.23895 0.285773
0.0370255 1.25535 0.672626
-2.15036 -1.56061 0.519175
-0.743558 -2.82206 0.0724659
-1.55139 0.785903 0.363128
0.125558 0.911979 0.316659
-1.7213 -2.0551 1.17214
0.565918 -2.62071 -0.349829
-1.35286 0.802437 1.10262
-0.769018 1.08596 1.14556
-1.76749 0.551283 0.557425
1.12089 -2.34096 0.00277609
-1.83367 0.418816 0.712086
-2.01212 -1.73181 0.879773
-2.17384 -0.661368 0.967008
-1.19453 0.884691 1.17936
-0.826641 -2.77644 0.931146
-0.563178 -2.86402 0.928445
-2.18471 -1.55064 0.387005
1.64077 0.236044 0.488006
-0.282173 1.25733 0.0920474
-2.25167 -0.458005 0.672575
-1.37758 0.833915 0.720702
-1.68926 0.485512 0.975583
1.34348 -2.08453 -0.0063981
-1.52375 0.777245 0.530381
-1.09083 1.01423 0.775156
0.823681 0.975601 0.272424
0.579879 -2.77044 0.679156
-1.74787 -2.09591 0.985289
0.741114 -2.59955 0.0802295
-0.774313 1.11965 0.962346
-0.186755 -2.8835 0.0849657
-0.907789 1.03693 1.15175
-2.25454 -0.256799 0.496393
-1.94095 -2.05848 0.319907
-1.43512 -2.44155 0.726289
-1.25133 0.977593 0.513092
0.738969 -2.72269 0.685392
-1.66504 0.683763 0.505234
-2.21177 -0.393504 0.767714
-2.08217 -0.898288 1.40293
-2.21968 -0.678598 0.796095
-1.20581 0.900927 0.953558
-0.861776 -2.77617 1.09434
1.33277 0.531525 0.0423886
1.48911 0.465403 0.505281
1.3929 0.598276 0.547827
0.695744 1.03105 0.0949649
-1.97401 0.302312 0.518535
1.2866 -2.27562 0.281485
-2.0233 0.100469 0.771202
-1.59207 -2.375 0.491959
-2.10218 -0.426551 1.15784
1.11976 0.785668 0.251576
0.360366 1.19531 0.724294
-0.326571 -2.87255 0.486493
-1.99943 -1.64521 1.02363
-1.95556 -1.7972 0.966021
-1.15496 -2.60974 1.10521
-1.34451 -2.57733 0.208282
-1.7194 -2.30035 0.291737
-1.02348 -2.6814 1.10393
1.44998 0.564593 0.639964
-1.61341 -2.39153 0.269249
-2.16983 -0.43136 0.94024
-0.978272 1.07004 0.733407
-1.39954 -2.40768 1.17043
-1.27965 0.998393 0.322001
0.576214 -2.72606 0.267876
-1.26828 -2.5204 1.15614
-1.47353 0.726715 0.970825
1.02852 0.894137 0.511459
-1.77897 -2.11355 0.814916
0.583308 -2.64161 -0.163111
1.43159 -2.18238 0.477599
-1.17048 -2.61236 0.723368
1.14585 0.806922 0.523477
-0.709628 -2.82088 0.934871
-1.96978 0.123115 0.644848
-2.13642 -0.284847 0.938353
-1.61866 -2.17585 1.16897
-0.103907 1.24134 0.754586
-2.18643 -0.266332 0.733102
0.579356 1.11894 0.508456
0.354081 1.17763 0.49821
-1.79493 0.353626 1.11508
-1.75941 0.293548 1.25501
1.16434 0.815844 0.67732
-0.952591 1.05507 0.935072
-0.0760745 1.24029 0.505018
-0.122008 1.25459 0.578007
-0.258658 1.25536 0.55665
-1.48338 0.757102 0.737424
0.116681 1.22197 0.495212
-0.58484 1.21437 0.512417
-1.92119 0.281616 0.732318
-1.98666 -1.60868 1.19675
-2.11762 -1.11351 1.18213
-2.06523 -1.33818 1.17461
-1.78467 0.632348 0.376059
-2.04022 -1.46414 1.31505
0.124191 1.21918 0.93068
1.16074 -2.14294 -0.528858
-1.63019 -2.14867 1.33181
-1.71341 -2.0113 1.33103
1.18573 -2.39067 0.484644
-2.22321 -0.87529 0.82578
-1.50959 -2.29294 1.18852
1.83812 -0.273711 0.316218
-2.25644 -0.650479 0.687674
-2.09874 -1.78743 0.360942
0.374972 1.18308 0.898728
-0.263712 1.25522 0.657282
1.05214 -2.51576 0.521012
-1.85857 -1.77514 1.36302
-0.0468614 0.789352 0.276194
1.02483 -2.47002 0.29064
-1.90104 -1.79738 1.20068
0.801963 -2.67086 0.518294
-1.65331 0.723377 0.352017
1.82538 -0.0926591 0.503873
1.01314 0.913377 0.689654
-1.29221 0.783006 1.24652
-2.20152 -0.907713 0.960156
-1.63115 0.651672 0.724841
-2.06039 -1.11239 1.38295
-0.808293 -2.78094 0.492249
-1.21338 0.944457 0.731988
1.08678 0.760169 0.0346905
-1.27353 -2.54873 0.740873
-2.04421 -0.446767 1.37754
-1.72718 0.514288 0.763965
-1.35992 0.817486 0.963555
-2.0011 -1.40801 1.43943
-0.0873717 1.25486 0.684164
0.868189 1.00077 0.707494
1.14242 -2.35428 0.0657677
-1.3056 0.751785 1.36159
-2.14752 -0.897681 1.18415
-1.5896 0.621435 0.93278
0.754168 1.05565 0.526378
-2.05257 -1.54941 0.96158
-1.88976 0.259689 0.954144
-1.44453 0.681222 1.18025
-2.07741 -0.285345 1.16904
-1.96676 0.120549 0.862305
-1.01157 -2.69169 0.718975
-2.12524 -1.33028 0.951651
-1.86445 0.452332 0.510437
-0.999082 1.08315 0.50688
-1.15827 0.871435 1.31072
-2.12684 -0.638659 1.17811
0.757743 1.06022 0.728742
-1.81953 0.274637 1.17017
0.862385 0.996584 0.493538
-1.04705 0.983276 0.979727
-2.09238 -0.657873 1.39807
-0.0838916 1.22589 0.965723
1.28368 -1.98626 -0.530494
-2.02005 0.160695 0.705303
1.62789 -0.0111038 -0.147477
-1.63848 0.439237 1.37637
-1.0148 0.984296 1.19313
-1.9868 -0.377097 1.48295
-1.81884 -1.94562 1.14686
-2.20325 -0.181306 0.509199
0.575898 1.133 0.738479
0.10111 1.2381 0.700658
1.37386 0.363095 -0.318716
-0.574151 1.1818 0.738049
-1.44374 0.652583 1.35194
-2.21859 -1.16435 0.790988
-0.772147 1.21274 0.141197
-1.6789 0.44675 1.1861
-0.144574 1.24051 1.08033
0.150218 1.21374 0.0645728
-0.547775 1.18155 0.961058
-1.41777 -2.41436 0.972743
-2.01865 -0.290735 1.34385
-2.18294 -1.34856 0.730795
-0.0723217 1.24019 0.0927475
-2.0528 0.20319 0.490046
1.29294 -2.03218 -0.378899
-2.18465 -1.10901 0.963601
-0.543836 -2.84433 0.487146
1.89141 -0.411909 0.446612
-1.51969 -2.32279 0.978308
-1.97709 -1.84366 0.740357
1.40944 -2.16206 0.308004
-1.17729 -2.60295 0.957041
-0.327872 1.21656 1.10757
-0.996517 -2.70596 0.940063
-0.345749 1.24313 0.524225
-1.0982 0.925634 1.29853
