ply
format ascii 1.0
comment Created by Open3D
element vertex 984
property double x
property double y
property double z
property uchar red
property uchar green
property uchar blue
end_header
0.553786 -0.506275 -0.383751 0 128 0
0.695644 -0.498431 -0.345408 0 128 0
0.000445277 -2.04655 -0.298251 0 128 0
0.784521 -0.51992 -0.0998111 0 128 0
0.02146 -2.05182 -0.172673 0 128 0
0.134497 -2.11733 -0.105539 0 128 0
-0.12362 -2.09279 -0.0376945 0 128 0
0.0178646 -2.04638 0.0467915 0 128 0
0.154823 -2.11229 0.0512833 0 128 0
-0.141427 -2.07451 -0.17743 0 128 0
0.186781 -2.14355 0.0980017 0 128 0
0.889569 -0.554416 0.086833 0 128 0
-0.0674307 -2.16028 0.304787 0 128 0
0.179633 -2.08855 0.271484 0 128 0
0.101563 -2.13914 0.919508 0 128 0
0.649648 -0.567019 0.168407 0 128 0
0.0546089 -2.08136 0.491635 0 128 0
0.366857 -2.10898 0.951551 0 128 0
0.20448 -2.07358 0.49696 0 128 0
0.723851 -0.524162 0.0822837 0 128 0
0.0575226 -2.13841 0.767565 0 128 0
-0.147718 -2.17004 0.0206692 0 128 0
0.333723 -2.12547 0.686084 0 128 0
0.612629 -0.641648 0.138167 0 128 0
0.0819224 -2.09022 0.693587 0 128 0
0.235396 -2.06304 0.739126 0 128 0
0.883226 -0.536167 0.184991 0 128 0
0.693039 -0.54387 0.200405 0 128 0
0.378593 -2.14147 0.892628 0 128 0
0.990856 -0.558701 0.508292 0 128 0
0.115091 -2.0989 0.840322 0 128 0
0.781136 -0.518863 0.825345 0 128 0
0.138062 -2.13699 0.98144 0 128 0
-0.0254936 -2.13285 0.403754 0 128 0
0.765614 -0.747411 0.765893 0 128 0
0.754914 -0.530189 0.73022 0 128 0
0.530739 -0.537975 -0.264547 0 128 0
0.881137 -0.526975 0.839026 0 128 0
0.23065 -2.06627 0.933573 0 128 0
0.041845 -2.05709 0.269129 0 128 0
-0.205077 -2.14759 -0.209765 0 128 0
0.37148 -2.18754 0.796889 0 128 0
0.914132 -0.514034 0.710709 0 128 0
0.56713 -0.746086 -0.0624016 0 128 0
0.590642 -0.579753 -0.0634342 0 128 0
0.726774 -0.49908 -0.0751328 0 128 0
0.714555 -0.510537 -0.0732668 0 128 0
-0.107368 -2.14251 0.0713677 0 128 0
0.595789 -0.738101 0.0910369 0 128 0
0.755018 -0.498939 0.0814162 0 128 0
0.0236394 -2.10732 0.504181 0 128 0
0.936759 -0.553964 0.305382 0 128 0
0.616059 -0.594822 0.0517301 0 128 0
0.635986 -0.730292 0.290447 0 128 0
0.646066 -0.636086 0.313124 0 128 0
0.747038 -0.528459 0.326138 0 128 0
0.725899 -0.572054 0.478112 0 128 0
0.707808 -0.755507 0.494878 0 128 0
0.666478 -0.631512 0.444716 0 128 0
0.776902 -0.494929 0.311064 0 128 0
0.744856 -0.518149 0.0876432 0 128 0
0.247048 -2.08003 0.557335 0 128 0
-0.0326205 -2.04669 0.091153 0 128 0
-0.0902448 -2.17858 0.255303 0 128 0
0.67944 -0.747277 0.408092 0 128 0
-0.234845 0.791741 0.771437 0 128 0
-0.221498 0.780472 0.757531 0 128 0
-0.216017 0.79976 0.774164 0 128 0
-0.20765 0.808511 0.780388 0 128 0
-0.19972 0.819988 0.789391 0 128 0
0.0837789 0.80374 0.759019 0 128 0
0.0915282 0.786808 0.743778 0 128 0
0.100455 0.780491 0.738952 0 128 0
0.109925 0.778338 0.73829 0 128 0
0.120093 0.780328 0.741798 0 128 0
0.128366 0.771568 0.734892 0 128 0
0.133525 0.747899 0.713405 0 128 0
0.142562 0.74535 0.71275 0 128 0
0.15406 0.753931 0.723207 0 128 0
0.167434 0.769344 0.740611 0 128 0
0.178088 0.771971 0.745519 0 128 0
0.189377 0.776538 0.752512 0 128 0
0.218272 0.769969 0.754054 0 128 0
0.221694 0.747865 0.734656 0 128 0
0.238686 0.768867 0.759028 0 128 0
-0.236164 0.770581 0.717279 0 128 0
-0.227654 0.776818 0.720639 0 128 0
-0.220337 0.787942 0.728742 0 128 0
-0.210457 0.789722 0.728041 0 128 0
0.175305 0.788565 0.725145 0 128 0
0.18972 0.727167 0.673786 0 128 0
0.239199 0.793005 0.74511 0 128 0
-0.251292 0.790927 0.697762 0 128 0
-0.235451 0.771992 0.678058 0 128 0
-0.228851 0.785615 0.68787 0 128 0
-0.226405 0.816754 0.713423 0 128 0
-0.218643 0.828863 0.721925 0 128 0
0.184148 0.738775 0.644444 0 128 0
0.192417 0.733405 0.641866 0 128 0
0.205039 0.743147 0.653075 0 128 0
-0.261344 0.790073 0.666354 0 128 0
-0.240075 0.754722 0.633151 0 128 0
-0.231402 0.759683 0.635038 0 128 0
-0.222845 0.765288 0.637565 0 128 0
-0.227426 0.821466 0.683467 0 128 0
0.176234 0.741761 0.614439 0 128 0
0.18478 0.73716 0.61257 0 128 0
0.193443 0.733204 0.611341 0 128 0
-0.256236 0.755574 0.601852 0 128 0
-0.247811 0.761532 0.604285 0 128 0
-0.240144 0.770427 0.609184 0 128 0
-0.233957 0.785329 0.619011 0 128 0
-0.228631 0.804767 0.632534 0 128 0
0.17259 0.748739 0.584349 0 128 0
0.180415 0.741084 0.580079 0 128 0
0.187249 0.730313 0.573346 0 128 0
-0.260365 0.758409 0.575705 0 128 0
-0.251234 0.762165 0.576273 0 128 0
-0.243887 0.771959 0.58162 0 128 0
-0.243604 0.807136 0.606679 0 128 0
-0.235964 0.818429 0.613223 0 128 0
0.16267 0.759701 0.562263 0 128 0
0.169264 0.745796 0.553342 0 128 0
0.17845 0.743516 0.553388 0 128 0
-0.275819 0.769631 0.553807 0 128 0
-0.265811 0.77125 0.552625 0 128 0
-0.257476 0.77822 0.555467 0 128 0
-0.247401 0.779604 0.554289 0 128 0
-0.237769 0.782433 0.554261 0 128 0
-0.227262 0.781982 0.551936 0 128 0
-0.217803 0.785358 0.552487 0 128 0
-0.206382 0.780663 0.547292 0 128 0
-0.196921 0.783787 0.547847 0 128 0
-0.186725 0.783598 0.546104 0 128 0
-0.176562 0.783276 0.544362 0 128 0
-0.166431 0.782825 0.542623 0 128 0
-0.157191 0.787079 0.544334 0 128 0
-0.145881 0.77911 0.537427 0 128 0
-0.137734 0.790404 0.544312 0 128 0
-0.127298 0.787024 0.540857 0 128 0
0.16162 0.805631 0.561507 0 128 0
0.160365 0.75481 0.526466 0 128 0
0.170631 0.756613 0.529385 0 128 0
0.180764 0.757486 0.531732 0 128 0
-0.285547 0.774218 0.530973 0 128 0
-0.274114 0.772002 0.52705 0 128 0
-0.264825 0.775952 0.527573 0 128 0
-0.257944 0.787733 0.533651 0 128 0
-0.251523 0.801851 0.541398 0 128 0
-0.23571 0.783931 0.52693 0 128 0
-0.228631 0.79625 0.533568 0 128 0
-0.218585 0.798044 0.532989 0 128 0
-0.20833 0.798904 0.531857 0 128 0
-0.195827 0.789911 0.524062 0 128 0
-0.187315 0.797795 0.527931 0 128 0
-0.175104 0.788483 0.520141 0 128 0
-0.165204 0.78961 0.519571 0 128 0
-0.154262 0.784884 0.515116 0 128 0
-0.144427 0.785751 0.51455 0 128 0
-0.134078 0.783209 0.511765 0 128 0
-0.114277 0.782672 0.509531 0 128 0
-0.103428 0.773958 0.502865 0 128 0
-0.093425 0.770887 0.500087 0 128 0
-0.0846076 0.779282 0.505083 0 128 0
-0.0741636 0.770168 0.498421 0 128 0
-0.0648838 0.774193 0.500645 0 128 0
-0.055419 0.776445 0.50176 0 128 0
-0.0458691 0.777751 0.502321 0 128 0
-0.036322 0.779772 0.503439 0 128 0
-0.0266594 0.77835 0.502339 0 128 0
-0.0170195 0.775145 0.50013 0 128 0
-0.00745258 0.774318 0.499588 0 128 0
0.00210592 0.774205 0.499602 0 128 0
0.011888 0.782289 0.505171 0 128 0
0.0223261 0.801882 0.518515 0 128 0
0.156324 0.818004 0.540586 0 128 0
0.152396 0.750008 0.495618 0 128 0
0.16402 0.758478 0.502884 0 128 0
0.172023 0.750602 0.499038 0 128 0
-0.292551 0.775133 0.50166 0 128 0
-0.279169 0.767289 0.494171 0 128 0
-0.276464 0.791448 0.507978 0 128 0
-0.266676 0.794635 0.507945 0 128 0
-0.260955 0.811495 0.516963 0 128 0
-0.0236398 0.824867 0.501854 0 128 0
-0.0135487 0.791081 0.480584 0 128 0
-0.00378074 0.791042 0.480598 0 128 0
0.00591767 0.788343 0.479018 0 128 0
0.0155516 0.785528 0.477438 0 128 0
0.025163 0.783441 0.476393 0 128 0
0.034245 0.773633 0.470559 0 128 0
0.0417516 0.745994 0.453551 0 128 0
0.0529699 0.768052 0.467944 0 128 0
0.0627903 0.770567 0.470098 0 128 0
0.0717347 0.764545 0.466932 0 128 0
0.0819073 0.769343 0.470686 0 128 0
0.0915182 0.768972 0.471248 0 128 0
0.101008 0.767646 0.47128 0 128 0
0.111295 0.771216 0.474509 0 128 0
0.123869 0.787158 0.485726 0 128 0
0.141937 0.776949 0.481543 0 128 0
0.146067 0.749338 0.465074 0 128 0
0.155685 0.748995 0.466182 0 128 0
-0.297798 0.78052 0.47953 0 128 0
-0.287286 0.781537 0.477957 0 128 0
-0.280898 0.794625 0.484071 0 128 0
-0.271859 0.800318 0.485575 0 128 0
-0.265258 0.814113 0.492203 0 128 0
0.0815872 0.787671 0.456866 0 128 0
0.0902328 0.777945 0.451773 0 128 0
0.0994827 0.774083 0.450268 0 128 0
0.108268 0.767564 0.447227 0 128 0
0.116496 0.758406 0.442649 0 128 0
0.124219 0.747471 0.437049 0 128 0
0.135521 0.756715 0.443749 0 128 0
0.143336 0.747274 0.439175 0 128 0
0.155439 0.758747 0.447418 0 128 0
-0.315837 0.798477 0.463055 0 128 0
-0.298047 0.77996 0.449817 0 128 0
-0.291499 0.792491 0.455157 0 128 0
-0.281142 0.794205 0.454144 0 128 0
-0.276301 0.813257 0.463398 0 128 0
0.128143 0.772646 0.424444 0 128 0
0.134836 0.756318 0.41617 0 128 0
0.141152 0.739946 0.407895 0 128 0
-0.304461 0.772113 0.422217 0 128 0
-0.290382 0.763185 0.415154 0 128 0
-0.292548 0.799922 0.433851 0 128 0
-0.282643 0.803306 0.433816 0 128 0
-0.27729 0.82087 0.441743 0 128 0
0.124987 0.74407 0.385708 0 128 0
0.131205 0.726714 0.377314 0 128 0
-0.31143 0.778238 0.399121 0 128 0
-0.306034 0.793654 0.405307 0 128 0
-0.296492 0.798052 0.405714 0 128 0
-0.291698 0.816783 0.41368 0 128 0
0.113611 0.758845 0.367064 0 128 0
0.124105 0.763421 0.370213 0 128 0
0.130154 0.744106 0.361356 0 128 0
-0.318018 0.780206 0.3772 0 128 0
-0.307387 0.781361 0.375889 0 128 0
-0.300468 0.792598 0.379662 0 128 0
-0.298079 0.817474 0.390209 0 128 0
-0.297132 0.848424 0.403719 0 128 0
0.107849 0.750437 0.340707 0 128 0
0.115048 0.736403 0.334814 0 128 0
0.1256 0.742818 0.33866 0 128 0
-0.328505 0.786418 0.355281 0 128 0
-0.314861 0.779953 0.35045 0 128 0
-0.312395 0.803431 0.359591 0 128 0
-0.305763 0.816578 0.363943 0 128 0
-0.304996 0.847934 0.376678 0 128 0
0.104438 0.775515 0.327598 0 128 0
0.107925 0.736939 0.311264 0 128 0
0.11625 0.730903 0.309302 0 128 0
-0.32693 0.776356 0.328025 0 128 0
-0.316046 0.806405 0.337758 0 128 0
-0.309182 0.818791 0.341493 0 128 0
0.09747 0.737785 0.290502 0 128 0
0.106182 0.733645 0.289403 0 128 0
0.112355 0.714793 0.282264 0 128 0
-0.342592 0.786914 0.309262 0 128 0
-0.329383 0.782214 0.305686 0 128 0
-0.325331 0.800916 0.311648 0 128 0
-0.320547 0.818757 0.317257 0 128 0
-0.314439 0.833953 0.321807 0 128 0
0.0905441 0.759319 0.27619 0 128 0
0.0966265 0.735801 0.267748 0 128 0
0.106194 0.737188 0.26884 0 128 0
-0.340723 0.783494 0.285595 0 128 0
-0.322912 0.795731 0.287164 0 128 0
-0.309727 0.790652 0.283812 0 128 0
-0.295754 0.782708 0.279469 0 128 0
-0.286032 0.786135 0.279432 0 128 0
-0.277757 0.79392 0.281054 0 128 0
-0.261591 0.777348 0.273739 0 128 0
-0.25166 0.779454 0.273377 0 128 0
-0.243568 0.787776 0.275334 0 128 0
-0.239875 0.812377 0.28325 0 128 0
-0.209534 0.820222 0.283178 0 128 0
0.0910024 0.754589 0.254573 0 128 0
0.100624 0.755141 0.255267 0 128 0
0.112315 0.768623 0.260599 0 128 0
-0.362939 0.802366 0.270155 0 128 0
-0.339077 0.801016 0.266688 0 128 0
-0.331853 0.812082 0.269098 0 128 0
-0.310393 0.84943 0.277869 0 128 0
-0.288854 0.819574 0.266489 0 128 0
-0.27095 0.798403 0.258178 0 128 0
-0.265985 0.817929 0.263663 0 128 0
-0.250024 0.800868 0.256891 0 128 0
-0.240079 0.803733 0.256863 0 128 0
-0.220921 0.771487 0.245194 0 128 0
-0.210646 0.771227 0.244252 0 128 0
-0.193324 0.784239 0.246968 0 128 0
-0.160388 0.770737 0.240488 0 128 0
-0.15033 0.76969 0.239557 0 128 0
-0.140773 0.771335 0.239546 0 128 0
-0.131055 0.77192 0.239231 0 128 0
-0.121471 0.773328 0.239223 0 128 0
-0.10955 0.755721 0.233093 0 128 0
0.0797649 0.762308 0.235176 0 128 0
0.0874315 0.747924 0.230914 0 128 0
0.096011 0.741944 0.229412 0 128 0
-0.352098 0.783911 0.241548 0 128 0
-0.341838 0.815163 0.248848 0 128 0
-0.332747 0.821837 0.249658 0 128 0
-0.154016 0.808104 0.231054 0 128 0
-0.13966 0.783292 0.223099 0 128 0
-0.127789 0.770582 0.218834 0 128 0
-0.118743 0.77575 0.219962 0 128 0
-0.109707 0.781764 0.221376 0 128 0
0.0818635 0.753379 0.213119 0 128 0
0.0904549 0.746473 0.211443 0 128 0
-0.365265 0.80348 0.224796 0 128 0
-0.345292 0.783673 0.217734 0 128 0
-0.347382 0.817296 0.226261 0 128 0
0.0217017 0.769272 0.195496 0 128 0
0.0314219 0.771699 0.196293 0 128 0
0.0417594 0.78171 0.199169 0 128 0
0.0514581 0.780998 0.199192 0 128 0
0.059016 0.758055 0.19325 0 128 0
0.0672756 0.746572 0.190422 0 128 0
0.0771233 0.750343 0.191747 0 128 0
0.0864356 0.749199 0.191776 0 128 0
-0.353118 0.814607 0.204346 0 128 0
0.0357805 0.763646 0.17531 0 128 0
0.0446417 0.754286 0.173204 0 128 0
0.055947 0.776779 0.178905 0 128 0
0.0637352 0.756549 0.174198 0 128 0
0.0731279 0.755569 0.174225 0 128 0
0.0822752 0.752544 0.173781 0 128 0
-0.356399 0.806843 0.179872 0 128 0
-0.362418 0.882486 0.195473 0 128 0
0.0585636 0.763146 0.155566 0 128 0
0.0668919 0.751541 0.153262 0 128 0
0.0769245 0.756345 0.154561 0 128 0
-0.361356 0.779497 0.154578 0 128 0
-0.361088 0.834096 0.164145 0 128 0
-0.364594 0.872955 0.171294 0 128 0
0.0560904 0.774111 0.139391 0 128 0
0.0632591 0.74781 0.134502 0 128 0
0.0724456 0.745861 0.13434 0 128 0
0.0487499 0.77002 0.118738 0 128 0
0.0558251 0.742706 0.114331 0 128 0
0.0651634 0.742806 0.114521 0 128 0
-0.299761 0.581045 0.0832702 0 128 0
0.0455738 0.759357 0.0990072 0 128 0
0.0519415 0.722099 0.0938146 0 128 0
0.0623538 0.73605 0.0959532 0 128 0
0.0390289 0.778911 0.0823081 0 128 0
0.0447955 0.729723 0.0766363 0 128 0
0.0534172 0.724035 0.0760779 0 128 0
0.0355856 0.745348 0.0610263 0 128 0
0.0537957 0.740002 0.0607 0 128 0
0.0290973 0.780922 0.0450437 0 128 0
0.0329893 0.694765 0.0392116 0 128 0
0.04157 0.693174 0.0391639 0 128 0
-0.396763 0.779131 0.0315628 0 128 0
-0.389601 0.789219 0.0317812 0 128 0
-0.409971 0.919163 0.0373713 0 128 0
-0.400821 0.929521 0.0375885 0 128 0
0.02587 0.735331 0.0249853 0 128 0
-0.432921 0.80512 0.0113324 0 128 0
-0.397603 0.783678 0.010492 0 128 0
-0.390344 0.793799 0.0105615 0 128 0
-0.342077 0.791055 0.00991406 0 128 0
-0.337316 0.808083 0.0101544 0 128 0
-0.331833 0.824179 0.0103748 0 128 0
0.0189015 0.778004 0.00792519 0 128 0
0.0465134 0.758422 0.00762898 0 128 0
-0.386049 0.893436 -0.0102707 0 128 0
-0.339162 0.808872 -0.0100117 0 128 0
-0.320763 0.791385 -0.00997986 0 128 0
-0.312279 0.798871 -0.0100335 0 128 0
-0.292506 0.77521 -0.00997481 0 128 0
-0.282499 0.777658 -0.010007 0 128 0
-0.273732 0.783775 -0.0100512 0 128 0
-0.250046 0.776585 -0.0100645 0 128 0
-0.247342 0.803459 -0.0101816 0 128 0
-0.24803 0.844835 -0.0103522 0 128 0
0.0162589 0.721452 -0.00986678 0 128 0
-0.427285 0.793252 -0.0311632 0 128 0
-0.410264 0.783968 -0.0307858 0 128 0
-0.417353 0.823942 -0.0319087 0 128 0
-0.410859 0.837019 -0.0322122 0 128 0
-0.269527 0.807656 -0.0305078 0 128 0
-0.251198 0.782974 -0.0297277 0 128 0
-0.242784 0.790668 -0.0298959 0 128 0
-0.232914 0.79345 -0.0299225 0 128 0
-0.222513 0.794174 -0.0298912 0 128 0
-0.208334 0.779227 -0.0294086 0 128 0
-0.201533 0.794248 -0.0297948 0 128 0
-0.187999 0.77992 -0.0293357 0 128 0
-0.177058 0.776155 -0.0291839 0 128 0
-0.166613 0.774206 -0.0290864 0 128 0
0.00855463 0.759181 -0.0282181 0 128 0
0.0362606 0.74796 -0.027881 0 128 0
-0.424916 0.784844 -0.0514669 0 128 0
-0.4151 0.789861 -0.0515258 0 128 0
-0.420608 0.826144 -0.0533627 0 128 0
-0.414999 0.841029 -0.0539801 0 128 0
-0.194582 0.804546 -0.049159 0 128 0
-0.177873 0.775481 -0.0475228 0 128 0
-0.167405 0.773551 -0.0473314 0 128 0
-0.15959 0.785225 -0.0478623 0 128 0
-0.148584 0.7801 -0.0475121 0 128 0
-0.139168 0.783698 -0.0476258 0 128 0
-0.128796 0.781259 -0.0474272 0 128 0
-0.118774 0.780665 -0.0473303 0 128 0
-0.109527 0.78589 -0.0475423 0 128 0
-0.0976031 0.768181 -0.0465616 0 128 0
-0.0920909 0.809925 -0.0486862 0 128 0
0.00764604 0.746757 -0.045139 0 128 0
-0.444428 0.802079 -0.0747832 0 128 0
-0.433487 0.805558 -0.0746945 0 128 0
-0.422082 0.808 -0.0745284 0 128 0
-0.424936 0.839944 -0.0768499 0 128 0
-0.423697 0.864845 -0.078569 0 128 0
-0.117596 0.780354 -0.0664088 0 128 0
-0.107276 0.776649 -0.0660318 0 128 0
-0.0970638 0.772811 -0.065653 0 128 0
-0.0866863 0.765864 -0.0650435 0 128 0
-0.0772049 0.767726 -0.0651193 0 128 0
-0.0675553 0.767483 -0.0650408 0 128 0
-0.0580858 0.770108 -0.0651895 0 128 0
-0.0481353 0.762657 -0.0645733 0 128 0
-0.0390104 0.776008 -0.0655581 0 128 0
-0.0293289 0.776291 -0.065549 0 128 0
-0.0197483 0.794403 -0.0669114 0 128 0
-4.89188e-05 0.788391 -0.0664265 0 128 0
0.00702413 0.699496 -0.0596258 0 128 0
0.015719 0.698224 -0.0595337 0 128 0
0.0286002 0.772507 -0.0652299 0 128 0
0.0390458 0.783898 -0.0661228 0 128 0
-0.447515 0.803118 -0.0964011 0 128 0
-0.431943 0.797823 -0.0952764 0 128 0
-0.430045 0.81891 -0.0971182 0 128 0
-0.429004 0.842749 -0.0992575 0 128 0
-0.432139 0.876572 -0.102488 0 128 0
-0.0499581 0.780165 -0.0842304 0 128 0
-0.0404497 0.786548 -0.0848229 0 128 0
-0.0301707 0.768944 -0.0830148 0 128 0
-0.0199482 0.723354 -0.078407 0 128 0
-0.0109693 0.765197 -0.0825923 0 128 0
-0.0014413 0.763147 -0.0823787 0 128 0
0.00755161 0.740091 -0.0800658 0 128 0
0.0157322 0.709975 -0.077053 0 128 0
0.0272627 0.765248 -0.0826266 0 128 0
0.0368101 0.764718 -0.082606 0 128 0
0.0485803 0.794836 -0.0856772 0 128 0
0.0619388 0.834693 -0.0897423 0 128 0
-0.471837 0.828648 -0.122802 0 128 0
-0.4388 0.791219 -0.116832 0 128 0
-0.435669 0.809661 -0.118742 0 128 0
-0.432148 0.828144 -0.120652 0 128 0
-0.429096 0.848454 -0.122809 0 128 0
-0.00035845 0.761823 -0.100753 0 128 0
0.00915233 0.761633 -0.100738 0 128 0
0.0191794 0.773223 -0.10221 0 128 0
0.0287179 0.770812 -0.101943 0 128 0
0.0422602 0.827682 -0.109118 0 128 0
0.0516196 0.815096 -0.107605 0 128 0
-0.468494 0.816049 -0.143403 0 128 0
-0.444681 0.796339 -0.139216 0 128 0
-0.441118 0.813874 -0.141332 0 128 0
-0.434505 0.826148 -0.142568 0 128 0
-0.432456 0.848148 -0.145418 0 128 0
-0.0112928 0.753776 -0.117591 0 128 0
-0.490543 0.838774 -0.172068 0 128 0
-0.457028 0.802154 -0.163753 0 128 0
-0.453402 0.819772 -0.166213 0 128 0
-0.449409 0.837421 -0.168674 0 128 0
-0.44461 0.854214 -0.170963 0 128 0
-0.0190176 0.804709 -0.145339 0 128 0
-0.00921618 0.772239 -0.139644 0 128 0
0.000449455 0.773143 -0.139802 0 128 0
-1.48762 0.865719 -0.334155 0 128 0
-0.497567 0.842644 -0.196845 0 128 0
-0.460841 0.801374 -0.186214 0 128 0
-0.4494 0.804243 -0.185695 0 128 0
-0.448411 0.826945 -0.189652 0 128 0
-0.442933 0.84187 -0.191857 0 128 0
-0.0209016 0.761195 -0.156168 0 128 0
-0.0113644 0.749491 -0.153808 0 128 0
-0.00191344 0.757283 -0.15536 0 128 0
-0.510737 0.850603 -0.223916 0 128 0
-0.472034 0.806382 -0.211119 0 128 0
-0.0283747 0.798976 -0.183527 0 128 0
-0.0182349 0.760102 -0.174746 0 128 0
-0.00873084 0.760133 -0.174733 0 128 0
-0.464437 0.805993 -0.233633 0 128 0
-0.464929 0.831133 -0.239264 0 128 0
-0.45586 0.839219 -0.240055 0 128 0
-0.0311282 0.769388 -0.196325 0 128 0
-0.0215199 0.770547 -0.196558 0 128 0
-0.0118985 0.776439 -0.198004 0 128 0
-0.474444 0.789018 -0.25443 0 128 0
-0.439659 0.821104 -0.257875 0 128 0
-0.440027 0.847915 -0.264577 0 128 0
-0.420246 0.833984 -0.258792 0 128 0
-0.429243 0.88093 -0.271605 0 128 0
-0.03612 0.753574 -0.211643 0 128 0
-0.0267172 0.755753 -0.212168 0 128 0
-0.0172749 0.761672 -0.213755 0 128 0
-0.410783 0.799693 -0.272624 0 128 0
-0.404467 0.812309 -0.275285 0 128 0
-0.392261 0.812736 -0.273892 0 128 0
-0.380498 0.813861 -0.272787 0 128 0
-0.364952 0.806043 -0.268782 0 128 0
-0.040706 0.758898 -0.233098 0 128 0
-0.0313372 0.76399 -0.234542 0 128 0
-0.0218032 0.766096 -0.235112 0 128 0
-0.0444457 0.755723 -0.25177 0 128 0
-0.0349554 0.755128 -0.251449 0 128 0
-0.0254721 0.753467 -0.250813 0 128 0
-0.303936 0.796145 -0.304364 0 128 0
-0.293946 0.79968 -0.304401 0 128 0
-0.0506999 0.755986 -0.272437 0 128 0
-0.0409191 0.74889 -0.269737 0 128 0
-0.0317488 0.756732 -0.272422 0 128 0
-1.64245 0.872401 -0.697872 0 128 0
-0.217081 0.791367 -0.316087 0 128 0
-0.204776 0.78385 -0.312158 0 128 0
-0.192074 0.773423 -0.307149 0 128 0
-0.184887 0.787457 -0.311837 0 128 0
-0.178293 0.806008 -0.31832 0 128 0
-0.166649 0.799744 -0.315102 0 128 0
-0.0523632 0.750845 -0.291072 0 128 0
-0.0429497 0.751297 -0.291066 0 128 0
-0.0336205 0.755366 -0.292495 0 128 0
-1.61957 0.854508 -0.738725 0 128 0
-0.186517 0.800141 -0.339908 0 128 0
-0.170363 0.772364 -0.327304 0 128 0
-0.161019 0.776078 -0.328083 0 128 0
-0.151281 0.777862 -0.328096 0 128 0
-0.141522 0.779527 -0.328106 0 128 0
-0.13104 0.776505 -0.326203 0 128 0
-0.122075 0.78341 -0.328506 0 128 0
-0.1139 0.797546 -0.333866 0 128 0
-0.102729 0.788655 -0.329662 0 128 0
-0.0927458 0.788804 -0.329282 0 128 0
-0.0610307 0.760852 -0.316654 0 128 0
-0.0507931 0.748494 -0.311294 0 128 0
-0.0413665 0.748004 -0.310906 0 128 0
-0.121319 0.779762 -0.349255 0 128 0
-0.109993 0.76835 -0.343594 0 128 0
-0.09867 0.754055 -0.336715 0 128 0
-0.0895561 0.758718 -0.338337 0 128 0
-0.0805697 0.766005 -0.34117 0 128 0
-0.0699165 0.75221 -0.334692 0 128 0
-0.0604233 0.751965 -0.334284 0 128 0
-0.0508172 0.748863 -0.33266 0 128 0
-0.072204 0.770949 -0.366143 0 128 0
-0.0612542 0.752707 -0.357155 0 128 0
-0.0527966 0.771319 -0.365706 0 128 0
-0.617542 1.19692 -0.756735 0 128 0
-2.43919 -1.64483 -1.66738 0 128 0
1.02126 0.467072 -0.959678 0 128 0
1.04805 0.463624 -0.979006 0 128 0
0.871277 0.56063 -0.986427 0 128 0
1.10876 -0.339336 -1.06986 0 128 0
1.52177 -0.023929 -0.559711 0 128 0
1.34908 0.290235 -0.504002 0 128 0
1.66729 -0.692686 -0.590164 0 128 0
1.63868 -0.489953 -0.588307 0 128 0
1.63606 -1.06974 -0.587663 0 128 0
1.65058 -0.940842 -0.587313 0 128 0
1.33726 -1.91465 -0.577551 0 128 0
0.935776 0.795052 -0.362656 0 128 0
0.843421 0.865188 -0.369268 0 128 0
1.09353 -2.20038 -0.542583 0 128 0
1.17533 0.589891 -0.405539 0 128 0
1.42788 0.200195 -0.433711 0 128 0
1.2887 0.43714 -0.424236 0 128 0
1.59676 -0.092264 -0.392359 0 128 0
1.53931 0.00978437 -0.436734 0 128 0
1.68961 -0.910432 -0.429866 0 128 0
1.71018 -0.696433 -0.420493 0 128 0
1.68786 -1.07251 -0.39319 0 128 0
-0.309535 1.23076 0.690303 0 128 0
0.329483 -2.74513 -0.333819 0 128 0
0.777101 -2.51388 -0.380834 0 128 0
1.36801 -1.96325 -0.366324 0 128 0
1.39012 -1.9082 -0.390317 0 128 0
0.954849 0.806728 -0.204956 0 128 0
0.661043 0.989293 -0.24722 0 128 0
0.176689 1.18912 -0.16053 0 128 0
1.38472 -1.98379 -0.178544 0 128 0
1.24946 0.678966 0.444777 0 128 0
1.56941 0.308837 0.400401 0 128 0
-1.17337 1.05502 0.234744 0 128 0
1.44404 -1.90999 -0.152397 0 128 0
0.577799 1.07833 0.229189 0 128 0
0.363505 1.13836 -0.184047 0 128 0
-1.02394 -2.75025 0.0775559 0 128 0
1.73962 -1.07146 -0.180625 0 128 0
1.59254 -0.298366 -0.566782 0 128 0
1.69441 -0.00952712 0.23326 0 128 0
1.91384 -0.918523 0.389804 0 128 0
0.635329 -2.58849 -0.366601 0 128 0
1.72438 -0.465691 -0.194936 0 128 0
1.67165 -0.241213 -0.205156 0 128 0
1.3027 0.483358 -0.229001 0 128 0
1.56152 0.0639728 -0.209189 0 128 0
1.47181 0.207907 -0.213936 0 128 0
-1.79059 0.603474 0.366062 0 128 0
-2.06331 -1.486 1.13213 0 128 0
-0.751095 -2.83291 -0.0752088 0 128 0
-0.570158 -2.86218 -0.0918372 0 128 0
-0.361393 -2.87831 -0.105522 0 128 0
-0.475069 1.2545 0.167325 0 128 0
0.233183 -2.81561 -0.0702968 0 128 0
-2.24137 -1.38249 0.495576 0 128 0
0.325821 -2.76647 -0.173491 0 128 0
0.785104 -2.54582 -0.168369 0 128 0
0.964576 -2.43701 -0.157886 0 128 0
1.28523 -2.09991 -0.17215 0 128 0
0.677301 0.993596 -0.0768094 0 128 0
-1.8812 0.484968 0.328756 0 128 0
-0.889924 -2.79715 0.0157486 0 128 0
1.784 -1.08336 -0.0309401 0 128 0
-1.87591 -1.97185 0.920684 0 128 0
-1.45857 -2.53609 0.126218 0 128 0
-2.26474 -1.41537 0.35611 0 128 0
1.78898 -0.724846 -0.0501762 0 128 0
-1.25277 -2.65316 0.100036 0 128 0
-0.581179 -2.86243 0.0632074 0 128 0
-1.99232 -0.260746 1.42074 0 128 0
-1.60155 -2.3398 0.672977 0 128 0
-0.362863 -2.88749 0.0638394 0 128 0
-0.305422 1.23342 0.258258 0 128 0
0.339812 -2.78889 0.0582181 0 128 0
0.813391 -2.55721 0.0492988 0 128 0
0.993014 -2.4563 0.0596739 0 128 0
1.40796 -2.0165 0.0275491 0 128 0
0.189632 -2.81271 -0.239168 0 128 0
1.82475 -1.08025 0.0891085 0 128 0
1.77198 -0.446942 -0.0116875 0 128 0
1.62272 -0.238143 -0.425099 0 128 0
1.64983 -0.013748 0.0114635 0 128 0
1.51689 -1.90386 0.192891 0 128 0
1.59767 0.125653 0.0644018 0 128 0
1.50646 0.232597 0.0114255 0 128 0
1.2149 0.634311 0.00999724 0 128 0
0.674907 -2.60495 -0.132662 0 128 0
0.980199 0.822299 0.00382995 0 128 0
1.67497 -0.47009 -0.425514 0 128 0
-0.492157 1.25007 0.0835178 0 128 0
-0.51034 1.23916 0.0734504 0 128 0
-0.940267 1.14512 0.0954434 0 128 0
-1.87491 -2.17129 0.294814 0 128 0
-2.28752 -1.27929 0.462287 0 128 0
1.76204 -0.697025 -0.202596 0 128 0
1.82288 -0.926777 0.0709845 0 128 0
-1.2572 -2.63313 0.26845 0 128 0
-1.02922 -2.73495 0.270658 0 128 0
-1.81878 0.404129 0.884643 0 128 0
-2.06322 -1.71712 0.690688 0 128 0
-1.73231 0.318156 1.32561 0 128 0
-0.872025 -2.78986 0.295099 0 128 0
1.38299 0.36992 -0.208459 0 128 0
-0.587845 -2.85505 0.272495 0 128 0
-0.364289 -2.88451 0.272793 0 128 0
0.328053 -2.81563 0.266454 0 128 0
0.384033 -2.79623 0.256073 0 128 0
0.843037 -2.5716 0.231994 0 128 0
-0.339498 1.23551 0.0521595 0 128 0
0.575452 1.06726 0.00805967 0 128 0
0.560518 1.13012 0.817732 0 128 0
-0.360589 -2.88067 0.702266 0 128 0
0.352108 1.15389 0.00403744 0 128 0
-0.14464 1.24246 0.00451897 0 128 0
0.752532 -2.63737 0.283917 0 128 0
1.13659 -2.39387 0.28494 0 128 0
-2.03886 -1.89258 0.447899 0 128 0
1.78306 -0.914887 -0.0475695 0 128 0
1.86911 -1.07557 0.275892 0 128 0
0.542452 -2.69512 0.0607811 0 128 0
-1.34532 -2.5531 0.487834 0 128 0
1.79457 -0.138146 0.367205 0 128 0
1.88758 -0.916374 0.255519 0 128 0
-1.23502 -2.61995 0.472348 0 128 0
-1.03582 -2.71019 0.478923 0 128 0
-0.727766 -2.81315 0.471401 0 128 0
1.26793 -2.31324 0.469481 0 128 0
1.81779 -0.682302 0.0534313 0 128 0
1.51457 -2.06571 0.45082 0 128 0
-1.90465 -1.99268 0.717817 0 128 0
-1.48772 -2.4989 0.26854 0 128 0
1.58754 -1.97749 0.437938 0 128 0
-2.32309 -1.09118 0.491065 0 128 0
1.73947 -0.918031 -0.206012 0 128 0
1.88426 -1.06606 0.39925 0 128 0
1.47194 -2.03554 0.257306 0 128 0
1.86557 -0.679798 0.251013 0 128 0
0.800256 0.908723 -0.227079 0 128 0
1.76379 -0.205383 0.216415 0 128 0
1.04213 -2.31565 -0.41306 0 128 0
-2.08924 -1.77646 0.480057 0 128 0
0.933349 -2.41805 -0.393173 0 128 0
-2.02755 -1.86598 0.544572 0 128 0
-1.48992 -2.4612 0.476677 0 128 0
-1.95707 -2.00152 0.490553 0 128 0
-1.8551 -2.14894 0.47242 0 128 0
-1.73109 -2.26 0.504582 0 128 0
-0.769292 1.13641 0.662949 0 128 0
-0.190439 -2.88779 0.279395 0 128 0
-0.777072 1.16167 0.445355 0 128 0
1.56848 -1.93077 0.288171 0 128 0
-0.156331 -2.87907 0.493605 0 128 0
0.395381 -2.81901 0.483851 0 128 0
0.442937 -2.81101 0.546907 0 128 0
1.48219 -1.9087 0.0189059 0 128 0
1.19426 0.60927 -0.221055 0 128 0
1.62222 0.165659 0.252556 0 128 0
1.91163 -0.687202 0.393392 0 128 0
1.07497 -2.34098 -0.16584 0 128 0
0.801437 0.93669 -0.000554764 0 128 0
1.85146 -0.462791 0.25433 0 128 0
-1.54483 0.566742 1.16213 0 128 0
1.21967 -2.26245 0.0581971 0 128 0
1.25812 0.719607 0.605938 0 128 0
-1.14662 1.04131 0.428366 0 128 0
1.54352 0.274233 0.221097 0 128 0
1.17805 -2.2341 -0.15491 0 128 0
1.05142 0.698755 -0.389188 0 128 0
-1.43725 0.89414 0.273611 0 128 0
1.81445 -0.507464 0.075379 0 128 0
-2.05129 -1.92848 0.316962 0 128 0
-2.31203 -0.666287 0.488344 0 128 0
1.42753 0.426576 0.241156 0 128 0
1.56943 -0.196825 -0.578167 0 128 0
1.34255 0.527967 0.216033 0 128 0
1.06042 0.718797 -0.227092 0 128 0
-1.8258 -2.11678 0.697285 0 128 0
-2.30032 -0.409521 0.480207 0 128 0
-2.26662 -1.22993 0.618641 0 128 0
-0.851047 -2.77185 0.698677 0 128 0
1.34351 -1.93266 -0.522504 0 128 0
-0.734536 -2.81198 0.700401 0 128 0
-0.590134 -2.85099 0.703106 0 128 0
-0.134639 -2.88774 0.704155 0 128 0
1.12869 0.778902 0.461663 0 128 0
1.8382 -0.231819 0.411523 0 128 0
1.4051 0.392733 0.00471076 0 128 0
1.57459 -0.150668 -0.536211 0 128 0
1.5768 0.0662688 -0.064242 0 128 0
1.3447 0.547206 0.358872 0 128 0
1.39525 0.589391 0.576863 0 128 0
1.23507 0.663762 0.228955 0 128 0
-0.160645 1.24443 0.189669 0 128 0
-0.314734 1.25063 0.191693 0 128 0
-0.565511 1.23284 0.244224 0 128 0
-1.327 -2.50581 0.977178 0 128 0
0.559171 -2.76552 0.499128 0 128 0
-0.771306 1.19638 0.222105 0 128 0
1.15437 -2.19927 -0.380534 0 128 0
1.5855 0.337424 0.532928 0 128 0
-1.41629 0.872834 0.443173 0 128 0
-2.15266 0.0281899 0.431757 0 128 0
-2.32975 -0.891129 0.494034 0 128 0
-1.70771 -2.22504 0.737513 0 128 0
-0.996217 1.11148 0.222557 0 128 0
-1.5771 -2.32531 0.812434 0 128 0
-0.129031 -2.90015 0.851269 0 128 0
-1.57689 0.630507 1.05768 0 128 0
-0.00445935 -2.91254 0.854303 0 128 0
1.73865 -0.000884806 0.423288 0 128 0
-1.98258 0.348001 0.342935 0 128 0
-0.771737 -2.81966 0.261423 0 128 0
-2.12051 -1.54511 0.716478 0 128 0
0.721532 1.02298 0.256502 0 128 0
0.559046 1.05337 -0.204729 0 128 0
-0.370798 -2.89445 0.892088 0 128 0
0.352818 1.15728 0.22305 0 128 0
-0.560327 1.16781 1.06461 0 128 0
0.144854 1.20427 0.213043 0 128 0
-2.05934 -1.29452 1.35069 0 128 0
0.414624 -2.79952 0.683016 0 128 0
-1.53101 0.560665 1.2624 0 128 0
-1.67918 -2.19534 0.940106 0 128 0
-2.27999 -0.885518 0.687556 0 128 0
-0.282797 1.22552 0.93974 0 128 0
-2.27741 -1.07898 0.676604 0 128 0
1.72119 -0.241328 0.0202162 0 128 0
1.01534 0.851943 0.227214 0 128 0
0.913702 -2.60979 0.541576 0 128 0
-1.99207 -1.53742 1.3417 0 128 0
-0.0937386 1.23121 0.222723 0 128 0
0.0366998 1.25195 0.609495 0 128 0
-2.17669 -1.5454 0.493284 0 128 0
-0.781132 -2.82622 0.0668644 0 128 0
-1.55561 0.792932 0.304406 0 128 0
0.122504 0.902685 0.258636 0 128 0
-1.75316 -2.03443 1.15394 0 128 0
0.530742 -2.64319 -0.356324 0 128 0
-1.35794 0.818256 1.04388 0 128 0
-0.771534 1.09691 1.08361 0 128 0
-1.77416 0.563158 0.501733 0 128 0
1.08782 -2.36357 -0.006949 0 128 0
-1.84178 0.433553 0.658184 0 128 0
-2.04055 -1.71268 0.856513 0 128 0
-2.19238 -0.639631 0.928104 0 128 0
-1.19895 0.900126 1.11967 0 128 0
-0.864953 -2.76747 0.924675 0 128 0
-0.602317 -2.85753 0.923627 0 128 0
-2.21077 -1.53702 0.360933 0 128 0
1.6311 0.215188 0.44195 0 128 0
-0.281676 1.24855 0.0284718 0 128 0
-2.26791 -0.43981 0.630661 0 128 0
-1.38185 0.844463 0.661512 0 128 0
-1.69711 0.502685 0.92091 0 128 0
1.31281 -2.10938 -0.019477 0 128 0
-1.52828 0.786425 0.471807 0 128 0
-1.0935 1.02286 0.713796 0 128 0
0.821251 0.959152 0.214534 0 128 0
0.541902 -2.77822 0.674728 0 128 0
-1.77986 -2.07767 0.967649 0 128 0
0.705542 -2.61747 0.0736471 0 128 0
-0.776265 1.12801 0.899923 0 128 0
-0.224946 -2.89266 0.0810789 0 128 0
-0.910766 1.04927 1.0903 0 128 0
-2.26865 -0.241143 0.451599 0 128 0
-1.97167 -2.04802 0.301509 0 128 0
-1.47 -2.42991 0.714113 0 128 0
-1.25397 0.983954 0.452046 0 128 0
0.701423 -2.73186 0.680514 0 128 0
-1.67041 0.693911 0.447796 0 128 0
-2.22753 -0.374322 0.724922 0 128 0
-2.10352 -0.871097 1.36752 0 128 0
-2.23815 -0.658891 0.757388 0 128 0
-1.20978 0.913215 0.893637 0 128 0
-0.900306 -2.76453 1.0878 0 128 0
1.32648 0.507084 -0.00833042 0 128 0
1.48156 0.446176 0.455699 0 128 0
1.38655 0.580538 0.496186 0 128 0
0.694079 1.01323 0.0361049 0 128 0
-1.98294 0.315588 0.466118 0 128 0
1.25376 -2.29578 0.271039 0 128 0
-2.03446 0.117872 0.721588 0 128 0
-1.626 -2.36528 0.478616 0 128 0
-2.11879 -0.40277 1.11565 0 128 0
1.11557 0.766186 0.196862 0 128 0
0.359395 1.18965 0.662505 0 128 0
-0.3652 -2.87463 0.482197 0 128 0
-2.02725 -1.62414 0.999129 0 128 0
-1.98472 -1.77735 0.943777 0 128 0
-1.19193 -2.59523 1.09583 0 128 0
-1.37996 -2.57396 0.198249 0 128 0
-1.75235 -2.29233 0.277151 0 128 0
-1.06113 -2.66812 1.09578 0 128 0
1.44318 0.547655 0.588882 0 128 0
-1.64719 -2.3848 0.256135 0 128 0
-2.18618 -0.41008 0.898037 0 128 0
-0.980366 1.07702 0.671417 0 128 0
-1.43471 -2.38998 1.15778 0 128 0
-1.28184 1.00226 0.260634 0 128 0
0.539212 -2.73972 0.262847 0 128 0
-1.30449 -2.50411 1.1453 0 128 0
-1.47913 0.741773 0.913007 0 128 0
1.02499 0.879231 0.455022 0 128 0
-1.81089 -2.09747 0.7975 0 128 0
0.547681 -2.66156 -0.169299 0 128 0
1.39935 -2.20108 0.466009 0 128 0
-1.20697 -2.6032 0.714045 0 128 0
1.14149 0.791107 0.468468 0 128 0
-0.748366 -2.81294 0.929213 0 128 0
-1.98056 0.138197 0.595002 0 128 0
-2.1514 -0.263927 0.894093 0 128 0
-1.65165 -2.15616 1.15265 0 128 0
-0.104469 1.24044 0.691437 0 128 0
-2.20096 -0.247903 0.688523 0 128 0
0.577955 1.10815 0.448115 0 128 0
0.353253 1.16877 0.436689 0 128 0
-1.8042 0.373812 1.06213 0 128 0
-1.76943 0.315426 1.20296 0 128 0
1.15985 0.802069 0.622194 0 128 0
-0.955102 1.0647 0.873314 0 128 0
-0.0763078 1.23554 0.441952 0 128 0
-0.122205 1.25131 0.514659 0 128 0
-0.258813 1.25306 0.493089 0 128 0
-1.48838 0.768888 0.679178 0 128 0
0.116281 1.21528 0.432699 0 128 0
-0.585303 1.21448 0.448963 0 128 0
-1.9306 0.29748 0.680256 0 128 0
-2.01437 -1.58524 1.17172 0 128 0
-2.14068 -1.08914 1.14979 0 128 0
-2.09038 -1.31437 1.14558 0 128 0
-1.79033 0.64176 0.319195 0 128 0
-2.06674 -1.43852 1.28785 0 128 0
0.123172 1.21869 0.868173 0 128 0
1.13025 -2.17361 -0.541315 0 128 0
-1.66315 -2.12653 1.31507 0 128 0
-1.74508 -1.98841 1.31219 0 128 0
1.15154 -2.40694 0.47568 0 128 0
-2.24355 -0.855094 0.789893 0 128 0
-1.5437 -2.27397 1.17405 0 128 0
1.82391 -0.298805 0.277805 0 128 0
-2.27449 -0.631995 0.648519 0 128 0
-2.12698 -1.77495 0.338406 0 128 0
0.373649 1.1798 0.837118 0 128 0
-0.264004 1.25441 0.593705 0 128 0
1.01674 -2.53024 0.513643 0 128 0
-1.88807 -1.75048 1.34057 0 128 0
-0.0509983 0.781101 0.21968 0 128 0
0.990171 -2.48757 0.282597 0 128 0
-1.93052 -1.77465 1.17849 0 128 0
0.765126 -2.68303 0.512783 0 128 0
-1.6581 0.731205 0.294043 0 128 0
1.81261 -0.11496 0.462818 0 128 0
1.00955 0.901176 0.632898 0 128 0
-1.29768 0.800334 1.18813 0 128 0
-2.22235 -0.88578 0.924753 0 128 0
-1.63711 0.66467 0.667892 0 128 0
-2.08372 -1.08566 1.35066 0 128 0
-0.846051 -2.77845 0.485915 0 128 0
-1.21663 0.95362 0.671453 0 128 0
1.08265 0.737877 -0.0196833 0 128 0
-1.30944 -2.53836 0.730479 0 128 0
-2.06131 -0.420362 1.3357 0 128 0
-1.73448 0.528764 0.708844 0 128 0
-1.36467 0.831367 0.904602 0 128 0
-2.02727 -1.38098 1.41147 0 128 0
-0.0877121 1.25279 0.620853 0 128 0
0.8654 0.990166 0.649263 0 128 0
1.10914 -2.37619 0.0562598 0 128 0
-1.31151 0.770898 1.30362 0 128 0
-2.16856 -0.873029 1.14866 0 128 0
-1.59613 0.637043 0.876306 0 128 0
0.752143 1.0435 0.467207 0 128 0
-2.07941 -1.52876 0.935628 0 128 0
-1.89968 0.278457 0.902421 0 128 0
-1.45084 0.699031 1.12311 0 128 0
-2.09272 -0.261655 1.12486 0 128 0
-1.97786 0.138733 0.812477 0 128 0
-1.04879 -2.68406 0.71103 0 128 0
-2.15001 -1.30912 0.92244 0 128 0
-1.87197 0.464449 0.456028 0 128 0
-1.00074 1.08706 0.444694 0 128 0
-1.163 0.888425 1.25126 0 128 0
-2.14546 -0.614325 1.13893 0 128 0
0.755486 1.05094 0.669489 0 128 0
-1.82961 0.295857 1.11831 0 128 0
0.859848 0.982954 0.435381 0 128 0
-1.05028 0.994448 0.918855 0 128 0
-2.11148 -0.630692 1.35919 0 128 0
-0.0848861 1.22784 0.902805 0 128 0
1.25465 -2.01812 -0.545021 0 128 0
-2.03056 0.17711 0.654835 0 128 0
1.61678 -0.04095 -0.189932 0 128 0
-1.64732 0.461712 1.32239 0 128 0
-1.01832 0.998238 1.13227 0 128 0
-2.00339 -0.34972 1.44018 0 128 0
-1.84964 -1.92442 1.12693 0 128 0
-2.21668 -0.165956 0.463395 0 128 0
0.574315 1.12555 0.677906 0 128 0
0.100582 1.23452 0.637868 0 128 0
1.36648 0.333098 -0.366914 0 128 0
-0.575226 1.18505 0.675056 0 128 0
-1.45056 0.672859 1.29519 0 128 0
-2.24158 -1.14465 0.759268 0 128 0
-0.772111 1.20924 0.0775247 0 128 0
-1.6874 0.466862 1.13197 0 128 0
-0.145585 1.24468 1.01709 0 128 0
0.150326 1.20055 0.0022732 0 128 0
-0.549156 1.18776 0.898084 0 128 0
-1.45272 -2.39933 0.960177 0 128 0
-2.03425 -0.265076 1.29981 0 128 0
-2.20758 -1.33004 0.701784 0 128 0
-0.0719951 1.22947 0.029732 0 128 0
-2.06261 0.216806 0.438941 0 128 0
1.26327 -2.06193 -0.392768 0 128 0
-2.20736 -1.08715 0.931118 0 128 0
-0.582192 -2.84437 0.482119 0 128 0
1.87573 -0.435603 0.410253 0 128 0
-1.5538 -2.30675 0.964272 0 128 0
-2.00638 -1.82684 0.718772 0 128 0
1.37761 -2.183 0.296106 0 128 0
-1.214 -2.59036 0.947548 0 128 0
-0.329136 1.22283 1.0444 0 128 0
-1.03418 -2.69529 0.932323 0 128 0
-0.345969 1.24116 0.460714 0 128 0
-1.1024 0.94188 1.23838 0 128 0
