ply
format ascii 1.0
comment Created by Open3D
element vertex 1272
property double x
property double y
property double z
property double nx
property double ny
property double nz
property uchar red
property uchar green
property uchar blue
end_header
0.219802 -2.09272 1.0415 -0.206199 -0.146214 -0.967524 0 128 0
0.224468 -2.07447 0.905537 -0.132529 -0.510127 -0.849827 0 128 0
0.308632 -2.07874 0.791611 0.541015 0.805146 -0.242987 0 128 0
0.0855575 -2.10953 0.737853 -0.497199 -0.472566 -0.72765 0 128 0
0.183856 -2.05985 0.61069 0.684082 0.650386 -0.330197 0 128 0
0.265246 -2.09963 0.515752 0.679444 0.706611 -0.197629 0 128 0
0.0393191 -2.09382 0.452906 0.814012 0.397248 -0.423767 0 128 0
0.116188 -2.04495 0.340829 0.832556 0.530485 -0.159488 0 128 0
0.228802 -2.12568 0.253399 0.766702 0.630954 -0.118598 0 128 0
0.00568596 -2.0426 0.191978 0.857288 0.463774 -0.223541 0 128 0
0.106383 -2.04607 0.0950534 0.679593 0.668559 -0.301964 0 128 0
-0.10648 -2.10995 0.0461754 0.26297 -0.623556 0.736223 0 128 0
0.0216483 -2.00849 -0.0515686 -0.442148 -0.78692 0.430421 0 128 0
-0.176785 -2.16984 -0.10527 0.276877 -0.404405 0.871663 0 128 0
-0.0414878 -2.01081 -0.194421 -0.152521 0.578319 -0.801427 0 128 0
0.0887339 -2.12477 -0.305944 -0.429556 0.123599 -0.894542 0 128 0
0.648908 -0.611031 0.348831 0.723501 -0.655617 -0.216133 0 128 0
0.765464 -0.5033 0.309464 0.708835 -0.680925 -0.184105 0 128 0
0.627314 -0.684952 0.311911 0.723501 -0.655617 -0.216133 0 128 0
0.638456 -0.628969 0.274954 0.723501 -0.655617 -0.216133 0 128 0
0.660239 -0.592658 0.249549 0.705236 -0.686867 -0.175659 0 128 0
0.704005 -0.524135 0.223441 0.698088 -0.689073 -0.194557 0 128 0
0.769485 -0.506666 0.213398 0.708835 -0.680925 -0.184105 0 128 0
0.610573 -0.668264 0.207402 0.723501 -0.655617 -0.216133 0 128 0
0.625802 -0.597935 0.174715 0.723501 -0.655617 -0.216133 0 128 0
0.659665 -0.55059 0.153146 0.698088 -0.689073 -0.194557 0 128 0
0.741397 -0.506776 0.138769 0.708835 -0.680925 -0.184105 0 128 0
0.601285 -0.680546 0.139178 0.723501 -0.655617 -0.216133 0 128 0
0.618375 -0.599418 0.110723 0.723501 -0.655617 -0.216133 0 128 0
0.682215 -0.530551 0.0902374 0.694177 -0.693253 -0.193695 0 128 0
0.80157 -0.513541 0.0802586 0.642251 -0.746119 -0.175555 0 128 0
0.592299 -0.633955 0.0697746 0.718765 -0.651549 -0.242612 0 128 0
0.623856 -0.550343 0.0458058 0.689497 -0.686697 -0.230306 0 128 0
0.680464 -0.513182 0.0282095 -0.661259 0.721768 0.204419 0 128 0
0.579049 -0.717893 0.0316041 0.725366 -0.641078 -0.250726 0 128 0
0.595059 -0.593367 0.00660824 0.685765 -0.692886 -0.22279 0 128 0
0.630323 -0.527036 -0.0127485 0.642318 -0.743617 -0.185638 0 128 0
0.726775 -0.49417 -0.032748 -0.623155 0.76298 0.171869 0 128 0
0.56865 -0.641039 -0.033121 0.633071 -0.744833 -0.21082 0 128 0
0.593527 -0.548334 -0.0509218 0.633071 -0.744833 -0.21082 0 128 0
0.670153 -0.506909 -0.0721312 0.642318 -0.743617 -0.185638 0 128 0
0.549206 -0.684138 -0.0747506 0.633071 -0.744833 -0.21082 0 128 0
0.554032 -0.565536 -0.0878789 0.633071 -0.744833 -0.21082 0 128 0
0.612012 -0.526255 -0.108522 0.642318 -0.743617 -0.185638 0 128 0
0.735426 -0.497094 -0.137998 -0.632091 0.748484 0.200579 0 128 0
0.535481 -0.632331 -0.130367 0.633071 -0.744833 -0.21082 0 128 0
0.553502 -0.540311 -0.142163 0.633071 -0.744833 -0.21082 0 128 0
0.628775 -0.498682 -0.165972 0.642318 -0.743617 -0.185638 0 128 0
0.736682 -0.502191 -0.204026 -0.632091 0.748484 0.200579 0 128 0
0.528507 -0.598625 -0.184652 0.633071 -0.744833 -0.21082 0 128 0
0.562783 -0.519166 -0.197004 0.633071 -0.744833 -0.21082 0 128 0
0.660179 -0.501831 -0.23279 0.642318 -0.743617 -0.185638 0 128 0
0.684365 -0.487023 -0.257407 -0.632091 0.748484 0.200579 0 128 0
-0.241693 0.785218 0.765311 0.987376 -0.02807 -0.155889 0 128 0
-0.228318 0.774137 0.751282 0.987376 -0.02807 -0.155889 0 128 0
-0.222863 0.793172 0.768213 0.987376 -0.02807 -0.155889 0 128 0
-0.214503 0.801819 0.77459 0.987376 -0.02807 -0.155889 0 128 0
-0.206586 0.813153 0.783784 0.987376 -0.02807 -0.155889 0 128 0
-0.0738758 0.593798 0.548381 -0.384918 0.340094 -0.858006 0 128 0
0.073557 0.856635 0.812491 0.068938 -0.735954 0.673512 0 128 0
0.0769825 0.796977 0.754036 0.068938 -0.735954 0.673512 0 128 0
0.0847566 0.78026 0.738572 0.154349 0.900423 -0.406711 0 128 0
0.09369 0.774003 0.733681 0.154349 0.900423 -0.406711 0 128 0
0.10316 0.771848 0.733017 0.154349 0.900423 -0.406711 0 128 0
0.113319 0.773773 0.736584 0.154349 0.900423 -0.406711 0 128 0
0.121602 0.765104 0.729575 0.154349 0.900423 -0.406711 0 128 0
0.126796 0.741745 0.70776 -0.101357 -0.936582 0.335471 0 128 0
0.135832 0.739194 0.707095 -0.101357 -0.936582 0.335471 0 128 0
0.147309 0.747605 0.717711 -0.101357 -0.936582 0.335471 0 128 0
0.16065 0.762745 0.73538 -0.101357 -0.936582 0.335471 0 128 0
0.171292 0.765285 0.740357 -0.101357 -0.936582 0.335471 0 128 0
0.182565 0.769735 0.747451 -0.101357 -0.936582 0.335471 0 128 0
0.195297 0.778807 0.759481 0.068938 -0.735954 0.673512 0 128 0
0.205325 0.777466 0.760934 0.068938 -0.735954 0.673512 0 128 0
0.211447 0.763106 0.748984 -0.101357 -0.936582 0.335471 0 128 0
0.214899 0.741284 0.729275 -0.101357 -0.936582 0.335471 0 128 0
0.231844 0.761904 0.754003 -0.101357 -0.936582 0.335471 0 128 0
-0.242874 0.764856 0.710846 0.987376 -0.02807 -0.155889 0 128 0
-0.234366 0.771031 0.714322 0.987376 -0.02807 -0.155889 0 128 0
-0.227059 0.782026 0.722609 0.987376 -0.02807 -0.155889 0 128 0
-0.217175 0.783804 0.721965 0.987376 -0.02807 -0.155889 0 128 0
-0.0879763 0.622787 0.550592 -0.279556 0.258852 -0.924578 0 128 0
-0.0727597 0.551346 0.481881 -0.423448 0.460143 -0.780359 0 128 0
0.168592 0.78218 0.720221 -0.101357 -0.936582 0.335471 0 128 0
0.169972 0.746 0.687212 -0.0835044 -0.955223 0.28386 0 128 0
0.177572 0.737295 0.681055 -0.0651399 -0.9643 0.256675 0 128 0
0.183085 0.721521 0.668011 -0.0435264 -0.968516 0.245117 0 128 0
0.195195 0.730135 0.679068 -0.0435264 -0.968516 0.245117 0 128 0
0.204023 0.726746 0.678419 -0.0435264 -0.968516 0.245117 0 128 0
0.23243 0.786242 0.740442 0.142168 -0.829277 0.540452 0 128 0
-0.257916 0.785505 0.691583 0.987376 -0.02807 -0.155889 0 128 0
-0.24204 0.76684 0.671652 0.975432 -0.189226 -0.112814 0 128 0
-0.235452 0.780309 0.681683 0.987376 -0.02807 -0.155889 0 128 0
-0.233044 0.811068 0.707696 0.987376 -0.02807 -0.155889 0 128 0
-0.225292 0.82304 0.716398 0.987376 -0.02807 -0.155889 0 128 0
-0.0864279 0.605111 0.502994 0.550256 0.244865 -0.798286 0 128 0
0.177618 0.733565 0.638826 -0.484893 -0.873617 0.0408991 0 128 0
0.185888 0.728223 0.636195 -0.484893 -0.873617 0.0408991 0 128 0
0.198487 0.737783 0.647584 -0.147656 -0.983353 0.105898 0 128 0
-0.267874 0.785125 0.660135 0.973875 -0.188896 -0.12604 0 128 0
-0.246549 0.750235 0.626483 0.74027 -0.671761 0.0271711 0 128 0
-0.237874 0.755157 0.628468 0.74027 -0.671761 0.0271711 0 128 0
-0.229318 0.760713 0.631103 0.834497 -0.550855 0.0131971 0 128 0
-0.233967 0.816219 0.677809 0.987376 -0.02807 -0.155889 0 128 0
-0.24027 0.883753 0.734892 0.987376 -0.02807 -0.155889 0 128 0
-0.0885171 0.577754 0.455204 0.354229 0.300943 -0.885413 0 128 0
0.169799 0.737001 0.608844 0.752201 0.658933 6.60128e-05 0 128 0
0.178344 0.732416 0.606934 0.752201 0.658933 6.60128e-05 0 128 0
0.187006 0.728467 0.605674 0.752201 0.658933 6.60128e-05 0 128 0
-0.262613 0.751567 0.59515 -0.576076 0.809616 0.112512 0 128 0
-0.254188 0.757478 0.597697 -0.477772 0.874963 0.078576 0 128 0
-0.246524 0.76629 0.602749 0.360371 -0.931779 -0.0438292 0 128 0
-0.240348 0.781038 0.612812 -0.536736 0.842172 -0.051591 0 128 0
-0.235039 0.800269 0.626634 0.909889 -0.414327 0.0208621 0 128 0
-0.0968094 0.599999 0.447237 0.308479 0.347585 -0.885452 0 128 0
0.200042 0.928393 0.729526 -0.0972143 -0.859622 0.501596 0 128 0
0.166256 0.744423 0.578848 0.881945 0.448094 -0.146237 0 128 0
0.174083 0.736822 0.574491 0.881945 0.448094 -0.146237 0 128 0
0.180925 0.726141 0.567621 0.881945 0.448094 -0.146237 0 128 0
-0.266658 0.75479 0.569036 -0.38148 0.900011 0.210837 0 128 0
-0.257525 0.758526 0.569686 0.402026 -0.8964 -0.186661 0 128 0
-0.250181 0.76823 0.575199 -0.476398 0.866375 0.149794 0 128 0
-0.24993 0.803036 0.600771 -0.678623 0.734477 -0.0038739 0 128 0
-0.242296 0.814222 0.607502 0.709939 -0.704161 -0.0120159 0 128 0
-0.0952942 0.5835 0.412111 0.18767 -0.713059 0.675519 0 128 0
0.156417 0.75572 0.556896 0.788378 0.592806 -0.164439 0 128 0
0.16302 0.741939 0.547792 0.789172 0.584542 -0.188462 0 128 0
0.172203 0.739647 0.547832 0.870518 0.454289 -0.189259 0 128 0
-0.224734 0.572554 0.401453 0.700427 0.638528 -0.318881 0 128 0
-0.282032 0.766352 0.547257 -0.403024 0.861823 0.307948 0 128 0
-0.272018 0.767976 0.54613 -0.322994 0.907541 0.268412 0 128 0
-0.263682 0.774892 0.549099 -0.322994 0.907541 0.268412 0 128 0
-0.253602 0.776279 0.547972 0.173754 -0.937032 -0.302952 0 128 0
-0.243967 0.779096 0.548015 0.175848 -0.938895 -0.295896 0 128 0
-0.233453 0.778665 0.545715 0.0664268 -0.91768 -0.391728 0 128 0
-0.223992 0.78202 0.546344 -0.0466192 0.912934 0.405436 0 128 0
-0.21256 0.777387 0.541115 0.0272774 0.854759 0.518309 0 128 0
-0.203097 0.78049 0.541744 0.00666115 0.924061 0.382188 0 128 0
-0.192896 0.780312 0.54003 0.0459593 0.910026 0.411995 0 128 0
-0.182728 0.780004 0.538315 0.0715986 0.916506 0.39356 0 128 0
-0.172593 0.779564 0.5366 0.126035 0.954725 0.269472 0 128 0
-0.163353 0.78378 0.538401 0.126035 0.954725 0.269472 0 128 0
-0.152032 0.775899 0.531412 0.10926 0.989895 0.0903875 0 128 0
-0.143892 0.78708 0.538487 0.10926 0.989895 0.0903875 0 128 0
-0.13345 0.783737 0.535014 0.117844 0.986718 0.111808 0 128 0
-0.101805 0.615536 0.411386 0.672034 0.227592 -0.704678 0 128 0
0.155428 0.801659 0.55681 0.757678 0.622454 -0.196152 0 128 0
0.154215 0.751357 0.521024 0.778113 0.576617 -0.249104 0 128 0
0.164474 0.753104 0.524 0.778113 0.576617 -0.249104 0 128 0
0.174601 0.75393 0.526391 0.778113 0.576617 -0.249104 0 128 0
-0.291684 0.771286 0.524464 -0.460123 0.786494 0.411964 0 128 0
-0.280242 0.769113 0.520544 -0.391531 0.827545 0.402334 0 128 0
-0.270949 0.773042 0.521152 -0.391531 0.827545 0.402334 0 128 0
-0.264072 0.784723 0.527424 -0.264656 0.869559 0.416923 0 128 0
-0.257657 0.798718 0.535395 -0.264656 0.869559 0.416923 0 128 0
-0.241822 0.780991 0.520715 0.195839 -0.879139 -0.434467 0 128 0
-0.234748 0.793202 0.527555 -0.0770055 0.87372 0.480295 0 128 0
-0.224698 0.794991 0.527032 -0.0356288 0.888339 0.457804 0 128 0
-0.214438 0.795854 0.525943 0.0517032 0.90315 0.4262 0 128 0
-0.201923 0.78696 0.518056 0.0476752 0.947983 0.314732 0 128 0
-0.193413 0.794775 0.522065 0.0664156 0.943635 0.324255 0 128 0
-0.18119 0.785563 0.514177 0.131837 0.960416 0.2454 0 128 0
-0.171287 0.786684 0.513653 0.0963418 0.986867 0.129664 0 128 0
-0.160337 0.78201 0.509163 0.0898665 0.99595 0.00263129 0 128 0
-0.150499 0.782872 0.50864 0.0945975 0.995503 -0.00494495 0 128 0
-0.140145 0.780357 0.505848 0.0960602 0.995324 -0.0101114 0 128 0
-0.106635 0.618748 0.392529 0.898553 0.0580322 -0.435011 0 128 0
-0.120339 0.779827 0.503667 0.0147713 0.996764 -0.0790118 0 128 0
-0.109481 0.771197 0.496907 -8.59496e-05 0.99762 -0.0689542 0 128 0
-0.0994731 0.768154 0.494115 -4.29482e-06 0.998086 -0.0618335 0 128 0
-0.0906605 0.776463 0.49926 -0.0100433 0.998232 -0.0585802 0 128 0
-0.0802074 0.767434 0.492497 -0.0182331 0.998114 -0.0586219 0 128 0
-0.0709295 0.771414 0.494808 -0.122052 0.861133 -0.493511 0 128 0
-0.0614653 0.773637 0.495984 -0.122052 0.861133 -0.493511 0 128 0
-0.0519156 0.774922 0.496593 -0.156827 0.719296 -0.676771 0 128 0
-0.0423689 0.776914 0.49777 -0.167736 0.699109 -0.695062 0 128 0
-0.0327046 0.775495 0.496678 -0.175294 0.622568 -0.76268 0 128 0
-0.0230622 0.772311 0.494451 -0.178869 0.576864 -0.797016 0 128 0
-0.0134951 0.771479 0.493926 -0.178869 0.576864 -0.797016 0 128 0
-0.003937 0.771353 0.493968 -0.174573 0.571093 -0.802108 0 128 0
0.00583876 0.779341 0.499684 -0.228225 0.419478 -0.878608 0 128 0
0.0162612 0.798723 0.513346 -0.218086 0.415255 -0.883177 0 128 0
0.0173446 0.626373 0.394777 -0.566053 0.655033 -0.500516 0 128 0
0.150211 0.814343 0.536056 0.816145 0.497421 -0.294075 0 128 0
0.146334 0.747018 0.490085 0.431825 0.865014 -0.255494 0 128 0
0.157947 0.755366 0.49751 0.6317 0.732046 -0.255074 0 128 0
0.165951 0.747536 0.493573 0.706308 0.657035 -0.263502 0 128 0
-0.298597 0.772639 0.495147 -0.587998 0.723316 0.362039 0 128 0
-0.285203 0.764888 0.487585 -0.587998 0.723316 0.362039 0 128 0
-0.282509 0.788839 0.501751 -0.518895 0.759679 0.391963 0 128 0
-0.272717 0.792013 0.501795 -0.418489 0.820444 0.389537 0 128 0
-0.267002 0.808732 0.511077 -0.320597 0.872996 0.367554 0 128 0
-0.118078 0.65527 0.393055 0.832878 0.278523 -0.478267 0 128 0
-0.0296243 0.822011 0.496884 -0.219038 0.471132 -0.854433 0 128 0
-0.0195123 0.788526 0.475152 -0.178869 0.576864 -0.797016 0 128 0
-0.00974443 0.788474 0.475195 -0.214742 0.437538 -0.873182 0 128 0
-4.44769e-05 0.785786 0.473605 -0.228225 0.419478 -0.878608 0 128 0
0.00959124 0.782982 0.472013 -0.218086 0.415255 -0.883177 0 128 0
0.0192032 0.780897 0.470967 -0.230257 0.416663 -0.879417 0 128 0
0.0282902 0.771164 0.465017 -0.120361 0.726792 -0.67623 0 128 0
0.0358128 0.743767 0.447629 -0.0506599 0.890183 -0.452777 0 128 0
0.0470156 0.765597 0.462377 -0.0243042 0.909628 -0.414712 0 128 0
0.0568329 0.768067 0.464598 0.0178392 0.923959 -0.382075 0 128 0
0.0657788 0.762081 0.461371 0.0720058 0.936795 -0.34239 0 128 0
0.075946 0.766809 0.465225 0.132331 0.960791 -0.243657 0 128 0
0.0855549 0.766418 0.465812 0.167044 0.971858 -0.166099 0 128 0
0.095043 0.765078 0.465853 0.174211 0.977724 -0.117077 0 128 0
0.105325 0.768588 0.469165 0.115188 0.993215 0.0159705 0 128 0
0.117884 0.784347 0.480652 0.152355 0.987457 -0.0414375 0 128 0
0.135952 0.774177 0.476375 0.249492 0.952923 -0.17231 0 128 0
0.140097 0.746804 0.459516 0.236715 0.969654 -0.0611339 0 128 0
0.149712 0.746432 0.460647 0.276182 0.96006 -0.0448138 0 128 0
-0.30377 0.778356 0.473082 0.810027 -0.513149 -0.283787 0 128 0
-0.293252 0.779383 0.471556 0.810027 -0.513149 -0.283787 0 128 0
-0.286866 0.792372 0.47788 0.746156 -0.591613 -0.305363 0 128 0
-0.277824 0.79803 0.479495 -0.539283 0.763407 0.355505 0 128 0
-0.271226 0.811717 0.486345 -0.484921 0.797391 0.359193 0 128 0
-0.116432 0.637105 0.360591 0.947671 -0.0273151 -0.318079 0 128 0
0.0409052 0.61703 0.346069 -0.625621 0.673114 -0.394354 0 128 0
0.0726185 0.851632 0.49206 -0.0815751 0.87776 -0.472104 0 128 0
0.075691 0.785338 0.451675 -0.229706 0.222855 -0.947402 0 128 0
0.0843404 0.775677 0.446466 0.0896991 0.977489 -0.19097 0 128 0
0.0935897 0.771824 0.444933 0.0893176 0.989642 -0.112389 0 128 0
0.102376 0.765339 0.441823 -0.0865488 -0.992718 0.0837868 0 128 0
0.110606 0.756238 0.437137 -0.0661738 -0.984585 0.161903 0 128 0
0.118333 0.745377 0.4314 -0.225196 -0.964609 0.137175 0 128 0
0.129626 0.754506 0.438269 -0.247223 -0.962015 0.115796 0 128 0
0.137443 0.745124 0.433581 -0.287917 -0.948691 0.130727 0 128 0
0.149535 0.756458 0.442028 0.302849 0.946324 -0.11293 0 128 0
-0.257681 0.602229 0.3388 0.740122 0.614379 -0.273418 0 128 0
-0.321735 0.796577 0.456818 0.952151 -0.153904 -0.264048 0 128 0
-0.303929 0.778232 0.443363 0.963676 -0.103354 -0.246264 0 128 0
-0.297382 0.790675 0.448906 0.952151 -0.153904 -0.264048 0 128 0
-0.28702 0.79239 0.44795 0.95148 -0.112103 -0.286563 0 128 0
-0.282183 0.811298 0.457496 0.933996 -0.185452 -0.305385 0 128 0
-0.148763 0.777001 0.420494 -0.223577 -0.936696 0.269468 0 128 0
0.0878956 0.627484 0.33381 0.926329 -0.35521 -0.125463 0 128 0
0.122327 0.770729 0.419178 0.229488 0.954215 -0.191856 0 128 0
0.129024 0.754515 0.410685 -0.257456 -0.955115 0.146531 0 128 0
0.135344 0.738257 0.40219 -0.324589 -0.931343 0.165051 0 128 0
-0.211211 0.49114 0.253526 0.693601 -0.688772 -0.210974 0 128 0
-0.310269 0.770799 0.415632 0.971276 -0.0507343 -0.232483 0 128 0
-0.29618 0.761957 0.408482 0.971276 -0.0507343 -0.232483 0 128 0
-0.298356 0.798418 0.427709 0.966488 -0.0851491 -0.242178 0 128 0
-0.288447 0.80179 0.427753 0.966488 -0.0851491 -0.242178 0 128 0
-0.283095 0.819228 0.435953 0.957555 -0.0964629 -0.271632 0 128 0
-0.139838 0.68328 0.345217 0.981288 -0.0024341 -0.192532 0 128 0
0.0829237 0.629805 0.315418 0.925309 -0.350732 -0.144186 0 128 0
0.12761 0.84983 0.438725 -0.237655 -0.869766 0.432467 0 128 0
0.119253 0.742726 0.380018 -0.365553 -0.92007 0.14086 0 128 0
0.125474 0.725488 0.371389 -0.510897 -0.837381 0.194364 0 128 0
0.150627 0.802653 0.415742 -0.594423 -0.787181 0.16434 0 128 0
-0.350117 0.833224 0.425389 0.97003 -0.0721811 -0.232016 0 128 0
-0.31716 0.777271 0.392607 0.979421 -0.0404484 -0.197732 0 128 0
-0.311762 0.792587 0.399035 0.97396 -0.0732954 -0.214546 0 128 0
-0.302216 0.796966 0.399535 0.975621 -0.0558572 -0.212233 0 128 0
-0.297423 0.815572 0.407789 0.970571 -0.0649552 -0.231889 0 128 0
-0.332326 0.958695 0.483093 0.930835 0.361689 -0.0522162 0 128 0
-0.169892 0.826558 0.39738 0.0839831 0.985846 0.1451 0 128 0
0.0782849 0.62928 0.293745 0.930993 -0.333854 -0.147624 0 128 0
0.107952 0.757788 0.361558 -0.561761 -0.802464 0.201186 0 128 0
0.118442 0.762304 0.364805 -0.586708 -0.78541 0.197244 0 128 0
0.124494 0.743113 0.355685 0.715166 0.667564 -0.207112 0 128 0
-0.211617 0.476242 0.214583 -0.384046 0.923161 -0.0167906 0 128 0
-0.323678 0.779568 0.370698 0.974892 -0.0145661 -0.2222 0 128 0
-0.313042 0.780728 0.369436 0.949697 -0.160295 -0.269036 0 128 0
-0.30612 0.7919 0.373394 0.974324 -0.0130423 -0.224771 0 128 0
-0.303731 0.816616 0.384311 0.972826 -0.069987 -0.220707 0 128 0
-0.302786 0.847363 0.398276 0.974611 -0.0506418 -0.218102 0 128 0
-0.176847 0.834522 0.377461 -0.0730043 0.950584 0.301762 0 128 0
0.0769527 0.638989 0.279985 0.917071 -0.344476 -0.200792 0 128 0
0.10226 0.749775 0.335062 0.975061 0.098815 -0.198726 0 128 0
0.109458 0.73582 0.328987 0.977299 -0.0672748 -0.200898 0 128 0
0.120007 0.742163 0.332958 0.982554 0.0357406 -0.182512 0 128 0
-0.240678 0.529817 0.226001 0.90371 -0.210166 -0.373012 0 128 0
-0.334091 0.786114 0.348841 0.975406 -0.111963 -0.189864 0 128 0
-0.32044 0.779703 0.343956 0.982726 -0.108303 -0.150069 0 128 0
-0.317971 0.803041 0.353448 0.960025 -0.134684 -0.245381 0 128 0
-0.311337 0.816114 0.358012 0.970812 -0.0257163 -0.238461 0 128 0
-0.310568 0.847279 0.371208 0.96404 -0.0138505 -0.265397 0 128 0
0.071176 0.647444 0.263243 0.923071 -0.272899 -0.271047 0 128 0
0.0989204 0.775046 0.322312 0.974959 0.0404464 -0.218674 0 128 0
0.102408 0.73671 0.305426 0.957357 -0.15418 -0.244327 0 128 0
0.110731 0.730691 0.303401 0.954668 -0.164157 -0.248317 0 128 0
-0.415397 0.947554 0.401548 0.928645 0.327384 -0.174463 0 128 0
-0.332446 0.77645 0.321444 0.783298 -0.603164 -0.150459 0 128 0
-0.31744 0.766518 0.315261 0.248834 0.968123 0.0286136 0 128 0
-0.321553 0.80634 0.33165 0.982911 -0.159752 -0.0914598 0 128 0
-0.314684 0.81866 0.335587 0.98232 -0.174175 -0.0686267 0 128 0
-0.35518 0.967481 0.400646 0.927339 0.358808 -0.106299 0 128 0
-0.164038 0.680914 0.262426 0.957568 0.0508484 -0.283685 0 128 0
0.0920178 0.737873 0.284647 0.959686 -0.132966 -0.247636 0 128 0
0.100728 0.733738 0.283513 0.959686 -0.132966 -0.247636 0 128 0
0.106898 0.714984 0.276118 0.957437 -0.164502 -0.23718 0 128 0
-0.348036 0.787302 0.302791 0.829903 -0.520636 -0.200498 0 128 0
-0.334823 0.782638 0.299186 -0.504448 0.85538 0.117717 0 128 0
-0.330765 0.801245 0.305434 0.822449 -0.538661 -0.182814 0 128 0
-0.325975 0.818997 0.311318 0.93038 -0.341815 -0.132495 0 128 0
-0.319861 0.834116 0.316109 0.994997 0.00454047 -0.0998036 0 128 0
-0.184104 0.727508 0.261385 -0.354343 -0.27078 -0.895052 0 128 0
0.0851628 0.759623 0.270631 0.757338 0.617839 -0.211458 0 128 0
0.0912411 0.736224 0.261864 0.952279 0.039259 -0.302695 0 128 0
0.100807 0.737582 0.263004 0.961954 -0.0178233 -0.272629 0 128 0
-0.396809 0.874982 0.316756 0.91098 0.382673 -0.15387 0 128 0
-0.3461 0.784228 0.279082 -0.296829 0.932535 0.205599 0 128 0
-0.332492 0.778612 0.275352 0.0622828 0.992895 0.101394 0 128 0
-0.328278 0.796417 0.280884 0.114529 -0.9918 -0.0567065 0 128 0
-0.315089 0.79137 0.277498 -0.0350744 -0.985962 -0.163247 0 128 0
-0.301113 0.783472 0.273081 0.0355916 0.95134 0.30608 0 128 0
-0.291386 0.786886 0.273125 0.0667073 0.915083 0.39771 0 128 0
-0.283107 0.794636 0.274885 0.272831 0.813533 0.513544 0 128 0
-0.26694 0.778151 0.267377 0.0281375 0.994486 0.101023 0 128 0
-0.257005 0.780249 0.267076 -0.311997 -0.312825 -0.897106 0 128 0
-0.248909 0.788531 0.26918 -0.345508 -0.274386 -0.897406 0 128 0
-0.245208 0.813008 0.277466 -0.284669 0.46035 -0.840858 0 128 0
-0.26348 0.921893 0.317698 -0.738258 -0.573605 -0.354898 0 128 0
-0.176682 0.628097 0.205758 -0.674895 0.191468 -0.71264 0 128 0
-0.214857 0.820814 0.277601 -0.127698 0.481431 -0.867132 0 128 0
-0.153521 0.598846 0.193457 -0.381149 0.367457 -0.848352 0 128 0
-0.157332 0.652798 0.21308 -0.32795 0.220795 -0.918531 0 128 0
0.0421064 0.471261 0.143325 0.564309 -0.797629 -0.212937 0 128 0
0.0856809 0.75521 0.248948 0.731376 0.664187 -0.15474 0 128 0
0.095301 0.755739 0.24968 0.802936 0.56626 -0.186126 0 128 0
0.106993 0.769127 0.255243 0.802936 0.56626 -0.186126 0 128 0
-0.368244 0.803352 0.263853 0.930064 0.026925 -0.366409 0 128 0
-0.348846 0.784817 0.255615 -0.473861 0.83217 0.288009 0 128 0
-0.344374 0.802022 0.260439 -0.295478 0.888936 0.349978 0 128 0
-0.337143 0.813043 0.263032 -0.269191 0.935549 0.228656 0 128 0
-0.329361 0.823118 0.265309 0.811307 -0.102082 -0.575638 0 128 0
-0.340201 0.885783 0.286394 0.898422 0.163575 -0.40753 0 128 0
-0.315663 0.850229 0.272415 0.0245797 0.998219 0.0543588 0 128 0
-0.294126 0.820515 0.260664 0.109349 0.951349 0.28806 0 128 0
-0.276224 0.799445 0.252098 -0.119522 -0.0955103 -0.988227 0 128 0
-0.271251 0.818881 0.257884 -0.0336485 0.711821 -0.701555 0 128 0
-0.255292 0.8019 0.250911 0.0376939 0.757604 -0.651625 0 128 0
-0.245343 0.804752 0.250955 -0.209611 0.10572 -0.972053 0 128 0
-0.226191 0.772655 0.238873 -0.224667 0.30811 -0.924442 0 128 0
-0.215913 0.772395 0.237958 -0.229511 0.303206 -0.924873 0 128 0
-0.188614 0.700078 0.212144 0.244955 -0.20942 0.946647 0 128 0
-0.198582 0.785343 0.240918 -0.199722 0.371253 -0.906798 0 128 0
-0.185117 0.769885 0.234894 -0.267758 0.12917 -0.954788 0 128 0
-0.175566 0.77188 0.234936 -0.260479 0.131467 -0.956487 0 128 0
-0.165645 0.771894 0.23434 -0.2434 0.0969957 -0.965064 0 128 0
-0.155585 0.770848 0.233424 -0.229459 0.108382 -0.967265 0 128 0
-0.146025 0.77248 0.233466 -0.225988 0.0997541 -0.969009 0 128 0
-0.136306 0.773057 0.233189 -0.15507 -0.0726709 -0.985227 0 128 0
-0.12672 0.774453 0.233231 -0.199717 0.325579 -0.924182 0 128 0
-0.114803 0.756921 0.22688 -0.243102 -0.062389 -0.967992 0 128 0
-0.111668 0.81456 0.246106 -0.245322 0.245226 -0.937913 0 128 0
-0.0768453 0.56388 0.160768 -0.266438 0.484796 -0.833057 0 128 0
0.0745124 0.763227 0.229633 0.408847 0.912601 0.00201831 0 128 0
0.0821736 0.748897 0.225183 0.503001 0.862904 -0.0488604 0 128 0
0.0907504 0.742929 0.22362 0.626253 0.775079 -0.0840204 0 128 0
-0.35734 0.785305 0.235011 0.844605 -0.394578 -0.361871 0 128 0
-0.346482 0.786767 0.234167 0.844605 -0.394578 -0.361871 0 128 0
-0.347062 0.816433 0.2428 0.900844 0.186736 -0.391931 0 128 0
-0.337966 0.823082 0.243735 -0.300743 0.909657 0.286492 0 128 0
-0.38035 0.967369 0.290299 0.922963 0.35567 -0.147097 0 128 0
-0.137307 0.597864 0.159462 0.141508 0.3794 -0.914347 0 128 0
-0.188877 0.911741 0.258396 -0.198526 -0.0148807 -0.979983 0 128 0
-0.159196 0.809387 0.225473 -0.18093 0.483743 -0.856304 0 128 0
-0.144847 0.784675 0.217199 -0.224371 0.41861 -0.880013 0 128 0
-0.13298 0.772013 0.212785 -0.199717 0.325579 -0.924182 0 128 0
-0.123931 0.777153 0.214016 -0.19744 0.453088 -0.869327 0 128 0
-0.114891 0.783133 0.215545 -0.26257 0.0148359 -0.964799 0 128 0
-0.105075 0.783317 0.21529 -0.234327 0.118062 -0.964962 0 128 0
-0.0941178 0.77198 0.211468 -0.234327 0.118062 -0.964962 0 128 0
-0.0854758 0.78332 0.214781 -0.240164 0.117428 -0.963604 0 128 0
-0.0748952 0.772668 0.211255 -0.241098 0.116876 -0.963438 0 128 0
-0.0652578 0.772359 0.210999 -0.238957 0.151325 -0.959167 0 128 0
-0.0561782 0.782418 0.214018 -0.248265 0.11417 -0.961941 0 128 0
-0.0462956 0.778059 0.212572 -0.256756 0.145466 -0.955466 0 128 0
-0.0366812 0.779306 0.212913 -0.258573 0.166445 -0.951544 0 128 0
-0.0268695 0.768979 0.20968 -0.243223 0.00867613 -0.969932 0 128 0
-0.0173098 0.756622 0.205851 -0.250604 0.0374696 -0.967364 0 128 0
-0.00964461 0.579964 0.150794 0.68902 -0.713601 -0.126591 0 128 0
0.0801556 0.874338 0.244691 0.84437 -0.0432832 -0.534009 0 128 0
0.076667 0.754619 0.207453 0.384807 0.919752 -0.0773332 0 128 0
0.0852548 0.747727 0.205703 0.450529 0.889708 -0.0737759 0 128 0
0.117359 0.903189 0.255275 0.929561 -0.142385 -0.340063 0 128 0
-0.40501 0.856147 0.235577 0.973121 0.168299 -0.1572 0 128 0
-0.370431 0.805134 0.218509 0.933544 0.247481 -0.259323 0 128 0
-0.350462 0.785406 0.211217 0.948959 -0.0406555 -0.312769 0 128 0
-0.352535 0.818904 0.22023 0.943476 0.0292293 -0.330149 0 128 0
-0.348623 0.839104 0.225168 0.940539 0.0469497 -0.336425 0 128 0
-0.211035 0.748202 0.189151 -0.216533 0.271199 -0.937851 0 128 0
-0.0601388 0.622021 0.147449 0.549668 -0.372447 0.747762 0 128 0
-0.0644135 0.860765 0.215223 -0.245187 0.0889376 -0.965388 0 128 0
-0.050536 0.776682 0.191229 -0.258489 0.170141 -0.950913 0 128 0
-0.0408619 0.775103 0.190725 -0.229188 0.109009 -0.967259 0 128 0
-0.0311675 0.768597 0.188854 -0.257116 0.26541 -0.92922 0 128 0
-0.0216486 0.772552 0.189989 0.134172 0.96653 0.218671 0 128 0
-0.0120562 0.774466 0.190577 0.167165 0.937958 0.303794 0 128 0
-0.00257436 0.769531 0.189253 0.173283 0.963117 0.205862 0 128 0
0.0069585 0.769287 0.189294 0.199559 0.961422 0.189324 0 128 0
0.0165802 0.770848 0.189883 0.209178 0.950761 0.22869 0 128 0
0.0263007 0.77325 0.190745 0.204341 0.972375 0.112838 0 128 0
0.0366421 0.783205 0.193798 0.205982 0.970119 0.12822 0 128 0
0.0463399 0.782479 0.193841 0.255854 0.963029 0.0843437 0 128 0
0.053886 0.759617 0.187586 -0.389946 -0.919726 0.0452347 0 128 0
0.0621395 0.748165 0.184615 0.340914 0.937266 -0.0728654 0 128 0
0.0719888 0.751903 0.186025 0.340914 0.937266 -0.0728654 0 128 0
0.0812989 0.750746 0.186065 0.374429 0.924383 -0.0729347 0 128 0
-0.268461 0.54301 0.124474 0.935166 0.0922555 -0.341985 0 128 0
-0.363352 0.774317 0.188714 0.962629 -0.162121 -0.21694 0 128 0
-0.35833 0.789175 0.191744 0.963107 -0.161791 -0.215055 0 128 0
-0.358207 0.816544 0.198261 0.981571 0.110149 -0.15616 0 128 0
-0.347349 0.818863 0.197809 0.975531 -0.0318373 -0.217547 0 128 0
-0.369049 0.905017 0.22052 0.989864 -0.0870464 0.112212 0 128 0
-0.200491 0.690152 0.154855 0.0664452 0.335934 -0.939539 0 128 0
0.00566894 0.593278 0.124688 0.825884 -0.533654 -0.182015 0 128 0
0.023557 0.815349 0.182411 0.185343 0.973676 0.132674 0 128 0
0.0307128 0.7655 0.16966 0.20367 0.977053 -0.0623383 0 128 0
0.0395686 0.75616 0.167443 -0.328484 -0.940664 0.0851467 0 128 0
0.0508845 0.778552 0.173508 -0.390253 -0.918419 0.0648789 0 128 0
0.0586618 0.758383 0.168529 0.361356 0.930273 -0.0633601 0 128 0
0.0680526 0.75739 0.16857 0.539643 0.83568 -0.102104 0 128 0
0.0771979 0.75436 0.168109 0.420688 0.903581 -0.0810147 0 128 0
0.104147 0.884574 0.202562 0.905768 -0.160256 -0.392303 0 128 0
-0.262753 0.517126 0.102951 -0.586305 0.755461 0.292445 0 128 0
-0.378182 0.793338 0.171783 0.966821 -0.0932514 -0.237826 0 128 0
-0.359449 0.777122 0.166671 0.961881 -0.141286 -0.234143 0 128 0
-0.361423 0.809143 0.173666 0.966821 -0.0932514 -0.237826 0 128 0
-0.358657 0.831381 0.178196 0.974106 -0.0369744 -0.223048 0 128 0
-0.367394 0.884557 0.190355 0.951263 -0.240086 -0.193537 0 128 0
-0.259935 0.891307 0.184511 0.30682 -0.534898 -0.787239 0 128 0
0.0313132 0.613676 0.11442 0.931126 -0.32314 -0.16907 0 128 0
0.0535551 0.765259 0.14998 -0.461144 -0.880271 0.111671 0 128 0
0.0618759 0.753678 0.147531 -0.344607 -0.926203 0.152952 0 128 0
0.0719103 0.758449 0.148931 -0.441478 -0.885173 0.146853 0 128 0
-0.286526 0.564521 0.100357 0.905965 0.0463242 -0.42081 0 128 0
-0.379682 0.785846 0.149728 0.963375 -0.105415 -0.246568 0 128 0
-0.366339 0.782176 0.147959 0.97391 0.0519579 -0.220904 0 128 0
-0.369394 0.816092 0.154651 0.973048 -0.0511368 -0.224863 0 128 0
-0.366029 0.836629 0.158325 0.973048 -0.0511368 -0.224863 0 128 0
-0.369508 0.875384 0.166032 0.983837 0.0934885 -0.152724 0 128 0
-0.264817 0.88993 0.162436 0.520586 -0.703242 -0.484191 0 128 0
0.0511457 0.776463 0.13396 -0.522448 -0.845558 0.109911 0 128 0
0.0582955 0.750226 0.128708 -0.604943 -0.776777 0.175102 0 128 0
0.0674799 0.748268 0.128544 0.691644 0.696036 -0.192776 0 128 0
-0.302564 0.582769 0.0886809 0.884819 0.10744 -0.453378 0 128 0
-0.385309 0.781013 0.127197 0.958662 0.0690393 -0.276045 0 128 0
-0.374401 0.782773 0.126711 0.960168 0.0736524 -0.26954 0 128 0
-0.372886 0.806065 0.130463 0.953736 -0.130133 -0.271023 0 128 0
-0.363257 0.811274 0.130685 0.953736 -0.130133 -0.271023 0 128 0
-0.367558 0.851051 0.137623 0.949476 -0.0487437 -0.310032 0 128 0
0.0438629 0.772684 0.113227 0.716672 0.683002 -0.141031 0 128 0
0.0509168 0.745429 0.108442 0.856049 0.473414 -0.207506 0 128 0
0.0602543 0.745513 0.108661 0.856049 0.473414 -0.207506 0 128 0
-0.304779 0.58471 0.0739385 0.829861 0.292836 -0.474951 0 128 0
-0.394831 0.793572 0.109259 0.96446 0.0973417 -0.245647 0 128 0
-0.38415 0.79635 0.108996 0.96446 0.0973417 -0.245647 0 128 0
-0.379074 0.811627 0.110883 0.949854 -0.119911 -0.288788 0 128 0
-0.374847 0.829624 0.113231 0.957133 -0.0777805 -0.279012 0 128 0
-0.368338 0.843074 0.114814 0.957133 -0.0777805 -0.279012 0 128 0
0.0407335 0.762316 0.0933321 0.960806 0.192872 -0.199129 0 128 0
0.0470694 0.72513 0.0876136 0.955044 0.204438 -0.214702 0 128 0
0.057493 0.739034 0.0899878 0.955044 0.204438 -0.214702 0 128 0
-0.336914 0.633019 0.0653274 0.896276 0.423805 -0.130687 0 128 0
-0.414154 0.814938 0.090975 0.941281 0.143965 -0.305393 0 128 0
-0.386947 0.782854 0.0857414 0.958897 0.117014 -0.258503 0 128 0
-0.356938 0.742086 0.0793449 0.866716 0.495858 -0.0541025 0 128 0
-0.380463 0.821713 0.0900816 0.970485 -0.0312253 -0.239132 0 128 0
-0.379078 0.847144 0.0930921 0.965867 -0.0661471 -0.250451 0 128 0
-0.230408 0.738014 0.0736434 -0.138868 -0.864016 -0.483934 0 128 0
0.0342643 0.782121 0.0769015 0.981841 -0.0474264 -0.183679 0 128 0
0.039985 0.733014 0.0705273 0.978932 -0.0407088 -0.200085 0 128 0
0.0486016 0.727323 0.0699117 0.97104 -0.0455467 -0.234537 0 128 0
0.0784218 0.921647 0.0959014 0.96566 -0.207923 -0.155783 0 128 0
-0.420995 0.823458 0.0710459 0.901375 0.301313 -0.31102 0 128 0
-0.396731 0.79869 0.0676112 0.965767 0.189347 -0.177318 0 128 0
-0.376867 0.781593 0.0651232 0.922081 0.385348 -0.035698 0 128 0
-0.389335 0.835943 0.0709741 0.918889 0.300352 -0.255796 0 128 0
-0.380919 0.845017 0.0715493 0.924442 0.337351 -0.177769 0 128 0
0.0308432 0.748878 0.05512 0.974544 -0.00897433 -0.224017 0 128 0
0.0490467 0.743513 0.0547705 0.969621 -0.0230968 -0.243521 0 128 0
-0.453832 0.869345 0.052949 0.962489 0.176164 -0.206352 0 128 0
-0.400447 0.785628 0.0450164 0.783076 0.606553 -0.137423 0 128 0
-0.37937 0.765856 0.042882 0.489209 0.871682 0.0290623 0 128 0
-0.398009 0.832993 0.048495 0.879191 0.428898 -0.207531 0 128 0
-0.387669 0.837605 0.0485416 0.949003 -0.315106 -0.0100616 0 128 0
0.00829166 0.64078 0.0276017 0.889252 -0.401817 -0.218573 0 128 0
0.0244486 0.784691 0.0396407 0.969645 -0.0856754 -0.229015 0 128 0
0.0282491 0.698623 0.0325588 0.968789 -0.0744326 -0.23645 0 128 0
0.0368278 0.697022 0.0325141 0.968324 -0.0744771 -0.238333 0 128 0
0.0628902 0.881849 0.0480618 0.973427 -0.185971 -0.133623 0 128 0
-0.485043 0.89805 0.03276 0.979854 -0.0332136 -0.196936 0 128 0
-0.425414 0.807418 0.0266321 0.847018 0.482742 -0.222534 0 128 0
-0.401371 0.783659 0.0248447 -0.209161 -0.972414 0.103257 0 128 0
-0.394197 0.793733 0.0252327 0.067164 -0.983151 0.17001 0 128 0
-0.398059 0.828255 0.0271704 -0.300837 -0.942322 0.146715 0 128 0
-0.399106 0.858424 0.0288234 0.977669 0.0800442 -0.194308 0 128 0
-0.414418 0.923608 0.0326645 0.966248 0.156817 -0.204386 0 128 0
-0.405255 0.93395 0.0330603 0.967748 0.0827491 -0.237943 0 128 0
0.0212244 0.739403 0.018907 0.974047 -0.0833759 -0.210431 0 128 0
-0.308521 0.54017 -0.00483979 0.934044 0.356614 -0.0197138 0 128 0
-0.437434 0.809989 0.00488774 0.88992 0.421038 -0.17541 0 128 0
-0.418076 0.796272 0.0042513 0.873907 0.415142 -0.252869 0 128 0
-0.40214 0.788515 0.00384033 0.130303 0.987709 0.0863196 0 128 0
-0.394869 0.798624 0.00407978 -0.0133729 0.954014 0.299464 0 128 0
-0.385359 0.804114 0.00415791 -0.117216 -0.979417 -0.164324 0 128 0
-0.373781 0.804909 0.00407194 -0.146615 -0.961206 -0.233637 0 128 0
-0.357595 0.794484 0.00359339 0.113345 0.991997 -0.0556329 0 128 0
-0.346604 0.795826 0.00353899 0.0654345 0.996859 0.0446234 0 128 0
-0.341821 0.812843 0.00404324 0.384462 0.775799 0.500325 0 128 0
-0.336319 0.828926 0.00451543 0.0769297 0.963737 -0.255524 0 128 0
-0.361524 0.930481 0.00798718 0.775907 0.604181 -0.18148 0 128 0
-0.218286 0.60577 -0.0035722 0.691351 0.0143296 0.722377 0 128 0
-0.243171 0.713246 0.000107444 0.280252 0.144518 0.948985 0 128 0
0.0143629 0.78233 0.00245245 0.941179 0.239432 -0.238442 0 128 0
0.0419498 0.762718 0.00195367 0.979624 -0.0238444 -0.199421 0 128 0
-0.283949 0.510747 -0.0191334 -0.126389 -0.946324 -0.297483 0 128 0
-0.426345 0.809653 -0.0161599 0.941061 0.0437517 -0.335395 0 128 0
-0.403574 0.788556 -0.0163742 -0.135042 0.919404 0.369404 0 128 0
-0.409592 0.826692 -0.015997 0.858831 0.358041 -0.366354 0 128 0
-0.410151 0.855089 -0.0157154 0.943247 0.0172046 -0.331646 0 128 0
-0.266262 0.559071 -0.0186607 -0.476648 -0.767435 -0.428778 0 128 0
-0.268745 0.58415 -0.0184093 -0.703132 -0.25275 -0.664622 0 128 0
-0.390383 0.89855 -0.0152767 0.883924 0.395825 -0.249 0 128 0
-0.343605 0.813929 -0.0161145 0.228094 0.949134 0.217065 0 128 0
-0.325228 0.796419 -0.0162832 0.0902582 0.881999 0.462527 0 128 0
-0.316735 0.803894 -0.016202 -0.210328 0.519425 -0.828227 0 128 0
-0.296993 0.78021 -0.0164293 -0.243965 -0.272344 -0.930758 0 128 0
-0.286982 0.782644 -0.0163957 -0.236081 -0.629064 -0.740638 0 128 0
-0.278208 0.78875 -0.0163237 -0.253421 -0.628871 -0.735051 0 128 0
-0.254531 0.78153 -0.0163705 -0.266552 -0.628013 -0.731129 0 128 0
-0.251791 0.808399 -0.0160858 -0.253118 -0.0843865 -0.963748 0 128 0
-0.252426 0.849773 -0.0156522 -0.266685 -0.02159 -0.963542 0 128 0
-0.183304 0.630199 -0.0178526 -0.453071 -0.0110168 -0.891406 0 128 0
0.0117022 0.726048 -0.0161735 0.944785 -0.0630965 -0.321559 0 128 0
-0.331396 0.583766 -0.0341056 0.952647 0.265805 0.147689 0 128 0
-0.431683 0.798737 -0.0377602 0.937994 -0.110266 -0.328646 0 128 0
-0.414675 0.789426 -0.0374669 0.929017 -0.022056 -0.369378 0 128 0
-0.421709 0.829422 -0.0380258 0.946334 -0.0861033 -0.311509 0 128 0
-0.415198 0.842493 -0.0381179 0.941903 -0.136781 -0.306774 0 128 0
-0.437507 0.920291 -0.0392994 0.986658 -0.138574 -0.0854593 0 128 0
-0.27391 0.812922 -0.036416 -0.249722 -0.0853803 -0.964546 0 128 0
-0.255615 0.788208 -0.0359418 -0.268102 -0.199924 -0.942418 0 128 0
-0.24719 0.795892 -0.0359719 -0.251612 -0.083631 -0.964208 0 128 0
-0.237316 0.798661 -0.0359279 -0.244921 -0.0815808 -0.966105 0 128 0
-0.226914 0.79937 -0.035854 -0.252492 -0.142999 -0.956974 0 128 0
-0.212756 0.784399 -0.0355476 -0.255768 -0.0919037 -0.96236 0 128 0
-0.205935 0.799415 -0.0356929 -0.271155 -0.13309 -0.95329 0 128 0
-0.192421 0.785064 -0.0354031 -0.265992 -0.148907 -0.952405 0 128 0
-0.181485 0.781284 -0.0352731 -0.250293 -0.172056 -0.952759 0 128 0
-0.171043 0.779319 -0.0351727 -0.267493 -0.152463 -0.951421 0 128 0
-0.178069 0.874667 -0.0364897 -0.245283 -0.0276683 -0.969057 0 128 0
0.0041022 0.764052 -0.0339935 -0.13462 0.911465 0.388726 0 128 0
0.0317918 0.75279 -0.0337368 0.97234 -0.0455027 -0.229096 0 128 0
-0.429263 0.790625 -0.0581768 0.940356 -0.100594 -0.32498 0 128 0
-0.41944 0.795629 -0.0581325 0.940356 -0.100594 -0.32498 0 128 0
-0.424897 0.831942 -0.0594543 0.95562 -0.107698 -0.274211 0 128 0
-0.419267 0.846827 -0.0598369 0.971878 -0.0793022 -0.221729 0 128 0
-0.18225 0.658898 -0.0492091 0.269527 0.05953 0.961151 0 128 0
-0.135272 0.497546 -0.0427701 0.164881 -0.965731 -0.200443 0 128 0
-0.198912 0.809987 -0.0548836 -0.240952 -0.0367693 -0.96984 0 128 0
-0.182246 0.780879 -0.0536227 -0.237139 -0.0662044 -0.969217 0 128 0
-0.171781 0.778932 -0.0534272 -0.249452 -0.0546877 -0.966842 0 128 0
-0.163949 0.790603 -0.0537639 -0.249452 -0.0546877 -0.966842 0 128 0
-0.152951 0.785459 -0.0534549 -0.217227 -0.0487592 -0.974903 0 128 0
-0.14353 0.789046 -0.0534876 -0.241431 -0.0702596 -0.967871 0 128 0
-0.133161 0.78659 -0.0532937 -0.258393 -0.0847119 -0.962319 0 128 0
-0.12314 0.785981 -0.0531749 -0.252939 -0.279837 -0.926128 0 128 0
-0.113887 0.791197 -0.053282 -0.237113 -0.23983 -0.941413 0 128 0
-0.101988 0.77346 -0.0525251 -0.251517 -0.144433 -0.957015 0 128 0
-0.0964159 0.815223 -0.0540213 -0.234666 -0.270047 -0.933813 0 128 0
-0.0694255 0.620005 -0.0465955 0.220455 -0.296991 -0.929083 0 128 0
0.00322936 0.751878 -0.0510976 0.656101 0.737666 -0.159314 0 128 0
-0.362394 0.624604 -0.0683948 0.861473 0.474059 0.182023 0 128 0
-0.448681 0.808225 -0.0812979 0.945426 -0.11408 -0.305213 0 128 0
-0.437736 0.811688 -0.081125 0.945426 -0.11408 -0.305213 0 128 0
-0.426329 0.814112 -0.0808883 0.956275 -0.0946513 -0.276729 0 128 0
-0.429135 0.84609 -0.0827506 0.958502 -0.138315 -0.249285 0 128 0
-0.427859 0.871012 -0.0841008 0.964699 -0.0968154 -0.244913 0 128 0
-0.116332 0.619344 -0.0619907 0.200414 0.0934 0.975249 0 128 0
-0.141744 0.856747 -0.0768421 -0.277509 -0.141417 -0.950258 0 128 0
-0.121905 0.785949 -0.0722517 -0.252939 -0.279837 -0.926128 0 128 0
-0.11159 0.782224 -0.0718983 -0.23614 -0.237695 -0.942199 0 128 0
-0.101384 0.778368 -0.0715444 -0.245289 -0.137278 -0.959681 0 128 0
-0.0910174 0.771399 -0.0710057 -0.196387 0.412524 -0.889526 0 128 0
-0.0815339 0.77325 -0.0710256 -0.274024 -0.196038 -0.941531 0 128 0
-0.0718845 0.772993 -0.0709213 -0.282098 -0.206401 -0.93692 0 128 0
-0.0624116 0.775607 -0.071003 0.253747 0.851424 0.45901 0 128 0
-0.052473 0.768135 -0.0704652 0.225109 0.964182 0.140282 0 128 0
-0.0433277 0.781487 -0.0712268 0.167383 0.983618 0.0669167 0 128 0
-0.0336463 0.781757 -0.0711842 0.054801 0.998077 0.0289517 0 128 0
-0.0240378 0.799874 -0.0722525 -0.0154369 0.999879 -0.00182799 0 128 0
-0.00434796 0.793829 -0.0717955 0.0556498 0.997275 0.0484411 0 128 0
0.00259126 0.704836 -0.0662773 0.946099 -0.132784 -0.295408 0 128 0
0.0112837 0.703551 -0.0661774 0.946099 -0.132784 -0.295408 0 128 0
0.0242774 0.777892 -0.0707458 0.616522 -0.752893 -0.230332 0 128 0
0.0347396 0.789281 -0.0714401 0.681291 -0.686827 -0.253202 0 128 0
-0.451701 0.809584 -0.102907 0.946683 -0.152158 -0.283972 0 128 0
-0.43614 0.804253 -0.101813 0.945641 -0.150123 -0.288489 0 128 0
-0.434209 0.825362 -0.10334 0.946062 -0.174676 -0.272864 0 128 0
-0.433131 0.849228 -0.105127 0.945815 -0.169509 -0.276949 0 128 0
-0.436213 0.883099 -0.107871 0.964182 -0.035767 -0.262818 0 128 0
-0.0628517 0.637706 -0.0772775 -0.152676 -0.213452 -0.96495 0 128 0
-0.0729557 0.932589 -0.102582 -0.304672 -0.186698 -0.93398 0 128 0
-0.0542132 0.785931 -0.0898696 -0.392177 -0.643997 -0.65686 0 128 0
-0.0446945 0.79231 -0.0903392 0.397346 0.761082 0.51271 0 128 0
-0.0344439 0.774667 -0.0887586 0.124209 0.989114 0.0789054 0 128 0
-0.0242936 0.729001 -0.0847884 -0.373608 -0.484079 -0.791255 0 128 0
-0.0152488 0.770889 -0.0883333 -0.110117 -0.993811 -0.0146113 0 128 0
-0.00572409 0.768823 -0.08812 -0.147212 -0.986945 -0.0653255 0 128 0
0.0032324 0.745725 -0.0861184 -0.246317 -0.740701 -0.625052 0 128 0
0.0113658 0.715557 -0.0835222 0.946921 -0.143745 -0.287539 0 128 0
0.0229834 0.770891 -0.0882504 0.65285 -0.690641 -0.311131 0 128 0
0.0325301 0.770348 -0.0882087 0.782954 -0.486776 -0.38734 0 128 0
0.0443477 0.800492 -0.0908033 0.670433 -0.662441 -0.334202 0 128 0
0.0577691 0.840386 -0.0942434 0.77749 -0.507579 -0.371312 0 128 0
-0.38488 0.647401 -0.105571 0.824071 0.550591 0.133255 0 128 0
-0.475911 0.835531 -0.129005 0.939956 -0.135897 -0.313072 0 128 0
-0.442939 0.797975 -0.123484 0.948553 -0.190454 -0.252931 0 128 0
-0.439779 0.816438 -0.125114 0.957615 -0.149388 -0.246285 0 128 0
-0.436229 0.834943 -0.126742 0.952789 -0.215226 -0.214176 0 128 0
-0.433144 0.855278 -0.128592 0.946811 -0.18845 -0.260838 0 128 0
-0.0231192 0.640596 -0.0925545 0.814964 -0.430269 -0.388204 0 128 0
-0.0137396 0.810593 -0.111265 0.269228 -0.954955 0.124808 0 128 0
-0.00458659 0.767768 -0.106509 0.453431 0.88162 -0.130944 0 128 0
0.0049237 0.767565 -0.106468 0.171631 0.973088 -0.153759 0 128 0
0.0149696 0.779162 -0.10774 0.656028 -0.737835 -0.158831 0 128 0
0.0245042 0.776734 -0.107478 0.800973 -0.533315 -0.272061 0 128 0
0.0381411 0.833686 -0.113778 0.715002 -0.675405 -0.180558 0 128 0
0.0474802 0.821066 -0.112423 0.73172 -0.673683 -0.103616 0 128 0
0.0629749 0.876628 -0.118605 0.741517 -0.441429 -0.505265 0 128 0
0.0812171 0.944776 -0.126202 0.900763 -0.243708 -0.359489 0 128 0
-0.47252 0.82323 -0.149778 0.941323 -0.198335 -0.273084 0 128 0
-0.448745 0.803429 -0.145808 0.917666 -0.308196 -0.250806 0 128 0
-0.445154 0.820989 -0.147657 0.945694 -0.202638 -0.254165 0 128 0
-0.438522 0.833271 -0.148692 0.952782 -0.195463 -0.23238 0 128 0
-0.436436 0.855308 -0.151213 0.955194 -0.170577 -0.241886 0 128 0
-0.0154798 0.759982 -0.123496 0.382934 0.923115 -0.0349267 0 128 0
-0.00616131 0.751986 -0.122389 0.611769 0.790157 -0.0372887 0 128 0
0.00313206 0.750815 -0.122215 0.896495 0.39615 -0.198398 0 128 0
-0.494453 0.846402 -0.178173 0.960905 0.0374156 -0.27434 0 128 0
-0.461011 0.80962 -0.170295 0.937474 -0.237034 -0.254869 0 128 0
-0.457355 0.827266 -0.172485 0.937474 -0.237034 -0.254869 0 128 0
-0.453331 0.844945 -0.174675 0.953763 -0.18538 -0.23658 0 128 0
-0.448504 0.861763 -0.176704 0.950885 0.0366231 -0.307371 0 128 0
-0.0306038 0.647279 -0.124367 0.944612 -0.32524 -0.0439052 0 128 0
-0.0230552 0.811326 -0.150518 -0.573999 0.818846 -0.00401798 0 128 0
-0.0133128 0.778764 -0.14527 0.561757 0.823559 -0.0786173 0 128 0
-0.00364516 0.779657 -0.145386 0.786557 -0.567643 -0.243125 0 128 0
0.0108909 0.923537 -0.168352 0.896898 -0.189219 -0.399714 0 128 0
-0.501397 0.850643 -0.202912 -0.175149 0.98263 0.0613251 0 128 0
-0.464756 0.809173 -0.192776 0.246096 0.969171 0.0120526 0 128 0
-0.453313 0.812019 -0.19218 0.246096 0.969171 0.0120526 0 128 0
-0.452283 0.834776 -0.195801 -0.175149 0.98263 0.0613251 0 128 0
-0.44678 0.849724 -0.19777 -0.175149 0.98263 0.0613251 0 128 0
-0.0249613 0.767978 -0.161989 0.79172 0.588892 -0.162436 0 128 0
-0.0154467 0.756229 -0.159772 0.936427 0.310515 -0.163354 0 128 0
-0.00598066 0.76403 -0.161181 0.89816 0.375329 -0.228989 0 128 0
-0.514474 0.859015 -0.229904 0.35373 0.927212 0.123099 0 128 0
-0.475866 0.81456 -0.217639 0.324856 0.944621 0.0464686 0 128 0
-0.463249 0.840349 -0.221065 0.341334 0.931076 0.128795 0 128 0
-0.45414 0.848395 -0.221639 0.341334 0.931076 0.128795 0 128 0
-0.271451 0.662385 -0.169588 0.924135 -0.231898 -0.30364 0 128 0
-0.0323028 0.806166 -0.188814 0.884741 0.417128 -0.207938 0 128 0
-0.0222393 0.767154 -0.180573 0.9427 0.208455 -0.260506 0 128 0
-0.0127357 0.767173 -0.180531 0.9427 0.208455 -0.260506 0 128 0
-0.468201 0.814491 -0.240133 0.393204 0.899579 0.190126 0 128 0
-0.468644 0.839712 -0.245396 0.233155 0.969597 0.0743002 0 128 0
-0.459562 0.847796 -0.246041 0.231953 0.970919 0.0592808 0 128 0
-0.270366 0.652781 -0.185024 0.245872 -0.804933 -0.540028 0 128 0
-0.0350554 0.776772 -0.202053 0.9561 0.170474 -0.238352 0 128 0
-0.0254447 0.777922 -0.202239 0.955107 0.191407 -0.226129 0 128 0
-0.0158113 0.783821 -0.20357 0.955107 0.191407 -0.226129 0 128 0
-0.478167 0.797836 -0.261207 0.412777 0.88116 0.230591 0 128 0
-0.443331 0.829923 -0.264076 0.278904 0.940922 0.192037 0 128 0
-0.443644 0.85683 -0.270385 0.0891405 0.995987 -0.00804306 0 128 0
-0.423898 0.842789 -0.264745 0.278904 0.940922 0.192037 0 128 0
-0.432797 0.88993 -0.276897 -0.000697988 0.999909 0.0134798 0 128 0
-0.289127 0.686471 -0.212667 -0.398671 -0.56763 -0.720318 0 128 0
-0.0400206 0.761191 -0.217616 0.962378 0.145717 -0.229336 0 128 0
-0.0306137 0.763365 -0.21808 0.965187 0.134516 -0.224319 0 128 0
-0.0211584 0.769294 -0.219552 0.965187 0.134516 -0.224319 0 128 0
-0.594971 0.985307 -0.349194 -0.391481 -0.860559 -0.325855 0 128 0
-0.414436 0.808692 -0.279049 0.423528 0.760188 0.492684 0 128 0
-0.408096 0.821337 -0.281506 -0.367765 -0.685468 -0.628396 0 128 0
-0.395895 0.821728 -0.28007 -0.415463 -0.529021 -0.739951 0 128 0
-0.384133 0.822821 -0.278913 -0.406912 -0.462427 -0.787772 0 128 0
-0.36861 0.814925 -0.274976 -0.401237 -0.467814 -0.787502 0 128 0
-0.362546 0.828954 -0.277986 -0.396669 -0.49311 -0.774272 0 128 0
-0.338316 0.798375 -0.267106 -0.261277 -0.408224 -0.874693 0 128 0
-0.343305 0.840801 -0.279005 -0.281303 -0.399271 -0.872612 0 128 0
-0.0445338 0.766835 -0.239004 0.929885 0.274817 -0.24452 0 128 0
-0.035155 0.771935 -0.240345 0.923485 0.284615 -0.257236 0 128 0
-0.0256167 0.774036 -0.240856 0.923485 0.284615 -0.257236 0 128 0
-0.320253 0.743327 -0.270906 0.270331 0.463914 0.843626 0 128 0
-0.294593 0.704278 -0.256433 0.306753 0.506989 0.805521 0 128 0
-0.320623 0.801556 -0.287958 -0.25745 -0.414809 -0.872727 0 128 0
-0.311636 0.807934 -0.288815 -0.25745 -0.414809 -0.872727 0 128 0
-0.306867 0.826845 -0.293879 -0.256249 -0.457799 -0.851327 0 128 0
-0.296312 0.829451 -0.293533 -0.243464 -0.467509 -0.8498 0 128 0
-0.0482208 0.763939 -0.257731 0.669541 0.692884 -0.267631 0 128 0
-0.0387322 0.763326 -0.257391 0.796554 0.549312 -0.252506 0 128 0
-0.0292533 0.761643 -0.256751 0.880468 0.398448 -0.256935 0 128 0
-0.267751 0.621242 -0.246768 -0.169368 -0.730975 -0.661052 0 128 0
-0.348229 0.884242 -0.340705 -0.283664 -0.496654 -0.820286 0 128 0
-0.307499 0.805468 -0.310514 -0.242723 -0.422744 -0.87314 0 128 0
-0.297504 0.808991 -0.310469 -0.262548 -0.490598 -0.830893 0 128 0
-0.285677 0.807004 -0.30848 -0.272298 -0.511246 -0.815157 0 128 0
-0.272794 0.801244 -0.305196 -0.286663 -0.32902 -0.899761 0 128 0
-0.256504 0.783527 -0.2977 -0.28652 -0.331117 -0.899037 0 128 0
-0.246782 0.786426 -0.297657 -0.266762 -0.361767 -0.893288 0 128 0
-0.241339 0.8047 -0.303119 -0.258674 -0.462056 -0.848287 0 128 0
-0.231842 0.809239 -0.303722 -0.244119 -0.445298 -0.861462 0 128 0
-0.227126 0.832934 -0.311122 -0.244119 -0.445298 -0.861462 0 128 0
-0.0544124 0.764512 -0.278412 0.526316 0.821124 -0.220785 0 128 0
-0.0446485 0.757365 -0.275787 0.526316 0.821124 -0.220785 0 128 0
-0.0354598 0.765233 -0.278328 0.526316 0.821124 -0.220785 0 128 0
-0.259258 0.824205 -0.33431 -0.257356 -0.51216 -0.819427 0 128 0
-0.246316 0.817182 -0.330451 -0.270942 -0.414986 -0.868549 0 128 0
-0.230749 0.799076 -0.322434 -0.244119 -0.445298 -0.861462 0 128 0
-0.220614 0.800748 -0.322043 -0.246545 -0.477498 -0.843334 0 128 0
-0.208331 0.793158 -0.318187 -0.252453 -0.479557 -0.840412 0 128 0
-0.195657 0.782642 -0.313293 -0.257673 -0.330432 -0.907975 0 128 0
-0.188438 0.796733 -0.317752 -0.234812 -0.48909 -0.840032 0 128 0
-0.181801 0.815369 -0.323944 -0.234812 -0.48909 -0.840032 0 128 0
-0.170174 0.809043 -0.320782 -0.256457 -0.461215 -0.849417 0 128 0
-0.167702 0.855273 -0.337357 -0.225445 -0.377047 -0.898337 0 128 0
-0.0534332 0.553012 -0.221091 0.901675 -0.389922 -0.186932 0 128 0
-0.0560253 0.759646 -0.297125 0.380968 0.921127 -0.0799266 0 128 0
-0.0466111 0.760086 -0.297084 0.378186 0.921357 -0.0898681 0 128 0
-0.0372721 0.764163 -0.298425 0.378186 0.921357 -0.0898681 0 128 0
-0.598138 0.960735 -0.4644 -0.346079 -0.868275 -0.355427 0 128 0
-0.213942 0.869242 -0.370829 -0.239001 -0.387382 -0.890401 0 128 0
-0.189966 0.80983 -0.345639 -0.234812 -0.48909 -0.840032 0 128 0
-0.173886 0.78185 -0.333395 -0.271886 -0.259881 -0.926574 0 128 0
-0.164535 0.785563 -0.334091 -0.263852 -0.26898 -0.9263 0 128 0
-0.154795 0.787334 -0.334048 -0.273987 -0.316641 -0.908113 0 128 0
-0.145033 0.788986 -0.334005 -0.265086 -0.344023 -0.900765 0 128 0
-0.134562 0.785923 -0.332115 -0.28394 -0.5251 -0.802277 0 128 0
-0.125581 0.792849 -0.334289 -0.28394 -0.5251 -0.802277 0 128 0
-0.117371 0.807051 -0.339416 -0.240002 -0.334884 -0.911181 0 128 0
-0.106225 0.798084 -0.335309 0.237075 0.777296 0.582758 0 128 0
-0.0962429 0.798215 -0.334896 0.188562 0.799926 0.569705 0 128 0
-0.0923835 0.867652 -0.362175 -0.19684 -0.366878 -0.909206 0 128 0
-0.0646013 0.770039 -0.322583 0.358217 0.932952 -0.0357852 0 128 0
-0.0543962 0.75759 -0.317375 0.438897 0.890782 -0.117801 0 128 0
-0.0449718 0.757082 -0.316964 0.438897 0.890782 -0.117801 0 128 0
-0.138829 0.818155 -0.368063 -0.26478 -0.342002 -0.901624 0 128 0
-0.124766 0.789504 -0.355087 -0.240002 -0.334884 -0.911181 0 128 0
-0.113472 0.777995 -0.349559 0.300954 0.916817 0.262437 0 128 0
-0.102189 0.763586 -0.342856 0.284377 0.948011 0.142845 0 128 0
-0.0930635 0.76826 -0.344382 0.256468 0.957068 0.135073 0 128 0
-0.0840591 0.775576 -0.347081 0.256468 0.957068 0.135073 0 128 0
-0.0734433 0.761673 -0.340774 0.351367 0.936065 0.0180018 0 128 0
-0.0639514 0.76141 -0.34034 0.319191 0.947678 -0.00486297 0 128 0
-0.0543552 0.758272 -0.338733 0.358217 0.932952 -0.0357852 0 128 0
-0.0491819 0.892976 -0.395841 -0.131401 -0.497475 -0.857468 0 128 0
-0.0756109 0.780875 -0.371953 0.213968 0.891114 0.400167 0 128 0
-0.0647116 0.762488 -0.3632 0.306393 0.94941 0.0688788 0 128 0
-0.0562052 0.781213 -0.371452 -0.110969 0.622443 0.774759 0 128 0
-0.695858 0.972132 -0.91851 0.221752 0.974254 0.0406845 0 128 0
-0.710716 1.02065 -0.955597 0.221752 0.974254 0.0406845 0 128 0
-0.713844 0.88657 -0.968245 0.238838 0.97044 0.034683 0 128 0
-0.713981 0.984194 -1.03487 0.238838 0.97044 0.034683 0 128 0
-0.738094 0.906544 -1.10155 0.238838 0.97044 0.034683 0 128 0
-0.766943 1.04667 -1.22372 0.238838 0.97044 0.034683 0 128 0
-0.582888 0.952049 -1.05285 0.289485 0.95718 0.00215807 0 128 0
-0.76414 0.739128 -1.05655 0.238838 0.97044 0.034683 0 128 0
-1.38682 0.70987 1.32448 -0.608944 0.764409 0.211816 0 128 0
-1.02778 0.984131 1.21082 -0.425719 0.885596 0.185696 0 128 0
-0.698405 1.10308 1.11231 -0.329659 0.936421 0.120167 0 128 0
-0.394278 1.18934 1.07168 -0.0484993 0.998084 0.0384171 0 128 0
-1.18954 0.885294 1.20109 -0.506911 0.842813 0.180854 0 128 0
-0.862621 1.04885 1.10072 -0.359947 0.917918 0.166928 0 128 0
-0.554908 1.16546 1.04954 -0.164723 0.980907 0.103383 0 128 0
-0.139934 1.23205 1.0144 -0.279784 -0.105362 -0.954264 0 128 0
-1.54521 0.60097 1.26791 -0.640957 0.735238 0.220453 0 128 0
-1.17676 0.915747 1.13982 -0.495504 0.852682 0.165556 0 128 0
-0.834584 1.0594 1.031 -0.344049 0.925881 0.156123 0 128 0
-0.531262 1.17915 0.992235 -0.151957 0.983526 0.0979021 0 128 0
-0.128332 1.22261 0.948244 -0.290303 -0.248586 -0.924083 0 128 0
-1.79298 0.240413 1.31873 0.790549 -0.526615 -0.312586 0 128 0
-1.25107 0.866324 1.10703 0.523944 -0.832008 -0.182334 0 128 0
-0.917294 1.04066 1.00934 0.37392 -0.910939 -0.174281 0 128 0
-0.608606 1.17303 0.964463 0.219454 -0.968807 -0.115118 0 128 0
-0.195579 1.20981 0.898122 -0.475937 -0.122056 -0.870969 0 128 0
0.119671 1.20708 0.894028 0.278731 0.377928 0.882881 0 128 0
-1.62611 0.512628 1.17047 0.672505 -0.708145 -0.215101 0 128 0
-1.30055 0.836501 1.06057 0.529612 -0.827963 -0.18436 0 128 0
-0.966668 1.02323 0.965334 0.37392 -0.910939 -0.174281 0 128 0
-0.655411 1.1622 0.917481 0.247378 -0.96239 -0.112294 0 128 0
-0.043245 1.20478 0.834568 -0.122728 -0.882863 -0.453312 0 128 0
0.314512 1.17632 0.849032 0.146328 0.366001 0.919038 0 128 0
-1.80096 0.289453 1.19147 0.78643 -0.545977 -0.288854 0 128 0
-1.51632 0.643861 1.07371 -0.636536 0.744366 0.201844 0 128 0
-1.13245 0.939321 0.958075 0.470543 -0.867974 -0.15878 0 128 0
-0.818982 1.11133 0.90051 0.318651 -0.940528 -0.117762 0 128 0
-0.494885 1.2005 0.849211 0.176036 -0.979654 -0.0963814 0 128 0
0.37843 1.1746 0.818445 -0.177334 -0.479948 -0.859187 0 128 0
-2.05407 -0.425321 1.3762 0.932329 -0.196092 -0.303825 0 128 0
-1.48374 0.709998 1.0091 0.605079 -0.777691 -0.170517 0 128 0
-1.1417 0.93903 0.905627 0.470543 -0.867974 -0.15878 0 128 0
-0.829055 1.11481 0.852623 0.312148 -0.940117 -0.136907 0 128 0
-0.492731 1.17852 0.785002 0.109574 -0.989874 -0.0902415 0 128 0
-0.0945061 1.22751 0.761184 -0.108104 -0.963476 -0.245007 0 128 0
0.518855 1.12846 0.776913 0.176721 0.926429 0.332415 0 128 0
-2.10173 -0.773749 1.38642 0.959663 0.0854247 -0.26786 0 128 0
-1.82856 0.319229 1.08248 0.770585 -0.589271 -0.242814 0 128 0
-1.52762 0.673281 0.971143 0.616363 -0.766711 -0.179585 0 128 0
-1.13791 0.94667 0.859644 0.459695 -0.8732 -0.161871 0 128 0
-0.825881 1.12441 0.811761 0.291559 -0.949015 -0.119852 0 128 0
-0.486269 1.18399 0.745614 0.0830289 -0.996182 -0.0269598 0 128 0
-0.086925 1.23439 0.725354 -0.143489 -0.962407 -0.230617 0 128 0
0.380346 1.17449 0.730012 -0.182507 -0.971042 -0.154172 0 128 0
0.681642 1.08261 0.761206 0.390122 0.920759 0.00263317 0 128 0
-2.1201 -0.829495 1.33737 0.959663 0.0854247 -0.26786 0 128 0
-1.72159 0.482199 0.977714 0.701395 -0.678541 -0.218234 0 128 0
-1.39177 0.810365 0.879028 0.588751 -0.791491 -0.164058 0 128 0
-1.05804 1.02534 0.803885 0.43088 -0.888376 -0.158527 0 128 0
-0.713448 1.14258 0.735279 0.270642 -0.956696 -0.107169 0 128 0
-0.30105 1.22858 0.693519 0.121277 -0.992604 -0.00545073 0 128 0
0.0224841 1.23694 0.681913 -0.148101 -0.987018 -0.0621391 0 128 0
0.384145 1.17763 0.687495 -0.209421 -0.977525 -0.0242633 0 128 0
0.678341 1.07223 0.708302 0.379317 0.925189 -0.0120103 0 128 0
-2.04597 -1.36287 1.36114 0.932749 0.260779 -0.248946 0 128 0
-2.14464 -0.770107 1.25664 0.960311 0.0741746 -0.268889 0 128 0
-1.8684 0.306091 0.980215 0.77961 -0.581385 -0.23281 0 128 0
-1.56448 0.67027 0.878771 0.637389 -0.745681 -0.194154 0 128 0
-1.17072 0.953827 0.778184 0.471896 -0.866912 -0.160552 0 128 0
-0.837276 1.11531 0.719121 0.289036 -0.949731 -0.120292 0 128 0
-0.507497 1.20062 0.673484 0.102829 -0.990093 0.0956097 0 128 0
-0.085461 1.24891 0.650834 0.139441 -0.989279 -0.0433897 0 128 0
0.295966 1.20589 0.650094 -0.190073 -0.981142 -0.0351074 0 128 0
0.593434 1.11515 0.665318 -0.340845 -0.939034 0.0451538 0 128 0
0.886905 0.975096 0.698296 0.487701 0.872019 -0.0416091 0 128 0
-2.07617 -1.31905 1.2875 0.944975 0.2147 -0.246833 0 128 0
-2.136 -0.54554 1.14755 0.944634 -0.152628 -0.290466 0 128 0
-1.71692 0.497614 0.864521 0.713181 -0.66473 -0.222502 0 128 0
-1.36301 0.832737 0.770624 0.576551 -0.796738 -0.181102 0 128 0
-1.04086 1.05289 0.714499 0.414557 -0.898006 -0.147404 0 128 0
-0.684029 1.14942 0.645239 0.245422 -0.965433 -0.0877901 0 128 0
-0.276925 1.24714 0.619625 0.137043 -0.990561 0.00294027 0 128 0
0.0493259 1.23579 0.60277 -0.139604 -0.988452 -0.0589323 0 128 0
0.411241 1.17315 0.610286 -0.212315 -0.977009 -0.0193699 0 128 0
0.711159 1.07131 0.635346 0.406341 0.913211 -0.0305433 0 128 0
0.998436 0.90337 0.66902 0.549326 0.834297 -0.046795 0 128 0
-1.99445 -1.60016 1.25589 0.881738 0.37309 -0.288691 0 128 0
-2.15471 -0.996121 1.16071 0.962986 0.0921804 -0.253301 0 128 0
-2.12994 -0.304019 1.04718 0.937154 -0.244369 -0.249051 0 128 0
-1.69326 0.540108 0.808493 0.690749 -0.689787 -0.216932 0 128 0
-1.37103 0.843053 0.730628 0.560605 -0.805815 -0.190748 0 128 0
-0.97801 1.07077 0.657852 0.331278 -0.931863 -0.147939 0 128 0
-0.63574 1.17324 0.605749 0.161348 -0.986351 -0.0328462 0 128 0
-0.193618 1.25302 0.578933 0.165301 -0.985151 0.0463995 0 128 0
0.114395 1.22449 0.564146 -0.159595 -0.985852 -0.0512472 0 128 0
0.472552 1.14754 0.573547 -0.292696 -0.954715 0.0533689 0 128 0
0.770888 1.0365 0.60099 0.424393 0.903987 -0.0519412 0 128 0
1.07214 0.870776 0.646746 0.57946 0.813253 -0.0533419 0 128 0
-1.95867 -1.73022 1.20964 0.873611 0.419813 -0.24609 0 128 0
-2.14733 -1.11832 1.11523 0.951181 0.187635 -0.245047 0 128 0
-2.15441 -0.357051 1.00071 0.939065 -0.225209 -0.259688 0 128 0
-1.65132 0.583923 0.741407 0.64548 -0.731864 -0.218473 0 128 0
-1.32793 0.874133 0.671624 0.514217 -0.836753 -0.188217 0 128 0
-1.01542 1.0997 0.63309 0.371732 -0.916741 -0.14629 0 128 0
-0.651371 1.18512 0.571674 0.161122 -0.98517 -0.0589815 0 128 0
-0.201126 1.24805 0.536999 0.143149 -0.989611 0.013368 0 128 0
0.106491 1.22655 0.525572 -0.132852 -0.990963 0.0185067 0 128 0
0.46564 1.15207 0.534546 -0.31072 -0.948082 0.0677793 0 128 0
0.762874 1.03957 0.558483 -0.427326 -0.902097 0.0601169 0 128 0
1.0447 0.859429 0.589339 0.578692 0.812294 -0.0727663 0 128 0
-1.59749 -2.22062 1.18467 0.710187 0.67641 -0.195202 0 128 0
-1.99477 -1.69234 1.12784 0.873611 0.419813 -0.24609 0 128 0
-2.17558 -1.07875 1.04192 0.951181 0.187635 -0.245047 0 128 0
-2.17221 -0.370415 0.940762 0.943305 -0.223799 -0.245134 0 128 0
-1.85911 0.449742 0.760121 0.753391 -0.620286 -0.218283 0 128 0
-1.49085 0.775755 0.664997 0.586341 -0.782361 -0.210037 0 128 0
-1.13353 1.02422 0.603772 0.440824 -0.883488 -0.158502 0 128 0
-0.774118 1.14921 0.547209 0.250781 -0.961384 -0.113359 0 128 0
-0.350528 1.24313 0.512003 0.143327 -0.981491 0.127013 0 128 0
-0.0206143 1.23108 0.490024 -0.0855258 -0.996251 0.0129966 0 128 0
0.342934 1.19146 0.497466 -0.229934 -0.971605 0.0558067 0 128 0
0.636549 1.08973 0.509662 -0.356917 -0.930118 0.0865481 0 128 0
0.932719 0.947144 0.540598 -0.510598 -0.856455 0.0759924 0 128 0
1.21482 0.73476 0.580825 0.662127 0.745032 -0.0807187 0 128 0
-1.56958 -2.27313 1.12067 0.710187 0.67641 -0.195202 0 128 0
-1.99962 -1.72059 1.06504 0.873611 0.419813 -0.24609 0 128 0
-2.1969 -1.1079 0.98859 0.951181 0.187635 -0.245047 0 128 0
-2.18324 -0.332361 0.882264 0.942695 -0.237236 -0.234616 0 128 0
-1.69307 0.617758 0.661192 0.656623 -0.729871 -0.190091 0 128 0
-1.33764 0.899727 0.589587 0.499449 -0.848945 -0.17275 0 128 0
-1.01003 1.11591 0.550799 0.33128 -0.935924 -0.119583 0 128 0
-0.644639 1.20132 0.498598 0.0834264 -0.99448 -0.063634 0 128 0
-0.219318 1.24465 0.463857 0.203479 -0.978789 0.0238254 0 128 0
0.0869876 1.21135 0.447617 -0.14165 -0.98936 0.0332051 0 128 0
0.424954 1.14061 0.452013 -0.286738 -0.955604 0.0678431 0 128 0
0.727679 1.05072 0.478586 -0.402233 -0.91144 0.0865243 0 128 0
1.01462 0.88237 0.506901 -0.566263 -0.819032 0.0923702 0 128 0
1.2996 0.654344 0.552037 0.69855 0.708845 -0.097806 0 128 0
-1.32194 -2.49853 1.06484 0.556022 0.817871 -0.148076 0 128 0
-1.81184 -2.02244 1.01777 0.796812 0.55543 -0.237885 0 128 0
-2.10126 -1.42753 0.947069 0.943246 0.248775 -0.219996 0 128 0
-2.22203 -0.820163 0.87895 0.971274 0.0497066 -0.232716 0 128 0
-2.009 0.186253 0.690322 0.834327 -0.498485 -0.235395 0 128 0
-1.72244 0.599893 0.621787 0.659977 -0.724479 -0.1989 0 128 0
-1.36331 0.888831 0.552851 0.502422 -0.847183 -0.17278 0 128 0
-0.997601 1.0705 0.495968 0.321316 -0.940569 -0.109935 0 128 0
-0.663139 1.19574 0.464069 0.0861574 -0.990837 -0.104013 0 128 0
-0.0652953 1.23636 0.422631 -0.0880409 -0.995957 0.0178348 0 128 0
0.293277 1.17908 0.417649 -0.2273 -0.972471 0.0513268 0 128 0
0.588418 1.09737 0.43132 -0.343697 -0.934879 0.0887309 0 128 0
0.888298 0.970479 0.459462 -0.491934 -0.865626 0.0932313 0 128 0
1.15444 0.757204 0.485023 -0.642078 -0.761219 0.0909984 0 128 0
1.45653 0.501664 0.545164 0.754687 0.642431 -0.133151 0 128 0
-1.23733 -2.5873 1.006 0.528247 0.833314 -0.162918 0 128 0
-1.74488 -2.11346 0.956033 0.743301 0.630717 -0.222935 0 128 0
-2.08869 -1.54515 0.90164 0.915476 0.343202 -0.210037 0 128 0
-2.2475 -0.933093 0.840496 0.969617 0.0843552 -0.229622 0 128 0
-1.93625 0.324422 0.615519 0.778975 -0.594356 -0.199846 0 128 0
-1.57965 0.752986 0.546482 0.603897 -0.772732 -0.195432 0 128 0
-1.22771 1.0079 0.494978 0.467604 -0.871466 -0.147964 0 128 0
-0.848757 1.13817 0.441322 0.285895 -0.951041 -0.117411 0 128 0
-0.0963287 1.22859 0.385137 -0.0809415 -0.996493 0.0212239 0 128 0
0.247473 1.18566 0.381196 -0.207253 -0.977379 0.0421531 0 128 0
0.543883 1.11402 0.393358 -0.328252 -0.940349 0.0894088 0 128 0
0.837259 0.987461 0.414132 -0.476421 -0.872264 0.110358 0 128 0
1.11528 0.793211 0.4409 -0.637211 -0.764733 0.0956311 0 128 0
1.39948 0.541186 0.486879 0.73709 0.665408 -0.118028 0 128 0
-0.660964 -2.85286 0.948277 0.182589 0.953527 -0.239684 0 128 0
-1.29667 -2.54021 0.918368 0.551443 0.819585 -0.155533 0 128 0
-1.8098 -2.08052 0.883274 0.776117 0.594496 -0.210278 0 128 0
-2.11458 -1.4819 0.822254 0.937411 0.281392 -0.20513 0 128 0
-2.25412 -0.869123 0.765483 0.975595 0.0676622 -0.208894 0 128 0
-2.0477 0.16602 0.593118 0.831348 -0.505674 -0.230554 0 128 0
-1.75301 0.588057 0.531437 0.680258 -0.705945 -0.197207 0 128 0
-1.3927 0.88551 0.472395 -0.523564 0.834253 0.172926 0 128 0
-1.03546 1.08637 0.428786 0.366346 -0.92352 -0.113584 0 128 0
-0.677688 1.18949 0.390809 0.159979 -0.980139 -0.117195 0 128 0
0.0415684 1.21529 0.34964 -0.112404 -0.993341 0.0252637 0 128 0
0.394559 1.14705 0.351768 -0.292623 -0.954037 0.064688 0 128 0
0.686991 1.04867 0.366715 -0.379287 -0.919313 0.104906 0 128 0
0.981704 0.899543 0.392965 -0.541287 -0.833983 0.107146 0 128 0
1.23932 0.66541 0.41784 -0.680828 -0.722193 0.122111 0 128 0
1.52596 0.380139 0.470801 0.796255 0.586558 -0.148081 0 128 0
-0.518429 -2.88939 0.876082 -0.0320979 0.942456 -0.332787 0 128 0
-1.18128 -2.63142 0.855979 0.472464 0.871136 -0.13379 0 128 0
-1.72468 -2.19466 0.82365 0.712941 0.669282 -0.209229 0 128 0
-2.08451 -1.62088 0.774606 0.893379 0.397733 -0.209003 0 128 0
-2.26614 -1.00499 0.72338 0.970997 0.115276 -0.209469 0 128 0
-2.00733 0.283397 0.530198 0.799034 -0.563784 -0.209024 0 128 0
-1.70621 0.687099 0.479182 -0.648186 0.737971 0.18776 0 128 0
-1.32049 0.95307 0.422221 0.479021 -0.86609 -0.142925 0 128 0
-0.939261 1.10825 0.375318 0.306962 -0.94645 -0.100029 0 128 0
-0.606756 1.22725 0.354411 0.00613345 -0.993803 -0.110983 0 128 0
-0.160237 1.23678 0.3236 -0.224053 0.974348 0.0211241 0 128 0
0.390831 1.14764 0.31835 -0.287151 -0.956261 0.0557583 0 128 0
0.68109 1.04643 0.330797 -0.383778 -0.915814 0.118321 0 128 0
0.983082 0.905646 0.357761 -0.534658 -0.835775 0.124983 0 128 0
1.24186 0.67077 0.380415 -0.680828 -0.722193 0.122111 0 128 0
1.52637 0.383705 0.42775 0.786565 0.5976 -0.155528 0 128 0
1.75958 -0.00344433 0.481117 0.902228 0.389048 -0.186081 0 128 0
-0.690046 -2.84509 0.792482 -0.350416 -0.935904 0.0359632 0 128 0
-1.31946 -2.52047 0.765218 0.557129 0.816983 -0.148816 0 128 0
-1.85089 -2.08405 0.745788 0.800965 0.567742 -0.190065 0 128 0
-2.1528 -1.47573 0.693814 0.941555 0.277403 -0.191105 0 128 0
-2.28491 -0.853796 0.644773 0.974435 0.0781034 -0.210656 0 128 0
-2.09744 0.120095 0.498422 0.859728 -0.478351 -0.179018 0 128 0
-1.79378 0.578947 0.444785 0.708636 -0.68577 -0.165997 0 128 0
-1.42028 0.880404 0.392168 -0.535333 0.829855 0.157349 0 128 0
-1.04947 1.07598 0.351529 -0.381446 0.919407 0.0958644 0 128 0
-0.702646 1.20144 0.325542 0.0982702 -0.989048 -0.110123 0 128 0
-0.247114 1.2251 0.292494 0.631129 -0.770866 -0.0862642 0 128 0
0.190115 1.18952 0.28439 -0.184443 -0.982624 0.0207467 0 128 0
0.476265 1.10662 0.286627 -0.309486 -0.949454 0.0524999 0 128 0
0.776088 1.00962 0.306448 -0.439449 -0.888928 0.129197 0 128 0
1.05882 0.832657 0.327174 -0.599731 -0.790011 0.1273 0 128 0
1.31285 0.582319 0.351513 0.729177 0.671688 -0.130908 0 128 0
1.58677 0.270931 0.397456 0.826162 0.536815 -0.17113 0 128 0
1.80884 -0.142297 0.450908 0.911954 0.349188 -0.215423 0 128 0
-0.65879 -2.85558 0.720325 -0.350416 -0.935904 0.0359632 0 128 0
-1.29854 -2.54926 0.698563 0.543401 0.829249 -0.130617 0 128 0
-1.8392 -2.11765 0.681024 0.776929 0.604427 -0.176209 0 128 0
-2.14607 -1.50573 0.632006 0.93545 0.309836 -0.170104 0 128 0
-2.31439 -0.893171 0.594865 0.977552 0.0817411 -0.194193 0 128 0
-2.11702 0.11454 0.447374 0.859728 -0.478351 -0.179018 0 128 0
-1.75179 0.678619 0.394064 0.64654 -0.738602 -0.190926 0 128 0
-1.35431 0.950486 0.344885 -0.487974 0.861446 0.140685 0 128 0
-0.993421 1.14216 0.314928 -0.329831 0.939666 0.0907726 0 128 0
-0.628177 1.2292 0.28677 0.0152232 -0.991905 -0.12607 0 128 0
-0.176788 1.23377 0.259195 0.293257 -0.948873 -0.116794 0 128 0
0.200012 1.1941 0.253845 -0.185869 -0.982543 -0.00786051 0 128 0
0.489857 1.11489 0.25758 -0.319795 -0.946246 0.0484809 0 128 0
0.772205 0.989088 0.268039 -0.442767 -0.887635 0.126734 0 128 0
1.07805 0.834006 0.294839 -0.614802 -0.779496 0.120019 0 128 0
1.31758 0.571711 0.312974 0.724392 0.676305 -0.133667 0 128 0
1.59599 0.258664 0.35586 0.834749 0.518097 -0.186466 0 128 0
1.80718 -0.158102 0.402036 0.915162 0.331452 -0.229386 0 128 0
0.539469 -2.77727 0.62596 0.0882123 0.79649 -0.598182 0 128 0
-0.578578 -2.85873 0.639533 0.258791 0.963033 -0.0748017 0 128 0
-1.23671 -2.59957 0.627006 0.47873 0.873874 -0.0846266 0 128 0
-1.79545 -2.18393 0.612022 0.725154 0.6747 -0.137593 0 128 0
-2.14582 -1.59414 0.57453 0.913887 0.364136 -0.179486 0 128 0
-2.31723 -0.967419 0.536252 0.976567 0.0980284 -0.191591 0 128 0
-2.25434 -0.234769 0.480303 0.939186 -0.299637 -0.167771 0 128 0
-1.95881 0.379161 0.372038 0.759987 -0.632638 -0.148957 0 128 0
-1.58313 0.781056 0.326904 -0.604307 0.779064 0.166951 0 128 0
-1.21842 1.02899 0.294064 0.438186 -0.893072 -0.102055 0 128 0
-0.844748 1.16793 0.264889 0.274693 -0.957963 -0.0827648 0 128 0
-0.399803 1.2546 0.242306 -0.0243081 0.97408 0.224892 0 128 0
-0.047184 1.22559 0.22619 -0.10017 -0.994965 -0.00333426 0 128 0
0.294156 1.17268 0.225038 -0.256415 -0.966558 0.00413158 0 128 0
0.578604 1.07439 0.229306 -0.390351 -0.917806 0.0725108 0 128 0
0.870813 0.948002 0.244968 -0.505103 -0.850601 0.146113 0 128 0
1.14845 0.750448 0.263997 -0.653732 -0.744932 0.133085 0 128 0
1.39013 0.476204 0.285286 0.769564 0.617377 -0.163147 0 128 0
1.65257 0.135739 0.325322 0.860333 0.474315 -0.186687 0 128 0
1.84302 -0.307591 0.369277 0.944271 0.245277 -0.219526 0 128 0
1.03329 -2.54927 0.544579 -0.557995 0.829827 0.00544819 0 128 0
0.397168 -2.81696 0.560188 -0.0724526 0.695153 -0.715201 0 128 0
-0.726119 -2.828 0.569257 -0.345774 -0.937946 0.0264052 0 128 0
-1.36854 -2.53114 0.556972 -0.571728 -0.812841 0.111425 0 128 0
-1.89852 -2.08048 0.541566 0.81246 0.560776 -0.159495 0 128 0
-2.2041 -1.46701 0.505062 0.937252 0.300871 -0.176168 0 128 0
-2.29758 -0.637569 0.450263 0.987792 -0.0649858 -0.141579 0 128 0
-1.77971 0.613509 0.301643 0.707709 -0.690392 -0.150025 0 128 0
-1.41854 0.918382 0.269107 -0.512847 0.849049 0.126898 0 128 0
-1.02555 1.09275 0.237033 -0.34647 0.934782 0.0783711 0 128 0
-0.682753 1.22058 0.221293 0.00295255 0.994508 -0.104619 0 128 0
-0.225087 1.2361 0.198726 0.613978 -0.768194 -0.181409 0 128 0
0.139771 1.20473 0.193373 -0.164276 -0.986262 -0.017312 0 128 0
0.428121 1.1265 0.193908 -0.294619 -0.955346 0.0226822 0 128 0
0.708049 1.00897 0.20063 -0.425519 -0.898789 0.105413 0 128 0
0.988038 0.848564 0.214821 -0.537647 -0.827507 0.161766 0 128 0
1.26823 0.628858 0.236658 -0.694196 -0.707066 0.134719 0 128 0
1.51215 0.324738 0.261343 0.793893 0.57721 -0.191211 0 128 0
1.73173 -0.0633278 0.295695 0.897839 0.386857 -0.210304 0 128 0
1.86321 -0.543594 0.333379 0.972391 0.140056 -0.186653 0 128 0
1.8705 -1.09715 0.373884 0.971919 0.0571164 -0.22828 0 128 0
1.15984 -2.39747 0.458071 -0.597679 0.790923 0.131228 0 128 0
0.575038 -2.75849 0.482488 0.0436876 -0.812227 0.581704 0 128 0
-0.536491 -2.84993 0.491122 0.220465 0.975243 -0.0171844 0 128 0
-1.20837 -2.63182 0.486801 -0.442588 -0.894622 0.0613853 0 128 0
-1.77541 -2.22029 0.474261 0.716329 0.687995 -0.116343 0 128 0
-2.14622 -1.63988 0.446773 0.907247 0.389806 -0.157968 0 128 0
-2.34439 -1.0159 0.41952 0.977534 0.108965 -0.18043 0 128 0
-1.38087 0.953813 0.227775 -0.495835 0.860639 0.115966 0 128 0
-0.989523 1.12083 0.201469 -0.335911 0.937875 0.0869193 0 128 0
-0.645773 1.24287 0.188899 -0.00807899 0.96571 -0.259496 0 128 0
-0.187096 1.24901 0.170291 0.188641 -0.968525 -0.1624 0 128 0
0.16464 1.2133 0.166556 -0.135159 -0.989966 -0.0412217 0 128 0
0.455777 1.13245 0.167814 -0.313837 -0.949228 0.0217136 0 128 0
0.746167 1.02059 0.176348 -0.448047 -0.887959 0.10384 0 128 0
1.00814 0.833041 0.184584 -0.54485 -0.823708 0.156983 0 128 0
1.28511 0.607629 0.20373 -0.701745 -0.702223 0.120152 0 128 0
1.53203 0.299838 0.2266 0.808277 0.558823 -0.185486 0 128 0
1.73082 -0.0943044 0.254199 0.903417 0.369811 -0.216972 0 128 0
1.8623 -0.578806 0.288303 0.972128 0.12514 -0.198261 0 128 0
1.86779 -1.13891 0.324936 0.972658 -0.1313 -0.191562 0 128 0
1.14863 -2.40071 0.394184 -0.608868 0.781463 0.136363 0 128 0
0.56561 -2.77108 0.416961 0.0224597 -0.86683 0.498097 0 128 0
-0.584788 -2.84943 0.423365 -0.345774 -0.937946 0.0264052 0 128 0
-1.25328 -2.61598 0.418627 0.471647 0.879179 -0.0677667 0 128 0
-1.82188 -2.20345 0.409256 0.728164 0.677302 -0.105069 0 128 0
-2.18231 -1.61117 0.384563 0.921791 0.354853 -0.156142 0 128 0
-1.17836 1.05772 0.174756 -0.419539 0.902993 0.0926845 0 128 0
-0.813484 1.19924 0.159317 -0.219757 0.971797 -0.0855444 0 128 0
-0.336265 1.23017 0.139391 -0.287315 0.472179 -0.833365 0 128 0
-0.0258713 1.23684 0.136324 -0.146013 -0.989231 0.0100607 0 128 0
0.330842 1.16958 0.135657 -0.284442 -0.95866 0.00793871 0 128 0
0.611947 1.05907 0.138297 -0.424979 -0.901628 0.0803748 0 128 0
0.884313 0.906561 0.145451 -0.518748 -0.84013 0.158374 0 128 0
1.18196 0.722114 0.162484 -0.668244 -0.733214 0.125888 0 128 0
1.39714 0.431525 0.173525 0.78398 0.596525 -0.171854 0 128 0
1.64939 0.0845573 0.199313 0.868101 0.444962 -0.220021 0 128 0
1.82893 -0.363707 0.227754 0.951463 0.205405 -0.22919 0 128 0
1.88081 -0.892603 0.256007 0.972796 0.0646589 -0.222459 0 128 0
1.31393 -2.26624 0.322522 0.648382 -0.744737 -0.158013 0 128 0
0.762556 -2.6497 0.337474 0.403527 -0.914552 -0.0275987 0 128 0
-0.322476 -2.88145 0.35038 -0.077 0.895196 0.43897 0 128 0
-1.01614 -2.73352 0.349066 -0.375888 -0.925695 0.0423866 0 128 0
-1.62963 -2.38151 0.342028 -0.631947 -0.7672 0.109758 0 128 0
-2.09892 -1.86608 0.329668 0.873729 0.472626 -0.114986 0 128 0
-0.886242 1.16677 0.126942 -0.247466 0.965177 -0.0848195 0 128 0
-0.455141 1.27 0.116968 0.255557 -0.486252 0.835613 0 128 0
-0.108008 1.24322 0.108093 0.144515 0.989488 -0.00536709 0 128 0
0.237722 1.18983 0.106384 -0.249294 -0.968404 0.00674723 0 128 0
0.5262 1.10272 0.108915 -0.380413 -0.923799 0.0433692 0 128 0
0.789874 0.949563 0.111748 -0.502644 -0.857167 0.112311 0 128 0
1.06343 0.771925 0.121583 -0.605237 -0.780563 0.156238 0 128 0
1.33577 0.512943 0.135355 0.782488 0.607755 -0.13545 0 128 0
1.58932 0.189217 0.154601 0.84443 0.49276 -0.21006 0 128 0
1.75955 -0.22818 0.173777 0.930739 0.28153 -0.233381 0 128 0
1.8529 -0.730694 0.197202 0.973232 0.0939751 -0.209732 0 128 0
1.4584 -2.05282 0.250848 0.805212 -0.58204 -0.11341 0 128 0
0.975394 -2.4961 0.265544 -0.54313 0.829338 0.131182 0 128 0
0.360367 -2.80672 0.278407 -0.0410187 0.758626 -0.650234 0 128 0
-0.795201 -2.80891 0.282225 -0.345774 -0.937946 0.0264052 0 128 0
-1.4428 -2.51882 0.277312 0.567155 0.822219 -0.047869 0 128 0
-1.96366 -2.0484 0.267858 0.779545 0.618666 -0.0977842 0 128 0
-0.533051 1.21341 0.0812415 -0.200385 0.418412 -0.885877 0 128 0
-0.180043 1.23858 0.0771197 -0.164991 0.920788 -0.353451 0 128 0
0.197433 1.19431 0.0758039 -0.175554 -0.984468 0.0018899 0 128 0
0.483801 1.10797 0.0772037 -0.370106 -0.928672 0.0242748 0 128 0
0.747836 0.962978 0.0793967 -0.491463 -0.864719 0.103564 0 128 0
1.03496 0.805059 0.088353 -0.570387 -0.805327 0.161575 0 128 0
1.30137 0.568674 0.0985147 0.73346 0.667226 -0.129792 0 128 0
1.5119 0.249211 0.108575 0.81822 0.536069 -0.207716 0 128 0
1.71111 -0.145007 0.124493 0.90408 0.362116 -0.226962 0 128 0
1.8353 -0.631962 0.143184 0.97311 0.105116 -0.204956 0 128 0
1.4817 -1.95449 0.182774 0.827792 -0.544494 -0.135227 0 128 0
1.04209 -2.44147 0.197015 -0.600863 0.787537 0.136928 0 128 0
0.443212 -2.77352 0.206646 -0.199964 0.958629 -0.202596 0 128 0
-0.673072 -2.8364 0.209957 0.155863 0.947192 0.28024 0 128 0
-1.33763 -2.58618 0.206525 0.509942 0.859849 -0.0248664 0 128 0
-1.90231 -2.1627 0.201355 0.751575 0.651626 -0.102558 0 128 0
-0.186138 1.24913 0.0488413 -0.191066 0.793704 -0.577519 0 128 0
0.17922 1.20273 0.0479578 0.153982 0.980923 -0.118654 0 128 0
0.468934 1.12245 0.0494447 -0.344272 -0.938431 0.0286873 0 128 0
0.740974 0.986405 0.0517852 -0.478743 -0.872034 0.101793 0 128 0
1.01115 0.813606 0.0568192 -0.557277 -0.814259 0.162554 0 128 0
1.30048 0.574991 0.0654 0.735973 0.662603 -0.138926 0 128 0
1.50574 0.2553 0.0724114 0.818728 0.536467 -0.204663 0 128 0
1.70108 -0.135697 0.0836664 0.90408 0.362116 -0.226962 0 128 0
1.82497 -0.617652 0.0969421 0.9641 0.132278 -0.230247 0 128 0
1.48216 -1.98105 0.126875 0.827792 -0.544494 -0.135227 0 128 0
1.02562 -2.445 0.134955 0.605193 -0.783187 -0.142689 0 128 0
0.42612 -2.77519 0.141201 -0.199964 0.958629 -0.202596 0 128 0
-0.725758 -2.82774 0.142322 0.155863 0.947192 0.28024 0 128 0
-1.38934 -2.57022 0.139414 0.526211 0.850031 -0.0234339 0 128 0
-0.229185 1.24986 0.0180881 0.384331 -0.608965 0.693867 0 128 0
0.138023 1.20483 0.0178761 0.115705 0.972168 -0.203719 0 128 0
0.431943 1.14109 0.0195277 -0.324913 -0.945281 0.0295764 0 128 0
0.703352 1.00575 0.0210275 -0.473373 -0.875342 0.0984562 0 128 0
0.97057 0.836617 0.0240735 -0.551051 -0.821279 0.147796 0 128 0
1.24012 0.61786 0.0287934 -0.706135 -0.695917 0.130661 0 128 0
1.4481 0.314004 0.0329146 0.814389 0.55101 -0.182092 0 128 0
1.67504 -0.0577952 0.0404182 0.894008 0.395496 -0.210554 0 128 0
1.80716 -0.522995 0.047825 0.959222 0.172929 -0.223583 0 128 0
1.82284 -1.06359 0.0554888 0.972356 0.00518478 -0.233447 0 128 0
1.11698 -2.3672 0.069062 0.643422 -0.741527 -0.190119 0 128 0
0.532533 -2.68466 0.0703496 0.253252 -0.96543 -0.0617131 0 128 0
-0.602193 -2.85593 0.0713107 0.119568 0.928829 0.350686 0 128 0
-1.28027 -2.63559 0.0686616 0.476345 0.878249 -0.0421119 0 128 0
-0.107561 1.24428 -0.0110215 -0.128142 0.785958 -0.604855 0 128 0
0.252436 1.18455 -0.00980686 -0.182508 -0.976018 0.118654 0 128 0
0.537567 1.09057 -0.00849345 -0.427275 -0.902096 0.0604837 0 128 0
0.801439 0.938874 -0.0071488 -0.52091 -0.84705 0.105634 0 128 0
1.06324 0.75143 -0.00531218 -0.600008 -0.786547 0.146061 0 128 0
1.34511 0.478318 -0.00280083 0.806733 0.573085 -0.144065 0 128 0
1.56759 0.147134 -0.0003528 0.861646 0.466271 -0.200395 0 128 0
1.71787 -0.266263 0.00192872 0.936496 0.266897 -0.227467 0 128 0
1.79602 -0.760001 0.00437346 0.972011 0.0458274 -0.230422 0 128 0
1.36669 -2.08101 0.00780131 0.655737 -0.73107 -0.188534 0 128 0
0.881288 -2.52263 0.00745475 0.529401 -0.833148 -0.159993 0 128 0
0.256806 -2.80379 0.00612163 0.300229 0.661761 0.686975 0 128 0
-0.902758 -2.79789 0.00228893 -0.274861 -0.948479 -0.157601 0 128 0
-0.0724285 1.23703 -0.0407474 -0.0938187 0.83436 -0.543178 0 128 0
0.285936 1.17933 -0.0388984 -0.280416 -0.959178 0.0366788 0 128 0
0.565198 1.07024 -0.0376995 -0.450654 -0.88993 0.0702547 0 128 0
0.829898 0.918655 -0.0369892 -0.552469 -0.82529 0.11694 0 128 0
1.09636 0.729165 -0.0369696 -0.628433 -0.763819 0.147144 0 128 0
1.34297 0.471958 -0.0374262 0.823794 0.548259 -0.144133 0 128 0
1.55909 0.140024 -0.0385043 0.871947 0.445787 -0.202444 0 128 0
1.71168 -0.272823 -0.0402265 0.94007 0.258957 -0.221833 0 128 0
1.78878 -0.766593 -0.0429064 0.972011 0.0458274 -0.230422 0 128 0
1.32938 -2.10279 -0.0525925 0.662276 -0.723015 -0.19657 0 128 0
0.835283 -2.53196 -0.0572682 0.50366 -0.847824 -0.165894 0 128 0
-0.246409 -2.8866 -0.0651952 -0.138835 -0.594467 -0.792044 0 128 0
-0.950985 -2.7795 -0.0687719 -0.274861 -0.948479 -0.157601 0 128 0
0.237474 1.18711 -0.0672125 -0.187483 -0.973554 0.130548 0 128 0
0.520085 1.08961 -0.065996 -0.417936 -0.906609 0.0582245 0 128 0
0.783401 0.94165 -0.0656229 -0.521526 -0.847027 0.102741 0 128 0
1.03294 0.749884 -0.0665552 -0.585308 -0.799165 0.136933 0 128 0
1.29867 0.517489 -0.0700016 0.764235 0.627066 -0.150772 0 128 0
1.5076 0.198634 -0.07372 0.839473 0.508651 -0.191204 0 128 0
1.68382 -0.19688 -0.0795052 0.922674 0.317501 -0.218783 0 128 0
1.78731 -0.678802 -0.0871623 0.968362 0.0741029 -0.238294 0 128 0
1.40839 -1.9799 -0.108158 0.801047 -0.563802 -0.201122 0 128 0
0.957331 -2.44417 -0.117387 0.567353 -0.800962 -0.191235 0 128 0
0.356678 -2.7592 -0.125816 0.144841 0.802052 0.579426 0 128 0
0.0940532 1.21012 -0.0973897 -0.14597 0.600173 -0.786438 0 128 0
0.384226 1.14021 -0.0957001 -0.314208 -0.947381 0.061173 0 128 0
0.655452 1.01514 -0.0950356 -0.466141 -0.880148 0.0897337 0 128 0
0.91617 0.850903 -0.0966569 -0.560617 -0.821542 0.103816 0 128 0
1.1881 0.647943 -0.101953 -0.666713 -0.732136 0.139539 0 128 0
1.40311 0.359109 -0.106964 0.826484 0.541099 -0.155357 0 128 0
1.60634 0.00394722 -0.115882 0.88667 0.422174 -0.188643 0 128 0
1.73109 -0.432561 -0.126341 0.954732 0.211398 -0.209278 0 128 0
1.75192 -0.937675 -0.13876 0.97122 0.00333556 -0.238162 0 128 0
1.18298 -2.21801 -0.173652 0.662276 -0.723015 -0.19657 0 128 0
0.652402 -2.60943 -0.18673 -0.326833 0.896239 0.299893 0 128 0
0.104181 1.20431 -0.125446 -0.0900687 0.573243 -0.81442 0 128 0
0.393959 1.13593 -0.123934 0.331146 0.940199 -0.0797988 0 128 0
0.683438 0.98429 -0.122616 -0.493429 -0.864083 0.0994369 0 128 0
0.952459 0.826872 -0.127037 -0.572484 -0.811931 0.114154 0 128 0
1.24719 0.627447 -0.137433 -0.694452 -0.701984 0.157971 0 128 0
1.42579 0.315433 -0.142205 0.828738 0.536047 -0.160773 0 128 0
1.6264 -0.0486319 -0.155623 0.904235 0.38427 -0.186266 0 128 0
1.73525 -0.492959 -0.170235 0.96054 0.179227 -0.212697 0 128 0
1.73996 -1.0031 -0.187631 0.971076 0.00269628 -0.238757 0 128 0
1.10225 -2.29988 -0.236462 0.638277 -0.742549 -0.203037 0 128 0
0.544168 -2.65584 -0.252438 -0.131833 0.882258 0.451931 0 128 0
0.241424 1.1816 -0.154125 0.0297352 0.860517 -0.508554 0 128 0
0.520364 1.07894 -0.152376 0.417967 0.903402 -0.0957555 0 128 0
0.783733 0.934167 -0.153894 -0.540106 -0.835562 0.100606 0 128 0
1.03959 0.747886 -0.159741 0.612717 0.778773 -0.1345 0 128 0
1.29333 0.508543 -0.170777 0.780508 0.605144 -0.156868 0 128 0
1.48004 0.187786 -0.181249 0.850158 0.49364 -0.18317 0 128 0
1.66628 -0.203391 -0.200972 0.938857 0.278502 -0.202446 0 128 0
1.76895 -0.682635 -0.224381 0.968915 0.0738634 -0.236111 0 128 0
1.357 -1.98241 -0.281469 0.806552 -0.534172 -0.253246 0 128 0
0.91103 -2.45577 -0.307066 -0.580615 0.786996 0.208623 0 128 0
0.30594 -2.75956 -0.326725 0.256099 0.679546 0.687481 0 128 0
0.411652 1.14187 -0.183321 0.335413 0.937304 -0.0946519 0 128 0
0.704395 0.988595 -0.182474 0.505353 0.856996 -0.10088 0 128 0
0.958155 0.811807 -0.187277 -0.587209 -0.799035 0.129342 0 128 0
1.20282 0.587135 -0.19747 -0.690922 -0.706008 0.155495 0 128 0
1.42422 0.297289 -0.212187 0.835407 0.521426 -0.173812 0 128 0
1.61164 -0.0673967 -0.232543 0.909332 0.372265 -0.185832 0 128 0
1.71878 -0.510306 -0.256074 0.961469 0.160245 -0.223383 0 128 0
1.7203 -1.01884 -0.283555 0.971076 0.00269628 -0.238757 0 128 0
1.07173 -2.30434 -0.358397 0.638277 -0.742549 -0.203037 0 128 0
0.509425 -2.64148 -0.380436 -0.117123 0.78026 0.614392 0 128 0
0.495036 1.09248 -0.211211 0.417967 0.903402 -0.0957555 0 128 0
0.755683 0.946101 -0.212314 0.520709 0.846866 -0.108075 0 128 0
1.00696 0.761982 -0.219789 0.598708 0.78676 -0.150189 0 128 0
1.26714 0.533875 -0.236714 0.753721 0.628752 -0.191248 0 128 0
1.45885 0.22094 -0.251907 0.850366 0.496205 -0.175094 0 128 0
1.64226 -0.160482 -0.278845 0.931726 0.303872 -0.19887 0 128 0
1.74074 -0.624222 -0.309967 0.966745 0.0915069 -0.238809 0 128 0
1.38372 -1.8724 -0.387049 0.837846 -0.488962 -0.242757 0 128 0
0.978348 -2.37043 -0.42608 -0.598178 0.77064 0.219765 0 128 0
0.459287 1.10021 -0.239118 0.380122 0.917488 -0.117151 0 128 0
0.725462 0.966477 -0.241432 0.519121 0.8478 -0.108391 0 128 0
0.972874 0.783652 -0.248198 0.592708 0.793391 -0.138665 0 128 0
1.22577 0.561189 -0.26548 0.719789 0.675304 -0.160832 0 128 0
1.42634 0.261151 -0.283374 0.840201 0.513191 -0.175205 0 128 0
1.61534 -0.107338 -0.3135 0.91887 0.343706 -0.193766 0 128 0
1.71578 -0.555362 -0.346758 0.967153 0.116297 -0.22603 0 128 0
1.68584 -1.05484 -0.380601 0.966135 0.0309489 -0.256176 0 128 0
1.01286 -2.3231 -0.482817 -0.608234 0.76484 0.212299 0 128 0
0.636315 1.0086 -0.268312 0.487664 0.868463 -0.0891913 0 128 0
0.890103 0.844477 -0.27483 0.56969 0.813257 -0.118605 0 128 0
1.14961 0.643018 -0.292823 0.671422 0.720874 -0.171855 0 128 0
1.37114 0.366669 -0.313258 0.819401 0.543864 -0.181092 0 128 0
1.55757 0.020654 -0.341252 0.886505 0.414106 -0.206459 0 128 0
1.67268 -0.398748 -0.374295 0.948388 0.227056 -0.221371 0 128 0
1.6942 -0.883161 -0.413716 0.966135 0.0309489 -0.256176 0 128 0
1.14429 -2.15144 -0.524784 0.638277 -0.742549 -0.203037 0 128 0
0.76793 0.924673 -0.30041 0.526856 0.842208 -0.114491 0 128 0
1.02296 0.744114 -0.314452 0.611065 0.775793 -0.157302 0 128 0
1.26484 0.505583 -0.336353 0.7589 0.619362 -0.20115 0 128 0
1.45148 0.19295 -0.359431 0.855809 0.483925 -0.182778 0 128 0
1.61406 -0.186658 -0.396144 0.932294 0.299185 -0.203263 0 128 0
1.70809 -0.646005 -0.442568 0.965543 0.0788351 -0.248017 0 128 0
1.33713 -1.92202 -0.563613 0.817034 -0.504059 -0.279963 0 128 0
0.860327 0.855708 -0.333867 0.56969 0.813257 -0.118605 0 128 0
1.10899 0.655201 -0.352527 0.671422 0.720874 -0.171855 0 128 0
1.33391 0.390655 -0.378126 0.818118 0.545294 -0.182586 0 128 0
1.51018 0.0555774 -0.408756 0.880392 0.432802 -0.193886 0 128 0
1.63332 -0.349079 -0.449234 0.949118 0.227416 -0.217848 0 128 0
1.67863 -0.825551 -0.500679 0.965222 0.0607019 -0.254287 0 128 0
0.964749 0.778654 -0.373086 0.604425 0.781856 -0.152879 0 128 0
1.20938 0.555204 -0.398333 0.733949 0.656399 -0.174528 0 128 0
1.40107 0.258101 -0.424384 0.840418 0.508227 -0.188157 0 128 0
1.58063 -0.103233 -0.469029 0.917417 0.337587 -0.210667 0 128 0
1.6839 -0.542763 -0.521217 0.960388 0.108625 -0.256624 0 128 0
1.65547 -1.03283 -0.572888 0.965076 0.0482462 -0.257488 0 128 0
1.18737 0.566094 -0.428091 0.721593 0.666435 -0.187531 0 128 0
1.37216 0.273 -0.453398 0.835475 0.517223 -0.18564 0 128 0
1.56951 -0.080739 -0.506208 0.905138 0.362975 -0.221302 0 128 0
1.6587 -0.510201 -0.556518 0.952696 0.138392 -0.270588 0 128 0
1.64292 -0.995291 -0.613891 0.965076 0.0482462 -0.257488 0 128 0
1.32773 0.367138 -0.484284 0.820722 0.535816 -0.198286 0 128 0
1.513 0.0334528 -0.52941 0.88881 0.406508 -0.211585 0 128 0
1.61222 -0.368772 -0.576222 0.949145 0.200665 -0.242604 0 128 0
1.63675 -0.833495 -0.637587 0.964541 0.0887672 -0.248557 0 128 0
1.54469 -0.0630018 -0.582151 0.897917 0.371092 -0.23672 0 128 0
