ply
format ascii 1.0
comment Created by Open3D
element vertex 3029
property double x
property double y
property double z
end_header
-1.21569 0.181744 1.23113
-1.31026 0.50792 1.40579
-0.229974 0.790338 0.828296
-0.216544 0.779396 0.814211
-0.211218 0.798493 0.831113
-0.202923 0.807231 0.837451
-0.195087 0.818651 0.846607
-0.0610787 0.600654 0.610679
0.0846996 0.865126 0.874073
0.088505 0.805491 0.815619
0.0963891 0.788853 0.800125
0.105367 0.78269 0.795196
0.114856 0.780636 0.794491
0.12501 0.78267 0.798013
0.133354 0.774088 0.79097
0.138701 0.750779 0.769138
0.147761 0.748325 0.768434
0.159194 0.756861 0.778998
0.17245 0.772147 0.796604
0.183086 0.774802 0.801534
0.194342 0.779374 0.808577
0.207029 0.788585 0.820549
0.217077 0.787351 0.821958
0.2233 0.773054 0.809985
0.226898 0.751264 0.790266
0.24373 0.772071 0.814915
2.46073 -0.529335 2.50867
2.48311 -0.566179 2.53825
2.49184 -0.600465 2.55444
2.49942 -0.634874 2.56994
2.49075 -0.665313 2.56923
2.52358 -0.774781 2.6305
2.53416 -0.812231 2.65163
2.55024 -0.852092 2.6791
2.57176 -0.894579 2.7129
2.56059 -0.926071 2.7129
2.56563 -0.963695 2.73051
2.54634 -0.992258 2.72276
2.5491 -1.02957 2.73896
2.54544 -1.06463 2.74882
2.55367 -1.10513 2.77206
2.5561 -1.14366 2.78967
2.55733 -1.18212 2.80657
2.54327 -1.21372 2.80727
1.05949 -0.518369 1.18184
1.0423 -0.525848 1.16986
1.01628 -0.528361 1.14803
0.97164 -0.520176 1.10507
0.953401 -0.525494 1.09169
0.917935 -0.520554 1.05859
0.911478 -0.531779 1.05859
0.877171 -0.571179 1.05014
0.863037 -0.57713 1.04169
0.822643 -0.564608 1.00154
0.813918 -0.573425 0.999432
0.826307 -0.597613 1.02338
0.842767 -0.625597 1.05296
0.834463 -0.635459 1.05225
0.831061 -0.649169 1.05789
0.830208 -0.665124 1.06704
0.832911 -0.684327 1.08113
0.839052 -0.706915 1.10014
0.862421 -0.745151 1.1424
2.06965 -2.41726 3.16856
0.814169 -2.21147 2.3495
0.764114 -2.15633 2.28119
0.722359 -2.12048 2.234
0.690367 -2.11096 2.21499
0.659772 -2.10436 2.1995
0.631874 -2.10549 2.19245
0.60793 -2.11991 2.1995
0.576669 -2.10803 2.17978
0.552175 -2.12045 2.18541
0.528983 -2.13878 2.19738
0.502697 -2.14511 2.19738
0.481499 -2.1747 2.22133
-1.21395 -0.0284806 1.21634
-0.231177 0.769948 0.773841
-0.22272 0.776215 0.777279
-0.215495 0.787289 0.785531
-0.205633 0.789172 0.784843
-0.24991 1.06319 1.04682
-0.0754779 0.629491 0.612944
-0.0598017 0.558196 0.544185
0.180118 0.791661 0.781405
0.181739 0.755488 0.7484
0.189404 0.746863 0.742212
0.195028 0.731145 0.729148
0.207093 0.739891 0.740149
0.215954 0.736596 0.739462
0.243997 0.79641 0.801345
2.47749 -0.755409 2.46532
2.48464 -0.791031 2.48183
2.51156 -0.9376 2.55127
2.50954 -1.04361 2.58634
0.981819 -0.512245 1.06126
0.921264 -0.509889 1.00969
0.915569 -0.521514 1.01037
0.910982 -0.533809 1.01244
0.894403 -0.538967 1.00144
0.884632 -0.547995 0.997997
0.880906 -0.560755 1.00144
0.869092 -0.568351 0.995934
0.863259 -0.579781 0.99731
0.857276 -0.591153 0.998685
0.85055 -0.602047 0.999372
0.843098 -0.61244 0.999372
0.835519 -0.62274 0.999372
0.827237 -0.632506 0.998685
0.827422 -0.64887 1.00831
0.828461 -0.666242 1.01931
0.817418 -0.674052 1.01587
0.828518 -0.70041 1.03994
0.817662 -0.708626 1.03719
0.788249 -0.700313 1.01106
2.27738 -2.06962 2.9267
0.735628 -2.14892 2.16347
0.701704 -2.13503 2.14078
0.666045 -2.1137 2.11121
0.638165 -2.11546 2.10502
0.605501 -2.10012 2.08233
0.572153 -2.08009 2.05552
0.544001 -2.07712 2.04589
0.519174 -2.08646 2.04864
0.497377 -2.10893 2.06446
0.477801 -2.14321 2.09196
0.450266 -2.14323 2.08646
0.438181 -2.22053 2.15591
-0.246523 0.79043 0.75464
-0.230536 0.771929 0.734644
-0.224048 0.785471 0.744642
-0.221855 0.816261 0.770637
-0.214193 0.828318 0.779302
-0.0739497 0.611819 0.565345
0.189304 0.743121 0.699984
0.197619 0.737867 0.697318
0.210166 0.747564 0.708649
1.02239 -0.506742 1.03458
0.991583 -0.506593 1.00992
0.972129 -0.511719 0.996591
0.959239 -0.520028 0.989926
0.939149 -0.524069 0.975929
0.922976 -0.529941 0.965931
0.911282 -0.538171 0.960599
0.911599 -0.553603 0.967931
0.817089 -0.509474 0.875283
0.798262 -0.511355 0.861952
0.809304 -0.532677 0.880615
0.888876 -0.601451 0.973929
0.880208 -0.611457 0.972596
0.870823 -0.620906 0.970597
0.834358 -0.610284 0.938603
0.8274 -0.620927 0.93927
0.820895 -0.631949 0.940603
0.817741 -0.645692 0.945935
0.818413 -0.662757 0.955933
0.819359 -0.680412 0.966597
0.817167 -0.69576 0.973929
0.81528 -0.711649 0.981928
0.829724 -0.742584 1.00992
0.72653 -2.16996 2.06038
0.680823 -2.11906 2.00439
0.64976 -2.11085 1.98906
0.61524 -2.08933 1.96173
0.585952 -2.0838 1.94973
0.559762 -2.08867 1.94773
0.533541 -2.09321 1.94573
0.506599 -2.09453 1.94107
0.480858 -2.10058 1.94107
0.455979 -2.1107 1.94507
0.432538 -2.12856 1.9564
0.406109 -2.13225 1.95507
-0.256614 0.789934 0.723236
-0.235066 0.755264 0.689499
-0.226436 0.760279 0.691445
-0.217928 0.765926 0.694041
-0.222964 0.821393 0.740753
-0.229736 0.888873 0.797846
-0.0759574 0.584427 0.517571
0.181318 0.746465 0.670036
0.189903 0.741971 0.668089
0.198601 0.738114 0.666792
0.948594 -0.527702 0.940579
0.928167 -0.531384 0.926954
0.884824 -0.521163 0.890622
0.871196 -0.527656 0.883486
0.858835 -0.534697 0.877647
0.849642 -0.543559 0.875051
0.842908 -0.553945 0.875051
0.82847 -0.559151 0.867266
0.825929 -0.572302 0.871807
0.819465 -0.582834 0.872456
0.812866 -0.593294 0.873105
0.809793 -0.606411 0.877647
0.80652 -0.619541 0.882188
0.80125 -0.631272 0.884783
0.795814 -0.642966 0.887378
0.794318 -0.658014 0.894515
0.808833 -0.686889 0.919818
0.802642 -0.698758 0.922413
0.813905 -0.726259 0.94512
0.775693 -0.709528 0.911383
0.72746 -2.23001 2.01497
0.670452 -2.14437 1.93062
0.634685 -2.1211 1.90273
0.602946 -2.10897 1.88521
0.572002 -2.09786 1.86899
0.541806 -2.08779 1.85407
0.515597 -2.09206 1.85212
0.490406 -2.10045 1.85407
0.464593 -2.10631 1.85407
0.43607 -2.09919 1.84304
0.415832 -2.13276 1.86769
0.391683 -2.14893 1.87742
-0.251281 0.756415 0.658237
-0.242908 0.762416 0.660745
-0.235317 0.771311 0.665761
-0.229254 0.786127 0.675793
-0.22409 0.805418 0.689587
-0.0845213 0.60658 0.509635
0.210047 0.938204 0.790536
0.177564 0.75384 0.640054
0.185453 0.746321 0.635664
0.192378 0.735712 0.628767
0.977185 -0.506977 0.902771
0.957182 -0.511527 0.890231
0.94062 -0.517556 0.880826
0.911885 -0.516293 0.860135
0.883997 -0.514799 0.84007
0.863618 -0.517138 0.826903
0.849269 -0.522759 0.819379
0.803409 -0.507966 0.781758
0.791255 -0.513938 0.776115
0.752753 -0.529175 0.757305
0.797183 -0.575555 0.808093
0.79006 -0.585295 0.808093
0.782818 -0.594946 0.808093
0.782191 -0.609809 0.81499
0.779497 -0.623276 0.820006
0.778991 -0.638756 0.82753
0.777626 -0.653813 0.834427
0.777772 -0.670465 0.843205
0.777044 -0.6867 0.851357
0.809955 -0.734029 0.896501
0.819077 -0.760958 0.916566
0.644837 -2.1425 1.81758
0.617214 -2.14576 1.81382
0.577541 -2.10432 1.77306
0.542885 -2.07731 1.74485
0.514748 -2.07322 1.73607
0.487677 -2.07256 1.73043
0.460868 -2.0723 1.72541
0.439354 -2.09687 1.74109
0.415225 -2.11051 1.74798
0.388041 -2.10855 1.74234
0.371228 -2.16692 1.78623
0.349186 -2.20056 1.81006
-1.52732 0.121853 1.19268
-1.66052 0.194071 1.2998
-0.255475 0.759587 0.63214
-0.246379 0.76342 0.632749
-0.239115 0.773204 0.638227
-0.239123 0.808018 0.663789
-0.231579 0.819287 0.670484
-0.0829835 0.590087 0.474507
0.167509 0.765025 0.618142
0.174219 0.751312 0.609013
0.183426 0.749118 0.609013
0.845312 -0.486206 0.765429
0.866623 -0.512661 0.789774
0.842625 -0.512563 0.77395
0.835598 -0.522445 0.773341
0.828456 -0.532232 0.772732
0.821199 -0.541923 0.772124
0.813829 -0.551515 0.771515
0.807 -0.561461 0.771515
0.797464 -0.569481 0.769081
0.787852 -0.577352 0.766646
0.781343 -0.587453 0.767255
0.775962 -0.598448 0.769081
0.770429 -0.609398 0.770906
0.766595 -0.6218 0.774558
0.762572 -0.634199 0.77821
0.761382 -0.649162 0.784905
0.761136 -0.665233 0.792817
0.778953 -0.697779 0.819596
0.763309 -0.700857 0.812293
0.727455 -0.684654 0.783688
0.641234 -2.15779 1.74409
0.603847 -2.12733 1.71366
0.563772 -2.08328 1.67289
0.5338 -2.07314 1.6595
0.506619 -2.0726 1.65402
0.479172 -2.07016 1.64732
0.451862 -2.06735 1.64063
0.42678 -2.0743 1.64185
0.403104 -2.08873 1.64915
0.375745 -2.08415 1.64185
0.352513 -2.10269 1.6528
0.332179 -2.14213 1.68019
-0.212345 0.577759 0.46442
-0.271066 0.770978 0.610426
-0.261075 0.772708 0.609254
-0.252801 0.779714 0.612185
-0.242741 0.781208 0.611013
-0.233136 0.784127 0.611013
-0.222629 0.783808 0.608667
-0.213201 0.787264 0.609254
-0.201744 0.782751 0.603976
-0.192312 0.785955 0.604563
-0.182117 0.785886 0.602804
-0.171954 0.785685 0.601044
-0.161822 0.785353 0.599285
-0.15262 0.789668 0.601044
-0.141246 0.781906 0.594008
-0.133195 0.793175 0.601044
-0.122733 0.789943 0.597526
-0.0898388 0.622052 0.473802
-0.130724 1.01297 0.758192
0.16603 0.81095 0.618049
0.165196 0.760628 0.582281
0.175449 0.762485 0.585212
0.185577 0.763419 0.587558
0.936342 -0.493927 0.785165
0.920269 -0.499923 0.776956
0.891497 -0.498427 0.758192
0.880411 -0.506479 0.754088
0.864396 -0.511426 0.745878
0.851844 -0.518177 0.740601
0.844051 -0.527727 0.739428
0.824601 -0.529666 0.728287
0.797819 -0.526267 0.710696
0.78842 -0.562856 0.720078
0.79057 -0.579234 0.728287
0.784047 -0.589382 0.728874
0.774838 -0.597466 0.727114
0.769347 -0.608446 0.728874
0.759316 -0.615789 0.726528
0.753563 -0.626623 0.728287
0.757482 -0.645863 0.739428
0.752536 -0.657789 0.74236
0.757625 -0.678928 0.75526
0.75696 -0.695332 0.762883
0.784782 -0.739159 0.799238
0.591387 -2.11059 1.6055
0.562333 -2.10594 1.5967
0.529923 -2.08676 1.57735
0.503712 -2.09074 1.5756
0.47552 -2.0857 1.56739
0.44736 -2.0795 1.55859
0.420854 -2.08006 1.55507
0.395595 -2.08666 1.55624
0.370934 -2.09695 1.56035
0.345562 -2.10374 1.56211
0.326067 -2.15028 1.59319
0.300205 -2.15813 1.59612
-1.65219 0.114155 1.1599
-1.70011 0.180496 1.19677
-0.28087 0.775802 0.587674
-0.269423 0.77375 0.583704
-0.26017 0.777778 0.584271
-0.25339 0.789534 0.590509
-0.24709 0.803599 0.598449
-0.231132 0.786037 0.583704
-0.224158 0.798325 0.590509
-0.21413 0.800221 0.589942
-0.203885 0.801193 0.588808
-0.191311 0.79243 0.580868
-0.182867 0.800337 0.584838
-0.170581 0.791253 0.576898
-0.160693 0.79248 0.576331
-0.149714 0.787921 0.571794
-0.139888 0.788888 0.571227
-0.12952 0.786483 0.568391
-0.0947863 0.625207 0.454966
-0.109719 0.786163 0.566123
-0.0987987 0.777648 0.559317
-0.0887718 0.774711 0.556482
-0.0800256 0.783115 0.561586
-0.069507 0.774196 0.55478
-0.0602618 0.778275 0.557049
-0.0508168 0.780599 0.558183
-0.0412787 0.781986 0.55875
-0.0317492 0.78408 0.559884
-0.0220754 0.782764 0.55875
-0.0124093 0.779682 0.556482
-0.00283594 0.778952 0.555915
0.00672321 0.778928 0.555915
0.0164378 0.787022 0.561586
0.0267127 0.806518 0.575197
0.0291143 0.634154 0.456668
0.160587 0.823572 0.597315
0.157226 0.756196 0.551378
0.168782 0.764669 0.55875
0.176852 0.756924 0.55478
0.970976 -0.513774 0.775959
0.88571 -0.482799 0.714143
0.867884 -0.501104 0.709605
0.865213 -0.513814 0.712441
0.839846 -0.512832 0.697129
0.837679 -0.52572 0.700531
0.821464 -0.529725 0.692592
0.819713 -0.542943 0.696562
0.808217 -0.549726 0.692592
0.80141 -0.559602 0.692592
0.793812 -0.568916 0.692025
0.786771 -0.578614 0.692025
0.779611 -0.588226 0.692025
0.771682 -0.597245 0.691457
0.764941 -0.607181 0.692025
0.75999 -0.618598 0.694293
0.750442 -0.626298 0.692592
0.75022 -0.641874 0.699397
0.746627 -0.654827 0.703367
0.741601 -0.666689 0.706203
0.744282 -0.685769 0.716411
0.749602 -0.707837 0.729455
0.743823 -0.719842 0.732291
0.572268 -2.1291 1.53761
0.539347 -2.10963 1.51889
0.508744 -2.09688 1.50528
0.477057 -2.07728 1.48713
0.450479 -2.07815 1.48373
0.424943 -2.08352 1.48373
0.397791 -2.08049 1.47806
0.371358 -2.08035 1.47466
0.347425 -2.0945 1.48146
0.32483 -2.11896 1.49564
0.302726 -2.15051 1.51492
0.277682 -2.16469 1.5223
-0.287926 0.777073 0.558387
-0.274483 0.769463 0.550768
-0.271983 0.793445 0.564917
-0.262225 0.796723 0.564917
-0.256648 0.813505 0.574169
-0.106615 0.661605 0.455533
-0.0349644 1.00343 0.672125
-0.0194904 0.82931 0.558931
-0.00911654 0.795929 0.537163
0.000651415 0.795981 0.537163
0.0103722 0.793396 0.535531
0.0200296 0.790694 0.533898
0.0296585 0.788712 0.53281
0.0388228 0.779074 0.526823
0.0465613 0.751754 0.509409
0.057595 0.773706 0.524102
0.0673947 0.776282 0.526279
0.0763901 0.77039 0.523014
0.0865231 0.775228 0.526823
0.0961379 0.774939 0.527367
0.10564 0.773701 0.527367
0.115898 0.777321 0.530633
0.128339 0.793216 0.542061
0.146495 0.783238 0.537707
0.150858 0.755906 0.520837
0.160481 0.755637 0.521926
0.91551 -0.491868 0.694981
0.895491 -0.495289 0.684641
0.890072 -0.506659 0.685185
0.864291 -0.506012 0.670492
0.855866 -0.515272 0.668859
0.843787 -0.522178 0.664506
0.830257 -0.52796 0.659064
0.80971 -0.528868 0.64818
0.751459 -0.531013 0.617705
0.780078 -0.565978 0.646003
0.777768 -0.579037 0.649812
0.763295 -0.582902 0.643826
0.759375 -0.594827 0.646547
0.755928 -0.607272 0.649812
0.750999 -0.618648 0.651989
0.74782 -0.631627 0.655799
0.745067 -0.645173 0.660152
0.744592 -0.660985 0.666683
0.738278 -0.671775 0.668315
0.747697 -0.697458 0.684097
0.74029 -0.707745 0.685185
0.750643 -0.735649 0.7026
0.552038 -2.13261 1.44979
0.520861 -2.11885 1.43618
0.488597 -2.0981 1.41822
0.458707 -2.08509 1.40571
0.427021 -2.06097 1.38611
0.40043 -2.05946 1.38176
0.375572 -2.0667 1.38339
0.350596 -2.07364 1.38503
0.324995 -2.07695 1.38448
0.304782 -2.11816 1.40897
0.283283 -2.15669 1.43183
0.259132 -2.18 1.44489
-0.293256 0.782728 0.536344
-0.282757 0.783866 0.534771
-0.276482 0.796924 0.541064
-0.267494 0.802679 0.542638
-0.261012 0.816438 0.549455
-0.104918 0.643449 0.423067
0.0525592 0.625048 0.407859
0.0824088 0.860018 0.553651
0.0860115 0.793749 0.513269
0.0947398 0.784179 0.508025
0.104023 0.780425 0.506452
0.112864 0.774033 0.503305
0.12117 0.765019 0.498585
0.128987 0.754239 0.492817
0.140212 0.76349 0.499634
0.148108 0.75419 0.494914
0.160116 0.765655 0.503305
0.951177 -0.504782 0.684759
0.900049 -0.491976 0.653293
0.853507 -0.508257 0.633364
0.81886 -0.501395 0.612911
0.828515 -0.521359 0.624449
0.802015 -0.518573 0.609765
0.81547 -0.541535 0.624449
0.798201 -0.544322 0.616583
0.787272 -0.551152 0.613436
0.78391 -0.563251 0.616058
0.769392 -0.567281 0.610289
0.761013 -0.575655 0.60924
0.756586 -0.587034 0.611338
0.749325 -0.596274 0.611338
0.745914 -0.608649 0.614485
0.746889 -0.624846 0.621302
0.744342 -0.638391 0.625498
0.742215 -0.652529 0.630218
0.739851 -0.66671 0.634938
0.73913 -0.68266 0.641231
0.731316 -0.692263 0.641755
0.744185 -0.721905 0.66011
0.714107 -0.710002 0.641755
0.550336 -2.16334 1.39641
0.512129 -2.12193 1.366
0.481868 -2.1098 1.35446
0.442986 -2.05563 1.3167
0.41569 -2.0509 1.31041
0.390331 -2.05501 1.30988
0.364338 -2.05545 1.30726
0.33992 -2.06481 1.31041
0.314171 -2.0663 1.30883
0.291273 -2.08771 1.31985
0.267142 -2.10295 1.32719
0.245411 -2.1416 1.34921
-0.245881 0.607062 0.401905
-0.311486 0.800751 0.520154
-0.293544 0.782593 0.506626
-0.287106 0.795107 0.512137
-0.276767 0.796932 0.511135
-0.27209 0.815893 0.520655
-0.138476 0.78301 0.483076
0.099381 0.635999 0.395391
0.132657 0.779628 0.480571
0.139489 0.763484 0.472053
0.145945 0.747292 0.463535
0.947178 -0.504071 0.643916
0.914418 -0.500992 0.626379
0.891657 -0.502754 0.615355
0.886167 -0.514095 0.615856
0.864966 -0.516 0.605835
0.824724 -0.505615 0.582787
0.814077 -0.51291 0.57978
0.803375 -0.52002 0.576774
0.771787 -0.512955 0.559237
0.70881 -0.496247 0.523662
0.730676 -0.52525 0.543704
0.723481 -0.533659 0.543203
0.74438 -0.56352 0.563245
0.734003 -0.569943 0.56074
0.72628 -0.578365 0.560239
0.728476 -0.594941 0.567254
0.723103 -0.605512 0.568757
0.721504 -0.619441 0.573266
0.722259 -0.635719 0.57978
0.728482 -0.657353 0.590803
0.726055 -0.671556 0.595313
0.728391 -0.690584 0.603831
0.727278 -0.70674 0.609844
0.741752 -0.738918 0.628884
0.501739 -2.11506 1.28126
0.467862 -2.08558 1.26022
0.439574 -2.07845 1.2527
0.410863 -2.06756 1.24318
0.385147 -2.07074 1.24218
0.358685 -2.06934 1.23867
0.332857 -2.07102 1.23717
0.307543 -2.07581 1.23767
0.281932 -2.07857 1.23717
0.259211 -2.10507 1.2507
0.233826 -2.11239 1.2532
0.218578 -2.22623 1.31784
-1.62018 0.0566214 0.91202
-1.75958 0.12634 0.990372
-0.198604 0.49645 0.316455
-0.299926 0.775085 0.478925
-0.285775 0.766391 0.471715
-0.288256 0.802833 0.490942
-0.278383 0.80631 0.490942
-0.273182 0.823807 0.499114
-0.128882 0.689367 0.407784
0.0943044 0.638261 0.377021
0.137182 0.858787 0.500075
0.12971 0.751583 0.441432
0.136077 0.734409 0.43278
0.1606 0.811851 0.477003
0.921633 -0.505566 0.599577
0.940576 -0.531032 0.615439
0.835349 -0.499208 0.556796
0.845612 -0.519497 0.567371
0.814683 -0.51442 0.551508
0.789164 -0.511999 0.539011
0.776978 -0.517763 0.535165
0.76477 -0.523306 0.53132
0.759009 -0.533154 0.5318
0.746 -0.537823 0.527474
0.723112 -0.534967 0.516419
0.715094 -0.542742 0.515457
0.709073 -0.552014 0.515938
0.700873 -0.559582 0.514976
0.716373 -0.586437 0.530839
0.712485 -0.597997 0.533242
0.708421 -0.60955 0.535646
0.70418 -0.621093 0.538049
0.699762 -0.632623 0.540453
0.694522 -0.643543 0.542375
0.714589 -0.678545 0.563525
0.7232 -0.703752 0.576504
0.73254 -0.730505 0.590444
0.473115 -2.08645 1.1961
0.445268 -2.08181 1.19034
0.417086 -2.07422 1.18313
0.388669 -2.06368 1.17447
0.363772 -2.07088 1.17592
0.337907 -2.07259 1.17447
0.31153 -2.07051 1.17111
0.286459 -2.07679 1.17255
0.26205 -2.08885 1.17736
0.238675 -2.11194 1.18841
0.21433 -2.13042 1.19707
0.192674 -2.18355 1.22494
-1.48256 0.524155 0.832578
-0.340395 0.837084 0.488841
-0.306987 0.781476 0.455929
-0.301725 0.796851 0.462329
-0.292224 0.801331 0.462786
-0.287593 0.81999 0.471014
-0.32369 0.962755 0.546435
-0.160233 0.832332 0.460043
0.0895762 0.637681 0.355368
0.118168 0.766518 0.423018
0.128624 0.771146 0.426218
0.13484 0.752018 0.417076
0.938404 -0.510317 0.573404
0.894129 -0.500353 0.551006
0.886384 -0.510394 0.550092
0.849519 -0.502975 0.531808
0.833433 -0.507307 0.525865
0.806842 -0.50467 0.513524
0.785668 -0.504849 0.504382
0.769053 -0.507545 0.497982
0.717262 -0.485796 0.469642
0.693782 -0.482289 0.458672
0.730373 -0.521461 0.485641
0.716769 -0.525094 0.48107
0.708855 -0.532775 0.480156
0.700158 -0.539794 0.478784
0.711551 -0.562776 0.490669
0.69771 -0.56583 0.486098
0.691395 -0.574922 0.486555
0.693725 -0.591486 0.492954
0.687081 -0.600543 0.493411
0.687576 -0.616089 0.498897
0.685834 -0.629922 0.503011
0.705134 -0.66402 0.522209
0.702668 -0.678207 0.526323
0.705624 -0.698087 0.53455
0.734314 -0.744849 0.561976
0.482096 -2.11686 1.1402
0.451825 -2.10261 1.12969
0.423547 -2.09578 1.12329
0.394358 -2.08246 1.11369
0.36755 -2.08014 1.11004
0.340004 -2.0722 1.10364
0.313104 -2.06654 1.09861
0.289168 -2.0808 1.10409
0.263392 -2.08243 1.10318
0.238214 -2.08904 1.10501
0.215292 -2.11924 1.11918
0.190273 -2.13324 1.12512
-1.38277 -0.0566779 0.735673
-1.57495 -0.0252749 0.833949
-1.80498 0.0866613 0.900585
-0.199022 0.481537 0.277518
-0.313625 0.783697 0.434048
-0.303008 0.78497 0.432739
-0.296188 0.796216 0.436664
-0.294015 0.820959 0.447564
-0.293337 0.851719 0.461517
-0.16736 0.840215 0.440152
0.0880804 0.647371 0.341612
0.112446 0.758437 0.39655
0.119766 0.744557 0.390446
0.130264 0.751014 0.39437
0.94007 -0.516688 0.544796
0.919549 -0.520227 0.536947
0.815318 -0.488215 0.485497
0.803129 -0.494418 0.482009
0.810704 -0.512877 0.489858
0.754501 -0.49049 0.461081
0.757416 -0.505695 0.466313
0.748181 -0.512921 0.464569
0.736673 -0.518446 0.461517
0.731716 -0.528498 0.462389
0.726623 -0.538507 0.463261
0.708484 -0.538686 0.456284
0.709636 -0.553416 0.461081
0.704199 -0.563204 0.461953
0.700718 -0.574652 0.464133
0.694303 -0.583785 0.464569
0.688452 -0.593435 0.465441
0.681118 -0.601838 0.465441
0.677688 -0.61377 0.468057
0.674069 -0.625708 0.470673
0.685928 -0.652512 0.483753
0.706907 -0.689108 0.503374
0.698397 -0.697731 0.503374
0.731343 -0.748683 0.532151
0.449186 -2.10893 1.06976
0.423273 -2.11428 1.06976
0.389309 -2.07686 1.04883
0.361461 -2.06819 1.04229
0.33562 -2.0698 1.04098
0.308724 -2.06398 1.03619
0.282881 -2.06404 1.03444
0.259432 -2.08254 1.04185
0.234058 -2.08735 1.04273
0.208875 -2.09455 1.04491
0.186075 -2.13012 1.06104
0.160668 -2.14212 1.06584
-0.228602 0.534802 0.28905
-0.324203 0.790125 0.412235
-0.310506 0.783858 0.407292
-0.308245 0.807224 0.416767
-0.30173 0.820369 0.421299
-0.301236 0.851544 0.434483
0.0821399 0.655759 0.324893
0.108781 0.783667 0.383808
0.112603 0.745365 0.366916
0.120981 0.739435 0.364856
1.00787 -0.544668 0.544073
0.897811 -0.499025 0.490514
0.873471 -0.499525 0.481038
0.855523 -0.503227 0.474858
0.815066 -0.492793 0.456731
0.796609 -0.495008 0.450139
0.785114 -0.50129 0.447255
0.757633 -0.496798 0.435719
0.720559 -0.498026 0.422123
0.743278 -0.527532 0.438191
0.723535 -0.526896 0.430775
0.714833 -0.534089 0.429539
0.704622 -0.540032 0.427479
0.700797 -0.550905 0.429127
0.70317 -0.566941 0.434483
0.703855 -0.581949 0.439015
0.689045 -0.584027 0.434483
0.681826 -0.592438 0.434483
0.672472 -0.598933 0.433247
0.666412 -0.608375 0.434071
0.660883 -0.618384 0.435307
0.672887 -0.645459 0.447667
0.681087 -0.669711 0.457967
0.681763 -0.687113 0.463734
0.714292 -0.738158 0.490514
0.433627 -2.11394 1.0018
0.404586 -2.10299 0.99438
0.372532 -2.07281 0.978312
0.341875 -2.04576 0.963892
0.315509 -2.04169 0.960184
0.290304 -2.04451 0.959772
0.267266 -2.06418 0.967188
0.241395 -2.06278 0.965128
0.216249 -2.0674 0.965952
0.193399 -2.09803 0.978724
0.170537 -2.1375 0.995615
0.145544 -2.15852 1.00427
-0.406994 0.950704 0.465258
-0.322575 0.780471 0.384834
-0.307492 0.770698 0.378587
-0.311957 0.810478 0.394984
-0.305203 0.822872 0.398888
-0.346998 0.971272 0.464087
-0.153419 0.686719 0.325101
0.10211 0.746411 0.346183
0.110859 0.742369 0.345012
0.117196 0.72368 0.337594
0.810606 -0.45987 0.421922
0.821988 -0.493331 0.433244
0.797835 -0.492288 0.424265
0.788621 -0.500074 0.422703
0.766983 -0.499686 0.414895
0.733986 -0.491181 0.401231
0.743095 -0.510555 0.409039
0.733008 -0.516988 0.407087
0.733328 -0.530792 0.410601
0.72306 -0.537012 0.408649
0.71055 -0.54139 0.405525
0.705305 -0.551201 0.406306
0.699207 -0.560389 0.406697
0.694414 -0.570677 0.407868
0.685244 -0.577379 0.406697
0.679502 -0.586947 0.407477
0.673629 -0.596459 0.408258
0.668307 -0.606534 0.409429
0.670939 -0.62408 0.415286
0.667234 -0.636072 0.417628
0.664653 -0.649351 0.420751
0.673575 -0.674371 0.430902
0.680049 -0.697729 0.439881
0.704475 -0.740666 0.460183
0.425091 -2.13476 0.949757
0.393445 -2.11086 0.937263
0.357865 -2.0602 0.913448
0.331234 -2.05626 0.909935
0.302172 -2.03467 0.899003
0.277679 -2.04188 0.900565
0.253055 -2.04879 0.902127
0.229836 -2.06912 0.909544
0.204337 -2.07087 0.909154
0.178988 -2.07414 0.909544
0.155166 -2.09821 0.918914
0.13055 -2.11834 0.926722
-0.338362 0.791151 0.366247
-0.325116 0.786627 0.362585
-0.321229 0.805278 0.36881
-0.316603 0.823081 0.374669
-0.31063 0.838266 0.379429
-0.173985 0.733096 0.324136
0.0949622 0.768083 0.332192
0.101251 0.744747 0.323404
0.110807 0.746207 0.324502
0.841951 -0.478478 0.408723
0.834413 -0.487828 0.407991
0.816432 -0.490787 0.402498
0.784296 -0.484513 0.390414
0.780641 -0.495608 0.391513
0.755849 -0.492866 0.382725
0.724308 -0.484901 0.370641
0.741743 -0.523594 0.384922
0.735262 -0.532657 0.384922
0.71825 -0.53382 0.379795
0.709433 -0.540891 0.378697
0.693247 -0.54206 0.373936
0.697391 -0.559309 0.379429
0.681883 -0.560693 0.375035
0.69125 -0.58289 0.383457
0.679838 -0.587658 0.38126
0.672575 -0.595957 0.38126
0.665897 -0.604794 0.381626
0.666564 -0.620566 0.38602
0.66292 -0.632572 0.388217
0.656432 -0.641966 0.38895
0.671405 -0.673133 0.401766
0.659863 -0.677973 0.399935
0.691678 -0.728705 0.423004
0.419598 -2.15154 0.890245
0.388209 -2.12906 0.87926
0.35097 -2.06758 0.852895
0.320864 -2.04139 0.840811
0.294869 -2.03872 0.838248
0.268869 -2.03481 0.835319
0.243335 -2.03333 0.833488
0.220019 -2.0519 0.839713
0.194393 -2.04981 0.837882
0.169 -2.04926 0.836783
0.147001 -2.0976 0.855092
0.12239 -2.11968 0.863148
-0.388006 0.87831 0.380404
-0.336497 0.78809 0.34253
-0.322847 0.782619 0.338742
-0.318799 0.800469 0.344251
-0.305572 0.795562 0.340808
-0.291532 0.787812 0.336332
-0.281842 0.79133 0.336332
-0.273638 0.799168 0.338054
-0.257329 0.782854 0.330479
-0.247419 0.785058 0.330134
-0.239402 0.793426 0.3322
-0.235926 0.817944 0.340464
-0.255182 0.92664 0.380749
-0.165747 0.633753 0.268502
-0.20566 0.826073 0.340464
-0.14233 0.604747 0.256107
-0.14663 0.658661 0.275733
0.0544254 0.47924 0.205148
0.0954323 0.763669 0.310508
0.105049 0.764301 0.311197
0.116622 0.777814 0.316706
0.888776 -0.504865 0.403129
0.817328 -0.491298 0.377994
0.788856 -0.487503 0.368353
0.770915 -0.489614 0.363189
0.760126 -0.495966 0.361123
0.752422 -0.504214 0.360434
0.726821 -0.500133 0.351826
0.725235 -0.512258 0.353892
0.725743 -0.526068 0.356991
0.723758 -0.538289 0.359057
0.708131 -0.54031 0.354925
0.703668 -0.550692 0.355958
0.700522 -0.562218 0.35768
0.692119 -0.569581 0.356991
0.682203 -0.575614 0.355614
0.677932 -0.586395 0.356991
0.674905 -0.598401 0.359057
0.67099 -0.60979 0.360778
0.66552 -0.619895 0.361811
0.661263 -0.631252 0.363533
0.656827 -0.642597 0.365255
0.652876 -0.654591 0.36732
0.652663 -0.670617 0.371452
0.650859 -0.685374 0.374895
0.663489 -0.716006 0.386258
0.396578 -2.13575 0.824915
0.366002 -2.11548 0.815619
0.330013 -2.05771 0.79255
0.303082 -2.05046 0.788418
0.277012 -2.04751 0.786008
0.250715 -2.04144 0.782565
0.22523 -2.04063 0.781187
0.20054 -2.04698 0.782565
0.17605 -2.05677 0.785319
0.150867 -2.05971 0.785663
0.128003 -2.10076 0.800125
0.103599 -2.13031 0.810454
-0.358911 0.806973 0.327394
-0.339352 0.788643 0.319075
-0.335043 0.805896 0.323875
-0.327919 0.816994 0.326434
-0.320235 0.827152 0.328674
-0.33165 0.889705 0.349791
-0.306795 0.85441 0.335713
-0.284995 0.824924 0.323875
-0.266907 0.804043 0.315236
-0.262116 0.823533 0.320995
-0.246007 0.806721 0.313956
-0.236089 0.809679 0.313956
-0.216649 0.777785 0.301798
-0.206373 0.777634 0.300838
-0.178418 0.705604 0.274922
-0.189169 0.790767 0.303718
-0.175566 0.775452 0.297639
-0.166037 0.777548 0.297639
-0.156119 0.777668 0.296999
-0.146053 0.776729 0.296039
-0.136511 0.778463 0.296039
-0.1268 0.779143 0.295719
-0.117229 0.780641 0.295719
-0.105154 0.763236 0.28932
-0.102549 0.82091 0.308517
-0.0654297 0.570591 0.22309
0.0840943 0.771561 0.29124
0.0918883 0.757312 0.28676
0.100521 0.751435 0.285161
0.88665 -0.501538 0.373147
0.827327 -0.481193 0.35235
0.816494 -0.488371 0.350431
0.801585 -0.492856 0.346911
0.789886 -0.499089 0.344672
0.752797 -0.488491 0.332193
0.750715 -0.51382 0.336353
0.738171 -0.518609 0.333793
0.729453 -0.525956 0.332833
0.722944 -0.534868 0.332833
0.72159 -0.547733 0.335073
0.70215 -0.546594 0.329634
0.699079 -0.558142 0.331234
0.670996 -0.549177 0.321955
0.68517 -0.57513 0.331234
0.680207 -0.585359 0.332193
0.675803 -0.596182 0.333473
0.668436 -0.60443 0.333473
0.663045 -0.614529 0.334433
0.655453 -0.622619 0.334433
0.651819 -0.634599 0.336353
0.649324 -0.647928 0.338912
0.651874 -0.666733 0.344032
0.645596 -0.676747 0.344992
0.657802 -0.7069 0.35523
0.411702 -2.23066 0.795163
0.363014 -2.11038 0.75229
0.329131 -2.06414 0.735013
0.30201 -2.05583 0.730853
0.27651 -2.05751 0.730213
0.250338 -2.05322 0.727654
0.225325 -2.05802 0.728294
0.199605 -2.05591 0.726694
0.174986 -2.06576 0.729253
0.150288 -2.0772 0.732453
0.12528 -2.08741 0.735332
0.0998715 -2.09352 0.736932
0.0757895 -2.14288 0.75325
-0.467629 1.02518 0.380928
-0.347941 0.789034 0.298509
-0.337104 0.790612 0.297617
-0.337962 0.820272 0.306245
-0.328933 0.827018 0.307138
-0.372649 0.970859 0.353852
-0.126256 0.603928 0.222041
-0.180735 0.917266 0.321122
-0.150109 0.815225 0.288095
-0.135534 0.790665 0.279764
-0.123552 0.778129 0.275301
-0.114553 0.783365 0.276491
-0.105571 0.789442 0.277979
-0.0957593 0.78973 0.277681
-0.0846977 0.77851 0.273813
-0.0761631 0.789942 0.277086
-0.0654851 0.779403 0.273516
-0.0558458 0.779196 0.273218
-0.0468614 0.789352 0.276194
-0.036939 0.785099 0.274706
-0.0273366 0.786448 0.275004
-0.01743 0.776225 0.271731
-0.00775576 0.76397 0.267863
0.00155055 0.587387 0.212817
0.0886176 0.88273 0.306245
0.0862431 0.76297 0.269053
0.094896 0.756169 0.267267
0.125558 0.911979 0.316659
0.805117 -0.484538 0.32261
0.786922 -0.486864 0.318147
0.778469 -0.494951 0.317254
0.767536 -0.501341 0.315469
0.756564 -0.507538 0.313684
0.743196 -0.51192 0.311006
0.729835 -0.516051 0.308328
0.719579 -0.522171 0.30684
0.718483 -0.534945 0.308923
0.705029 -0.538516 0.306245
0.701377 -0.549478 0.307436
0.694581 -0.558043 0.307436
0.686943 -0.565919 0.307138
0.684328 -0.577996 0.308923
0.675738 -0.585103 0.308328
0.672797 -0.597147 0.310113
0.663297 -0.603434 0.309221
0.656541 -0.612178 0.309518
0.657965 -0.628751 0.313386
0.653615 -0.640113 0.314874
0.64706 -0.649436 0.315469
0.641708 -0.660062 0.316659
0.644088 -0.678954 0.32142
0.644151 -0.695903 0.325288
0.619541 -0.686065 0.317849
0.36564 -2.1199 0.70019
0.332034 -2.07709 0.685313
0.305262 -2.07251 0.682635
0.276988 -2.05529 0.676089
0.251163 -2.0538 0.674602
0.225207 -2.05008 0.672519
0.200125 -2.05364 0.672817
0.175154 -2.05879 0.673709
0.149876 -2.06079 0.673709
0.125215 -2.07296 0.676982
0.100651 -2.09245 0.682635
0.0752435 -2.10116 0.685016
-0.396361 0.859364 0.299266
-0.361315 0.808718 0.282059
-0.341169 0.789202 0.274685
-0.34356 0.822678 0.283698
-0.339842 0.84292 0.288614
-0.201452 0.75348 0.252016
-0.0494025 0.628903 0.209683
-0.055926 0.867608 0.277416
-0.0412577 0.78367 0.253382
-0.03157 0.782194 0.252836
-0.0218145 0.775791 0.250924
-0.0123337 0.779848 0.252016
-0.00275978 0.781864 0.252562
0.00676831 0.77703 0.251197
0.0163032 0.776888 0.251197
0.0259095 0.778552 0.251743
0.0356078 0.781058 0.252562
0.0458558 0.791123 0.255567
0.0555607 0.790501 0.255567
0.0633233 0.767718 0.249285
0.0716854 0.756354 0.246281
0.0814995 0.760197 0.247646
0.0908221 0.75914 0.247646
0.953428 -0.537519 0.341326
0.844628 -0.489433 0.307733
0.814653 -0.48538 0.299812
0.799636 -0.489775 0.296808
0.791941 -0.498519 0.296262
0.776098 -0.501889 0.292984
0.788257 -0.523697 0.299266
0.686688 -0.46787 0.266491
0.727246 -0.509018 0.282606
0.720166 -0.517339 0.282332
0.714535 -0.526712 0.282606
0.708782 -0.536025 0.282879
0.700636 -0.543496 0.282332
0.690914 -0.549644 0.28124
0.669264 -0.545851 0.275778
0.659575 -0.551541 0.274685
0.65203 -0.558964 0.274412
0.658794 -0.579053 0.279601
0.663738 -0.598096 0.284244
0.657756 -0.607507 0.284791
0.653034 -0.618191 0.285883
0.647461 -0.628177 0.286702
0.640383 -0.636756 0.286975
0.646605 -0.659049 0.292711
0.642442 -0.67112 0.29435
0.637426 -0.682483 0.295715
0.650929 -0.714524 0.305001
0.337216 -2.09201 0.632199
0.311658 -2.09694 0.632472
0.281936 -2.07105 0.624005
0.255338 -2.06481 0.621274
0.228622 -2.05535 0.617724
0.203104 -2.05513 0.616904
0.17795 -2.05843 0.617177
0.152954 -2.0643 0.61827
0.127955 -2.07178 0.619909
0.102978 -2.0828 0.62264
0.0783248 -2.10987 0.630014
0.0523615 -2.10778 0.629195
-0.25697 0.547668 0.187643
-0.354039 0.777969 0.252241
-0.349163 0.792881 0.255245
-0.349303 0.820251 0.261755
-0.338472 0.822686 0.261255
-0.36099 0.90861 0.284039
-0.19044 0.695535 0.217688
0.0166072 0.600856 0.186641
0.0323793 0.823122 0.244229
0.0400099 0.773349 0.231459
0.0489548 0.764103 0.229206
0.0600584 0.786616 0.235215
0.0680279 0.76653 0.230207
0.0774293 0.765637 0.230207
0.0866038 0.762705 0.229707
0.112314 0.893209 0.264009
0.795135 -0.479099 0.27127
0.792491 -0.490855 0.272271
0.77905 -0.495875 0.270018
0.769662 -0.503283 0.269016
0.746534 -0.501379 0.263758
0.737134 -0.508309 0.262757
0.727676 -0.515084 0.261755
0.716596 -0.520567 0.260253
0.693835 -0.517196 0.254995
0.683586 -0.522737 0.253743
0.692374 -0.543013 0.258751
0.683392 -0.549651 0.258
0.677343 -0.558611 0.25825
0.672658 -0.568753 0.259001
0.667093 -0.578231 0.259502
0.662121 -0.588299 0.260253
0.656285 -0.597682 0.260754
0.645358 -0.602393 0.259502
0.646324 -0.618286 0.262506
0.644226 -0.631585 0.264509
0.637111 -0.640128 0.26476
0.635287 -0.65414 0.267013
0.637216 -0.672414 0.270769
0.63155 -0.683022 0.27177
0.648451 -0.718721 0.281535
0.333895 -2.09561 0.579988
0.3066 -2.08901 0.577234
0.278353 -2.07343 0.572226
0.250771 -2.05939 0.56772
0.224528 -2.05365 0.565466
0.199403 -2.05722 0.565717
0.173814 -2.05565 0.564715
0.148153 -2.05184 0.563213
0.124016 -2.0709 0.56772
0.0985931 -2.07226 0.56772
0.0736771 -2.08783 0.571475
0.0484167 -2.10406 0.575481
-0.25108 0.52184 0.166102
-0.369145 0.796826 0.235371
-0.350263 0.780809 0.230181
-0.352548 0.812809 0.237176
-0.349999 0.835077 0.241688
-0.359249 0.88816 0.253872
-0.251895 0.896054 0.247555
0.0419871 0.621523 0.176255
0.0627671 0.773345 0.211679
0.0711998 0.761853 0.209197
0.0811891 0.766731 0.210551
0.848993 -0.490443 0.259062
0.806984 -0.479281 0.24936
0.800212 -0.488636 0.249134
0.79251 -0.497377 0.248683
0.775732 -0.500156 0.24575
0.779255 -0.516135 0.248457
0.735295 -0.513219 0.239658
0.721837 -0.517066 0.237627
0.714655 -0.525304 0.237401
0.704279 -0.531084 0.236273
0.694637 -0.537289 0.235371
0.687991 -0.545772 0.235371
0.677477 -0.551083 0.234242
0.672154 -0.56061 0.234694
0.661536 -0.565634 0.233565
0.6436 -0.564027 0.230181
0.649621 -0.583662 0.234242
0.645264 -0.594242 0.235145
0.649915 -0.613538 0.238981
0.648611 -0.627592 0.241011
0.639484 -0.634126 0.24056
0.632334 -0.642624 0.240786
0.638504 -0.665155 0.245524
0.638911 -0.682221 0.248457
0.631145 -0.690732 0.248683
0.638106 -0.715944 0.254098
0.314025 -2.09297 0.522148
0.289102 -2.10246 0.523502
0.259352 -2.07394 0.516056
0.231631 -2.05663 0.511318
0.205232 -2.04769 0.50861
0.180089 -2.05005 0.50861
0.154918 -2.05211 0.50861
0.129307 -2.04705 0.507031
0.105271 -2.07086 0.51222
0.0803498 -2.08563 0.515379
0.055129 -2.10204 0.518989
0.0294588 -2.11327 0.521471
-0.275369 0.568978 0.1636
-0.370662 0.789312 0.213324
-0.357288 0.785784 0.211498
-0.360676 0.819667 0.218195
-0.357514 0.84024 0.221849
-0.361372 0.878958 0.229561
-0.256859 0.894618 0.225502
0.0601676 0.784518 0.195667
0.0675739 0.758358 0.19039
0.0767779 0.756498 0.190187
0.800424 -0.482646 0.226314
0.801104 -0.49655 0.227937
0.777592 -0.49532 0.223675
0.768995 -0.50322 0.223066
0.757067 -0.508803 0.221646
0.731405 -0.504736 0.216775
0.722757 -0.511979 0.216166
0.714041 -0.519086 0.215557
0.706046 -0.526641 0.215151
0.691744 -0.529326 0.213121
0.682883 -0.535965 0.212513
0.677782 -0.54553 0.212918
0.679354 -0.56065 0.215151
0.661196 -0.559474 0.212107
0.6528 -0.566265 0.211701
0.650198 -0.57813 0.212918
0.647402 -0.590017 0.214136
0.641546 -0.599252 0.214542
0.642644 -0.615192 0.216978
0.637146 -0.625086 0.217586
0.628736 -0.632165 0.217384
0.625029 -0.644043 0.218601
0.627867 -0.663025 0.221849
0.623011 -0.674271 0.222863
0.62651 -0.69494 0.226517
0.632832 -0.719466 0.231185
0.307059 -2.09713 0.471893
0.280387 -2.09395 0.470472
0.251823 -2.07391 0.465601
0.223259 -2.04861 0.459716
0.197819 -2.04828 0.459107
0.173165 -2.0564 0.460325
0.147987 -2.05935 0.460527
0.122058 -2.05026 0.458295
0.097357 -2.06138 0.460325
0.0721926 -2.06634 0.461136
0.0472858 -2.08665 0.465196
0.0217621 -2.0949 0.466819
-0.291651 0.58705 0.15199
-0.376336 0.784412 0.190819
-0.36545 0.786288 0.190285
-0.364167 0.809596 0.194025
-0.354593 0.814908 0.194203
-0.359287 0.854639 0.20115
0.0528347 0.780656 0.174967
0.0601577 0.753476 0.170158
0.0694949 0.75366 0.170336
0.108832 1.02663 0.220208
0.899551 -0.518494 0.221277
0.81627 -0.483536 0.205068
0.796862 -0.485271 0.202219
0.782529 -0.489757 0.200437
0.764079 -0.491286 0.197766
0.767818 -0.507176 0.199903
0.722562 -0.489878 0.191354
0.725352 -0.504932 0.193313
0.716706 -0.512068 0.192778
0.704041 -0.516142 0.191354
0.692952 -0.521172 0.190285
0.688833 -0.53145 0.190819
0.673802 -0.533108 0.18886
0.666448 -0.540713 0.188682
0.659762 -0.548851 0.188682
0.660435 -0.563326 0.190463
0.646832 -0.565528 0.18886
0.648601 -0.581344 0.190997
0.632037 -0.580563 0.188682
0.637705 -0.600475 0.191888
0.636633 -0.614434 0.193491
0.631831 -0.624981 0.194203
0.628242 -0.636909 0.195272
0.626491 -0.650979 0.196875
0.625831 -0.66654 0.198834
0.621573 -0.678541 0.199903
0.628861 -0.703793 0.204178
0.637551 -0.731558 0.208987
0.28996 -2.08984 0.415244
0.263685 -2.08836 0.414354
0.236287 -2.0758 0.411504
0.207873 -2.04916 0.406161
0.181003 -2.03195 0.402598
0.156201 -2.03598 0.402954
0.130714 -2.02989 0.40153
0.105843 -2.03233 0.401708
0.0811931 -2.04134 0.403133
0.0569661 -2.07464 0.40901
0.031568 -2.0801 0.409901
0.00608599 -2.12658 0.418272
-2.05685 0.546628 0.36798
-0.293952 0.588963 0.137257
-0.38607 0.796864 0.17292
-0.37542 0.799755 0.17261
-0.370499 0.815086 0.174471
-0.366454 0.833128 0.176796
-0.360082 0.846647 0.178347
0.0497287 0.770249 0.155089
0.0564357 0.733131 0.149352
0.0667207 0.747146 0.151677
0.795415 -0.479818 0.179742
0.791988 -0.491102 0.180208
0.780064 -0.497075 0.179122
0.758187 -0.496352 0.176176
0.748756 -0.503419 0.175556
0.728687 -0.503048 0.17292
0.718425 -0.509102 0.172145
0.708924 -0.515561 0.171525
0.696995 -0.520094 0.170439
0.687419 -0.526211 0.169819
0.6848 -0.537651 0.170594
0.664283 -0.534883 0.167803
0.659957 -0.544878 0.168268
0.658506 -0.557396 0.169354
0.653111 -0.566727 0.169664
0.635759 -0.565523 0.167493
0.64193 -0.585243 0.170284
0.641205 -0.599137 0.17168
0.630232 -0.603549 0.170904
0.633369 -0.621602 0.17323
0.626391 -0.630027 0.173385
0.622746 -0.641915 0.174316
0.618903 -0.653807 0.175246
0.622246 -0.673674 0.177882
0.623868 -0.692253 0.180208
0.618592 -0.703562 0.180983
0.6112 -0.712598 0.181293
0.282367 -2.11143 0.36829
0.255838 -2.10983 0.367514
0.225414 -2.07156 0.361002
0.197972 -2.05352 0.357746
0.17284 -2.05678 0.357901
0.146732 -2.04693 0.35604
0.121543 -2.04759 0.355885
0.0965482 -2.05188 0.35635
0.0715358 -2.05785 0.357126
0.046597 -2.0724 0.359296
0.0212047 -2.07677 0.359917
-0.00432183 -2.10453 0.364258
-0.0310143 -2.16754 0.374182
-0.326637 0.636924 0.128775
-0.4057 0.818017 0.154716
-0.378175 0.786223 0.149371
-0.347762 0.745776 0.142853
-0.372087 0.825151 0.153673
-0.37096 0.850596 0.156671
-0.221222 0.743052 0.136597
0.0429768 0.789979 0.138682
0.0491933 0.740934 0.132295
0.0578668 0.735335 0.131643
0.0857272 0.929974 0.157453
0.91186 -0.52441 0.172965
0.83128 -0.491367 0.161624
0.803213 -0.488053 0.158235
0.776195 -0.484655 0.154976
0.765196 -0.49091 0.154194
0.766544 -0.505205 0.155367
0.755375 -0.511218 0.154585
0.721444 -0.501096 0.150153
0.712021 -0.507594 0.149632
0.704941 -0.515705 0.149501
0.69856 -0.524317 0.149501
0.689724 -0.531025 0.14911
0.68083 -0.537595 0.148719
0.664201 -0.537753 0.147025
0.658312 -0.5465 0.147155
0.658325 -0.560352 0.148328
0.64247 -0.560525 0.146764
0.637751 -0.57036 0.147155
0.619059 -0.567371 0.145069
0.612769 -0.575607 0.1452
0.622725 -0.599666 0.148328
0.625857 -0.617757 0.150284
0.627249 -0.634598 0.151978
0.62421 -0.647264 0.152891
0.625012 -0.6643 0.154585
0.616813 -0.67192 0.154585
0.62037 -0.692784 0.156932
0.613769 -0.702593 0.157323
0.639655 -0.750968 0.164362
0.269285 -2.11553 0.31505
0.242303 -2.10981 0.313877
0.212525 -2.07415 0.308793
0.183921 -2.04104 0.3041
0.158335 -2.03623 0.303188
0.132707 -2.02812 0.301884
0.107657 -2.02663 0.301493
0.0829334 -2.03176 0.302015
0.0584953 -2.05145 0.304491
0.0334016 -2.05797 0.305273
0.00820566 -2.08796 0.309184
-0.0177519 -2.12062 0.313486
-0.412719 0.826458 0.134815
-0.388207 0.801949 0.13128
-0.368173 0.785064 0.128709
-0.381194 0.83928 0.134601
-0.372873 0.848443 0.135137
0.0398148 0.756695 0.116924
0.0580734 0.751524 0.116496
0.824063 -0.497427 0.138994
0.779848 -0.483963 0.134173
0.771334 -0.491896 0.133851
0.762742 -0.499694 0.13353
0.739213 -0.497385 0.13128
0.730597 -0.504727 0.130959
0.719477 -0.510211 0.130316
0.713162 -0.519002 0.130316
0.683611 -0.510497 0.127209
0.681246 -0.521865 0.127745
0.678704 -0.533251 0.12828
0.665908 -0.536558 0.127423
0.657739 -0.543425 0.127209
0.644943 -0.546324 0.126352
0.647963 -0.562657 0.127745
0.646215 -0.575186 0.128495
0.626604 -0.571699 0.126673
0.63554 -0.594261 0.12903
0.630357 -0.604076 0.129352
0.622896 -0.611766 0.129352
0.616044 -0.620068 0.129459
0.616012 -0.635423 0.130637
0.604062 -0.638606 0.129994
0.618468 -0.67005 0.13353
0.612198 -0.679802 0.133851
0.611697 -0.696216 0.135137
0.621253 -0.724782 0.138136
0.255296 -2.11144 0.264445
0.227748 -2.09959 0.262838
0.200053 -2.08243 0.260695
0.171392 -2.04807 0.256731
0.145319 -2.03713 0.255339
0.119835 -2.03082 0.254482
0.0949051 -2.03214 0.254482
0.0699605 -2.03315 0.254482
0.045028 -2.03485 0.254589
0.0204083 -2.06905 0.258231
-0.00499436 -2.07511 0.258874
-0.0308502 -2.10273 0.261874
-0.0584579 -2.17077 0.269266
-0.446122 0.871987 0.116851
-0.391883 0.788841 0.108705
-0.370606 0.769295 0.106483
-0.389935 0.836231 0.112161
-0.379644 0.840953 0.112161
0.0182971 0.648355 0.0895322
0.0329712 0.792433 0.101464
0.0376576 0.706409 0.0943871
0.0462527 0.704899 0.0943048
0.0704111 0.889998 0.109692
0.905917 -0.535269 0.122858
0.793903 -0.481788 0.112655
0.782028 -0.487777 0.112079
0.770125 -0.493548 0.111503
0.74824 -0.492482 0.109939
0.714149 -0.482529 0.107141
0.717153 -0.497546 0.108047
0.709375 -0.505146 0.107882
0.699113 -0.510855 0.107471
0.696765 -0.522403 0.107882
0.677706 -0.521136 0.106565
0.663463 -0.523206 0.105743
0.66008 -0.533829 0.106072
0.646602 -0.536132 0.105331
0.642999 -0.546622 0.10566
0.636991 -0.55513 0.105743
0.630131 -0.562905 0.105743
0.618784 -0.566537 0.105249
0.620468 -0.582312 0.106236
0.606839 -0.583634 0.105496
0.603164 -0.594552 0.105907
0.623737 -0.630369 0.109199
0.609752 -0.631496 0.108458
0.611479 -0.649129 0.10961
0.598098 -0.65069 0.108952
0.598675 -0.667664 0.110021
0.607412 -0.694538 0.112161
0.614934 -0.720962 0.114218
0.243271 -2.1086 0.211234
0.217076 -2.10845 0.210987
0.186166 -2.05437 0.206297
0.160638 -2.05253 0.205967
0.133465 -2.02351 0.203417
0.107697 -2.00708 0.201935
0.0831764 -2.01124 0.202182
0.0592727 -2.041 0.204569
0.0341924 -2.03958 0.204404
0.00920719 -2.05779 0.205885
-0.0160941 -2.06273 0.206297
-0.0425879 -2.11618 0.21074
-1.74604 0.464873 0.14331
-0.57414 1.05024 0.107287
-0.477726 0.900351 0.0967923
-0.417161 0.810358 0.0904249
-0.392874 0.786857 0.0885382
-0.385806 0.797007 0.088892
-0.390028 0.831486 0.0908376
-0.391389 0.861643 0.0924884
-0.407378 0.926661 0.0963796
-0.398325 0.9371 0.0967334
-0.417986 1.0176 0.101568
0.0301391 0.747107 0.0807558
0.794793 -0.493208 0.0918399
0.785311 -0.500782 0.091604
0.748182 -0.490184 0.0894226
0.741281 -0.498773 0.0893636
0.728528 -0.503302 0.088892
0.702733 -0.498374 0.087477
0.703837 -0.512236 0.0880076
0.675878 -0.50474 0.0864157
0.674393 -0.516631 0.0867695
0.656214 -0.515635 0.0858851
0.655285 -0.528025 0.0862978
0.647986 -0.535392 0.0862389
0.629164 -0.532998 0.0852955
0.633896 -0.55048 0.0861799
0.61664 -0.548941 0.0853545
0.625365 -0.570572 0.0865926
0.616856 -0.576842 0.0864747
0.606844 -0.58161 0.0862389
0.60608 -0.595299 0.0867695
0.605071 -0.609056 0.0873001
0.600335 -0.619298 0.0875359
0.608492 -0.643276 0.088892
0.602586 -0.652892 0.0890688
0.598543 -0.664683 0.0894226
0.608819 -0.69295 0.0910734
0.603523 -0.704154 0.0913682
0.610871 -0.730632 0.0928421
0.231909 -2.13773 0.163592
0.201912 -2.10166 0.161292
0.173506 -2.07314 0.159465
0.14533 -2.03728 0.157224
0.119486 -2.02496 0.156399
0.0947692 -2.02927 0.156576
0.0693704 -2.01631 0.15575
0.0448037 -2.02499 0.156222
0.0200761 -2.03737 0.156929
-0.00492344 -2.03546 0.156811
-0.0305189 -2.07917 0.159406
-0.0566358 -2.10159 0.160762
-0.0938255 -2.396 0.178213
-0.297564 0.544363 0.0585069
-0.429303 0.812795 0.0687332
-0.409803 0.799285 0.068015
-0.393787 0.791698 0.0675362
-0.386623 0.801884 0.0677414
-0.377172 0.807475 0.0677756
-0.365604 0.808393 0.0676388
-0.34931 0.798141 0.0670915
-0.338334 0.799601 0.0669889
-0.333731 0.816668 0.0674678
-0.328398 0.832809 0.0679124
-0.354669 0.93409 0.0714694
-0.40329 1.10474 0.0775231
-0.208029 0.610921 0.0593619
-0.234042 0.718127 0.0631241
0.0227476 0.789954 0.0643212
0.0505404 0.770637 0.0637056
0.87432 -0.515839 0.0720166
0.810808 -0.491579 0.0697251
0.785256 -0.489254 0.0689384
0.768281 -0.491803 0.0684938
0.760522 -0.500088 0.0684254
0.736985 -0.497564 0.0677072
0.71117 -0.492819 0.0668863
0.705881 -0.502092 0.0669205
0.68438 -0.499453 0.0662707
0.678199 -0.507813 0.0662707
0.669547 -0.51426 0.0661681
0.656146 -0.516839 0.0658603
0.652077 -0.526747 0.0659629
0.645564 -0.53471 0.0659629
0.636678 -0.54064 0.0658603
0.630746 -0.549072 0.0658945
0.619505 -0.552758 0.0656893
0.611941 -0.55964 0.0656551
0.618094 -0.579472 0.0662707
0.605197 -0.581447 0.0659971
0.599434 -0.590239 0.0660655
0.600548 -0.606108 0.0664759
0.611732 -0.632918 0.0673994
0.605966 -0.642567 0.067502
0.598035 -0.649955 0.067502
0.597987 -0.666205 0.0679124
0.599593 -0.684814 0.0684254
0.59179 -0.692883 0.0684596
0.608699 -0.730917 0.0698277
0.217954 -2.10625 0.109741
0.191202 -2.09881 0.109399
0.161295 -2.04719 0.107552
0.13468 -2.02608 0.106766
0.108921 -2.01061 0.106184
0.0841595 -2.0098 0.106116
0.0593793 -2.00668 0.105979
0.0347958 -2.01026 0.106082
0.0101923 -2.03252 0.106834
-0.0148148 -2.03949 0.107073
-0.0405915 -2.07413 0.10827
-0.0670519 -2.10344 0.109297
-0.0958917 -2.16835 0.111554
-2.56083 -0.824095 0.129339
-2.55546 -0.787919 0.128792
-2.55727 -0.754249 0.128518
-2.53934 -0.484897 0.125748
-0.272743 0.515199 0.0441131
-0.418304 0.812571 0.047637
-0.39531 0.791718 0.0473283
-0.401733 0.829787 0.0477222
-0.402593 0.858177 0.047999
-0.25557 0.563709 0.0444964
-0.258319 0.58876 0.0447519
-0.383288 0.901846 0.0483397
-0.335615 0.817729 0.0473177
-0.317053 0.800416 0.0470728
-0.30864 0.807981 0.0471154
-0.288647 0.784508 0.0468066
-0.278663 0.787049 0.046796
-0.269954 0.793248 0.0468279
-0.246202 0.786281 0.0466789
-0.243748 0.813178 0.046945
-0.244822 0.854543 0.0473709
-0.173373 0.635718 0.0449222
0.0206057 0.733641 0.0457207
0.064191 0.994847 0.0485207
0.779088 -0.483492 0.047669
0.765501 -0.488188 0.0475732
0.751918 -0.492624 0.0474773
0.715921 -0.481761 0.0470941
0.713249 -0.492779 0.0471367
0.693267 -0.491682 0.0469557
0.687991 -0.50074 0.0469663
0.672971 -0.502576 0.0468492
0.665958 -0.51019 0.0468386
0.652563 -0.512774 0.0467428
0.643882 -0.518865 0.0467108
0.635923 -0.525456 0.0466895
0.629427 -0.53322 0.0466895
0.630396 -0.547449 0.046796
0.614656 -0.547179 0.0466682
0.613073 -0.559391 0.0467428
0.601773 -0.562781 0.0466789
0.602775 -0.577722 0.046796
0.594211 -0.583676 0.0467747
0.601825 -0.605799 0.0469983
0.595043 -0.613855 0.0470089
0.588842 -0.622562 0.0470302
0.586591 -0.635612 0.0471154
0.590811 -0.65612 0.047307
0.589325 -0.670824 0.0474135
0.585611 -0.683314 0.047488
0.600309 -0.718034 0.0478713
0.204078 -2.12407 0.0606255
0.176317 -2.10649 0.0604126
0.147296 -2.06461 0.0599442
0.118972 -2.01635 0.0594119
0.0943143 -2.01966 0.0594331
0.0692078 -2.01167 0.0593373
0.0444708 -2.01037 0.059316
0.0198601 -2.01676 0.0593799
-0.00489551 -2.01985 0.0594119
-0.0301036 -2.04963 0.0597312
-0.0564909 -2.09609 0.0602316
-0.083058 -2.11722 0.0604658
-0.110915 -2.15299 0.0608598
-1.55751 0.657398 0.0152539
-0.321031 0.587704 0.0293311
-0.42362 0.801592 0.0260635
-0.406512 0.792463 0.0262841
-0.413975 0.832381 0.0257463
-0.407604 0.845521 0.0256222
-0.430746 0.923076 0.0245192
-0.266002 0.817459 0.0267115
-0.247443 0.792941 0.0271113
-0.239101 0.800715 0.0270424
-0.229257 0.803589 0.0270424
-0.218863 0.804409 0.02707
-0.204545 0.78959 0.0273181
-0.197885 0.804678 0.0271389
-0.184217 0.790472 0.0273733
-0.173241 0.786808 0.027456
-0.162779 0.784955 0.0275112
-0.170827 0.880222 0.0262013
0.0125226 0.771557 0.0279248
0.0403325 0.760591 0.0280627
0.872692 -0.529244 0.0244917
0.784866 -0.488824 0.0258153
0.748571 -0.478888 0.0263116
0.780965 -0.513466 0.0256774
0.722545 -0.487544 0.026546
0.714049 -0.494654 0.0265874
0.689243 -0.489969 0.0269045
0.683178 -0.49839 0.0269045
0.674617 -0.504927 0.0269459
0.662838 -0.50888 0.0270424
0.647934 -0.510131 0.027194
0.6424 -0.518675 0.0271803
0.633685 -0.524596 0.0272216
0.624163 -0.52973 0.0272768
0.621371 -0.540649 0.0272078
0.616919 -0.550241 0.0271665
0.607916 -0.555736 0.0272078
0.601051 -0.563154 0.0272078
0.599838 -0.576055 0.0270975
0.599817 -0.59042 0.0269597
0.595329 -0.600589 0.0269045
0.585147 -0.604962 0.0269597
0.592021 -0.627435 0.0266701
0.592364 -0.643517 0.0265047
0.583092 -0.649244 0.0265322
0.588849 -0.672205 0.0262427
0.592834 -0.693877 0.0259807
0.590643 -0.708808 0.0258429
0.566844 -0.697316 0.0261738
0.192723 -2.11175 0.00932523
0.166487 -2.10997 0.00938038
0.137095 -2.05797 0.0101249
0.10937 -2.01256 0.0107729
0.084785 -2.01675 0.0107316
0.0595572 -2.00065 0.010966
0.0351727 -2.01223 0.0108143
0.0104409 -2.00151 0.010966
-0.0144004 -2.03248 0.0105385
-0.0394473 -2.03715 0.0104696
-0.0650469 -2.0545 0.0102214
-0.0918567 -2.08851 0.00973886
-0.121252 -2.15211 0.00884266
-2.69986 -0.481528 0.000749301
-2.66807 -0.442201 0.00127323
-2.63771 -0.404028 0.00176959
-2.61375 -0.367633 0.00216943
-2.57739 -0.330379 0.00273473
-0.594308 1.08616 -0.0070584
-0.421203 0.7935 0.00563766
-0.411434 0.798609 0.00563766
-0.417283 0.834861 0.00433071
-0.411814 0.849805 0.00391996
-0.500602 1.06542 -0.00478058
-0.172762 0.664417 0.013554
-0.124038 0.503577 0.0198274
-0.191059 0.815318 0.00791549
-0.174078 0.78639 0.00911041
-0.163592 0.784555 0.00925977
-0.155887 0.796308 0.00888636
-0.144833 0.791282 0.00914775
-0.135451 0.794969 0.00907307
-0.125056 0.792624 0.00922243
-0.115029 0.792122 0.00929712
-0.105832 0.797436 0.00914775
-0.0937417 0.779827 0.00985724
-0.0886222 0.821647 0.00832624
-0.0595189 0.62673 0.0156825
0.0117046 0.759369 0.0108281
0.797466 -0.494488 0.00414401
0.752537 -0.479589 0.00586171
0.734879 -0.481141 0.00638449
0.722279 -0.485672 0.00668322
0.703917 -0.486001 0.00724334
0.692186 -0.490566 0.00750473
0.680451 -0.494918 0.00776612
0.669516 -0.499652 0.00799017
0.64824 -0.496312 0.00869965
0.640527 -0.502998 0.00877434
0.635865 -0.512071 0.00869965
0.627218 -0.51793 0.00881168
0.620815 -0.525588 0.00881168
0.61583 -0.534475 0.00873699
0.605486 -0.538677 0.0089237
0.595133 -0.542705 0.00911041
0.571612 -0.534301 0.00996926
0.58814 -0.563358 0.00877434
0.591182 -0.580318 0.00825156
0.579782 -0.583283 0.00847561
0.585124 -0.603246 0.00780346
0.570797 -0.603134 0.00817687
0.589157 -0.637952 0.0067579
0.579274 -0.642909 0.00686993
0.580594 -0.660464 0.00634715
0.575051 -0.670569 0.00619778
0.57834 -0.691355 0.00552564
0.59829 -0.733203 0.00384527
0.17752 -2.11206 -0.0399935
0.149859 -2.09016 -0.0390973
0.121266 -2.04296 -0.0372676
0.0948062 -2.01535 -0.0361847
0.0699969 -2.01437 -0.03611
0.0450183 -2.00408 -0.0356992
0.0204542 -2.00748 -0.0358113
-0.00417216 -2.00059 -0.0355499
-0.0289688 -2.01837 -0.036222
-0.0535274 -2.00987 -0.0359233
-0.080175 -2.06099 -0.037865
-0.107177 -2.09378 -0.0391346
-0.137378 -2.16412 -0.0418232
-0.352613 0.628199 -0.00483191
-0.440909 0.810885 -0.0174016
-0.430001 0.814465 -0.0172777
-0.418619 0.81701 -0.017092
-0.421774 0.848956 -0.0189496
-0.42077 0.87389 -0.0203118
-0.106483 0.625564 0.000493173
-0.13449 0.862679 -0.0143056
-0.113877 0.792097 -0.00978547
-0.103522 0.788483 -0.00947588
-0.0932742 0.784736 -0.00916628
-0.0828314 0.777878 -0.00867092
-0.0733679 0.77983 -0.00873284
-0.0637164 0.779676 -0.00867092
-0.054272 0.782391 -0.00879476
-0.0442516 0.775025 -0.00829941
-0.035253 0.788474 -0.00910436
-0.0255746 0.788847 -0.00910436
-0.0161653 0.807065 -0.0102189
0.00358998 0.801231 -0.0098474
0.0115017 0.712318 -0.00433655
0.0202082 0.711126 -0.00427463
0.0323877 0.7856 -0.0089186
0.0427253 0.7971 -0.00966163
0.781623 -0.487154 -0.0172777
0.747088 -0.478287 -0.0151725
0.749477 -0.49294 -0.0157917
0.731826 -0.494228 -0.0149248
0.695451 -0.481996 -0.0126338
0.691916 -0.492241 -0.0128195
0.685823 -0.500695 -0.0128195
0.679627 -0.509073 -0.0128195
0.655979 -0.503916 -0.0114573
0.648184 -0.510686 -0.0113335
0.636455 -0.514185 -0.0109
0.626269 -0.518755 -0.0105904
0.619098 -0.525751 -0.0105285
0.610351 -0.531332 -0.0103428
0.604526 -0.53945 -0.0104047
0.596394 -0.545474 -0.0102808
0.588931 -0.552065 -0.0102189
0.588559 -0.565505 -0.0107762
0.581576 -0.572685 -0.0107762
0.581495 -0.586902 -0.0113954
0.57563 -0.595435 -0.0115192
0.569642 -0.603913 -0.0116431
0.571603 -0.621184 -0.0125099
0.581183 -0.647541 -0.0141198
0.578426 -0.660655 -0.0146152
0.572855 -0.670751 -0.0148629
0.572205 -0.686966 -0.0156059
0.586266 -0.721923 -0.017835
0.165163 -2.10224 -0.090962
0.138712 -2.09415 -0.0903428
0.109474 -2.02792 -0.0861323
0.0844615 -2.02611 -0.0859465
0.0589337 -2.00305 -0.0844605
0.0342426 -1.99664 -0.084027
0.00974108 -1.99791 -0.0840889
-0.0147397 -1.99389 -0.0838413
-0.0396814 -2.01551 -0.0852035
-0.0647838 -2.02584 -0.0858846
-0.0910209 -2.0548 -0.0877422
-0.119086 -2.10236 -0.0907763
-0.147273 -2.13459 -0.0928815
-0.444038 0.812206 -0.038998
-0.428416 0.807041 -0.0379709
-0.426717 0.828169 -0.0395115
-0.425902 0.852045 -0.0413089
-0.429357 0.88588 -0.0440478
-0.0532693 0.644491 -0.0150326
-0.0666281 0.939242 -0.0403674
-0.0462669 0.792796 -0.0277
-0.0368193 0.799276 -0.0282135
-0.0263739 0.781744 -0.0266729
-0.0157199 0.73619 -0.0227357
-0.00713784 0.778171 -0.0263305
0.00240918 0.776207 -0.0261594
0.0116201 0.753206 -0.0241908
0.0200856 0.723127 -0.021623
0.0310919 0.77858 -0.0264161
0.0406439 0.778139 -0.0264161
0.0521282 0.808407 -0.0290695
0.0651084 0.848441 -0.0325787
0.803636 -0.498302 -0.0407098
0.747842 -0.476606 -0.0356599
0.741937 -0.485747 -0.0356599
0.733437 -0.493151 -0.0354032
0.700246 -0.483475 -0.0325787
0.689377 -0.488582 -0.0320651
0.686556 -0.499344 -0.0324075
0.661991 -0.494055 -0.0304389
0.651126 -0.498514 -0.0299254
0.635544 -0.499098 -0.0288983
0.637142 -0.513096 -0.0297542
0.628489 -0.518977 -0.0294974
0.611413 -0.517654 -0.0282991
0.611043 -0.530333 -0.0289839
0.59778 -0.531842 -0.0282135
0.590471 -0.538468 -0.0281279
0.58309 -0.544994 -0.0280424
0.576358 -0.552108 -0.0280424
0.581645 -0.570986 -0.0294974
0.57371 -0.591515 -0.0302677
0.565722 -0.597788 -0.0301821
0.564437 -0.611264 -0.0309524
0.57159 -0.634407 -0.0328355
0.569033 -0.647352 -0.0335202
0.570142 -0.664861 -0.0347184
0.563221 -0.673334 -0.0348896
0.566904 -0.694846 -0.0365159
0.583814 -0.73368 -0.0400251
0.150709 -2.10191 -0.140509
0.124188 -2.09167 -0.139482
0.0964224 -2.04925 -0.135716
0.071303 -2.05127 -0.135801
0.0452047 -2.01215 -0.132378
0.020412 -2.00359 -0.131607
-0.00417662 -2.00368 -0.131607
-0.0287373 -2.00149 -0.131436
-0.053633 -2.01394 -0.132549
-0.0792576 -2.03702 -0.134603
-0.10601 -2.07072 -0.137599
-0.131226 -2.06628 -0.137342
-0.161803 -2.13406 -0.143333
-0.375503 0.650743 -0.041915
-0.468637 0.837885 -0.0649957
-0.435243 0.800684 -0.0596102
-0.432287 0.81918 -0.0612588
-0.428942 0.837721 -0.0629074
-0.426082 0.858087 -0.0647758
-0.0136366 0.6478 -0.0304846
-0.00615329 0.817882 -0.0492788
0.00347685 0.775158 -0.0445528
0.012989 0.775057 -0.0445528
0.0229054 0.78676 -0.0458717
0.0324663 0.784434 -0.0456519
0.045467 0.841526 -0.0520265
0.0549456 0.829007 -0.0507076
0.0698203 0.884729 -0.0569724
0.0873013 0.953065 -0.0646659
0.800273 -0.499076 -0.0631272
0.754026 -0.482952 -0.0578516
0.730451 -0.493471 -0.0563129
0.719455 -0.498977 -0.0556535
0.698749 -0.497328 -0.0536752
0.677394 -0.494657 -0.0515869
0.67048 -0.502333 -0.051477
0.66348 -0.509913 -0.0513671
0.641618 -0.505638 -0.0491689
0.633825 -0.512217 -0.0489491
0.620631 -0.514216 -0.04796
0.612765 -0.520499 -0.0477401
0.604839 -0.526667 -0.0475203
0.603498 -0.538707 -0.0482897
0.594652 -0.544049 -0.04796
0.586487 -0.549939 -0.0477401
0.589681 -0.566785 -0.0492788
0.579862 -0.571175 -0.0488392
0.574201 -0.579667 -0.049059
0.572543 -0.592413 -0.0499383
0.56523 -0.599395 -0.0499383
0.56051 -0.609224 -0.0503779
0.552992 -0.616057 -0.0503779
0.578606 -0.661089 -0.0559832
0.57045 -0.66814 -0.0559832
0.56284 -0.675856 -0.0560931
0.574447 -0.70749 -0.0596102
0.571858 -0.722305 -0.0607093
0.138437 -2.09552 -0.19106
0.112196 -2.08713 -0.189961
0.0848065 -2.04366 -0.185015
0.0593415 -2.03064 -0.183476
0.0340597 -2.00736 -0.180838
0.00941831 -2.00564 -0.180619
-0.0151568 -2.00163 -0.180179
-0.0396537 -1.99831 -0.179849
-0.064884 -2.01853 -0.182157
-0.0900179 -2.02553 -0.183037
-0.11708 -2.06198 -0.187213
-0.144135 -2.08517 -0.189961
-0.174583 -2.14168 -0.196445
-0.465207 0.825615 -0.0857806
-0.441205 0.80607 -0.0819101
-0.437809 0.823666 -0.0837786
-0.431313 0.836018 -0.0848463
-0.429473 0.858075 -0.0873822
-0.00740715 0.767252 -0.0614896
0.0020015 0.759356 -0.0604218
0.0113068 0.758284 -0.0602884
0.763489 -0.472948 -0.0791073
0.756791 -0.481751 -0.0789738
0.729236 -0.47693 -0.0755036
0.721681 -0.48474 -0.0752367
0.709145 -0.489069 -0.074169
0.693373 -0.490877 -0.0725674
0.669638 -0.486561 -0.0696311
0.654866 -0.488239 -0.0681629
0.650402 -0.49744 -0.0684299
0.635661 -0.49867 -0.0669617
0.629493 -0.506433 -0.0669617
0.623231 -0.514119 -0.0669617
0.616875 -0.521729 -0.0669617
0.596179 -0.516947 -0.0644259
0.588307 -0.52291 -0.0641589
0.578911 -0.527425 -0.0636251
0.577473 -0.539216 -0.0645593
0.570813 -0.546262 -0.0645593
0.574697 -0.563617 -0.0665613
0.568437 -0.571328 -0.0666948
0.564543 -0.610758 -0.0701649
0.558335 -0.61911 -0.0704319
0.557254 -0.633345 -0.0717666
0.55914 -0.651401 -0.0737686
0.562577 -0.671874 -0.076171
0.557429 -0.682561 -0.0768383
0.571279 -0.717225 -0.0816431
0.126762 -2.11628 -0.243672
0.0999236 -2.09986 -0.24127
0.0721912 -2.04645 -0.233929
0.046417 -2.01944 -0.230192
0.0215193 -2.00995 -0.228858
-0.00314571 -2.00808 -0.228591
-0.0278662 -2.01384 -0.229391
-0.0523247 -2.00344 -0.228057
-0.0775042 -2.01849 -0.230192
-0.102813 -2.02828 -0.23166
-0.129546 -2.05653 -0.235664
-0.157209 -2.0874 -0.240069
-0.186422 -2.12679 -0.245674
-1.35245 -0.830114 -0.171867
-1.62903 0.552542 -0.232732
-1.02892 1.37484 -0.232258
-0.48751 0.848543 -0.114085
-0.453643 0.812122 -0.106344
-0.450185 0.829806 -0.108555
-0.44636 0.847526 -0.110767
-0.441721 0.864394 -0.112821
-0.0213324 0.654393 -0.0622656
-0.015648 0.818504 -0.0884912
-0.00553574 0.786049 -0.0832777
0.0041208 0.787045 -0.0834357
0.0170212 0.931065 -0.106502
0.755559 -0.484668 -0.10113
0.711735 -0.468745 -0.0938627
0.720606 -0.487469 -0.0967065
0.705677 -0.490039 -0.0949687
0.691595 -0.492894 -0.0933888
0.666431 -0.487266 -0.0895971
0.662762 -0.497196 -0.0900711
0.651933 -0.501657 -0.0891232
0.641095 -0.505926 -0.0881753
0.625663 -0.506257 -0.0862794
0.621674 -0.5158 -0.0867534
0.609305 -0.518242 -0.0854895
0.597712 -0.521112 -0.0843836
0.585408 -0.523115 -0.0831197
0.575321 -0.526906 -0.0823298
0.580993 -0.545477 -0.0850155
0.57992 -0.558071 -0.0862794
0.577926 -0.570023 -0.0873853
0.57296 -0.579188 -0.0878593
0.570586 -0.591172 -0.0889652
0.570024 -0.60535 -0.0905451
0.569199 -0.619602 -0.0921249
0.537295 -0.59922 -0.0862794
0.548003 -0.626667 -0.090703
0.562577 -0.659743 -0.0962325
0.571394 -0.687172 -0.100498
0.555495 -0.684896 -0.0986023
0.568976 -0.71964 -0.10429
0.110573 -2.08359 -0.291345
0.0841131 -2.0621 -0.287711
0.0580928 -2.03632 -0.283446
0.0327036 -2.00924 -0.279022
0.00805079 -2.01245 -0.279496
-0.0165245 -2.00055 -0.2776
-0.0410731 -2.00019 -0.2776
-0.0658214 -2.00546 -0.278548
-0.0903336 -2.00253 -0.278232
-0.116891 -2.03478 -0.283604
-0.143829 -2.06077 -0.288027
-0.170183 -2.07164 -0.290081
-0.202226 -2.1382 -0.30114
-1.39501 0.839075 -0.257346
-0.494607 0.852703 -0.138794
-0.457482 0.811629 -0.128809
-0.446067 0.814597 -0.128264
-0.445296 0.837362 -0.131895
-0.439961 0.852368 -0.133892
-0.0171424 0.775135 -0.0999428
-0.00749295 0.763488 -0.0977642
0.00188262 0.771389 -0.0992166
0.756998 -0.481702 -0.122455
0.727137 -0.475386 -0.11719
0.717162 -0.481539 -0.116282
0.701473 -0.48362 -0.114104
0.690664 -0.488791 -0.113014
0.655937 -0.47647 -0.106479
0.650041 -0.484484 -0.106479
0.629186 -0.4811 -0.103029
0.628658 -0.493023 -0.1043
0.618724 -0.497626 -0.103392
0.611811 -0.504556 -0.103211
0.601061 -0.508224 -0.102121
0.58957 -0.511062 -0.100851
0.582518 -0.517606 -0.100669
0.576123 -0.524716 -0.100669
0.5646 -0.527057 -0.0993981
0.55809 -0.533946 -0.0993981
0.557826 -0.54694 -0.101032
0.551767 -0.55444 -0.101214
0.546294 -0.562578 -0.101577
0.53951 -0.613033 -0.107568
0.541573 -0.630784 -0.110291
0.540749 -0.645664 -0.112288
0.549614 -0.672788 -0.11719
0.545614 -0.68486 -0.118461
0.566181 -0.728737 -0.127175
0.100079 -2.09558 -0.344126
0.0740011 -2.08683 -0.342311
0.0475678 -2.05317 -0.335957
0.0219265 -2.01525 -0.328876
-0.00280463 -2.01438 -0.328695
-0.0274344 -2.00731 -0.327424
-0.0521149 -2.00879 -0.327787
-0.0768727 -2.01095 -0.328331
-0.101642 -2.01182 -0.328695
-0.127482 -2.02907 -0.332144
-0.154199 -2.05187 -0.336683
-0.182516 -2.08607 -0.3434
-0.210724 -2.11009 -0.348302
-1.1637 -1.0257 -0.243185
-2.67007 -1.17976 -0.49572
-1.77961 0.0591916 -0.329463
-1.60717 0.524376 -0.310586
-0.507891 0.860927 -0.16573
-0.468758 0.81689 -0.153624
-0.456432 0.842811 -0.157112
-0.447411 0.850953 -0.157728
-0.262523 0.666917 -0.106433
-0.0250083 0.813234 -0.126745
-0.0144934 0.774334 -0.118538
-0.00499001 0.774454 -0.118538
0.757811 -0.486853 -0.145006
0.742005 -0.489604 -0.142544
0.701206 -0.474911 -0.133722
0.693723 -0.482355 -0.133311
0.684576 -0.488543 -0.13249
0.667513 -0.488759 -0.129618
0.656786 -0.493365 -0.128387
0.642186 -0.494775 -0.12613
0.636066 -0.502619 -0.12613
0.622276 -0.504187 -0.124078
0.612294 -0.50864 -0.123052
0.605264 -0.515477 -0.122847
0.595222 -0.519629 -0.121821
0.587349 -0.525582 -0.121411
0.578701 -0.530755 -0.120795
0.570724 -0.536468 -0.120385
0.565501 -0.544797 -0.120795
0.558773 -0.551695 -0.120795
0.564966 -0.571803 -0.124694
0.555879 -0.576569 -0.124078
0.550763 -0.585496 -0.124694
0.546169 -0.595107 -0.125514
0.546617 -0.610553 -0.127977
0.55381 -0.63424 -0.132696
0.538411 -0.632012 -0.130233
0.543053 -0.653686 -0.134337
0.553981 -0.683963 -0.140698
0.547356 -0.693022 -0.141313
0.563745 -0.732367 -0.149931
0.0838733 -2.09308 -0.395325
0.0568638 -2.04308 -0.384656
0.0316145 -2.0309 -0.381989
0.00666204 -2.01058 -0.37768
-0.0180221 -2.01149 -0.377885
-0.0426594 -2.00916 -0.377475
-0.0672423 -2.00653 -0.377064
-0.091767 -2.0036 -0.376654
-0.117639 -2.02381 -0.381168
-0.142818 -2.0271 -0.382194
-0.169667 -2.0486 -0.387118
-0.198484 -2.08435 -0.39512
-0.229269 -2.12943 -0.405174
-0.461191 0.816896 -0.176151
-0.461926 0.842109 -0.181419
-0.452934 0.850289 -0.182106
-0.261403 0.657321 -0.121871
-0.0275049 0.783809 -0.139964
-0.0179082 0.785061 -0.140193
-0.00834432 0.791062 -0.141567
0.747235 -0.487762 -0.165387
0.709629 -0.475803 -0.156454
0.701329 -0.482823 -0.155767
0.691372 -0.48859 -0.154622
0.675857 -0.490194 -0.151874
0.643991 -0.479315 -0.144316
0.633412 -0.483645 -0.142942
0.625127 -0.489584 -0.142254
0.616033 -0.494786 -0.141338
0.609162 -0.501691 -0.141109
0.587319 -0.495966 -0.1363
0.584136 -0.50568 -0.137216
0.577887 -0.51281 -0.137216
0.571551 -0.519863 -0.137216
0.55871 -0.520875 -0.135155
0.55721 -0.53239 -0.136758
0.548545 -0.537149 -0.136071
0.552236 -0.554165 -0.139506
0.549473 -0.56508 -0.14088
0.542497 -0.571781 -0.14088
0.537427 -0.580534 -0.141567
0.537312 -0.624984 -0.149354
0.533362 -0.636 -0.150729
0.540337 -0.660557 -0.156225
0.537056 -0.673218 -0.158058
0.543126 -0.698176 -0.163554
0.555736 -0.732678 -0.171799
0.0759597 -2.10093 -0.450071
0.0498147 -2.08711 -0.446636
0.024068 -2.07685 -0.444117
-0.00141809 -2.03416 -0.434039
-0.0262244 -2.02134 -0.431062
-0.050812 -2.0121 -0.429001
-0.0754998 -2.01133 -0.429001
-0.100463 -2.01609 -0.430375
-0.125734 -2.02344 -0.432436
-0.150555 -2.02175 -0.432436
-0.17786 -2.04884 -0.439307
-0.207094 -2.08816 -0.449155
-0.233455 -2.09224 -0.450759
-1.47917 0.809336 -0.394944
-0.471071 0.800129 -0.197177
-0.436592 0.832585 -0.200207
-0.43722 0.859485 -0.206522
-0.417301 0.845657 -0.200965
-0.426755 0.892697 -0.213089
-0.280643 0.6908 -0.14944
-0.032372 0.768171 -0.155501
-0.0229907 0.770445 -0.156007
-0.0136064 0.776474 -0.157522
0.753752 -0.485487 -0.188842
0.72521 -0.479652 -0.181769
0.706502 -0.479758 -0.177728
0.686321 -0.478366 -0.173182
0.681183 -0.487318 -0.173434
0.66427 -0.487573 -0.169898
0.651306 -0.490416 -0.167625
0.633033 -0.488848 -0.163584
0.62472 -0.494766 -0.162826
0.614861 -0.499327 -0.161563
0.593879 -0.494377 -0.156512
0.587767 -0.501628 -0.156512
0.580842 -0.508162 -0.156259
0.572411 -0.513303 -0.155501
0.566778 -0.520947 -0.155754
0.561044 -0.52853 -0.156007
0.558671 -0.539429 -0.157522
0.54722 -0.541455 -0.155754
0.55405 -0.561978 -0.160806
0.539772 -0.561028 -0.158027
0.547337 -0.583203 -0.163584
0.538839 -0.588442 -0.163079
0.534141 -0.597909 -0.164089
0.539406 -0.619071 -0.169141
0.531768 -0.625643 -0.169141
0.54431 -0.656801 -0.177476
0.519882 -0.643037 -0.170656
0.53279 -0.676063 -0.179496
0.551409 -0.717969 -0.191115
0.546592 -0.730121 -0.192883
0.055051 -2.06951 -0.495216
0.0295668 -2.06325 -0.493448
0.00424293 -2.04508 -0.488649
-0.0205247 -2.01788 -0.481577
-0.0453329 -2.01941 -0.482082
-0.0699334 -2.01387 -0.480819
-0.0944994 -2.00996 -0.480062
-0.119276 -2.01058 -0.480567
-0.143798 -2.00704 -0.480062
-0.169826 -2.02151 -0.484355
-0.19784 -2.05201 -0.492943
-0.225989 -2.07636 -0.500015
-0.257723 -2.12433 -0.513402
-1.38467 -0.88179 -0.383325
-1.39117 0.834496 -0.420723
-0.590253 0.986318 -0.284697
-0.407539 0.811659 -0.215302
-0.401345 0.82437 -0.21779
-0.389142 0.824891 -0.216407
-0.377388 0.82611 -0.215302
-0.361764 0.818381 -0.211431
-0.355863 0.832473 -0.214472
-0.331261 0.802157 -0.20369
-0.336755 0.844524 -0.215578
-0.0370395 0.77376 -0.176871
-0.0277207 0.778959 -0.178254
-0.0182077 0.781162 -0.178807
0.734213 -0.478759 -0.206178
0.705102 -0.47226 -0.19816
0.696083 -0.478704 -0.197054
0.680724 -0.480574 -0.193736
0.668542 -0.484391 -0.191525
0.647877 -0.481688 -0.186272
0.628145 -0.479135 -0.181295
0.622976 -0.487398 -0.181571
0.613945 -0.492605 -0.180466
0.606368 -0.498884 -0.179913
0.596522 -0.503195 -0.17853
0.580838 -0.502322 -0.174936
0.57391 -0.508776 -0.17466
0.566911 -0.515135 -0.174383
0.559138 -0.520746 -0.17383
0.550616 -0.525581 -0.173001
0.551007 -0.539007 -0.175765
0.544351 -0.545728 -0.175765
0.5497 -0.564742 -0.180742
0.544054 -0.572836 -0.181295
0.538947 -0.581581 -0.182124
0.533061 -0.589574 -0.182677
0.529607 -0.600389 -0.184336
0.525968 -0.611207 -0.185995
0.530191 -0.631582 -0.191248
0.549851 -0.671457 -0.20369
0.53436 -0.669154 -0.200372
0.532616 -0.683991 -0.203413
0.530005 -0.698121 -0.206178
0.538583 -0.727721 -0.214472
0.0563683 -2.30582 -0.617574
0.0251269 -2.07572 -0.55122
-0.000359166 -2.05088 -0.544032
-0.0253793 -2.03823 -0.540437
-0.0499734 -2.02047 -0.535461
-0.0747639 -2.01971 -0.535461
-0.0994965 -2.01768 -0.535184
-0.124366 -2.01822 -0.535737
-0.149264 -2.01846 -0.53629
-0.174924 -2.02701 -0.539332
-0.20166 -2.04384 -0.544861
-0.228941 -2.06127 -0.550667
-0.25539 -2.06784 -0.553432
-0.312629 0.747304 -0.207556
-0.286491 0.708535 -0.193186
-0.313695 0.805521 -0.224621
-0.30478 0.811994 -0.225519
-0.300235 0.830953 -0.230608
-0.289707 0.833672 -0.230309
-0.354846 1.06649 -0.30605
-0.0407773 0.770819 -0.195581
-0.0312814 0.770308 -0.195282
-0.0217821 0.768726 -0.194683
0.715542 -0.474766 -0.222824
0.705733 -0.480806 -0.221327
0.695103 -0.486127 -0.219531
0.683678 -0.4907 -0.217436
0.653873 -0.481399 -0.208155
0.640331 -0.483599 -0.205161
0.626835 -0.485539 -0.202167
0.614133 -0.487819 -0.199473
0.60589 -0.4935 -0.198575
0.59833 -0.499667 -0.197976
0.582773 -0.498857 -0.194084
0.582318 -0.511035 -0.196479
0.576709 -0.518784 -0.196779
0.559828 -0.516067 -0.192288
0.563114 -0.532122 -0.196479
0.54904 -0.531652 -0.193186
0.542475 -0.53835 -0.193186
0.553792 -0.56343 -0.201269
0.546179 -0.569492 -0.20097
0.539798 -0.576851 -0.201269
0.535877 -0.586972 -0.202766
0.529896 -0.594935 -0.203365
0.530021 -0.610073 -0.206957
0.527401 -0.622379 -0.209352
0.5306 -0.642096 -0.214741
0.533393 -0.661983 -0.22013
0.53519 -0.68128 -0.225219
0.503147 -0.65663 -0.212945
0.53476 -0.716458 -0.233901
0.0264439 -2.0703 -0.603029
0.00104297 -2.0657 -0.601532
-0.0237831 -2.02739 -0.589557
-0.0485614 -2.02313 -0.58836
-0.0728008 -2.00713 -0.58357
-0.0972332 -2.00227 -0.582372
-0.122635 -2.01426 -0.586564
-0.147272 -2.01165 -0.586264
-0.173113 -2.023 -0.590455
-0.199443 -2.03592 -0.595245
-0.227395 -2.05986 -0.603628
-0.253483 -2.06355 -0.605723
-0.342503 -2.52441 -0.752716
-1.27881 0.831125 -0.47296
-0.655882 1.06381 -0.378989
-0.258723 0.625793 -0.183618
-0.342412 0.887892 -0.277267
-0.300712 0.809566 -0.247235
-0.290755 0.813195 -0.247235
-0.278899 0.811335 -0.245297
-0.265941 0.805714 -0.242068
-0.249431 0.788174 -0.23464
-0.23974 0.791176 -0.23464
-0.234516 0.809505 -0.24013
-0.225071 0.814145 -0.240776
-0.22064 0.837887 -0.248203
-0.0470646 0.77132 -0.216234
-0.037214 0.764278 -0.21365
-0.0281213 0.772243 -0.216234
0.749995 -0.488112 -0.257891
0.718744 -0.480487 -0.247557
0.689359 -0.47324 -0.23787
0.671108 -0.472961 -0.232703
0.665253 -0.481161 -0.232703
0.644841 -0.478596 -0.226567
0.631379 -0.480753 -0.223338
0.614976 -0.480327 -0.218817
0.62087 -0.497284 -0.223984
0.593481 -0.487482 -0.214619
0.586005 -0.493512 -0.213973
0.579187 -0.500049 -0.21365
0.55952 -0.495225 -0.207515
0.55972 -0.507766 -0.210421
0.549281 -0.510737 -0.208483
0.547776 -0.522001 -0.210744
0.540651 -0.528023 -0.210421
0.53346 -0.53395 -0.210098
0.532825 -0.546544 -0.213004
0.5117 -0.537982 -0.2059
0.525702 -0.566381 -0.216234
0.518712 -0.57279 -0.216234
0.522946 -0.591859 -0.222046
0.519358 -0.602526 -0.223984
0.52169 -0.620428 -0.229151
0.508625 -0.620206 -0.226244
0.511639 -0.639687 -0.232057
0.511916 -0.656352 -0.236578
0.52162 -0.68591 -0.246589
0.526154 -0.709726 -0.254016
0.00141784 -2.05894 -0.655091
-0.0235903 -2.03515 -0.647018
-0.0484532 -2.02997 -0.645403
-0.0732262 -2.02544 -0.644111
-0.0978051 -2.01872 -0.642174
-0.122343 -2.01359 -0.640882
-0.146497 -2.00438 -0.638299
-0.172602 -2.02035 -0.644434
-0.197473 -2.01902 -0.644757
-0.222853 -2.02209 -0.646695
-0.250973 -2.04645 -0.65606
-0.278211 -2.05916 -0.661549
-0.252779 0.828809 -0.271247
-0.239746 0.821926 -0.267443
-0.223952 0.803989 -0.25949
-0.213833 0.805769 -0.259144
-0.201453 0.798312 -0.25534
-0.188647 0.787933 -0.250499
-0.181598 0.802099 -0.254994
-0.175187 0.820802 -0.261219
-0.16348 0.814602 -0.258107
-0.161574 0.860851 -0.274704
-0.0435794 0.55986 -0.158865
-0.0487078 0.766432 -0.234939
-0.0392989 0.766972 -0.234939
-0.0300102 0.771148 -0.236322
0.741945 -0.4812 -0.277817
0.712628 -0.474555 -0.267443
0.695171 -0.475265 -0.262256
0.674743 -0.473448 -0.255686
0.665089 -0.478932 -0.253957
0.645628 -0.476953 -0.247733
0.632277 -0.479135 -0.244275
0.621922 -0.48338 -0.2422
0.60206 -0.479791 -0.23563
0.593233 -0.484753 -0.234247
0.588672 -0.493209 -0.234939
0.574781 -0.49363 -0.231135
0.568681 -0.500646 -0.231135
0.552789 -0.498734 -0.226294
0.543885 -0.502917 -0.224911
0.539028 -0.510852 -0.225602
0.533388 -0.518085 -0.225948
0.528974 -0.526589 -0.226985
0.530963 -0.541798 -0.231481
0.525564 -0.549636 -0.232172
0.520689 -0.558113 -0.23321
0.520708 -0.57213 -0.237013
0.52046 -0.586231 -0.240817
0.516891 -0.596848 -0.242892
0.51374 -0.608185 -0.245312
0.50861 -0.617353 -0.246695
0.515011 -0.641174 -0.254994
0.514003 -0.656345 -0.259144
0.513265 -0.672334 -0.263639
0.516107 -0.693691 -0.270555
0.512481 -0.706832 -0.273667
-0.00245864 -2.04783 -0.706596
-0.0275159 -2.04295 -0.704867
-0.0520377 -2.02276 -0.697605
-0.0766686 -2.01729 -0.695876
-0.100732 -2.00307 -0.691035
-0.125305 -2.00169 -0.691035
-0.150291 -2.00561 -0.69311
-0.175309 -2.00829 -0.694839
-0.200416 -2.01065 -0.696568
-0.22667 -2.02203 -0.701755
-0.253823 -2.03771 -0.70867
-0.27881 -2.03444 -0.70867
-2.303 -0.309417 -0.808258
-1.45283 0.729114 -0.596611
-0.593663 0.961679 -0.399882
-0.208106 0.874316 -0.307976
-0.183388 0.81517 -0.282877
-0.166957 0.787367 -0.270697
-0.157649 0.791179 -0.271435
-0.147928 0.793054 -0.271435
-0.138185 0.79481 -0.271435
-0.127673 0.791859 -0.26959
-0.118776 0.79888 -0.271805
-0.110741 0.813167 -0.276972
-0.0994817 0.804321 -0.272912
-0.0894996 0.804558 -0.272543
-0.0865011 0.874025 -0.299856
-0.0575064 0.776725 -0.260362
-0.047146 0.764387 -0.255195
-0.0377147 0.76398 -0.254826
0.710387 -0.474226 -0.290259
0.679956 -0.466133 -0.278448
0.659727 -0.464304 -0.271435
0.654734 -0.472908 -0.271805
0.641405 -0.475385 -0.268114
0.631078 -0.479853 -0.265899
0.60753 -0.473875 -0.257041
0.595854 -0.47666 -0.254088
0.58924 -0.483348 -0.253719
0.582552 -0.489946 -0.25335
0.572971 -0.49403 -0.251504
0.560588 -0.495496 -0.248182
0.548946 -0.497356 -0.245229
0.548259 -0.509104 -0.248182
0.54197 -0.515794 -0.248182
0.5356 -0.522406 -0.248182
0.52849 -0.528283 -0.247813
0.522618 -0.535393 -0.248182
0.515366 -0.541094 -0.247813
0.519464 -0.558931 -0.254088
0.513817 -0.566638 -0.254826
0.512379 -0.579156 -0.258148
0.50645 -0.586805 -0.258886
0.508808 -0.604334 -0.264792
0.503127 -0.612684 -0.265899
0.507797 -0.634025 -0.27365
0.501125 -0.641672 -0.274388
0.503934 -0.661804 -0.281401
0.496885 -0.669429 -0.282139
0.502282 -0.694279 -0.291367
-0.0225504 -2.07058 -0.773409
-0.04708 -2.03112 -0.757907
-0.0717754 -2.02389 -0.755323
-0.0957322 -2.00429 -0.747941
-0.120266 -2.00204 -0.747572
-0.144692 -1.99856 -0.746834
-0.168506 -1.98829 -0.743512
-0.194052 -1.9981 -0.74831
-0.218959 -1.99927 -0.749786
-0.245714 -2.01488 -0.757168
-0.273748 -2.03659 -0.767134
-0.300333 -2.04411 -0.771563
-2.54341 -1.79739 -1.18791
-0.727712 1.45503 -0.642638
-0.173233 1.00474 -0.384225
-0.132441 0.824033 -0.305527
-0.118017 0.795538 -0.292606
-0.106577 0.784152 -0.287125
-0.0951107 0.769866 -0.280468
-0.0860431 0.774636 -0.282035
-0.0771292 0.782047 -0.284775
-0.0663382 0.76826 -0.278511
-0.0568425 0.768098 -0.278119
-0.0472055 0.765063 -0.276553
-0.0437203 0.899798 -0.333717
0.74256 -0.483575 -0.327453
0.702258 -0.469471 -0.309834
0.688127 -0.472284 -0.305527
0.666538 -0.469486 -0.297304
0.656269 -0.474373 -0.294955
0.638618 -0.47356 -0.288691
0.624005 -0.474631 -0.283992
0.625359 -0.487951 -0.287908
0.600722 -0.480544 -0.277728
0.589821 -0.483768 -0.274987
0.581737 -0.489181 -0.273812
0.572916 -0.493865 -0.272246
0.563381 -0.497793 -0.270289
0.559266 -0.506533 -0.271463
0.544285 -0.505172 -0.266373
0.535392 -0.509262 -0.264807
0.534345 -0.520961 -0.267939
0.52597 -0.525517 -0.266765
0.527152 -0.539875 -0.271463
0.520488 -0.546303 -0.271463
0.522464 -0.562132 -0.276945
0.514912 -0.567816 -0.276553
0.512753 -0.579632 -0.279685
0.510979 -0.592179 -0.283209
0.508973 -0.604768 -0.286733
0.504994 -0.615254 -0.289082
0.507689 -0.634389 -0.29613
0.50324 -0.644941 -0.298479
0.503036 -0.66136 -0.303961
0.500325 -0.674902 -0.307876
0.517696 -0.716918 -0.32667
-0.0312684 -2.0361 -0.81687
-0.0560066 -2.02728 -0.813347
-0.080109 -2.00805 -0.805516
-0.104296 -1.99865 -0.801992
-0.128754 -1.9963 -0.801601
-0.152808 -1.98907 -0.799251
-0.177205 -1.98704 -0.799251
-0.20243 -1.99296 -0.802775
-0.227189 -1.99306 -0.80395
-0.252099 -1.99378 -0.805516
-0.280659 -2.01969 -0.818045
-0.307238 -2.02792 -0.823135
-1.65939 0.755399 -0.780361
-0.673248 1.05855 -0.521178
-0.169758 1.04333 -0.43119
-0.0688474 0.787428 -0.309685
-0.0577145 0.769161 -0.300976
-0.0494436 0.787973 -0.30927
0.609219 -0.486304 -0.304708
0.584165 -0.478216 -0.293511
0.578253 -0.485349 -0.293511
0.57778 -0.497146 -0.296829
0.568902 -0.501797 -0.29517
0.549855 -0.497169 -0.287291
0.553073 -0.512521 -0.293097
0.544098 -0.516768 -0.291438
0.539022 -0.524672 -0.292267
0.531252 -0.529965 -0.291438
0.522158 -0.533847 -0.289779
0.51368 -0.538243 -0.288535
0.518842 -0.557137 -0.296414
0.511966 -0.563462 -0.296414
0.509852 -0.57514 -0.299732
0.500966 -0.579292 -0.298488
0.507344 -0.601369 -0.308026
0.504562 -0.613162 -0.311343
0.496429 -0.618599 -0.310929
0.502289 -0.64182 -0.320881
0.497695 -0.65227 -0.323369
0.494552 -0.664891 -0.327102
-0.0452535 -2.04386 -0.881132
-0.07027 -2.04133 -0.880302
-0.0931396 -1.99305 -0.858738
-0.117696 -1.99357 -0.859568
-0.142216 -1.99288 -0.859982
-0.190562 -1.98336 -0.857494
1.23365 0.711387 -0.639376
1.472 -0.843793 -0.771584
0.582371 -0.4799 -0.314746
0.575754 -0.486426 -0.31431
0.570419 -0.494048 -0.314746
0.552261 -0.49019 -0.306892
0.546866 -0.49754 -0.307328
0.541374 -0.504831 -0.307765
0.533844 -0.510185 -0.306892
0.531379 -0.520497 -0.30951
0.524952 -0.526979 -0.30951
0.524057 -0.53922 -0.313437
0.519247 -0.547579 -0.314746
0.515525 -0.557229 -0.316928
0.511045 -0.566199 -0.318673
0.505831 -0.574463 -0.319982
0.500491 -0.582684 -0.321291
0.4956 -0.591554 -0.323036
0.498483 -0.610188 -0.33089
0.497084 -0.624033 -0.33569
0.497611 -0.640788 -0.342235
0.48971 -0.646847 -0.342235
0.502427 -0.68115 -0.359252
0.495595 -0.689464 -0.360561
0.490172 -0.699931 -0.363179
-0.0624171 -2.07457 -0.955279
-0.0841993 -1.99095 -0.915137
-0.108778 -1.99246 -0.916446
-0.131981 -1.97302 -0.907719
-0.156037 -1.96946 -0.906847
-0.292588 -1.90197 -0.881976
-2.26182 -2.40434 -1.54956
0.585369 -0.466211 -0.334553
0.577845 -0.48385 -0.337308
0.565787 -0.485709 -0.333176
0.558448 -0.491444 -0.332257
0.559644 -0.504791 -0.337308
0.547526 -0.506205 -0.333176
0.537396 -0.509227 -0.330421
0.533661 -0.518254 -0.332257
0.517798 -0.515382 -0.325371
0.520159 -0.530561 -0.331798
0.488995 -0.511274 -0.313434
-0.771475 1.11233 -0.688559
1.46612 -0.798408 -0.861495
1.45209 -0.885897 -0.878788
1.40997 -1.14709 -0.942678
0.550612 -0.491379 -0.351335
0.545828 -0.49929 -0.352295
0.532052 -0.523994 -0.356138
0.506556 -0.51106 -0.341247
0.512972 -0.530553 -0.351335
0.507021 -0.537449 -0.351815
0.502748 -0.546225 -0.353737
0.502412 -0.559569 -0.359021
0.495507 -0.565692 -0.359021
0.490792 -0.57441 -0.360942
0.497649 -0.597312 -0.372952
0.488084 -0.60064 -0.37103
0.482299 -0.608655 -0.372471
0.486507 -0.629861 -0.38304
0.482408 -0.640708 -0.386402
0.482752 -0.657937 -0.394088
0.475654 -0.665244 -0.395049
0.474421 -0.681142 -0.401774
0.479709 -0.707305 -0.415225
-0.0121369 -1.58518 -0.815378
-1.35211 -0.276007 -0.70297
-1.31334 0.633659 -0.794748
1.43744 -0.759788 -0.892334
0.607082 -0.458461 -0.388811
0.59662 -0.46218 -0.385289
0.597003 -0.474294 -0.389817
0.573881 -0.491459 -0.385792
0.555445 -0.487655 -0.376235
0.537834 -0.484051 -0.367181
0.531456 -0.502437 -0.371708
0.524007 -0.50772 -0.370702
0.514664 -0.511074 -0.368187
0.508961 -0.517966 -0.36869
0.501367 -0.522928 -0.367684
0.499646 -0.534081 -0.371708
0.49831 -0.545906 -0.376235
0.49215 -0.552624 -0.376738
0.495558 -0.570346 -0.385792
0.4818 -0.568485 -0.379756
0.489139 -0.591646 -0.392835
0.480211 -0.595589 -0.391326
0.475008 -0.60415 -0.393338
0.477573 -0.622947 -0.402895
0.470412 -0.629452 -0.403398
0.475916 -0.653316 -0.416477
0.469869 -0.661923 -0.418489
0.467133 -0.675448 -0.424022
0.46946 -0.696881 -0.435088
-0.938803 -1.07139 -0.77513
-1.24184 0.584904 -0.789172
-0.961644 1.08439 -0.836304
-0.895872 1.06132 -0.799122
-0.828599 1.11357 -0.798599
-0.762045 1.10675 -0.771367
-0.201782 1.06928 -0.61426
1.30724 -0.918388 -0.927426
0.607258 -0.469911 -0.417353
0.601445 -0.477327 -0.417353
0.579758 -0.471677 -0.404785
0.566765 -0.472711 -0.399024
0.546461 -0.49096 -0.396929
0.545381 -0.502275 -0.401119
0.526854 -0.497162 -0.390645
0.515698 -0.511149 -0.391693
0.50701 -0.514996 -0.389598
0.518833 -0.540334 -0.405832
0.505217 -0.539159 -0.399548
0.496849 -0.543422 -0.397977
0.496903 -0.557147 -0.404261
0.488918 -0.561911 -0.403214
0.488007 -0.575049 -0.408974
0.48415 -0.58495 -0.412116
0.477467 -0.591513 -0.41264
0.478018 -0.607414 -0.420495
0.474647 -0.618665 -0.424685
0.471577 -0.630608 -0.429398
0.469778 -0.644642 -0.435682
0.470642 -0.66291 -0.445109
0.468242 -0.677074 -0.451393
0.468398 -0.695532 -0.460819
0.571625 -2.27924 -1.38984
0.429238 -2.30163 -1.38461
0.395188 -2.27314 -1.36366
0.308872 -2.26841 -1.35266
0.237496 -2.40543 -1.43121
1.21362 0.800363 -0.891504
1.32801 -0.484278 -0.865298
1.3886 -0.525683 -0.911705
1.33972 -1.14073 -1.09078
0.524164 -0.518725 -0.424712
0.510685 -0.517974 -0.418161
0.50429 -0.524202 -0.418161
0.49667 -0.529131 -0.417069
0.492975 -0.53827 -0.419799
0.494166 -0.553009 -0.427442
0.482928 -0.553988 -0.423074
0.484254 -0.56943 -0.431264
0.480447 -0.579192 -0.434539
0.477002 -0.589596 -0.438361
0.46869 -0.594092 -0.437269
0.464949 -0.60444 -0.441091
0.4706 -0.627501 -0.455286
0.464847 -0.635931 -0.457469
0.458471 -0.643631 -0.459107
0.45916 -0.661582 -0.468935
0.459006 -0.678951 -0.478216
0.204629 -1.4393 -0.891504
-1.15593 0.657964 -0.856545
-1.08856 0.77001 -0.858809
-1.02071 0.820272 -0.842396
-0.994086 0.974263 -0.898993
-0.866982 0.960341 -0.831642
-0.903825 1.07905 -0.909747
-0.800906 1.1131 -0.884844
1.41169 -0.588861 -0.993511
1.39864 -0.752266 -1.0337
1.3677 -0.75733 -1.01672
1.35902 -0.774467 -1.01728
1.31463 -0.955547 -1.05916
0.495501 -0.546 -0.449609
0.487678 -0.550799 -0.448478
0.486234 -0.563013 -0.454137
0.473309 -0.576057 -0.455269
0.472856 -0.590225 -0.462627
0.466585 -0.597289 -0.463759
0.464177 -0.609558 -0.469419
0.458612 -0.617867 -0.471682
0.462499 -0.639547 -0.485266
0.454616 -0.645174 -0.485266
0.449441 -0.654798 -0.488662
0.451366 -0.675399 -0.501113
0.439477 -0.675339 -0.496585
0.444256 -2.27475 -1.53458
0.326742 -2.25627 -1.50855
-0.0978998 -1.29257 -0.83334
0.295195 -1.26808 -0.888086
-1.19772 0.576029 -0.956769
-1.17757 0.602335 -0.951912
-1.16378 0.613383 -0.946448
-1.20156 0.751549 -1.02416
-1.09295 0.76035 -0.95859
-1.09967 0.785304 -0.973768
-1.07972 0.79119 -0.964054
-1.08257 0.834996 -0.98591
-1.03775 0.841708 -0.962233
-1.04623 0.870195 -0.981053
-0.910434 0.945183 -0.94402
-0.905272 0.963255 -0.951305
-0.770256 0.974843 -0.890595
-0.764026 0.991798 -0.89788
-0.693491 0.971899 -0.853562
-0.709028 1.02024 -0.890595
-0.655602 1.04975 -0.886953
-0.673019 1.10808 -0.931878
-0.623206 1.08491 -0.897273
0.0328366 1.08459 -0.77039
1.31923 -0.105914 -0.952519
1.31625 -0.287662 -0.970732
1.28619 -0.382109 -0.966483
1.29078 -0.680887 -1.05633
1.37683 -0.770477 -1.14679
1.38996 -0.800466 -1.16683
1.35068 -0.799965 -1.14072
1.28792 -0.784088 -1.09337
1.34866 -0.60173 -1.13327
1.39064 -0.640974 -1.17726
1.34543 -0.640316 -1.14395
1.35493 -0.66533 -1.15966
-1.29838 -0.000723984 -1.04102
-1.10611 0.77833 -1.08696
-1.04645 0.795339 -1.05461
-0.949563 0.859583 -1.02614
-1.0147 0.941978 -1.11414
-0.951306 0.90478 -1.05331
-0.968966 0.944696 -1.08761
-0.881135 0.924339 -1.0229
-0.786235 0.865808 -0.931667
-0.787576 0.91147 -0.961431
-0.710781 0.886135 -0.903196
-0.712252 0.983732 -0.969843
-0.50833 1.03886 -0.920667
-0.516918 1.09058 -0.963373
-0.47343 1.06525 -0.928432
-0.498198 1.16009 -1.01061
-0.0146168 1.07641 -0.852726
0.458932 1.23655 -1.05849
0.43793 0.900999 -0.789315
1.22366 0.0610648 -0.978902
1.21441 0.0457097 -0.97049
1.22631 0.0310491 -0.980196
1.28467 -0.0623491 -1.03067
1.24957 -0.0759 -1.00155
1.30884 -0.112031 -1.05396
1.3624 -0.376643 -1.13872
1.22723 -0.525407 -1.07208
1.26803 -0.561583 -1.11608
1.27382 -0.602048 -1.13484
1.32462 -0.666583 -1.19761
1.29242 -0.690576 -1.18272
0.446911 -0.554353 -0.543433
0.436337 -0.554976 -0.538257
0.430414 -0.561505 -0.539551
0.437512 -0.585772 -0.55961
0.427249 -0.618489 -0.57708
0.416254 -0.618604 -0.571904
0.409045 -0.624306 -0.572551
0.407848 -0.639605 -0.582904
0.410315 -0.66147 -0.599727
0.348675 -2.01873 -1.67772
-0.530521 -1.12379 -0.993784
-0.692155 -1.12455 -1.05978
-1.04761 0.838688 -1.14202
-0.924089 0.79755 -1.03314
-0.808547 0.8292 -0.97703
0.482158 0.826059 -0.796013
0.462339 -0.524237 -0.564898
0.455871 -0.529872 -0.564898
0.452693 -0.539408 -0.569573
0.431998 -0.569256 -0.578925
0.424536 -0.573917 -0.578257
0.424884 -0.589328 -0.589612
0.41131 -0.633777 -0.615663
0.397918 -0.629981 -0.606311
-0.879882 -0.796994 -1.00308
-1.14831 0.249141 -1.04395
-1.06687 0.511214 -1.05149
-1.07329 0.687735 -1.1379
-0.986915 0.721171 -1.08853
-0.946956 0.765968 -1.08441
-0.89952 0.745786 -1.03777
-0.874933 0.762352 -1.03023
-0.890375 0.922372 -1.14476
-0.794047 0.930246 -1.08921
-0.735827 0.90581 -1.0364
-0.766705 1.04558 -1.15848
-0.580903 0.952982 -0.988396
-0.522244 1.15645 -1.13242
0.345823 0.918492 -0.861519
0.906252 0.552697 -0.936959
0.916732 0.543745 -0.941074
0.923604 0.488331 -0.921185
1.0848 0.294557 -0.995939
1.22404 0.068809 -1.09195
1.19934 0.0527669 -1.06795
1.20062 0.0380653 -1.06864
1.17626 0.022949 -1.04532
1.17281 0.00850155 -1.04189
1.12452 -0.074567 -0.998683
1.21799 -0.111263 -1.08921
1.11864 -0.286105 -1.02474
1.12136 -0.301539 -1.03092
1.13227 -0.319488 -1.04532
1.29518 -0.831115 -1.38686
0.438763 -0.550755 -0.600222
0.432856 -0.557254 -0.601594
0.415537 -0.548527 -0.585134
0.409243 -0.599657 -0.620797
0.39986 -0.601589 -0.617368
0.404185 -0.624861 -0.637942
0.387662 -0.61555 -0.622169
-0.519194 -1.15463 -1.12967
-1.11228 -0.552571 -1.10704
-1.1102 0.555364 -1.17272
-1.04662 0.539819 -1.10917
-1.12817 0.617208 -1.2172
-0.995005 0.609814 -1.09857
-0.964657 0.607672 -1.07174
-1.05617 0.739824 -1.22073
-1.0073 0.724263 -1.17201
-0.943969 0.77081 -1.15012
-0.861287 0.739416 -1.0668
-0.8596 0.756467 -1.07668
-0.900654 0.832523 -1.15789
-0.759889 0.738139 -0.991244
-0.812098 0.808254 -1.07739
-0.834887 0.85148 -1.12399
-0.812532 0.892089 -1.13812
0.267967 0.976545 -0.94464
0.289417 0.961534 -0.936167
0.865423 0.581039 -0.974297
0.982909 0.0746009 -0.917808
1.19785 0.0765285 -1.13176
1.12374 0.0578468 -1.05691
1.11517 0.0436776 -1.04773
0.457131 -0.515573 -0.621944
0.420981 -0.551738 -0.626887
0.416299 -0.559698 -0.630418
0.410233 -0.565909 -0.63183
0.392848 -0.601933 -0.651601
0.392293 -0.61745 -0.664311
0.391789 -0.633643 -0.677728
0.390945 -0.649916 -0.691144
