ply
format ascii 1.0
comment Created by Open3D
obj_info Generated by CloudCompare!
element vertex 1457
property float x
property float y
property float z
end_header
1.059490 -0.518369 1.181840 
1.042300 -0.525848 1.169860 
1.016280 -0.528361 1.148030 
0.971640 -0.520176 1.105070 
0.953401 -0.525494 1.091690 
0.917935 -0.520554 1.058590 
0.911478 -0.531779 1.058590 
0.877171 -0.571179 1.050140 
0.863037 -0.577130 1.041690 
0.822643 -0.564608 1.001540 
0.813918 -0.573425 0.999432 
0.826307 -0.597613 1.023380 
0.842767 -0.625597 1.052960 
0.834463 -0.635459 1.052250 
0.831061 -0.649169 1.057890 
0.830208 -0.665124 1.067040 
0.832911 -0.684327 1.081130 
0.839052 -0.706915 1.100140 
0.862421 -0.745151 1.142400 
0.981819 -0.512245 1.061260 
0.921264 -0.509889 1.009690 
0.915569 -0.521514 1.010370 
0.910982 -0.533809 1.012440 
0.894403 -0.538967 1.001440 
0.884632 -0.547995 0.997997 
0.880906 -0.560755 1.001440 
0.869092 -0.568351 0.995934 
0.863259 -0.579781 0.997310 
0.857276 -0.591153 0.998685 
0.850550 -0.602047 0.999372 
0.843098 -0.612440 0.999372 
0.835519 -0.622740 0.999372 
0.827237 -0.632506 0.998685 
0.827422 -0.648870 1.008310 
0.828461 -0.666242 1.019310 
0.817418 -0.674052 1.015870 
0.828518 -0.700410 1.039940 
0.817662 -0.708626 1.037190 
0.788249 -0.700313 1.011060 
1.022390 -0.506742 1.034580 
0.991583 -0.506593 1.009920 
0.972129 -0.511719 0.996591 
0.959239 -0.520028 0.989926 
0.939149 -0.524069 0.975929 
0.922976 -0.529941 0.965931 
0.911282 -0.538171 0.960599 
0.911599 -0.553603 0.967931 
0.817089 -0.509474 0.875283 
0.798262 -0.511355 0.861952 
0.809304 -0.532677 0.880615 
0.888876 -0.601451 0.973929 
0.880208 -0.611457 0.972596 
0.870823 -0.620906 0.970597 
0.834358 -0.610284 0.938603 
0.827400 -0.620927 0.939270 
0.820895 -0.631949 0.940603 
0.817741 -0.645692 0.945935 
0.818413 -0.662757 0.955933 
0.819359 -0.680412 0.966597 
0.817167 -0.695760 0.973929 
0.815280 -0.711649 0.981928 
0.829724 -0.742584 1.009920 
0.948594 -0.527702 0.940579 
0.928167 -0.531384 0.926954 
0.884824 -0.521163 0.890622 
0.871196 -0.527656 0.883486 
0.858835 -0.534697 0.877647 
0.849642 -0.543559 0.875051 
0.842908 -0.553945 0.875051 
0.828470 -0.559151 0.867266 
0.825929 -0.572302 0.871807 
0.819465 -0.582834 0.872456 
0.812866 -0.593294 0.873105 
0.809793 -0.606411 0.877647 
0.806520 -0.619541 0.882188 
0.801250 -0.631272 0.884783 
0.795814 -0.642966 0.887378 
0.794318 -0.658014 0.894515 
0.808833 -0.686889 0.919818 
0.802642 -0.698758 0.922413 
0.813905 -0.726259 0.945120 
0.775693 -0.709528 0.911383 
0.977185 -0.506977 0.902771 
0.957182 -0.511527 0.890231 
0.940620 -0.517556 0.880826 
0.911885 -0.516293 0.860135 
0.883997 -0.514799 0.840070 
0.863618 -0.517138 0.826903 
0.849269 -0.522759 0.819379 
0.803409 -0.507966 0.781758 
0.791255 -0.513938 0.776115 
0.752753 -0.529175 0.757305 
0.797183 -0.575555 0.808093 
0.790060 -0.585295 0.808093 
0.782818 -0.594946 0.808093 
0.782191 -0.609809 0.814990 
0.779497 -0.623276 0.820006 
0.778991 -0.638756 0.827530 
0.777626 -0.653813 0.834427 
0.777772 -0.670465 0.843205 
0.777044 -0.686700 0.851357 
0.809955 -0.734029 0.896501 
0.819077 -0.760958 0.916566 
0.845312 -0.486206 0.765429 
0.866623 -0.512661 0.789774 
0.842625 -0.512563 0.773950 
0.835598 -0.522445 0.773341 
0.828456 -0.532232 0.772732 
0.821199 -0.541923 0.772124 
0.813829 -0.551515 0.771515 
0.807000 -0.561461 0.771515 
0.797464 -0.569481 0.769081 
0.787852 -0.577352 0.766646 
0.781343 -0.587453 0.767255 
0.775962 -0.598448 0.769081 
0.770429 -0.609398 0.770906 
0.766595 -0.621800 0.774558 
0.762572 -0.634199 0.778210 
0.761382 -0.649162 0.784905 
0.761136 -0.665233 0.792817 
0.778953 -0.697779 0.819596 
0.763309 -0.700857 0.812293 
0.727455 -0.684654 0.783688 
0.936342 -0.493927 0.785165 
0.920269 -0.499923 0.776956 
0.891497 -0.498427 0.758192 
0.880411 -0.506479 0.754088 
0.864396 -0.511426 0.745878 
0.851844 -0.518177 0.740601 
0.844051 -0.527727 0.739428 
0.824601 -0.529666 0.728287 
0.797819 -0.526267 0.710696 
0.788420 -0.562856 0.720078 
0.790570 -0.579234 0.728287 
0.784047 -0.589382 0.728874 
0.774838 -0.597466 0.727114 
0.769347 -0.608446 0.728874 
0.759316 -0.615789 0.726528 
0.753563 -0.626623 0.728287 
0.757482 -0.645863 0.739428 
0.752536 -0.657789 0.742360 
0.757625 -0.678928 0.755260 
0.756960 -0.695332 0.762883 
0.784782 -0.739159 0.799238 
0.970976 -0.513774 0.775959 
0.885710 -0.482799 0.714143 
0.867884 -0.501104 0.709605 
0.865213 -0.513814 0.712441 
0.839846 -0.512832 0.697129 
0.837679 -0.525720 0.700531 
0.821464 -0.529725 0.692592 
0.819713 -0.542943 0.696562 
0.808217 -0.549726 0.692592 
0.801410 -0.559602 0.692592 
0.793812 -0.568916 0.692025 
0.786771 -0.578614 0.692025 
0.779611 -0.588226 0.692025 
0.771682 -0.597245 0.691457 
0.764941 -0.607181 0.692025 
0.759990 -0.618598 0.694293 
0.750442 -0.626298 0.692592 
0.750220 -0.641874 0.699397 
0.746627 -0.654827 0.703367 
0.741601 -0.666689 0.706203 
0.744282 -0.685769 0.716411 
0.749602 -0.707837 0.729455 
0.743823 -0.719842 0.732291 
0.915510 -0.491868 0.694981 
0.895491 -0.495289 0.684641 
0.890072 -0.506659 0.685185 
0.864291 -0.506012 0.670492 
0.855866 -0.515272 0.668859 
0.843787 -0.522178 0.664506 
0.830257 -0.527960 0.659064 
0.809710 -0.528868 0.648180 
0.751459 -0.531013 0.617705 
0.780078 -0.565978 0.646003 
0.777768 -0.579037 0.649812 
0.763295 -0.582902 0.643826 
0.759375 -0.594827 0.646547 
0.755928 -0.607272 0.649812 
0.750999 -0.618648 0.651989 
0.747820 -0.631627 0.655799 
0.745067 -0.645173 0.660152 
0.744592 -0.660985 0.666683 
0.738278 -0.671775 0.668315 
0.747697 -0.697458 0.684097 
0.740290 -0.707745 0.685185 
0.750643 -0.735649 0.702600 
0.951177 -0.504782 0.684759 
0.900049 -0.491976 0.653293 
0.853507 -0.508257 0.633364 
0.818860 -0.501395 0.612911 
0.828515 -0.521359 0.624449 
0.802015 -0.518573 0.609765 
0.815470 -0.541535 0.624449 
0.798201 -0.544322 0.616583 
0.787272 -0.551152 0.613436 
0.783910 -0.563251 0.616058 
0.769392 -0.567281 0.610289 
0.761013 -0.575655 0.609240 
0.756586 -0.587034 0.611338 
0.749325 -0.596274 0.611338 
0.745914 -0.608649 0.614485 
0.746889 -0.624846 0.621302 
0.744342 -0.638391 0.625498 
0.742215 -0.652529 0.630218 
0.739851 -0.666710 0.634938 
0.739130 -0.682660 0.641231 
0.731316 -0.692263 0.641755 
0.744185 -0.721905 0.660110 
0.714107 -0.710002 0.641755 
0.947178 -0.504071 0.643916 
0.914418 -0.500992 0.626379 
0.891657 -0.502754 0.615355 
0.886167 -0.514095 0.615856 
0.864966 -0.516000 0.605835 
0.824724 -0.505615 0.582787 
0.814077 -0.512910 0.579780 
0.803375 -0.520020 0.576774 
0.771787 -0.512955 0.559237 
0.708810 -0.496247 0.523662 
0.730676 -0.525250 0.543704 
0.723481 -0.533659 0.543203 
0.744380 -0.563520 0.563245 
0.734003 -0.569943 0.560740 
0.726280 -0.578365 0.560239 
0.728476 -0.594941 0.567254 
0.723103 -0.605512 0.568757 
0.721504 -0.619441 0.573266 
0.722259 -0.635719 0.579780 
0.728482 -0.657353 0.590803 
0.726055 -0.671556 0.595313 
0.728391 -0.690584 0.603831 
0.727278 -0.706740 0.609844 
0.741752 -0.738918 0.628884 
0.921633 -0.505566 0.599577 
0.940576 -0.531032 0.615439 
0.835349 -0.499208 0.556796 
0.845612 -0.519497 0.567371 
0.814683 -0.514420 0.551508 
0.789164 -0.511999 0.539011 
0.776978 -0.517763 0.535165 
0.764770 -0.523306 0.531320 
0.759009 -0.533154 0.531800 
0.746000 -0.537823 0.527474 
0.723112 -0.534967 0.516419 
0.715094 -0.542742 0.515457 
0.709073 -0.552014 0.515938 
0.700873 -0.559582 0.514976 
0.716373 -0.586437 0.530839 
0.712485 -0.597997 0.533242 
0.708421 -0.609550 0.535646 
0.704180 -0.621093 0.538049 
0.699762 -0.632623 0.540453 
0.694522 -0.643543 0.542375 
0.714589 -0.678545 0.563525 
0.723200 -0.703752 0.576504 
0.732540 -0.730505 0.590444 
0.938404 -0.510317 0.573404 
0.894129 -0.500353 0.551006 
0.886384 -0.510394 0.550092 
0.849519 -0.502975 0.531808 
0.833433 -0.507307 0.525865 
0.806842 -0.504670 0.513524 
0.785668 -0.504849 0.504382 
0.769053 -0.507545 0.497982 
0.717262 -0.485796 0.469642 
0.693782 -0.482289 0.458672 
0.730373 -0.521461 0.485641 
0.716769 -0.525094 0.481070 
0.708855 -0.532775 0.480156 
0.700158 -0.539794 0.478784 
0.711551 -0.562776 0.490669 
0.697710 -0.565830 0.486098 
0.691395 -0.574922 0.486555 
0.693725 -0.591486 0.492954 
0.687081 -0.600543 0.493411 
0.687576 -0.616089 0.498897 
0.685834 -0.629922 0.503011 
0.705134 -0.664020 0.522209 
0.702668 -0.678207 0.526323 
0.705624 -0.698087 0.534550 
0.734314 -0.744849 0.561976 
0.940070 -0.516688 0.544796 
0.919549 -0.520227 0.536947 
0.815318 -0.488215 0.485497 
0.803129 -0.494418 0.482009 
0.810704 -0.512877 0.489858 
0.754501 -0.490490 0.461081 
0.757416 -0.505695 0.466313 
0.748181 -0.512921 0.464569 
0.736673 -0.518446 0.461517 
0.731716 -0.528498 0.462389 
0.726623 -0.538507 0.463261 
0.708484 -0.538686 0.456284 
0.709636 -0.553416 0.461081 
0.704199 -0.563204 0.461953 
0.700718 -0.574652 0.464133 
0.694303 -0.583785 0.464569 
0.688452 -0.593435 0.465441 
0.681118 -0.601838 0.465441 
0.677688 -0.613770 0.468057 
0.674069 -0.625708 0.470673 
0.685928 -0.652512 0.483753 
0.706907 -0.689108 0.503374 
0.698397 -0.697731 0.503374 
0.731343 -0.748683 0.532151 
1.007870 -0.544668 0.544073 
0.897811 -0.499025 0.490514 
0.873471 -0.499525 0.481038 
0.855523 -0.503227 0.474858 
0.815066 -0.492793 0.456731 
0.796609 -0.495008 0.450139 
0.785114 -0.501290 0.447255 
0.757633 -0.496798 0.435719 
0.720559 -0.498026 0.422123 
0.743278 -0.527532 0.438191 
0.723535 -0.526896 0.430775 
0.714833 -0.534089 0.429539 
0.704622 -0.540032 0.427479 
0.700797 -0.550905 0.429127 
0.703170 -0.566941 0.434483 
0.703855 -0.581949 0.439015 
0.689045 -0.584027 0.434483 
0.681826 -0.592438 0.434483 
0.672472 -0.598933 0.433247 
0.666412 -0.608375 0.434071 
0.660883 -0.618384 0.435307 
0.672887 -0.645459 0.447667 
0.681087 -0.669711 0.457967 
0.681763 -0.687113 0.463734 
0.714292 -0.738158 0.490514 
0.810606 -0.459870 0.421922 
0.821988 -0.493331 0.433244 
0.797835 -0.492288 0.424265 
0.788621 -0.500074 0.422703 
0.766983 -0.499686 0.414895 
0.733986 -0.491181 0.401231 
0.743095 -0.510555 0.409039 
0.733008 -0.516988 0.407087 
0.733328 -0.530792 0.410601 
0.723060 -0.537012 0.408649 
0.710550 -0.541390 0.405525 
0.705305 -0.551201 0.406306 
0.699207 -0.560389 0.406697 
0.694414 -0.570677 0.407868 
0.685244 -0.577379 0.406697 
0.679502 -0.586947 0.407477 
0.673629 -0.596459 0.408258 
0.668307 -0.606534 0.409429 
0.670939 -0.624080 0.415286 
0.667234 -0.636072 0.417628 
0.664653 -0.649351 0.420751 
0.673575 -0.674371 0.430902 
0.680049 -0.697729 0.439881 
0.704475 -0.740666 0.460183 
0.841951 -0.478478 0.408723 
0.834413 -0.487828 0.407991 
0.816432 -0.490787 0.402498 
0.784296 -0.484513 0.390414 
0.780641 -0.495608 0.391513 
0.755849 -0.492866 0.382725 
0.724308 -0.484901 0.370641 
0.741743 -0.523594 0.384922 
0.735262 -0.532657 0.384922 
0.718250 -0.533820 0.379795 
0.709433 -0.540891 0.378697 
0.693247 -0.542060 0.373936 
0.697391 -0.559309 0.379429 
0.681883 -0.560693 0.375035 
0.691250 -0.582890 0.383457 
0.679838 -0.587658 0.381260 
0.672575 -0.595957 0.381260 
0.665897 -0.604794 0.381626 
0.666564 -0.620566 0.386020 
0.662920 -0.632572 0.388217 
0.656432 -0.641966 0.388950 
0.671405 -0.673133 0.401766 
0.659863 -0.677973 0.399935 
0.691678 -0.728705 0.423004 
0.888776 -0.504865 0.403129 
0.817328 -0.491298 0.377994 
0.788856 -0.487503 0.368353 
0.770915 -0.489614 0.363189 
0.760126 -0.495966 0.361123 
0.752422 -0.504214 0.360434 
0.726821 -0.500133 0.351826 
0.725235 -0.512258 0.353892 
0.725743 -0.526068 0.356991 
0.723758 -0.538289 0.359057 
0.708131 -0.540310 0.354925 
0.703668 -0.550692 0.355958 
0.700522 -0.562218 0.357680 
0.692119 -0.569581 0.356991 
0.682203 -0.575614 0.355614 
0.677932 -0.586395 0.356991 
0.674905 -0.598401 0.359057 
0.670990 -0.609790 0.360778 
0.665520 -0.619895 0.361811 
0.661263 -0.631252 0.363533 
0.656827 -0.642597 0.365255 
0.652876 -0.654591 0.367320 
0.652663 -0.670617 0.371452 
0.650859 -0.685374 0.374895 
0.663489 -0.716006 0.386258 
0.886650 -0.501538 0.373147 
0.827327 -0.481193 0.352350 
0.816494 -0.488371 0.350431 
0.801585 -0.492856 0.346911 
0.789886 -0.499089 0.344672 
0.752797 -0.488491 0.332193 
0.750715 -0.513820 0.336353 
0.738171 -0.518609 0.333793 
0.729453 -0.525956 0.332833 
0.722944 -0.534868 0.332833 
0.721590 -0.547733 0.335073 
0.702150 -0.546594 0.329634 
0.699079 -0.558142 0.331234 
0.670996 -0.549177 0.321955 
0.685170 -0.575130 0.331234 
0.680207 -0.585359 0.332193 
0.675803 -0.596182 0.333473 
0.668436 -0.604430 0.333473 
0.663045 -0.614529 0.334433 
0.655453 -0.622619 0.334433 
0.651819 -0.634599 0.336353 
0.649324 -0.647928 0.338912 
0.651874 -0.666733 0.344032 
0.645596 -0.676747 0.344992 
0.657802 -0.706900 0.355230 
0.805117 -0.484538 0.322610 
0.786922 -0.486864 0.318147 
0.778469 -0.494951 0.317254 
0.767536 -0.501341 0.315469 
0.756564 -0.507538 0.313684 
0.743196 -0.511920 0.311006 
0.729835 -0.516051 0.308328 
0.719579 -0.522171 0.306840 
0.718483 -0.534945 0.308923 
0.705029 -0.538516 0.306245 
0.701377 -0.549478 0.307436 
0.694581 -0.558043 0.307436 
0.686943 -0.565919 0.307138 
0.684328 -0.577996 0.308923 
0.675738 -0.585103 0.308328 
0.672797 -0.597147 0.310113 
0.663297 -0.603434 0.309221 
0.656541 -0.612178 0.309518 
0.657965 -0.628751 0.313386 
0.653615 -0.640113 0.314874 
0.647060 -0.649436 0.315469 
0.641708 -0.660062 0.316659 
0.644088 -0.678954 0.321420 
0.644151 -0.695903 0.325288 
0.619541 -0.686065 0.317849 
0.953428 -0.537519 0.341326 
0.844628 -0.489433 0.307733 
0.814653 -0.485380 0.299812 
0.799636 -0.489775 0.296808 
0.791941 -0.498519 0.296262 
0.776098 -0.501889 0.292984 
0.788257 -0.523697 0.299266 
0.686688 -0.467870 0.266491 
0.727246 -0.509018 0.282606 
0.720166 -0.517339 0.282332 
0.714535 -0.526712 0.282606 
0.708782 -0.536025 0.282879 
0.700636 -0.543496 0.282332 
0.690914 -0.549644 0.281240 
0.669264 -0.545851 0.275778 
0.659575 -0.551541 0.274685 
0.652030 -0.558964 0.274412 
0.658794 -0.579053 0.279601 
0.663738 -0.598096 0.284244 
0.657756 -0.607507 0.284791 
0.653034 -0.618191 0.285883 
0.647461 -0.628177 0.286702 
0.640383 -0.636756 0.286975 
0.646605 -0.659049 0.292711 
0.642442 -0.671120 0.294350 
0.637426 -0.682483 0.295715 
0.650929 -0.714524 0.305001 
0.795135 -0.479099 0.271270 
0.792491 -0.490855 0.272271 
0.779050 -0.495875 0.270018 
0.769662 -0.503283 0.269016 
0.746534 -0.501379 0.263758 
0.737134 -0.508309 0.262757 
0.727676 -0.515084 0.261755 
0.716596 -0.520567 0.260253 
0.693835 -0.517196 0.254995 
0.683586 -0.522737 0.253743 
0.692374 -0.543013 0.258751 
0.683392 -0.549651 0.258000 
0.677343 -0.558611 0.258250 
0.672658 -0.568753 0.259001 
0.667093 -0.578231 0.259502 
0.662121 -0.588299 0.260253 
0.656285 -0.597682 0.260754 
0.645358 -0.602393 0.259502 
0.646324 -0.618286 0.262506 
0.644226 -0.631585 0.264509 
0.637111 -0.640128 0.264760 
0.635287 -0.654140 0.267013 
0.637216 -0.672414 0.270769 
0.631550 -0.683022 0.271770 
0.648451 -0.718721 0.281535 
0.848993 -0.490443 0.259062 
0.806984 -0.479281 0.249360 
0.800212 -0.488636 0.249134 
0.792510 -0.497377 0.248683 
0.775732 -0.500156 0.245750 
0.779255 -0.516135 0.248457 
0.735295 -0.513219 0.239658 
0.721837 -0.517066 0.237627 
0.714655 -0.525304 0.237401 
0.704279 -0.531084 0.236273 
0.694637 -0.537289 0.235371 
0.687991 -0.545772 0.235371 
0.677477 -0.551083 0.234242 
0.672154 -0.560610 0.234694 
0.661536 -0.565634 0.233565 
0.643600 -0.564027 0.230181 
0.649621 -0.583662 0.234242 
0.645264 -0.594242 0.235145 
0.649915 -0.613538 0.238981 
0.648611 -0.627592 0.241011 
0.639484 -0.634126 0.240560 
0.632334 -0.642624 0.240786 
0.638504 -0.665155 0.245524 
0.638911 -0.682221 0.248457 
0.631145 -0.690732 0.248683 
0.638106 -0.715944 0.254098 
0.800424 -0.482646 0.226314 
0.801104 -0.496550 0.227937 
0.777592 -0.495320 0.223675 
0.768995 -0.503220 0.223066 
0.757067 -0.508803 0.221646 
0.731405 -0.504736 0.216775 
0.722757 -0.511979 0.216166 
0.714041 -0.519086 0.215557 
0.706046 -0.526641 0.215151 
0.691744 -0.529326 0.213121 
0.682883 -0.535965 0.212513 
0.677782 -0.545530 0.212918 
0.679354 -0.560650 0.215151 
0.661196 -0.559474 0.212107 
0.652800 -0.566265 0.211701 
0.650198 -0.578130 0.212918 
0.647402 -0.590017 0.214136 
0.641546 -0.599252 0.214542 
0.642644 -0.615192 0.216978 
0.637146 -0.625086 0.217586 
0.628736 -0.632165 0.217384 
0.625029 -0.644043 0.218601 
0.627867 -0.663025 0.221849 
0.623011 -0.674271 0.222863 
0.626510 -0.694940 0.226517 
0.632832 -0.719466 0.231185 
0.899551 -0.518494 0.221277 
0.816270 -0.483536 0.205068 
0.796862 -0.485271 0.202219 
0.782529 -0.489757 0.200437 
0.764079 -0.491286 0.197766 
0.767818 -0.507176 0.199903 
0.722562 -0.489878 0.191354 
0.725352 -0.504932 0.193313 
0.716706 -0.512068 0.192778 
0.704041 -0.516142 0.191354 
0.692952 -0.521172 0.190285 
0.688833 -0.531450 0.190819 
0.673802 -0.533108 0.188860 
0.666448 -0.540713 0.188682 
0.659762 -0.548851 0.188682 
0.660435 -0.563326 0.190463 
0.646832 -0.565528 0.188860 
0.648601 -0.581344 0.190997 
0.632037 -0.580563 0.188682 
0.637705 -0.600475 0.191888 
0.636633 -0.614434 0.193491 
0.631831 -0.624981 0.194203 
0.628242 -0.636909 0.195272 
0.626491 -0.650979 0.196875 
0.625831 -0.666540 0.198834 
0.621573 -0.678541 0.199903 
0.628861 -0.703793 0.204178 
0.637551 -0.731558 0.208987 
0.795415 -0.479818 0.179742 
0.791988 -0.491102 0.180208 
0.780064 -0.497075 0.179122 
0.758187 -0.496352 0.176176 
0.748756 -0.503419 0.175556 
0.728687 -0.503048 0.172920 
0.718425 -0.509102 0.172145 
0.708924 -0.515561 0.171525 
0.696995 -0.520094 0.170439 
0.687419 -0.526211 0.169819 
0.684800 -0.537651 0.170594 
0.664283 -0.534883 0.167803 
0.659957 -0.544878 0.168268 
0.658506 -0.557396 0.169354 
0.653111 -0.566727 0.169664 
0.635759 -0.565523 0.167493 
0.641930 -0.585243 0.170284 
0.641205 -0.599137 0.171680 
0.630232 -0.603549 0.170904 
0.633369 -0.621602 0.173230 
0.626391 -0.630027 0.173385 
0.622746 -0.641915 0.174316 
0.618903 -0.653807 0.175246 
0.622246 -0.673674 0.177882 
0.623868 -0.692253 0.180208 
0.618592 -0.703562 0.180983 
0.611200 -0.712598 0.181293 
0.911860 -0.524410 0.172965 
0.831280 -0.491367 0.161624 
0.803213 -0.488053 0.158235 
0.776195 -0.484655 0.154976 
0.765196 -0.490910 0.154194 
0.766544 -0.505205 0.155367 
0.755375 -0.511218 0.154585 
0.721444 -0.501096 0.150153 
0.712021 -0.507594 0.149632 
0.704941 -0.515705 0.149501 
0.698560 -0.524317 0.149501 
0.689724 -0.531025 0.149110 
0.680830 -0.537595 0.148719 
0.664201 -0.537753 0.147025 
0.658312 -0.546500 0.147155 
0.658325 -0.560352 0.148328 
0.642470 -0.560525 0.146764 
0.637751 -0.570360 0.147155 
0.619059 -0.567371 0.145069 
0.612769 -0.575607 0.145200 
0.622725 -0.599666 0.148328 
0.625857 -0.617757 0.150284 
0.627249 -0.634598 0.151978 
0.624210 -0.647264 0.152891 
0.625012 -0.664300 0.154585 
0.616813 -0.671920 0.154585 
0.620370 -0.692784 0.156932 
0.613769 -0.702593 0.157323 
0.639655 -0.750968 0.164362 
0.824063 -0.497427 0.138994 
0.779848 -0.483963 0.134173 
0.771334 -0.491896 0.133851 
0.762742 -0.499694 0.133530 
0.739213 -0.497385 0.131280 
0.730597 -0.504727 0.130959 
0.719477 -0.510211 0.130316 
0.713162 -0.519002 0.130316 
0.683611 -0.510497 0.127209 
0.681246 -0.521865 0.127745 
0.678704 -0.533251 0.128280 
0.665908 -0.536558 0.127423 
0.657739 -0.543425 0.127209 
0.644943 -0.546324 0.126352 
0.647963 -0.562657 0.127745 
0.646215 -0.575186 0.128495 
0.626604 -0.571699 0.126673 
0.635540 -0.594261 0.129030 
0.630357 -0.604076 0.129352 
0.622896 -0.611766 0.129352 
0.616044 -0.620068 0.129459 
0.616012 -0.635423 0.130637 
0.604062 -0.638606 0.129994 
0.618468 -0.670050 0.133530 
0.612198 -0.679802 0.133851 
0.611697 -0.696216 0.135137 
0.621253 -0.724782 0.138136 
0.905917 -0.535269 0.122858 
0.793903 -0.481788 0.112655 
0.782028 -0.487777 0.112079 
0.770125 -0.493548 0.111503 
0.748240 -0.492482 0.109939 
0.714149 -0.482529 0.107141 
0.717153 -0.497546 0.108047 
0.709375 -0.505146 0.107882 
0.699113 -0.510855 0.107471 
0.696765 -0.522403 0.107882 
0.677706 -0.521136 0.106565 
0.663463 -0.523206 0.105743 
0.660080 -0.533829 0.106072 
0.646602 -0.536132 0.105331 
0.642999 -0.546622 0.105660 
0.636991 -0.555130 0.105743 
0.630131 -0.562905 0.105743 
0.618784 -0.566537 0.105249 
0.620468 -0.582312 0.106236 
0.606839 -0.583634 0.105496 
0.603164 -0.594552 0.105907 
0.623737 -0.630369 0.109199 
0.609752 -0.631496 0.108458 
0.611479 -0.649129 0.109610 
0.598098 -0.650690 0.108952 
0.598675 -0.667664 0.110021 
0.607412 -0.694538 0.112161 
0.614934 -0.720962 0.114218 
0.794793 -0.493208 0.091840 
0.785311 -0.500782 0.091604 
0.748182 -0.490184 0.089423 
0.741281 -0.498773 0.089364 
0.728528 -0.503302 0.088892 
0.702733 -0.498374 0.087477 
0.703837 -0.512236 0.088008 
0.675878 -0.504740 0.086416 
0.674393 -0.516631 0.086769 
0.656214 -0.515635 0.085885 
0.655285 -0.528025 0.086298 
0.647986 -0.535392 0.086239 
0.629164 -0.532998 0.085295 
0.633896 -0.550480 0.086180 
0.616640 -0.548941 0.085354 
0.625365 -0.570572 0.086593 
0.616856 -0.576842 0.086475 
0.606844 -0.581610 0.086239 
0.606080 -0.595299 0.086769 
0.605071 -0.609056 0.087300 
0.600335 -0.619298 0.087536 
0.608492 -0.643276 0.088892 
0.602586 -0.652892 0.089069 
0.598543 -0.664683 0.089423 
0.608819 -0.692950 0.091073 
0.603523 -0.704154 0.091368 
0.610871 -0.730632 0.092842 
0.874320 -0.515839 0.072017 
0.810808 -0.491579 0.069725 
0.785256 -0.489254 0.068938 
0.768281 -0.491803 0.068494 
0.760522 -0.500088 0.068425 
0.736985 -0.497564 0.067707 
0.711170 -0.492819 0.066886 
0.705881 -0.502092 0.066920 
0.684380 -0.499453 0.066271 
0.678199 -0.507813 0.066271 
0.669547 -0.514260 0.066168 
0.656146 -0.516839 0.065860 
0.652077 -0.526747 0.065963 
0.645564 -0.534710 0.065963 
0.636678 -0.540640 0.065860 
0.630746 -0.549072 0.065894 
0.619505 -0.552758 0.065689 
0.611941 -0.559640 0.065655 
0.618094 -0.579472 0.066271 
0.605197 -0.581447 0.065997 
0.599434 -0.590239 0.066065 
0.600548 -0.606108 0.066476 
0.611732 -0.632918 0.067399 
0.605966 -0.642567 0.067502 
0.598035 -0.649955 0.067502 
0.597987 -0.666205 0.067912 
0.599593 -0.684814 0.068425 
0.591790 -0.692883 0.068460 
0.608699 -0.730917 0.069828 
0.779088 -0.483492 0.047669 
0.765501 -0.488188 0.047573 
0.751918 -0.492624 0.047477 
0.715921 -0.481761 0.047094 
0.713249 -0.492779 0.047137 
0.693267 -0.491682 0.046956 
0.687991 -0.500740 0.046966 
0.672971 -0.502576 0.046849 
0.665958 -0.510190 0.046839 
0.652563 -0.512774 0.046743 
0.643882 -0.518865 0.046711 
0.635923 -0.525456 0.046689 
0.629427 -0.533220 0.046689 
0.630396 -0.547449 0.046796 
0.614656 -0.547179 0.046668 
0.613073 -0.559391 0.046743 
0.601773 -0.562781 0.046679 
0.602775 -0.577722 0.046796 
0.594211 -0.583676 0.046775 
0.601825 -0.605799 0.046998 
0.595043 -0.613855 0.047009 
0.588842 -0.622562 0.047030 
0.586591 -0.635612 0.047115 
0.590811 -0.656120 0.047307 
0.589325 -0.670824 0.047413 
0.585611 -0.683314 0.047488 
0.600309 -0.718034 0.047871 
0.872692 -0.529244 0.024492 
0.784866 -0.488824 0.025815 
0.748571 -0.478888 0.026312 
0.780965 -0.513466 0.025677 
0.722545 -0.487544 0.026546 
0.714049 -0.494654 0.026587 
0.689243 -0.489969 0.026904 
0.683178 -0.498390 0.026904 
0.674617 -0.504927 0.026946 
0.662838 -0.508880 0.027042 
0.647934 -0.510131 0.027194 
0.642400 -0.518675 0.027180 
0.633685 -0.524596 0.027222 
0.624163 -0.529730 0.027277 
0.621371 -0.540649 0.027208 
0.616919 -0.550241 0.027167 
0.607916 -0.555736 0.027208 
0.601051 -0.563154 0.027208 
0.599838 -0.576055 0.027098 
0.599817 -0.590420 0.026960 
0.595329 -0.600589 0.026904 
0.585147 -0.604962 0.026960 
0.592021 -0.627435 0.026670 
0.592364 -0.643517 0.026505 
0.583092 -0.649244 0.026532 
0.588849 -0.672205 0.026243 
0.592834 -0.693877 0.025981 
0.590643 -0.708808 0.025843 
0.566844 -0.697316 0.026174 
0.797466 -0.494488 0.004144 
0.752537 -0.479589 0.005862 
0.734879 -0.481141 0.006384 
0.722279 -0.485672 0.006683 
0.703917 -0.486001 0.007243 
0.692186 -0.490566 0.007505 
0.680451 -0.494918 0.007766 
0.669516 -0.499652 0.007990 
0.648240 -0.496312 0.008700 
0.640527 -0.502998 0.008774 
0.635865 -0.512071 0.008700 
0.627218 -0.517930 0.008812 
0.620815 -0.525588 0.008812 
0.615830 -0.534475 0.008737 
0.605486 -0.538677 0.008924 
0.595133 -0.542705 0.009110 
0.571612 -0.534301 0.009969 
0.588140 -0.563358 0.008774 
0.591182 -0.580318 0.008252 
0.579782 -0.583283 0.008476 
0.585124 -0.603246 0.007803 
0.570797 -0.603134 0.008177 
0.589157 -0.637952 0.006758 
0.579274 -0.642909 0.006870 
0.580594 -0.660464 0.006347 
0.575051 -0.670569 0.006198 
0.578340 -0.691355 0.005526 
0.598290 -0.733203 0.003845 
0.781623 -0.487154 -0.017278 
0.747088 -0.478287 -0.015173 
0.749477 -0.492940 -0.015792 
0.731826 -0.494228 -0.014925 
0.695451 -0.481996 -0.012634 
0.691916 -0.492241 -0.012819 
0.685823 -0.500695 -0.012819 
0.679627 -0.509073 -0.012819 
0.655979 -0.503916 -0.011457 
0.648184 -0.510686 -0.011334 
0.636455 -0.514185 -0.010900 
0.626269 -0.518755 -0.010590 
0.619098 -0.525751 -0.010529 
0.610351 -0.531332 -0.010343 
0.604526 -0.539450 -0.010405 
0.596394 -0.545474 -0.010281 
0.588931 -0.552065 -0.010219 
0.588559 -0.565505 -0.010776 
0.581576 -0.572685 -0.010776 
0.581495 -0.586902 -0.011395 
0.575630 -0.595435 -0.011519 
0.569642 -0.603913 -0.011643 
0.571603 -0.621184 -0.012510 
0.581183 -0.647541 -0.014120 
0.578426 -0.660655 -0.014615 
0.572855 -0.670751 -0.014863 
0.572205 -0.686966 -0.015606 
0.586266 -0.721923 -0.017835 
0.803636 -0.498302 -0.040710 
0.747842 -0.476606 -0.035660 
0.741937 -0.485747 -0.035660 
0.733437 -0.493151 -0.035403 
0.700246 -0.483475 -0.032579 
0.689377 -0.488582 -0.032065 
0.686556 -0.499344 -0.032407 
0.661991 -0.494055 -0.030439 
0.651126 -0.498514 -0.029925 
0.635544 -0.499098 -0.028898 
0.637142 -0.513096 -0.029754 
0.628489 -0.518977 -0.029497 
0.611413 -0.517654 -0.028299 
0.611043 -0.530333 -0.028984 
0.597780 -0.531842 -0.028213 
0.590471 -0.538468 -0.028128 
0.583090 -0.544994 -0.028042 
0.576358 -0.552108 -0.028042 
0.581645 -0.570986 -0.029497 
0.573710 -0.591515 -0.030268 
0.565722 -0.597788 -0.030182 
0.564437 -0.611264 -0.030952 
0.571590 -0.634407 -0.032835 
0.569033 -0.647352 -0.033520 
0.570142 -0.664861 -0.034718 
0.563221 -0.673334 -0.034890 
0.566904 -0.694846 -0.036516 
0.583814 -0.733680 -0.040025 
0.800273 -0.499076 -0.063127 
0.754026 -0.482952 -0.057852 
0.730451 -0.493471 -0.056313 
0.719455 -0.498977 -0.055654 
0.698749 -0.497328 -0.053675 
0.677394 -0.494657 -0.051587 
0.670480 -0.502333 -0.051477 
0.663480 -0.509913 -0.051367 
0.641618 -0.505638 -0.049169 
0.633825 -0.512217 -0.048949 
0.620631 -0.514216 -0.047960 
0.612765 -0.520499 -0.047740 
0.604839 -0.526667 -0.047520 
0.603498 -0.538707 -0.048290 
0.594652 -0.544049 -0.047960 
0.586487 -0.549939 -0.047740 
0.589681 -0.566785 -0.049279 
0.579862 -0.571175 -0.048839 
0.574201 -0.579667 -0.049059 
0.572543 -0.592413 -0.049938 
0.565230 -0.599395 -0.049938 
0.560510 -0.609224 -0.050378 
0.552992 -0.616057 -0.050378 
0.578606 -0.661089 -0.055983 
0.570450 -0.668140 -0.055983 
0.562840 -0.675856 -0.056093 
0.574447 -0.707490 -0.059610 
0.571858 -0.722305 -0.060709 
0.763489 -0.472948 -0.079107 
0.756791 -0.481751 -0.078974 
0.729236 -0.476930 -0.075504 
0.721681 -0.484740 -0.075237 
0.709145 -0.489069 -0.074169 
0.693373 -0.490877 -0.072567 
0.669638 -0.486561 -0.069631 
0.654866 -0.488239 -0.068163 
0.650402 -0.497440 -0.068430 
0.635661 -0.498670 -0.066962 
0.629493 -0.506433 -0.066962 
0.623231 -0.514119 -0.066962 
0.616875 -0.521729 -0.066962 
0.596179 -0.516947 -0.064426 
0.588307 -0.522910 -0.064159 
0.578911 -0.527425 -0.063625 
0.577473 -0.539216 -0.064559 
0.570813 -0.546262 -0.064559 
0.574697 -0.563617 -0.066561 
0.568437 -0.571328 -0.066695 
0.564543 -0.610758 -0.070165 
0.558335 -0.619110 -0.070432 
0.557254 -0.633345 -0.071767 
0.559140 -0.651401 -0.073769 
0.562577 -0.671874 -0.076171 
0.557429 -0.682561 -0.076838 
0.571279 -0.717225 -0.081643 
0.755559 -0.484668 -0.101130 
0.711735 -0.468745 -0.093863 
0.720606 -0.487469 -0.096707 
0.705677 -0.490039 -0.094969 
0.691595 -0.492894 -0.093389 
0.666431 -0.487266 -0.089597 
0.662762 -0.497196 -0.090071 
0.651933 -0.501657 -0.089123 
0.641095 -0.505926 -0.088175 
0.625663 -0.506257 -0.086279 
0.621674 -0.515800 -0.086753 
0.609305 -0.518242 -0.085489 
0.597712 -0.521112 -0.084384 
0.585408 -0.523115 -0.083120 
0.575321 -0.526906 -0.082330 
0.580993 -0.545477 -0.085015 
0.579920 -0.558071 -0.086279 
0.577926 -0.570023 -0.087385 
0.572960 -0.579188 -0.087859 
0.570586 -0.591172 -0.088965 
0.570024 -0.605350 -0.090545 
0.569199 -0.619602 -0.092125 
0.537295 -0.599220 -0.086279 
0.548003 -0.626667 -0.090703 
0.562577 -0.659743 -0.096233 
0.571394 -0.687172 -0.100498 
0.555495 -0.684896 -0.098602 
0.568976 -0.719640 -0.104290 
0.756998 -0.481702 -0.122455 
0.727137 -0.475386 -0.117190 
0.717162 -0.481539 -0.116282 
0.701473 -0.483620 -0.114104 
0.690664 -0.488791 -0.113014 
0.655937 -0.476470 -0.106479 
0.650041 -0.484484 -0.106479 
0.629186 -0.481100 -0.103029 
0.628658 -0.493023 -0.104300 
0.618724 -0.497626 -0.103392 
0.611811 -0.504556 -0.103211 
0.601061 -0.508224 -0.102121 
0.589570 -0.511062 -0.100851 
0.582518 -0.517606 -0.100669 
0.576123 -0.524716 -0.100669 
0.564600 -0.527057 -0.099398 
0.558090 -0.533946 -0.099398 
0.557826 -0.546940 -0.101032 
0.551767 -0.554440 -0.101214 
0.546294 -0.562578 -0.101577 
0.539510 -0.613033 -0.107568 
0.541573 -0.630784 -0.110291 
0.540749 -0.645664 -0.112288 
0.549614 -0.672788 -0.117190 
0.545614 -0.684860 -0.118461 
0.566181 -0.728737 -0.127175 
0.757811 -0.486853 -0.145006 
0.742005 -0.489604 -0.142544 
0.701206 -0.474911 -0.133722 
0.693723 -0.482355 -0.133311 
0.684576 -0.488543 -0.132490 
0.667513 -0.488759 -0.129618 
0.656786 -0.493365 -0.128387 
0.642186 -0.494775 -0.126130 
0.636066 -0.502619 -0.126130 
0.622276 -0.504187 -0.124078 
0.612294 -0.508640 -0.123052 
0.605264 -0.515477 -0.122847 
0.595222 -0.519629 -0.121821 
0.587349 -0.525582 -0.121411 
0.578701 -0.530755 -0.120795 
0.570724 -0.536468 -0.120385 
0.565501 -0.544797 -0.120795 
0.558773 -0.551695 -0.120795 
0.564966 -0.571803 -0.124694 
0.555879 -0.576569 -0.124078 
0.550763 -0.585496 -0.124694 
0.546169 -0.595107 -0.125514 
0.546617 -0.610553 -0.127977 
0.553810 -0.634240 -0.132696 
0.538411 -0.632012 -0.130233 
0.543053 -0.653686 -0.134337 
0.553981 -0.683963 -0.140698 
0.547356 -0.693022 -0.141313 
0.563745 -0.732367 -0.149931 
0.747235 -0.487762 -0.165387 
0.709629 -0.475803 -0.156454 
0.701329 -0.482823 -0.155767 
0.691372 -0.488590 -0.154622 
0.675857 -0.490194 -0.151874 
0.643991 -0.479315 -0.144316 
0.633412 -0.483645 -0.142942 
0.625127 -0.489584 -0.142254 
0.616033 -0.494786 -0.141338 
0.609162 -0.501691 -0.141109 
0.587319 -0.495966 -0.136300 
0.584136 -0.505680 -0.137216 
0.577887 -0.512810 -0.137216 
0.571551 -0.519863 -0.137216 
0.558710 -0.520875 -0.135155 
0.557210 -0.532390 -0.136758 
0.548545 -0.537149 -0.136071 
0.552236 -0.554165 -0.139506 
0.549473 -0.565080 -0.140880 
0.542497 -0.571781 -0.140880 
0.537427 -0.580534 -0.141567 
0.537312 -0.624984 -0.149354 
0.533362 -0.636000 -0.150729 
0.540337 -0.660557 -0.156225 
0.537056 -0.673218 -0.158058 
0.543126 -0.698176 -0.163554 
0.555736 -0.732678 -0.171799 
0.753752 -0.485487 -0.188842 
0.725210 -0.479652 -0.181769 
0.706502 -0.479758 -0.177728 
0.686321 -0.478366 -0.173182 
0.681183 -0.487318 -0.173434 
0.664270 -0.487573 -0.169898 
0.651306 -0.490416 -0.167625 
0.633033 -0.488848 -0.163584 
0.624720 -0.494766 -0.162826 
0.614861 -0.499327 -0.161563 
0.593879 -0.494377 -0.156512 
0.587767 -0.501628 -0.156512 
0.580842 -0.508162 -0.156259 
0.572411 -0.513303 -0.155501 
0.566778 -0.520947 -0.155754 
0.561044 -0.528530 -0.156007 
0.558671 -0.539429 -0.157522 
0.547220 -0.541455 -0.155754 
0.554050 -0.561978 -0.160806 
0.539772 -0.561028 -0.158027 
0.547337 -0.583203 -0.163584 
0.538839 -0.588442 -0.163079 
0.534141 -0.597909 -0.164089 
0.539406 -0.619071 -0.169141 
0.531768 -0.625643 -0.169141 
0.544310 -0.656801 -0.177476 
0.519882 -0.643037 -0.170656 
0.532790 -0.676063 -0.179496 
0.551409 -0.717969 -0.191115 
0.546592 -0.730121 -0.192883 
0.734213 -0.478759 -0.206178 
0.705102 -0.472260 -0.198160 
0.696083 -0.478704 -0.197054 
0.680724 -0.480574 -0.193736 
0.668542 -0.484391 -0.191525 
0.647877 -0.481688 -0.186272 
0.628145 -0.479135 -0.181295 
0.622976 -0.487398 -0.181571 
0.613945 -0.492605 -0.180466 
0.606368 -0.498884 -0.179913 
0.596522 -0.503195 -0.178530 
0.580838 -0.502322 -0.174936 
0.573910 -0.508776 -0.174660 
0.566911 -0.515135 -0.174383 
0.559138 -0.520746 -0.173830 
0.550616 -0.525581 -0.173001 
0.551007 -0.539007 -0.175765 
0.544351 -0.545728 -0.175765 
0.549700 -0.564742 -0.180742 
0.544054 -0.572836 -0.181295 
0.538947 -0.581581 -0.182124 
0.533061 -0.589574 -0.182677 
0.529607 -0.600389 -0.184336 
0.525968 -0.611207 -0.185995 
0.530191 -0.631582 -0.191248 
0.549851 -0.671457 -0.203690 
0.534360 -0.669154 -0.200372 
0.532616 -0.683991 -0.203413 
0.530005 -0.698121 -0.206178 
0.538583 -0.727721 -0.214472 
0.715542 -0.474766 -0.222824 
0.705733 -0.480806 -0.221327 
0.695103 -0.486127 -0.219531 
0.683678 -0.490700 -0.217436 
0.653873 -0.481399 -0.208155 
0.640331 -0.483599 -0.205161 
0.626835 -0.485539 -0.202167 
0.614133 -0.487819 -0.199473 
0.605890 -0.493500 -0.198575 
0.598330 -0.499667 -0.197976 
0.582773 -0.498857 -0.194084 
0.582318 -0.511035 -0.196479 
0.576709 -0.518784 -0.196779 
0.559828 -0.516067 -0.192288 
0.563114 -0.532122 -0.196479 
0.549040 -0.531652 -0.193186 
0.542475 -0.538350 -0.193186 
0.553792 -0.563430 -0.201269 
0.546179 -0.569492 -0.200970 
0.539798 -0.576851 -0.201269 
0.535877 -0.586972 -0.202766 
0.529896 -0.594935 -0.203365 
0.530021 -0.610073 -0.206957 
0.527401 -0.622379 -0.209352 
0.530600 -0.642096 -0.214741 
0.533393 -0.661983 -0.220130 
0.535190 -0.681280 -0.225219 
0.503147 -0.656630 -0.212945 
0.534760 -0.716458 -0.233901 
0.749995 -0.488112 -0.257891 
0.718744 -0.480487 -0.247557 
0.689359 -0.473240 -0.237870 
0.671108 -0.472961 -0.232703 
0.665253 -0.481161 -0.232703 
0.644841 -0.478596 -0.226567 
0.631379 -0.480753 -0.223338 
0.614976 -0.480327 -0.218817 
0.620870 -0.497284 -0.223984 
0.593481 -0.487482 -0.214619 
0.586005 -0.493512 -0.213973 
0.579187 -0.500049 -0.213650 
0.559520 -0.495225 -0.207515 
0.559720 -0.507766 -0.210421 
0.549281 -0.510737 -0.208483 
0.547776 -0.522001 -0.210744 
0.540651 -0.528023 -0.210421 
0.533460 -0.533950 -0.210098 
0.532825 -0.546544 -0.213004 
0.511700 -0.537982 -0.205900 
0.525702 -0.566381 -0.216234 
0.518712 -0.572790 -0.216234 
0.522946 -0.591859 -0.222046 
0.519358 -0.602526 -0.223984 
0.521690 -0.620428 -0.229151 
0.508625 -0.620206 -0.226244 
0.511639 -0.639687 -0.232057 
0.511916 -0.656352 -0.236578 
0.521620 -0.685910 -0.246589 
0.526154 -0.709726 -0.254016 
0.741945 -0.481200 -0.277817 
0.712628 -0.474555 -0.267443 
0.695171 -0.475265 -0.262256 
0.674743 -0.473448 -0.255686 
0.665089 -0.478932 -0.253957 
0.645628 -0.476953 -0.247733 
0.632277 -0.479135 -0.244275 
0.621922 -0.483380 -0.242200 
0.602060 -0.479791 -0.235630 
0.593233 -0.484753 -0.234247 
0.588672 -0.493209 -0.234939 
0.574781 -0.493630 -0.231135 
0.568681 -0.500646 -0.231135 
0.552789 -0.498734 -0.226294 
0.543885 -0.502917 -0.224911 
0.539028 -0.510852 -0.225602 
0.533388 -0.518085 -0.225948 
0.528974 -0.526589 -0.226985 
0.530963 -0.541798 -0.231481 
0.525564 -0.549636 -0.232172 
0.520689 -0.558113 -0.233210 
0.520708 -0.572130 -0.237013 
0.520460 -0.586231 -0.240817 
0.516891 -0.596848 -0.242892 
0.513740 -0.608185 -0.245312 
0.508610 -0.617353 -0.246695 
0.515011 -0.641174 -0.254994 
0.514003 -0.656345 -0.259144 
0.513265 -0.672334 -0.263639 
0.516107 -0.693691 -0.270555 
0.512481 -0.706832 -0.273667 
0.710387 -0.474226 -0.290259 
0.679956 -0.466133 -0.278448 
0.659727 -0.464304 -0.271435 
0.654734 -0.472908 -0.271805 
0.641405 -0.475385 -0.268114 
0.631078 -0.479853 -0.265899 
0.607530 -0.473875 -0.257041 
0.595854 -0.476660 -0.254088 
0.589240 -0.483348 -0.253719 
0.582552 -0.489946 -0.253350 
0.572971 -0.494030 -0.251504 
0.560588 -0.495496 -0.248182 
0.548946 -0.497356 -0.245229 
0.548259 -0.509104 -0.248182 
0.541970 -0.515794 -0.248182 
0.535600 -0.522406 -0.248182 
0.528490 -0.528283 -0.247813 
0.522618 -0.535393 -0.248182 
0.515366 -0.541094 -0.247813 
0.519464 -0.558931 -0.254088 
0.513817 -0.566638 -0.254826 
0.512379 -0.579156 -0.258148 
0.506450 -0.586805 -0.258886 
0.508808 -0.604334 -0.264792 
0.503127 -0.612684 -0.265899 
0.507797 -0.634025 -0.273650 
0.501125 -0.641672 -0.274388 
0.503934 -0.661804 -0.281401 
0.496885 -0.669429 -0.282139 
0.502282 -0.694279 -0.291367 
0.742560 -0.483575 -0.327453 
0.702258 -0.469471 -0.309834 
0.688127 -0.472284 -0.305527 
0.666538 -0.469486 -0.297304 
0.656269 -0.474373 -0.294955 
0.638618 -0.473560 -0.288691 
0.624005 -0.474631 -0.283992 
0.625359 -0.487951 -0.287908 
0.600722 -0.480544 -0.277728 
0.589821 -0.483768 -0.274987 
0.581737 -0.489181 -0.273812 
0.572916 -0.493865 -0.272246 
0.563381 -0.497793 -0.270289 
0.559266 -0.506533 -0.271463 
0.544285 -0.505172 -0.266373 
0.535392 -0.509262 -0.264807 
0.534345 -0.520961 -0.267939 
0.525970 -0.525517 -0.266765 
0.527152 -0.539875 -0.271463 
0.520488 -0.546303 -0.271463 
0.522464 -0.562132 -0.276945 
0.514912 -0.567816 -0.276553 
0.512753 -0.579632 -0.279685 
0.510979 -0.592179 -0.283209 
0.508973 -0.604768 -0.286733 
0.504994 -0.615254 -0.289082 
0.507689 -0.634389 -0.296130 
0.503240 -0.644941 -0.298479 
0.503036 -0.661360 -0.303961 
0.500325 -0.674902 -0.307876 
0.517696 -0.716918 -0.326670 
0.609219 -0.486304 -0.304708 
0.584165 -0.478216 -0.293511 
0.578253 -0.485349 -0.293511 
0.577780 -0.497146 -0.296829 
0.568902 -0.501797 -0.295170 
0.549855 -0.497169 -0.287291 
0.553073 -0.512521 -0.293097 
0.544098 -0.516768 -0.291438 
0.539022 -0.524672 -0.292267 
0.531252 -0.529965 -0.291438 
0.522158 -0.533847 -0.289779 
0.513680 -0.538243 -0.288535 
0.518842 -0.557137 -0.296414 
0.511966 -0.563462 -0.296414 
0.509852 -0.575140 -0.299732 
0.500966 -0.579292 -0.298488 
0.507344 -0.601369 -0.308026 
0.504562 -0.613162 -0.311343 
0.496429 -0.618599 -0.310929 
0.502289 -0.641820 -0.320881 
0.497695 -0.652270 -0.323369 
0.494552 -0.664891 -0.327102 
0.582371 -0.479900 -0.314746 
0.575754 -0.486426 -0.314310 
0.570419 -0.494048 -0.314746 
0.552261 -0.490190 -0.306892 
0.546866 -0.497540 -0.307328 
0.541374 -0.504831 -0.307765 
0.533844 -0.510185 -0.306892 
0.531379 -0.520497 -0.309510 
0.524952 -0.526979 -0.309510 
0.524057 -0.539220 -0.313437 
0.519247 -0.547579 -0.314746 
0.515525 -0.557229 -0.316928 
0.511045 -0.566199 -0.318673 
0.505831 -0.574463 -0.319982 
0.500491 -0.582684 -0.321291 
0.495600 -0.591554 -0.323036 
0.498483 -0.610188 -0.330890 
0.497084 -0.624033 -0.335690 
0.497611 -0.640788 -0.342235 
0.489710 -0.646847 -0.342235 
0.502427 -0.681150 -0.359252 
0.495595 -0.689464 -0.360561 
0.490172 -0.699931 -0.363179 
0.585369 -0.466211 -0.334553 
0.577845 -0.483850 -0.337308 
0.565787 -0.485709 -0.333176 
0.558448 -0.491444 -0.332257 
0.559644 -0.504791 -0.337308 
0.547526 -0.506205 -0.333176 
0.537396 -0.509227 -0.330421 
0.533661 -0.518254 -0.332257 
0.517798 -0.515382 -0.325371 
0.520159 -0.530561 -0.331798 
0.488995 -0.511274 -0.313434 
0.550612 -0.491379 -0.351335 
0.545828 -0.499290 -0.352295 
0.532052 -0.523994 -0.356138 
0.506556 -0.511060 -0.341247 
0.512972 -0.530553 -0.351335 
0.507021 -0.537449 -0.351815 
0.502748 -0.546225 -0.353737 
0.502412 -0.559569 -0.359021 
0.495507 -0.565692 -0.359021 
0.490792 -0.574410 -0.360942 
0.497649 -0.597312 -0.372952 
0.488084 -0.600640 -0.371030 
0.482299 -0.608655 -0.372471 
0.486507 -0.629861 -0.383040 
0.482408 -0.640708 -0.386402 
0.482752 -0.657937 -0.394088 
0.475654 -0.665244 -0.395049 
0.474421 -0.681142 -0.401774 
0.479709 -0.707305 -0.415225 
0.607082 -0.458461 -0.388811 
0.596620 -0.462180 -0.385289 
0.597003 -0.474294 -0.389817 
0.573881 -0.491459 -0.385792 
0.555445 -0.487655 -0.376235 
0.537834 -0.484051 -0.367181 
0.531456 -0.502437 -0.371708 
0.524007 -0.507720 -0.370702 
0.514664 -0.511074 -0.368187 
0.508961 -0.517966 -0.368690 
0.501367 -0.522928 -0.367684 
0.499646 -0.534081 -0.371708 
0.498310 -0.545906 -0.376235 
0.492150 -0.552624 -0.376738 
0.495558 -0.570346 -0.385792 
0.481800 -0.568485 -0.379756 
0.489139 -0.591646 -0.392835 
0.480211 -0.595589 -0.391326 
0.475008 -0.604150 -0.393338 
0.477573 -0.622947 -0.402895 
0.470412 -0.629452 -0.403398 
0.475916 -0.653316 -0.416477 
0.469869 -0.661923 -0.418489 
0.467133 -0.675448 -0.424022 
0.469460 -0.696881 -0.435088 
0.607258 -0.469911 -0.417353 
0.601445 -0.477327 -0.417353 
0.579758 -0.471677 -0.404785 
0.566765 -0.472711 -0.399024 
0.546461 -0.490960 -0.396929 
0.545381 -0.502275 -0.401119 
0.526854 -0.497162 -0.390645 
0.515698 -0.511149 -0.391693 
0.507010 -0.514996 -0.389598 
0.518833 -0.540334 -0.405832 
0.505217 -0.539159 -0.399548 
0.496849 -0.543422 -0.397977 
0.496903 -0.557147 -0.404261 
0.488918 -0.561911 -0.403214 
0.488007 -0.575049 -0.408974 
0.484150 -0.584950 -0.412116 
0.477467 -0.591513 -0.412640 
0.478018 -0.607414 -0.420495 
0.474647 -0.618665 -0.424685 
0.471577 -0.630608 -0.429398 
0.469778 -0.644642 -0.435682 
0.470642 -0.662910 -0.445109 
0.468242 -0.677074 -0.451393 
0.468398 -0.695532 -0.460819 
0.524164 -0.518725 -0.424712 
0.510685 -0.517974 -0.418161 
0.504290 -0.524202 -0.418161 
0.496670 -0.529131 -0.417069 
0.492975 -0.538270 -0.419799 
0.494166 -0.553009 -0.427442 
0.482928 -0.553988 -0.423074 
0.484254 -0.569430 -0.431264 
0.480447 -0.579192 -0.434539 
0.477002 -0.589596 -0.438361 
0.468690 -0.594092 -0.437269 
0.464949 -0.604440 -0.441091 
0.470600 -0.627501 -0.455286 
0.464847 -0.635931 -0.457469 
0.458471 -0.643631 -0.459107 
0.459160 -0.661582 -0.468935 
0.459006 -0.678951 -0.478216 
0.495501 -0.546000 -0.449609 
0.487678 -0.550799 -0.448478 
0.486234 -0.563013 -0.454137 
0.473309 -0.576057 -0.455269 
0.472856 -0.590225 -0.462627 
0.466585 -0.597289 -0.463759 
0.464177 -0.609558 -0.469419 
0.458612 -0.617867 -0.471682 
0.462499 -0.639547 -0.485266 
0.454616 -0.645174 -0.485266 
0.449441 -0.654798 -0.488662 
0.451366 -0.675399 -0.501113 
0.439477 -0.675339 -0.496585 
0.446911 -0.554353 -0.543433 
0.436337 -0.554976 -0.538257 
0.430414 -0.561505 -0.539551 
0.437512 -0.585772 -0.559610 
0.427249 -0.618489 -0.577080 
0.416254 -0.618604 -0.571904 
0.409045 -0.624306 -0.572551 
0.407848 -0.639605 -0.582904 
0.410315 -0.661470 -0.599727 
0.462339 -0.524237 -0.564898 
0.455871 -0.529872 -0.564898 
0.452693 -0.539408 -0.569573 
0.431998 -0.569256 -0.578925 
0.424536 -0.573917 -0.578257 
0.424884 -0.589328 -0.589612 
0.411310 -0.633777 -0.615663 
0.397918 -0.629981 -0.606311 
0.438763 -0.550755 -0.600222 
0.432856 -0.557254 -0.601594 
0.415537 -0.548527 -0.585134 
0.409243 -0.599657 -0.620797 
0.399860 -0.601589 -0.617368 
0.404185 -0.624861 -0.637942 
0.387662 -0.615550 -0.622169 
0.457131 -0.515573 -0.621944 
0.420981 -0.551738 -0.626887 
0.416299 -0.559698 -0.630418 
0.410233 -0.565909 -0.631830 
0.392848 -0.601933 -0.651601 
0.392293 -0.617450 -0.664311 
0.391789 -0.633643 -0.677728 
0.390945 -0.649916 -0.691144 
