ply
format ascii 1.0
comment Created by Open3D
element vertex 984
property double x
property double y
property double z
property double nx
property double ny
property double nz
property uchar red
property uchar green
property uchar blue
end_header
0.536907 -0.50533 -0.423703 -0.264829 0.952517 0.150254 0 128 0
0.679236 -0.498496 -0.386948 -0.264829 0.952517 0.150254 0 128 0
-0.0228276 -2.04368 -0.345324 0.71777 0.660198 -0.221232 0 128 0
0.770853 -0.522579 -0.142602 -0.566036 0.801901 0.191203 0 128 0
-0.000382237 -2.05016 -0.220051 0.71777 0.660198 -0.221232 0 128 0
0.113109 -2.11679 -0.154817 0.731286 0.63299 -0.254057 0 128 0
-0.144081 -2.09163 -0.0837567 0.978854 0.0204459 -0.203536 0 128 0
-0.00140334 -2.04664 -0.000519573 0.805224 0.545315 -0.232908 0 128 0
0.135279 -2.11324 0.00179578 0.769294 0.593853 -0.23564 0 128 0
-0.163421 -2.07203 -0.223109 0.987663 0.00118265 0.156592 0 128 0
0.167625 -2.14506 0.0478617 0.769294 0.593853 -0.23564 0 128 0
0.877893 -0.559222 0.0424949 -0.566036 0.801901 0.191203 0 128 0
-0.0842462 -2.16242 0.25744 -0.0905056 0.994575 0.0512753 0 128 0
0.162757 -2.09156 0.221893 -0.0696062 0.996355 0.0493061 0 128 0
0.0919726 -2.14753 0.870313 0.965733 0.0301951 -0.257776 0 128 0
0.638878 -0.571414 0.126745 -0.566036 0.801901 0.191203 0 128 0
0.0403334 -2.08574 0.44354 -0.0457786 0.998016 0.0432201 0 128 0
0.357763 -2.1189 0.899526 0.698055 0.659564 -0.278736 0 128 0
0.190292 -2.07871 0.447188 -0.0457786 0.998016 0.0432201 0 128 0
0.712282 -0.528148 0.0401431 -0.566036 0.801901 0.191203 0 128 0
0.046175 -2.14524 0.718905 0.89197 -0.299966 -0.338246 0 128 0
-0.167873 -2.16928 -0.0257984 0.982007 -0.160012 -0.100293 0 128 0
0.32147 -2.13288 0.634329 0.84059 0.493692 -0.222883 0 128 0
0.601151 -0.645597 0.0962817 -0.559972 0.800489 0.213655 0 128 0
0.0699465 -2.09651 0.645075 0.848152 0.470249 -0.243933 0 128 0
0.224068 -2.07046 0.68906 0.854331 0.458964 -0.243868 0 128 0
0.872778 -0.541814 0.140877 -0.586955 0.786132 0.193598 0 128 0
0.682748 -0.548755 0.158437 -0.566036 0.801901 0.191203 0 128 0
0.368657 -2.15092 0.840187 0.698055 0.659564 -0.278736 0 128 0
0.984045 -0.567719 0.462691 -0.626969 0.766448 0.139522 0 128 0
0.104775 -2.10665 0.791332 0.956137 0.0715351 -0.28405 0 128 0
0.778214 -0.529702 0.782504 -0.626969 0.766448 0.139522 0 128 0
0.129198 -2.1461 0.931831 0.923419 0.200266 -0.327399 0 128 0
-0.0410313 -2.13607 0.356149 -0.0600939 0.997336 0.0413372 0 128 0
0.7609 -0.757638 0.721228 -0.626969 0.766448 0.139522 0 128 0
0.750835 -0.540061 0.687596 -0.626969 0.766448 0.139522 0 128 0
0.515092 -0.537975 -0.304522 0.399239 -0.907732 -0.128961 0 128 0
0.878327 -0.538406 0.794947 -0.626969 0.766448 0.139522 0 128 0
0.221563 -2.07539 0.883513 0.886449 0.413037 -0.208829 0 128 0
0.0251046 -2.05944 0.22142 -0.0696062 0.996355 0.0493061 0 128 0
-0.227794 -2.14453 -0.255342 -0.3827 0.400422 -0.832588 0 128 0
0.360211 -2.19611 0.744136 0.767564 0.602395 -0.21901 0 128 0
0.909892 -0.524485 0.666374 -0.626969 0.766448 0.139522 0 128 0
0.552824 -0.748038 -0.104654 -0.559972 0.800489 0.213655 0 128 0
0.577123 -0.581816 -0.104497 -0.566036 0.801901 0.191203 0 128 0
0.713498 -0.501686 -0.11707 -0.566036 0.801901 0.191203 0 128 0
0.701247 -0.513101 -0.115163 -0.566036 0.801901 0.191203 0 128 0
-0.126804 -2.14239 0.0246669 0.953224 -0.132697 -0.271578 0 128 0
0.5833 -0.741548 0.0485042 -0.559972 0.800489 0.213655 0 128 0
0.743558 -0.503065 0.0391347 -0.566036 0.801901 0.191203 0 128 0
0.00938688 -2.11166 0.456217 -0.0457786 0.998016 0.0432201 0 128 0
0.927619 -0.560929 0.260474 -0.626969 0.766448 0.139522 0 128 0
0.603803 -0.598024 0.0102267 -0.566036 0.801901 0.191203 0 128 0
0.625846 -0.735696 0.247494 -0.601037 0.781723 0.166324 0 128 0
0.636643 -0.641743 0.27088 -0.626969 0.766448 0.139522 0 128 0
0.738277 -0.534714 0.283663 -0.626969 0.766448 0.139522 0 128 0
0.718693 -0.579553 0.435484 -0.626969 0.766448 0.139522 0 128 0
0.699914 -0.76306 0.450844 -0.626969 0.766448 0.139522 0 128 0
0.658603 -0.638432 0.40226 -0.626969 0.766448 0.139522 0 128 0
0.768125 -0.501192 0.268538 -0.626969 0.766448 0.139522 0 128 0
0.733376 -0.522281 0.0453103 -0.566036 0.801901 0.191203 0 128 0
0.233527 -2.0859 0.507003 0.792274 0.569186 -0.21984 0 128 0
-0.051371 -2.04711 0.0444227 0.838386 0.49285 -0.232823 0 128 0
-0.107721 -2.18017 0.208065 0.874937 -0.4073 -0.261901 0 128 0
0.670581 -0.753928 0.36447 -0.626969 0.766448 0.139522 0 128 0
-0.231991 0.78611 0.751976 0.966426 -0.219506 -0.13356 0 128 0
-0.218861 0.774903 0.737817 0.966426 -0.219506 -0.13356 0 128 0
-0.213094 0.794016 0.754555 0.966426 -0.219506 -0.13356 0 128 0
-0.204613 0.802672 0.760757 0.952714 -0.284718 -0.106167 0 128 0
-0.196524 0.814031 0.769768 0.952714 -0.284718 -0.106167 0 128 0
0.0865215 0.796714 0.735953 -0.197741 -0.970658 0.136824 0 128 0
0.0940117 0.779882 0.720474 -0.197741 -0.970658 0.136824 0 128 0
0.102851 0.773566 0.715489 -0.197741 -0.970658 0.136824 0 128 0
0.112303 0.771375 0.714698 -0.197741 -0.970658 0.136824 0 128 0
0.12252 0.773285 0.718105 -0.197741 -0.970658 0.136824 0 128 0
0.13067 0.764548 0.711025 -0.197741 -0.970658 0.136824 0 128 0
0.135465 0.741045 0.689273 -0.197741 -0.970658 0.136824 0 128 0
0.144482 0.73846 0.68849 -0.148112 -0.97199 0.18248 0 128 0
0.156141 0.746893 0.698888 -0.197741 -0.970658 0.136824 0 128 0
0.169791 0.762089 0.71627 -0.197741 -0.970658 0.136824 0 128 0
0.180513 0.764621 0.721075 -0.197741 -0.970658 0.136824 0 128 0
0.191904 0.769074 0.727977 0.196668 0.970804 -0.137336 0 128 0
0.220784 0.762355 0.729124 0.196668 0.970804 -0.137336 0 128 0
0.223873 0.740408 0.709494 -0.148112 -0.97199 0.18248 0 128 0
0.241248 0.761112 0.73385 0.196668 0.970804 -0.137336 0 128 0
-0.234041 0.765438 0.697653 0.97016 -0.186785 -0.154597 0 128 0
-0.225462 0.771604 0.700969 0.966426 -0.219506 -0.13356 0 128 0
-0.217998 0.782621 0.709083 0.966426 -0.219506 -0.13356 0 128 0
-0.208118 0.784361 0.708284 0.952714 -0.284718 -0.106167 0 128 0
0.177574 0.781409 0.700882 -0.197741 -0.970658 0.136824 0 128 0
0.191096 0.7204 0.64882 -0.159197 -0.978766 0.129124 0 128 0
0.241716 0.78537 0.72014 0.196668 0.970804 -0.137336 0 128 0
-0.249296 0.786027 0.678494 0.97016 -0.186785 -0.154597 0 128 0
-0.233776 0.767192 0.658441 0.973031 -0.193208 -0.126024 0 128 0
-0.226997 0.780697 0.668295 0.966426 -0.219506 -0.13356 0 128 0
-0.224105 0.811597 0.694091 0.966426 -0.219506 -0.13356 0 128 0
-0.216186 0.823593 0.702608 0.952714 -0.284718 -0.106167 0 128 0
0.185239 0.732294 0.619649 -0.183462 -0.979199 0.0866612 0 128 0
0.193452 0.726909 0.616928 -0.119275 -0.988726 0.0905182 0 128 0
0.20625 0.736491 0.628075 -0.131856 -0.986247 0.0996544 0 128 0
-0.259716 0.785499 0.647198 0.971281 -0.192949 -0.139228 0 128 0
-0.239005 0.750343 0.61344 0.738346 -0.674119 0.0202086 0 128 0
-0.230286 0.755247 0.615269 0.738346 -0.674119 0.0202086 0 128 0
-0.221673 0.760788 0.617746 0.832759 -0.55362 0.00414793 0 128 0
-0.22545 0.816578 0.664191 0.966426 -0.219506 -0.13356 0 128 0
0.176992 0.735584 0.589766 0.73823 0.674501 -0.00803689 0 128 0
0.185493 0.730959 0.587757 0.73823 0.674501 -0.00803689 0 128 0
0.194122 0.726973 0.586393 0.73823 0.674501 -0.00803689 0 128 0
-0.255524 0.751548 0.58234 -0.571657 0.812217 0.116243 0 128 0
-0.247042 0.757445 0.584728 -0.473645 0.87703 0.0804859 0 128 0
-0.239276 0.76626 0.589615 0.35658 -0.933243 -0.043688 0 128 0
-0.232903 0.781044 0.5995 -0.534626 0.84369 -0.0486078 0 128 0
-0.227327 0.800337 0.613131 0.908711 -0.417308 0.00990917 0 128 0
0.173033 0.742844 0.559782 0.567009 0.823519 0.0177929 0 128 0
0.18077 0.735191 0.555355 0.567009 0.823519 0.0177929 0 128 0
0.187474 0.724448 0.548447 0.86915 0.45021 -0.204668 0 128 0
-0.259942 0.754634 0.556269 -0.375336 0.902513 0.21117 0 128 0
-0.250787 0.758342 0.556764 0.396247 -0.898832 -0.18732 0 128 0
-0.243331 0.768053 0.562111 -0.471253 0.86885 0.151725 0 128 0
-0.242588 0.803005 0.587474 -0.676154 0.736758 0.0018148 0 128 0
-0.234818 0.814204 0.594027 0.707334 -0.706641 -0.0183392 0 128 0
0.16291 0.754048 0.537911 0.787846 0.589148 -0.179452 0 128 0
0.169333 0.740192 0.528792 0.788259 0.580742 -0.203436 0 128 0
0.178508 0.737869 0.52871 0.86915 0.45021 -0.204668 0 128 0
-0.275595 0.766123 0.534652 -0.395576 0.864961 0.308807 0 128 0
-0.265593 0.767706 0.533368 -0.315984 0.910175 0.267835 0 128 0
-0.257192 0.774611 0.536174 -0.315984 0.910175 0.267835 0 128 0
-0.247125 0.775957 0.534891 0.166154 -0.939355 -0.300007 0 128 0
-0.237481 0.77874 0.534776 0.168346 -0.941184 -0.292971 0 128 0
-0.227004 0.778261 0.532324 0.0575987 -0.920149 -0.387308 0 128 0
-0.217523 0.781587 0.532795 -0.0376075 0.915415 0.400752 0 128 0
-0.206185 0.776884 0.527426 0.0377468 0.85764 0.512863 0 128 0
-0.196704 0.779958 0.527898 0.0153619 0.926225 0.376658 0 128 0
-0.186529 0.779736 0.526035 0.0550473 0.912229 0.405966 0 128 0
-0.176389 0.779383 0.524172 0.0804341 0.918514 0.38712 0 128 0
-0.166281 0.778899 0.522311 0.133166 0.955829 0.262026 0 128 0
-0.157002 0.783094 0.523952 0.133166 0.955829 0.262026 0 128 0
-0.145811 0.775134 0.516844 0.113877 0.990021 0.0830044 0 128 0
-0.137531 0.786327 0.523733 0.113877 0.990021 0.0830044 0 128 0
-0.127152 0.782929 0.520126 0.122765 0.986938 0.104315 0 128 0
0.162073 0.799988 0.537572 0.659244 0.736079 -0.153573 0 128 0
0.160166 0.749485 0.502101 0.776283 0.572505 -0.263861 0 128 0
0.170473 0.751214 0.504917 0.776283 0.572505 -0.263861 0 128 0
0.180637 0.752019 0.507153 0.776283 0.572505 -0.263861 0 128 0
-0.285565 0.770958 0.511974 -0.45139 0.790429 0.414088 0 128 0
-0.274189 0.768723 0.507899 -0.382811 0.831189 0.403213 0 128 0
-0.264875 0.772624 0.508348 -0.382811 0.831189 0.403213 0 128 0
-0.257867 0.784318 0.51445 -0.255595 0.872853 0.415691 0 128 0
-0.25129 0.798337 0.522245 -0.255595 0.872853 0.415691 0 128 0
-0.235732 0.780471 0.507437 0.186496 -0.882299 -0.432167 0 128 0
-0.228517 0.792697 0.5141 -0.0670201 0.876738 0.476275 0 128 0
-0.21847 0.794448 0.51342 -0.0259302 0.891085 0.453094 0 128 0
-0.208224 0.79527 0.512176 0.0609765 0.905415 0.420126 0 128 0
-0.195857 0.786287 0.504157 0.0554589 0.949616 0.308469 0 128 0
-0.187262 0.794097 0.507996 0.0743229 0.94526 0.317741 0 128 0
-0.175187 0.784797 0.499982 0.138633 0.961361 0.237837 0 128 0
-0.16529 0.785882 0.499307 0.101528 0.987264 0.122483 0 128 0
-0.154423 0.781144 0.494684 0.113877 0.990021 0.0830044 0 128 0
-0.144591 0.781969 0.494011 0.110114 0.992294 0.0568057 0 128 0
-0.134287 0.779403 0.491082 0.122765 0.986938 0.104315 0 128 0
-0.114517 0.778792 0.488614 -0.0942147 0.894184 -0.437673 0 128 0
-0.103788 0.770087 0.481745 -0.0908252 0.913092 -0.397509 0 128 0
-0.0938327 0.766994 0.478824 -0.110011 0.881898 -0.458425 0 128 0
-0.0849175 0.775302 0.48379 -0.0782276 0.946097 -0.314294 0 128 0
-0.0745956 0.766199 0.476928 -0.123381 0.883192 -0.452492 0 128 0
-0.0652713 0.77016 0.479079 -0.126426 0.858679 -0.496676 0 128 0
-0.0557835 0.772357 0.480103 -0.126426 0.858679 -0.496676 0 128 0
-0.0462216 0.773613 0.480564 -0.164366 0.715904 -0.678575 0 128 0
-0.0366525 0.775579 0.481589 -0.17561 0.695649 -0.696587 0 128 0
-0.0270103 0.774121 0.480363 -0.184416 0.618745 -0.76364 0 128 0
-0.0174122 0.770891 0.478014 -0.188648 0.572856 -0.797652 0 128 0
-0.00785633 0.770023 0.477353 -0.188648 0.572856 -0.797652 0 128 0
0.00170104 0.769865 0.477255 -0.184447 0.567041 -0.802773 0 128 0
0.011586 0.777853 0.482781 -0.183159 0.582315 -0.792062 0 128 0
0.0222727 0.797278 0.496175 -0.146188 0.672413 -0.725596 0 128 0
0.156594 0.81257 0.516824 0.609759 0.769897 -0.18829 0 128 0
0.151816 0.744995 0.471307 0.430902 0.862042 -0.266845 0 128 0
0.163565 0.753345 0.478512 0.630317 0.728397 -0.268586 0 128 0
0.171484 0.745466 0.474504 0.704543 0.653084 -0.277671 0 128 0
-0.292904 0.772166 0.482754 -0.580195 0.727402 0.366416 0 128 0
-0.279648 0.764325 0.475041 -0.580195 0.727402 0.366416 0 128 0
-0.276667 0.788348 0.489028 -0.510539 0.763701 0.39511 0 128 0
-0.266865 0.791488 0.488909 -0.409977 0.824106 0.390855 0 128 0
-0.260958 0.808241 0.498008 -0.312244 0.876196 0.36713 0 128 0
-0.0237722 0.820626 0.480253 -0.184416 0.618745 -0.76364 0 128 0
-0.0140918 0.786983 0.45857 -0.188648 0.572856 -0.797652 0 128 0
-0.00432456 0.786897 0.45847 -0.184447 0.567041 -0.802773 0 128 0
0.00534173 0.784167 0.456753 -0.197426 0.566273 -0.800223 0 128 0
0.014943 0.78132 0.455037 -0.188077 0.59412 -0.78208 0 128 0
0.0245315 0.779197 0.453862 -0.138423 0.7039 -0.696681 0 128 0
0.0334977 0.769398 0.447836 -0.127871 0.723279 -0.678613 0 128 0
0.0406729 0.741876 0.430499 -0.0543464 0.88772 -0.457164 0 128 0
0.0521638 0.763752 0.444953 -0.0273688 0.907295 -0.419603 0 128 0
0.0620206 0.766202 0.447015 0.0152978 0.92167 -0.387673 0 128 0
0.0708984 0.760166 0.443692 0.070085 0.93455 -0.348863 0 128 0
0.0811369 0.764882 0.447369 0.131935 0.95891 -0.251167 0 128 0
0.0907519 0.764461 0.447817 0.167822 0.970305 -0.174194 0 128 0
0.100235 0.76309 0.447726 0.175729 0.97643 -0.125318 0 128 0
0.110576 0.766583 0.450867 0.173936 0.979048 -0.105884 0 128 0
0.123356 0.782365 0.462076 0.276261 0.905234 -0.322849 0 128 0
0.141324 0.772109 0.457593 0.335571 0.914379 -0.226502 0 128 0
0.14513 0.744625 0.440835 0.306051 0.944463 -0.119678 0 128 0
0.154759 0.744227 0.441827 0.3502 0.929408 -0.116453 0 128 0
-0.298382 0.777773 0.460735 0.80405 -0.517546 -0.292659 0 128 0
-0.287884 0.778754 0.459048 0.80405 -0.517546 -0.292659 0 128 0
-0.281363 0.791757 0.465202 0.739607 -0.595914 -0.312837 0 128 0
-0.272279 0.797394 0.466652 -0.531448 0.767287 0.358934 0 128 0
-0.265535 0.811098 0.473324 -0.476925 0.801106 0.361625 0 128 0
0.0807449 0.783333 0.433716 0.0815178 0.927855 -0.363922 0 128 0
0.0892838 0.773613 0.428438 0.136373 0.957978 -0.252349 0 128 0
0.0984968 0.76972 0.426791 0.14881 0.978776 -0.140901 0 128 0
0.107215 0.763187 0.42359 -0.142512 -0.983247 0.113643 0 128 0
0.115344 0.754031 0.418837 -0.15853 -0.973663 0.163855 0 128 0
0.12295 0.74311 0.41305 -0.299619 -0.94179 0.152512 0 128 0
0.134373 0.75224 0.419699 -0.299619 -0.94179 0.152512 0 128 0
0.142089 0.742804 0.414952 0.347617 0.925569 -0.149949 0 128 0
0.154342 0.754146 0.423154 0.342363 0.924366 -0.168333 0 128 0
-0.316523 0.79596 0.444631 0.910866 -0.318226 -0.262783 0 128 0
-0.298978 0.777477 0.431023 0.918784 -0.310292 -0.24404 0 128 0
-0.292309 0.78993 0.436397 0.910866 -0.318226 -0.262783 0 128 0
-0.281956 0.791604 0.435278 0.910866 -0.318226 -0.262783 0 128 0
-0.276916 0.810549 0.444642 0.865378 -0.381897 -0.324463 0 128 0
0.126848 0.768377 0.400623 0.246518 0.956698 -0.154784 0 128 0
0.133365 0.752092 0.392128 -0.336823 -0.927264 0.163498 0 128 0
0.139506 0.735763 0.383636 -0.336823 -0.927264 0.163498 0 128 0
-0.30575 0.769906 0.403432 0.939503 -0.230094 -0.253754 0 128 0
-0.291797 0.760974 0.396127 0.928371 -0.276485 -0.248361 0 128 0
-0.293569 0.797554 0.415171 0.936218 -0.240985 -0.255778 0 128 0
-0.283649 0.800891 0.41505 0.932372 -0.246702 -0.264236 0 128 0
-0.27812 0.818359 0.423069 0.931342 -0.248157 -0.266498 0 128 0
0.123105 0.74016 0.361677 -0.441558 -0.88544 0.144993 0 128 0
0.129142 0.72285 0.353058 -0.478299 -0.860036 0.177674 0 128 0
-0.312958 0.776268 0.380473 0.942071 -0.228294 -0.245732 0 128 0
-0.307415 0.791603 0.386732 0.942085 -0.228164 -0.245798 0 128 0
-0.297848 0.795951 0.387066 0.938923 -0.231638 -0.254496 0 128 0
-0.292872 0.814589 0.39514 0.938923 -0.231638 -0.254496 0 128 0
0.111584 0.755153 0.343297 -0.585069 -0.789192 0.186735 0 128 0
0.122136 0.759651 0.346364 -0.552266 -0.81446 0.177923 0 128 0
0.127989 0.740388 0.337267 0.692009 0.700852 -0.173001 0 128 0
-0.319789 0.778461 0.358649 0.932193 -0.202875 -0.299763 0 128 0
-0.309169 0.779577 0.357224 0.932193 -0.202875 -0.299763 0 128 0
-0.302153 0.790748 0.361015 0.932193 -0.202875 -0.299763 0 128 0
-0.299521 0.815518 0.371752 0.942485 -0.207732 -0.261859 0 128 0
-0.298269 0.846342 0.385522 0.939986 -0.209618 -0.269232 0 128 0
0.105477 0.747007 0.316936 0.888348 0.416859 -0.192528 0 128 0
0.112539 0.732992 0.310836 0.922126 0.325082 -0.209773 0 128 0
0.123166 0.739322 0.314615 0.89332 0.402555 -0.19982 0 128 0
-0.330501 0.784916 0.33691 0.976748 -0.130614 -0.170012 0 128 0
-0.316944 0.77843 0.331862 0.980291 -0.160204 -0.115606 0 128 0
-0.314259 0.801814 0.341181 0.962884 -0.147608 -0.22598 0 128 0
-0.307514 0.814891 0.345571 0.956542 -0.204934 -0.207433 0 128 0
-0.306448 0.846129 0.358572 0.923517 -0.24791 -0.292673 0 128 0
0.102034 0.772215 0.304088 0.891844 0.412533 -0.185554 0 128 0
0.105145 0.73377 0.287376 0.933663 0.271197 -0.233935 0 128 0
0.113418 0.727711 0.285264 0.933663 0.271197 -0.233935 0 128 0
-0.329291 0.775089 0.309549 0.0388378 0.998975 0.0232498 0 128 0
-0.31815 0.804999 0.319419 0.9383 -0.334121 -0.0891995 0 128 0
-0.311183 0.817318 0.323183 0.967786 -0.229827 -0.102809 0 128 0
0.0944545 0.734848 0.266746 0.87708 0.416145 -0.239905 0 128 0
0.103134 0.730677 0.265509 0.87708 0.416145 -0.239905 0 128 0
0.109131 0.71186 0.258133 0.917442 0.318564 -0.238362 0 128 0
-0.345118 0.785886 0.291064 -0.55517 0.801886 0.220829 0 128 0
-0.331975 0.781156 0.287292 -0.0608554 -0.993275 -0.0984922 0 128 0
-0.327763 0.799785 0.293371 0.257542 -0.955682 -0.142629 0 128 0
-0.322828 0.817553 0.299081 0.890648 -0.425083 -0.161405 0 128 0
-0.316594 0.832679 0.303693 -0.66722 0.740369 0.0816766 0 128 0
0.0874668 0.756541 0.252706 0.7562 0.614016 -0.226154 0 128 0
0.0933373 0.73307 0.243987 0.799994 0.562599 -0.20855 0 128 0
0.102924 0.734402 0.244979 0.799203 0.565204 -0.204495 0 128 0
-0.34354 0.782668 0.267347 0.0485069 0.997691 0.0475345 0 128 0
-0.325654 0.794806 0.268816 -0.0438978 0.996268 0.074313 0 128 0
-0.312533 0.789695 0.265266 0.0682393 0.993535 0.0907286 0 128 0
-0.29865 0.781724 0.26069 0.0437708 0.999032 -0.00438378 0 128 0
-0.288912 0.785105 0.260571 0.0998401 0.994216 -0.0395779 0 128 0
-0.280582 0.792836 0.262165 0.0891536 0.9956 0.0288427 0 128 0
-0.264582 0.776253 0.254516 0.240603 0.912071 0.332018 0 128 0
-0.254646 0.778315 0.254057 0.231876 0.951639 0.201536 0 128 0
-0.246492 0.786581 0.255993 0.0473803 0.935177 -0.350998 0 128 0
-0.242588 0.811093 0.264082 0.0447941 0.957388 -0.28531 0 128 0
-0.212213 0.818796 0.263725 -0.218993 0.510369 -0.831604 0 128 0
0.0876514 0.752001 0.231044 0.731231 0.660779 -0.169333 0 128 0
0.0972826 0.752501 0.231631 0.801995 0.562427 -0.201195 0 128 0
0.1091 0.76588 0.236944 0.801995 0.562427 -0.201195 0 128 0
-0.365843 0.80178 0.252334 -0.189824 0.971748 0.140258 0 128 0
-0.34203 0.800348 0.248577 0.0116779 0.999321 0.0349444 0 128 0
-0.334725 0.811359 0.251 0.0181836 0.999479 0.0266527 0 128 0
-0.312985 0.848525 0.259849 0.00562136 -0.998499 -0.0544773 0 128 0
-0.291723 0.81867 0.247956 0.080377 0.99619 -0.0338297 0 128 0
-0.274019 0.79749 0.239251 0.109513 0.961314 -0.252748 0 128 0
-0.268897 0.816942 0.24485 0.154928 0.978692 -0.134755 0 128 0
-0.253098 0.799866 0.237742 -0.173381 0.496585 -0.850495 0 128 0
-0.24314 0.802685 0.237624 -0.038244 0.783619 -0.620064 0 128 0
-0.224275 0.770454 0.225449 -0.272654 0.0557426 -0.960496 0 128 0
-0.214013 0.770153 0.224385 -0.272654 0.0557426 -0.960496 0 128 0
-0.196598 0.783059 0.227014 -0.28964 0.0150066 -0.957018 0 128 0
-0.163805 0.769459 0.220031 -0.265415 0.142613 -0.953528 0 128 0
-0.153764 0.768373 0.218974 -0.257769 0.155571 -0.9536 0 128 0
-0.144199 0.769973 0.218866 -0.257769 0.155571 -0.9536 0 128 0
-0.134483 0.770515 0.218443 -0.247464 0.17907 -0.952206 0 128 0
-0.124893 0.771878 0.218337 -0.229587 0.338578 -0.912499 0 128 0
-0.113129 0.75427 0.211913 -0.209131 0.414408 -0.885737 0 128 0
0.0762268 0.759944 0.211848 0.494109 0.868101 -0.047503 0 128 0
0.0837739 0.745563 0.20737 0.505099 0.860884 -0.0612688 0 128 0
0.0923065 0.739556 0.205716 0.627529 0.772436 -0.0977238 0 128 0
-0.355424 0.783529 0.223441 -0.0179374 0.996272 0.0843765 0 128 0
-0.344929 0.814666 0.230896 -0.00409234 0.955223 0.295857 0 128 0
-0.335798 0.821289 0.231658 0.0384523 0.959682 0.278445 0 128 0
-0.157362 0.806878 0.210853 -0.273565 0.0503651 -0.960534 0 128 0
-0.143219 0.78207 0.202513 -0.247464 0.17907 -0.952206 0 128 0
-0.131461 0.769342 0.197999 -0.229587 0.338578 -0.912499 0 128 0
-0.122377 0.774458 0.199067 -0.223894 0.378295 -0.898201 0 128 0
-0.113296 0.780416 0.200428 -0.209131 0.414408 -0.885737 0 128 0
0.0780261 0.751201 0.18969 0.452357 0.887723 -0.0855673 0 128 0
0.0865641 0.744269 0.187854 0.452357 0.887723 -0.0855673 0 128 0
-0.36869 0.803307 0.207017 -0.518927 0.722275 0.457202 0 128 0
-0.348896 0.783469 0.199548 -0.0858477 0.916963 0.389626 0 128 0
-0.350725 0.817025 0.208394 0.807244 -0.355307 -0.47129 0 128 0
0.0177412 0.767534 0.17291 -0.310284 -0.948736 0.0601976 0 128 0
0.0274816 0.769907 0.173615 -0.2995 -0.952829 0.049156 0 128 0
0.0378999 0.779844 0.176458 0.471249 0.874674 -0.113447 0 128 0
0.0475946 0.779086 0.176362 0.423481 0.898639 -0.114507 0 128 0
0.0549723 0.756161 0.170131 0.480828 0.868478 -0.120626 0 128 0
0.0631431 0.744664 0.167106 0.480828 0.868478 -0.120626 0 128 0
0.0730236 0.748376 0.168349 0.455187 0.881744 -0.123821 0 128 0
0.08233 0.747189 0.168259 0.455187 0.881744 -0.123821 0 128 0
-0.356728 0.814558 0.186526 -0.165463 0.915457 0.366825 0 128 0
0.0315574 0.76202 0.152513 0.510026 0.850768 -0.126757 0 128 0
0.0403482 0.752637 0.150221 0.510026 0.850768 -0.126757 0 128 0
0.0518273 0.775025 0.155988 0.492473 0.863472 -0.109024 0 128 0
0.0594628 0.754801 0.151013 0.510026 0.850768 -0.126757 0 128 0
0.0688502 0.753776 0.150921 0.510026 0.850768 -0.126757 0 128 0
0.0779771 0.750713 0.150344 0.505882 0.852325 -0.13276 0 128 0
-0.36033 0.807026 0.162024 -0.0858477 0.916963 0.389626 0 128 0
-0.365803 0.882555 0.178359 0.00672739 0.974396 0.224737 0 128 0
0.054107 0.761587 0.132501 0.580818 0.801915 -0.139937 0 128 0
0.0623519 0.749964 0.129998 0.580818 0.801915 -0.139937 0 128 0
0.072422 0.754709 0.131222 0.539261 0.825603 -0.166064 0 128 0
-0.365712 0.779928 0.13655 0.661405 0.723829 -0.196507 0 128 0
-0.365069 0.834439 0.146593 0.545957 0.815192 -0.193371 0 128 0
-0.368305 0.873249 0.154123 0.458283 -0.700075 -0.547605 0 128 0
0.0514991 0.772706 0.116453 -0.60018 -0.775685 0.195183 0 128 0
0.0584836 0.746416 0.111249 -0.604885 -0.773683 0.188491 0 128 0
0.0676581 0.744426 0.110963 0.691048 0.692544 -0.206967 0 128 0
0.0438997 0.768833 0.0958517 0.716791 0.679724 -0.155519 0 128 0
0.0507915 0.741527 0.0911226 0.854478 0.469278 -0.222813 0 128 0
0.0601317 0.741581 0.0912039 0.854478 0.469278 -0.222813 0 128 0
-0.305907 0.581828 0.0627845 0.247254 0.903287 0.350625 0 128 0
0.0404434 0.758361 0.076066 0.958412 0.188428 -0.21434 0 128 0
0.0465706 0.721121 0.0704718 0.95246 0.199923 -0.229893 0 128 0
0.0570742 0.735003 0.0726116 0.95246 0.199923 -0.229893 0 128 0
0.0337995 0.778093 0.0596171 0.946137 0.206177 -0.249631 0 128 0
0.0392626 0.728931 0.0534457 0.957684 0.168128 -0.233613 0 128 0
0.0478496 0.723207 0.0527368 0.957684 0.168128 -0.233613 0 128 0
0.0299476 0.744736 0.0380822 0.952354 0.192122 -0.236877 0 128 0
0.0481266 0.739307 0.0374967 0.954083 0.148975 -0.259869 0 128 0
0.0234458 0.780481 0.0224901 0.969394 0.0359826 -0.24286 0 128 0
0.0268542 0.694362 0.0158548 0.964406 0.0626123 -0.256906 0 128 0
0.035426 0.69273 0.0156931 0.964406 0.0626123 -0.256906 0 128 0
-0.402546 0.78082 0.0139565 0.117314 0.983408 0.13837 0 128 0
-0.395334 0.790871 0.0141802 0.368657 0.914604 -0.166108 0 128 0
-0.41501 0.920855 0.021151 0.85476 0.378268 -0.355386 0 128 0
-0.405809 0.931168 0.0213527 0.846781 0.429772 -0.31346 0 128 0
0.019766 0.735085 0.00207002 0.977143 -0.0325429 -0.210076 0 128 0
-0.438811 0.807157 -0.00562163 0.753116 0.193865 -0.628675 0 128 0
-0.403608 0.785557 -0.0070622 -0.0728341 0.914184 0.398701 0 128 0
-0.396301 0.795642 -0.00698827 0.0225839 0.931778 0.362325 0 128 0
-0.348059 0.792676 -0.00822211 -0.0343637 -0.527876 -0.848626 0 128 0
-0.343212 0.809679 -0.0078874 -0.0343637 -0.527876 -0.848626 0 128 0
-0.33765 0.825746 -0.00758921 -0.0343637 -0.527876 -0.848626 0 128 0
0.0128059 0.77794 -0.0145314 0.938378 0.234745 -0.253657 0 128 0
0.0403177 0.758231 -0.0153217 0.9765 -0.028348 -0.213646 0 128 0
-0.391767 0.895438 -0.0269912 0.778461 0.2235 -0.586555 0 128 0
-0.345289 0.810655 -0.0280229 -0.0140336 -0.697667 -0.716284 0 128 0
-0.326975 0.793082 -0.0283593 0.0553243 0.96212 0.266953 0 128 0
-0.318457 0.800528 -0.0284459 0.0803575 0.851498 0.518164 0 128 0
-0.298799 0.776775 -0.0288259 -0.0459071 0.923955 -0.379735 0 128 0
-0.288781 0.779175 -0.0289531 -0.277902 -0.0279418 -0.960203 0 128 0
-0.279986 0.785251 -0.0290457 -0.277902 -0.0279418 -0.960203 0 128 0
-0.256336 0.77795 -0.0293982 -0.251162 0.0351499 -0.967307 0 128 0
-0.253504 0.804811 -0.0293102 -0.251162 0.0351499 -0.967307 0 128 0
-0.253994 0.846189 -0.0291085 -0.264808 -0.14858 -0.952786 0 128 0
0.00968406 0.72156 -0.0327885 0.93697 0.11876 -0.328609 0 128 0
-0.433726 0.795639 -0.0482829 0.578685 -0.662014 -0.476299 0 128 0
-0.416746 0.786272 -0.0481855 -0.234917 0.900721 0.365398 0 128 0
-0.423655 0.826287 -0.0488739 0.831523 -0.250177 -0.495965 0 128 0
-0.417102 0.839336 -0.0491379 0.724174 -0.417496 -0.54888 0 128 0
-0.275903 0.809292 -0.0493388 -0.27407 -0.0127659 -0.961625 0 128 0
-0.257686 0.784519 -0.0489896 -0.251162 0.0351499 -0.967307 0 128 0
-0.249237 0.792174 -0.0491881 -0.251162 0.0351499 -0.967307 0 128 0
-0.239354 0.794909 -0.0493052 -0.251162 0.0351499 -0.967307 0 128 0
-0.22895 0.795583 -0.0493887 -0.2385 0.0569007 -0.969474 0 128 0
-0.214839 0.780566 -0.049203 -0.243835 -0.0186702 -0.969637 0 128 0
-0.207971 0.795558 -0.0495361 -0.244511 0.0645169 -0.967498 0 128 0
-0.194501 0.781163 -0.0493609 -0.244511 0.0645169 -0.967498 0 128 0
-0.183577 0.777345 -0.0493697 -0.238358 0.103877 -0.965606 0 128 0
-0.173142 0.775346 -0.0494111 -0.255812 -0.158735 -0.953606 0 128 0
0.00194939 0.759487 -0.050716 -0.12587 0.914143 0.385356 0 128 0
0.029603 0.748132 -0.0508005 0.968707 -0.0501574 -0.243086 0 128 0
-0.431633 0.787401 -0.0686861 0.877354 -0.282306 -0.388011 0 128 0
-0.421794 0.792372 -0.0688151 0.832514 -0.36253 -0.418917 0 128 0
-0.427148 0.828695 -0.0702682 0.899636 -0.20136 -0.38744 0 128 0
-0.421475 0.843558 -0.0708199 0.893137 -0.230168 -0.38643 0 128 0
-0.201195 0.805994 -0.0688886 -0.244511 0.0645169 -0.967498 0 128 0
-0.184609 0.776837 -0.0677031 -0.238358 0.103877 -0.965606 0 128 0
-0.174149 0.774856 -0.0676507 -0.247297 -0.118511 -0.961665 0 128 0
-0.166285 0.786497 -0.0681698 -0.233835 0.157162 -0.95949 0 128 0
-0.1553 0.781318 -0.067993 -0.242809 0.0388239 -0.969297 0 128 0
-0.145869 0.784872 -0.0681847 -0.260286 -0.280371 -0.923928 0 128 0
-0.135506 0.782382 -0.0681284 -0.266784 -0.232733 -0.935233 0 128 0
-0.125487 0.78174 -0.0681535 -0.248362 0.00854782 -0.96863 0 128 0
-0.116219 0.786923 -0.0684273 -0.248362 0.00854782 -0.96863 0 128 0
-0.104369 0.76915 -0.0677415 -0.232585 0.19162 -0.953513 0 128 0
-0.0986811 0.810885 -0.0695626 -0.221289 0.181769 -0.958119 0 128 0
0.000784509 0.747217 -0.0677339 0.590258 0.806595 -0.0316139 0 128 0
-0.451331 0.804933 -0.0916208 0.95074 -0.173666 -0.256776 0 128 0
-0.440373 0.80836 -0.091629 0.95074 -0.173666 -0.256776 0 128 0
-0.428955 0.810746 -0.0915743 0.949643 -0.149638 -0.275295 0 128 0
-0.431682 0.842722 -0.0935811 0.931297 -0.189731 -0.310948 0 128 0
-0.430343 0.867632 -0.0950953 0.931124 -0.195571 -0.307833 0 128 0
-0.124533 0.781593 -0.0872465 -0.248362 0.00854782 -0.96863 0 128 0
-0.114227 0.777835 -0.0870224 -0.247626 0.0370352 -0.968147 0 128 0
-0.10403 0.773946 -0.0867964 -0.251548 0.116607 -0.960795 0 128 0
-0.0936792 0.766945 -0.086369 -0.208075 0.40804 -0.888937 0 128 0
-0.0841905 0.768763 -0.0865389 -0.178015 0.331453 -0.926525 0 128 0
-0.074542 0.768474 -0.0865749 -0.1948 0.343636 -0.918677 0 128 0
-0.0650623 0.771055 -0.0868108 0.154205 0.975324 -0.157999 0 128 0
-0.0551414 0.763552 -0.0863762 0.11278 0.95329 -0.280211 0 128 0
-0.0459642 0.776869 -0.0873497 0.13177 0.987858 -0.0823043 0 128 0
-0.036282 0.777105 -0.0874509 0.0491278 0.962634 -0.266311 0 128 0
-0.0266306 0.795183 -0.0887653 0.0567585 0.992229 -0.110723 0 128 0
-0.00695614 0.789074 -0.0885629 -0.0964128 0.882187 0.460923 0 128 0
-0.000233489 0.70009 -0.0826279 0.23067 0.934099 0.272491 0 128 0
0.00845565 0.698777 -0.0826483 0.935996 -0.0184836 -0.351525 0 128 0
0.021628 0.773045 -0.0878401 0.572947 -0.641221 -0.510457 0 128 0
0.0321173 0.784394 -0.0887543 0.577118 -0.757 -0.306408 0 128 0
-0.454664 0.806179 -0.113191 0.941891 -0.157031 -0.296954 0 128 0
-0.439106 0.8008 -0.112295 0.94079 -0.155019 -0.301467 0 128 0
-0.437127 0.821893 -0.113973 0.941359 -0.179482 -0.285707 0 128 0
-0.435996 0.845745 -0.115914 0.94107 -0.174338 -0.289818 0 128 0
-0.439005 0.87961 -0.11881 0.928274 -0.217891 -0.301381 0 128 0
-0.0571077 0.781242 -0.105856 0.29781 0.879096 0.372156 0 128 0
-0.0475762 0.787585 -0.106503 0.210007 0.939721 0.269854 0 128 0
-0.0373619 0.769917 -0.10497 0.136 0.959578 0.2464 0 128 0
-0.0273066 0.72424 -0.100883 -0.372342 -0.736527 -0.564704 0 128 0
-0.0181752 0.766076 -0.104804 0.0717732 0.988413 0.133746 0 128 0
-0.00865536 0.763979 -0.104719 -0.151061 -0.901325 -0.405948 0 128 0
0.000252474 0.740862 -0.102714 0.147955 0.763369 0.62879 0 128 0
0.0083221 0.710682 -0.100062 0.704929 -0.569575 -0.422681 0 128 0
0.0200536 0.765947 -0.105283 0.393593 -0.591922 -0.703358 0 128 0
0.029598 0.765372 -0.105379 0.626172 -0.558253 -0.5443 0 128 0
0.0414769 0.79546 -0.108321 0.518449 -0.774015 -0.363471 0 128 0
0.0549794 0.835288 -0.112191 0.467387 -0.858501 -0.211009 0 128 0
-0.479168 0.832056 -0.139081 0.934792 -0.140916 -0.326046 0 128 0
-0.446244 0.79442 -0.133827 0.944091 -0.195154 -0.265721 0 128 0
-0.443046 0.812863 -0.13561 0.953386 -0.154081 -0.259449 0 128 0
-0.439459 0.831346 -0.137399 0.948813 -0.219716 -0.226889 0 128 0
-0.436334 0.851659 -0.139412 0.942239 -0.19319 -0.273613 0 128 0
-0.00779229 0.762813 -0.123117 0.108721 0.993888 0.0191449 0 128 0
0.001717 0.762579 -0.123213 0.108721 0.993888 0.0191449 0 128 0
0.0117821 0.774133 -0.1247 0.598259 -0.774869 -0.204116 0 128 0
0.0213113 0.771675 -0.124565 0.701213 -0.659581 -0.270653 0 128 0
0.0350435 0.828542 -0.131397 0.411477 -0.908212 -0.0764046 0 128 0
0.044359 0.815898 -0.130104 -0.597514 0.780057 0.185708 0 128 0
-0.476124 0.819624 -0.15983 0.932423 -0.153409 -0.327191 0 128 0
-0.45236 0.799766 -0.156095 0.940871 -0.190504 -0.280127 0 128 0
-0.448737 0.817301 -0.158098 0.943816 -0.189355 -0.270844 0 128 0
-0.44208 0.829555 -0.159302 0.943816 -0.189355 -0.270844 0 128 0
-0.439958 0.851569 -0.161982 0.934792 -0.140916 -0.326046 0 128 0
-0.0189601 0.754967 -0.139896 0.346246 0.938144 -0.00066247 0 128 0
-0.498395 0.842706 -0.188035 0.946421 0.060269 -0.317261 0 128 0
-0.464963 0.805856 -0.180434 0.934787 -0.236278 -0.265229 0 128 0
-0.461281 0.823477 -0.182781 0.944733 0.00857985 -0.32773 0 128 0
-0.457231 0.841129 -0.185132 0.944733 0.00857985 -0.32773 0 128 0
-0.452378 0.857919 -0.18733 0.959812 0.0879694 -0.266501 0 128 0
-0.0267607 0.80618 -0.167103 -0.451127 0.89123 -0.0468273 0 128 0
-0.0170506 0.773615 -0.161808 0.417316 0.904928 -0.0833819 0 128 0
-0.00738316 0.774474 -0.162071 -0.437105 0.894871 0.0902496 0 128 0
-1.49715 0.875793 -0.338251 -0.341657 0.938688 -0.0462131 0 128 0
-0.505687 0.846829 -0.212693 0.652137 -0.740419 -0.162782 0 128 0
-0.46904 0.805293 -0.202855 -0.121236 0.987147 0.104125 0 128 0
-0.45758 0.808103 -0.202444 -0.121236 0.987147 0.104125 0 128 0
-0.456528 0.830835 -0.206212 -0.274864 0.958282 0.0783859 0 128 0
-0.451004 0.845753 -0.208349 0.652137 -0.740419 -0.162782 0 128 0
-0.0289802 0.762773 -0.178292 0.557492 0.828117 -0.0585308 0 128 0
-0.0194728 0.751004 -0.176146 0.806502 0.572371 -0.148141 0 128 0
-0.010003 0.758764 -0.177739 0.232777 0.972525 -0.00298172 0 128 0
-0.519132 0.855089 -0.239538 0.00945368 0.999707 0.0222767 0 128 0
-0.480497 0.810574 -0.227583 0.353027 0.934691 0.0415379 0 128 0
-0.036588 0.80083 -0.205228 0.462443 0.871196 -0.164817 0 128 0
-0.0265346 0.761832 -0.196908 0.451487 0.881364 -0.139127 0 128 0
-0.017031 0.761818 -0.197006 0.942519 0.238671 -0.233867 0 128 0
-0.473163 0.810349 -0.250186 0.297985 0.948202 0.11008 0 128 0
-0.473599 0.83554 -0.255589 0.297985 0.948202 0.11008 0 128 0
-0.464501 0.843589 -0.256415 0.297985 0.948202 0.11008 0 128 0
-0.0396326 0.77137 -0.218253 0.954393 0.155842 -0.254652 0 128 0
-0.0300221 0.772486 -0.218588 0.954393 0.155842 -0.254652 0 128 0
-0.0203899 0.778344 -0.220093 0.948497 0.173162 -0.265271 0 128 0
-0.483493 0.793606 -0.271014 0.297985 0.948202 0.11008 0 128 0
-0.448596 0.825557 -0.274581 0.297985 0.948202 0.11008 0 128 0
-0.448913 0.852428 -0.281042 0.297985 0.948202 0.11008 0 128 0
-0.429133 0.838352 -0.275611 0.297985 0.948202 0.11008 0 128 0
-0.438052 0.885453 -0.287905 0.153176 0.988141 -0.0106566 0 128 0
-0.0448781 0.755716 -0.23365 0.959382 0.141096 -0.24429 0 128 0
-0.0354716 0.757855 -0.234265 0.959382 0.141096 -0.24429 0 128 0
-0.02602 0.763743 -0.235911 0.959382 0.141096 -0.24429 0 128 0
-0.419997 0.804141 -0.289854 0.294133 0.942858 0.156537 0 128 0
-0.413651 0.81675 -0.292477 0.217792 0.975154 0.0405176 0 128 0
-0.401428 0.817107 -0.291222 0.217792 0.975154 0.0405176 0 128 0
-0.389648 0.818167 -0.290245 0.248238 0.964087 0.0944172 0 128 0
-0.374094 0.810241 -0.28649 0.190152 0.97961 0.0648521 0 128 0
-0.0496871 0.761252 -0.255003 0.927099 0.27022 -0.259748 0 128 0
-0.0403112 0.766311 -0.256511 0.920545 0.279966 -0.272425 0 128 0
-0.0307745 0.768377 -0.257174 0.920545 0.279966 -0.272425 0 128 0
-0.0536586 0.75826 -0.273657 0.667838 0.689034 -0.281468 0 128 0
-0.0441682 0.757617 -0.273452 0.794572 0.545131 -0.267372 0 128 0
-0.0346863 0.755905 -0.272941 0.877911 0.393959 -0.272155 0 128 0
-0.313544 0.80037 -0.322866 0.0664718 0.959398 -0.274111 0 128 0
-0.303538 0.803859 -0.322989 -0.261632 -0.0776475 -0.962039 0 128 0
-0.060151 0.758735 -0.294247 0.52575 0.818029 -0.233273 0 128 0
-0.0503738 0.751569 -0.291724 0.52575 0.818029 -0.233273 0 128 0
-0.0411976 0.759391 -0.294446 0.52575 0.818029 -0.233273 0 128 0
-1.65616 0.886427 -0.700066 -0.236431 0.971471 0.0185688 0 128 0
-0.226855 0.795286 -0.335642 -0.262601 -0.429895 -0.863847 0 128 0
-0.214542 0.787677 -0.331923 0.227725 0.89984 0.372061 0 128 0
-0.201833 0.777146 -0.327154 0.227725 0.89984 0.372061 0 128 0
-0.194633 0.791187 -0.331802 0.227725 0.89984 0.372061 0 128 0
-0.188025 0.809763 -0.338198 0.247768 0.778959 0.576051 0 128 0
-0.176375 0.803416 -0.335171 0.251209 0.901888 0.351413 0 128 0
-0.0620553 0.753767 -0.312906 0.38282 0.919342 -0.0908792 0 128 0
-0.0526403 0.754174 -0.313005 0.379893 0.919524 -0.10078 0 128 0
-0.0433088 0.758212 -0.314507 0.379893 0.919524 -0.10078 0 128 0
-1.63383 0.868789 -0.741338 -0.185522 0.982583 -0.0105905 0 128 0
-0.196527 0.804127 -0.359739 -0.255341 -0.539411 -0.802395 0 128 0
-0.180362 0.776163 -0.34757 0.270663 0.901501 0.337693 0 128 0
-0.17101 0.77984 -0.348425 0.270663 0.901501 0.337693 0 128 0
-0.161264 0.781578 -0.348535 0.270663 0.901501 0.337693 0 128 0
-0.151498 0.783197 -0.348645 0.270663 0.901501 0.337693 0 128 0
-0.14101 0.780109 -0.346891 0.270663 0.901501 0.337693 0 128 0
-0.132039 0.786992 -0.349236 0.275033 0.908208 0.31546 0 128 0
-0.123859 0.801135 -0.354567 0.275033 0.908208 0.31546 0 128 0
-0.112683 0.792155 -0.350572 0.299272 0.94888 0.100316 0 128 0
-0.102695 0.792253 -0.350306 0.30193 0.951637 0.0567916 0 128 0
-0.0709708 0.764041 -0.338296 0.36076 0.9315 -0.0464774 0 128 0
-0.0607314 0.751588 -0.333165 0.440084 0.888581 -0.129422 0 128 0
-0.0513034 0.75105 -0.33289 0.440084 0.888581 -0.129422 0 128 0
-0.131541 0.783524 -0.370025 0.275033 0.908208 0.31546 0 128 0
-0.120206 0.772009 -0.364597 0.279725 0.932587 0.228114 0 128 0
-0.108873 0.7576 -0.357976 0.274272 0.960318 0.0506378 0 128 0
-0.099756 0.762234 -0.359663 0.274272 0.960318 0.0506378 0 128 0
-0.090768 0.769503 -0.362536 0.274272 0.960318 0.0506378 0 128 0
-0.080107 0.755601 -0.356305 0.287222 0.957688 0.0183574 0 128 0
-0.0706109 0.755308 -0.356009 0.322242 0.946537 -0.0150719 0 128 0
-0.0610017 0.752146 -0.354525 0.36076 0.9315 -0.0464774 0 128 0
-0.0826691 0.774629 -0.38756 0.274272 0.960318 0.0506378 0 128 0
-0.0717037 0.756256 -0.378862 0.287222 0.957688 0.0183574 0 128 0
-0.0632563 0.774904 -0.387347 0.287222 0.957688 0.0183574 0 128 0
-0.630444 1.20662 -0.768007 -0.383347 -0.817614 -0.429595 0 128 0
-2.47623 -1.61833 -1.68235 0.852664 0.504792 -0.134718 0 128 0
1.00235 0.470863 -0.996447 0.724656 0.582727 -0.367834 0 128 0
1.0289 0.46746 -1.01612 0.730506 0.567404 -0.380018 0 128 0
0.852522 0.565361 -1.02062 0.679955 0.637549 -0.362205 0 128 0
1.08467 -0.334941 -1.11474 0.0608311 -0.186575 -0.980556 0 128 0
1.5051 -0.0260193 -0.606676 0.841881 0.373985 -0.389064 0 128 0
1.33458 0.288451 -0.546195 0.807354 0.525811 -0.267773 0 128 0
1.64702 -0.69516 -0.644709 0.957907 0.105201 -0.267109 0 128 0
1.61942 -0.492318 -0.640733 0.90829 0.141829 -0.393566 0 128 0
1.61401 -1.07207 -0.645163 0.913672 -0.115331 -0.389747 0 128 0
1.62916 -0.94325 -0.643848 0.957223 0.0812381 -0.277712 0 128 0
1.31128 -1.91562 -0.639008 0.775494 -0.568254 -0.27513 0 128 0
0.925388 0.793942 -0.395606 -0.596222 -0.768695 0.231577 0 128 0
0.833302 0.864568 -0.400523 -0.550239 -0.807338 0.213171 0 128 0
1.06659 -2.20049 -0.60372 -0.654642 0.724097 0.21709 0 128 0
1.16343 0.588039 -0.443081 0.701104 0.67658 -0.225149 0 128 0
1.41376 0.197421 -0.477623 0.835667 0.497103 -0.233557 0 128 0
1.27584 0.434926 -0.464442 0.769244 0.598559 -0.223589 0 128 0
1.58169 -0.0961874 -0.440818 0.909539 0.330784 -0.251637 0 128 0
1.52423 0.00652014 -0.48362 0.882994 0.408772 -0.230709 0 128 0
1.67015 -0.914421 -0.486604 0.959855 0.0778493 -0.269477 0 128 0
1.69186 -0.700612 -0.475588 0.957797 0.0973014 -0.270476 0 128 0
1.66805 -1.0768 -0.451338 0.942484 -0.0656524 -0.32774 0 128 0
-0.305499 1.22618 0.675585 0.997246 -0.0461379 -0.058061 0 128 0
0.302402 -2.74346 -0.390871 -0.0477315 -0.393428 -0.918116 0 128 0
0.750554 -2.51391 -0.44106 -0.517443 0.828241 0.215102 0 128 0
1.34424 -1.96623 -0.42859 0.715611 -0.663851 -0.217261 0 128 0
1.36633 -1.91107 -0.452353 0.724926 -0.653478 -0.217825 0 128 0
0.946347 0.80413 -0.238042 0.620003 0.771779 -0.141258 0 128 0
0.652954 0.988447 -0.275271 0.219124 0.88934 -0.401322 0 128 0
0.170608 1.18978 -0.181188 -0.153705 0.419652 -0.894576 0 128 0
1.36303 -1.98851 -0.241206 0.724446 -0.653008 -0.220813 0 128 0
1.24786 0.669227 0.407065 0.676847 0.721829 -0.144367 0 128 0
1.56549 0.298 0.355707 0.828643 0.530565 -0.178469 0 128 0
-1.1754 1.05857 0.228593 0.410538 -0.90899 -0.0720896 0 128 0
1.42301 -1.91523 -0.215103 0.731116 -0.643491 -0.226692 0 128 0
0.575676 1.07365 0.202841 -0.198235 -0.978493 0.057052 0 128 0
0.356892 1.13835 -0.207326 -0.114569 0.549949 -0.827303 0 128 0
-1.04616 -2.74583 0.0361836 0.339528 0.940103 -0.0304355 0 128 0
1.72227 -1.07788 -0.239389 0.963215 0.05097 -0.263854 0 128 0
1.57445 -0.300714 -0.616987 0.892738 0.23456 -0.384709 0 128 0
1.687 -0.0194576 0.184325 0.893555 0.392043 -0.218775 0 128 0
1.90385 -0.93083 0.330295 0.964053 0.0828543 -0.252461 0 128 0
0.608599 -2.58798 -0.425835 -0.404393 0.865067 0.296861 0 128 0
1.70979 -0.471947 -0.248189 0.953056 0.175597 -0.246679 0 128 0
1.65803 -0.24714 -0.255818 0.932133 0.280321 -0.229234 0 128 0
1.29233 0.479346 -0.268984 0.774429 0.603999 -0.188271 0 128 0
1.54933 0.0585853 -0.255881 0.884278 0.413397 -0.217152 0 128 0
1.46028 0.202977 -0.258315 0.843563 0.492174 -0.214862 0 128 0
-1.79323 0.608788 0.363114 0.700245 -0.686316 -0.196535 0 128 0
-2.06711 -1.48607 1.11388 0.911675 0.329583 -0.245406 0 128 0
-0.775513 -2.82843 -0.120471 0.26273 0.964719 -0.017068 0 128 0
-0.594924 -2.8584 -0.139464 0.0863743 0.931651 0.352939 0 128 0
-0.386412 -2.87539 -0.155721 0.0818136 0.830935 0.550321 0 128 0
-0.476976 1.25533 0.154802 0.316043 -0.225077 0.92166 0 128 0
0.208828 -2.81581 -0.126875 -0.160485 0.917977 0.362716 0 128 0
-2.25205 -1.37609 0.480384 0.934286 0.279176 -0.221746 0 128 0
0.300498 -2.7662 -0.230706 -0.170045 0.915591 0.364388 0 128 0
0.760869 -2.54777 -0.228993 0.504549 -0.840279 -0.198398 0 128 0
0.940973 -2.43991 -0.219644 0.587786 -0.783345 -0.202186 0 128 0
1.26306 -2.10421 -0.234675 0.726786 -0.653243 -0.21226 0 128 0
0.671209 0.991163 -0.10503 0.372503 0.909907 -0.182512 0 128 0
-1.88483 0.491047 0.325824 0.752518 -0.629422 -0.193763 0 128 0
-0.913102 -2.79282 -0.0275914 0.306252 0.951914 -0.00829428 0 128 0
1.76834 -1.09131 -0.0903429 0.965911 0.037425 -0.256153 0 128 0
-1.88452 -1.97092 0.896 0.800073 0.559532 -0.21635 0 128 0
-1.47916 -2.53006 0.0917893 0.525658 0.847493 -0.0737496 0 128 0
-2.27719 -1.40762 0.340915 0.940152 0.282408 -0.19068 0 128 0
1.77482 -0.732676 -0.106479 0.965296 0.0631723 -0.253401 0 128 0
-1.27425 -2.64787 0.0621819 0.436462 0.898754 -0.0417457 0 128 0
-0.604145 -2.85997 0.0156905 -0.128127 -0.985724 -0.109237 0 128 0
-1.98687 -0.263778 1.41242 0.892302 -0.310784 -0.327431 0 128 0
-1.61484 -2.33795 0.641884 -0.651975 -0.740973 0.160896 0 128 0
-0.38596 -2.88606 0.0135583 0.0151075 0.991404 0.129961 0 128 0
-0.306389 1.23265 0.243562 0.952068 -0.124268 -0.279508 0 128 0
0.317069 -2.79074 0.000618698 0.20996 -0.954452 -0.211989 0 128 0
0.791625 -2.56123 -0.011778 0.502492 -0.848631 -0.165308 0 128 0
0.971841 -2.46125 -0.00260839 0.573886 -0.797339 -0.186832 0 128 0
1.3885 -2.02316 -0.0356928 0.719251 -0.65741 -0.224702 0 128 0
0.163334 -2.81121 -0.295196 -0.1168 -0.375477 -0.919443 0 128 0
1.81049 -1.08946 0.0292456 0.968605 -0.0911539 -0.23129 0 128 0
1.75961 -0.455046 -0.06535 0.948058 0.179605 -0.262542 0 128 0
1.60657 -0.241892 -0.47514 0.92827 0.278884 -0.246047 0 128 0
1.63983 -0.0215031 -0.0369651 0.890442 0.394863 -0.226268 0 128 0
1.49989 -1.9125 0.129354 0.710407 -0.669416 -0.217267 0 128 0
1.58895 0.117669 0.0178025 0.861479 0.464187 -0.205876 0 128 0
1.49765 0.225506 -0.033164 0.835863 0.510679 -0.201344 0 128 0
1.20804 0.628589 -0.027659 0.71635 0.678804 -0.161457 0 128 0
0.65081 -2.60669 -0.192526 0.472212 -0.865707 -0.16603 0 128 0
0.974194 0.81773 -0.0294364 -0.583201 -0.799974 0.141133 0 128 0
1.6577 -0.47407 -0.478206 0.957132 0.142322 -0.252275 0 128 0
-0.495057 1.25173 0.071163 -0.189424 0.55019 -0.813271 0 128 0
-0.513408 1.24099 0.0612125 0.109149 -0.539241 0.835048 0 128 0
-0.9435 1.14879 0.0873844 -0.262623 0.775244 -0.574479 0 128 0
-1.89175 -2.1648 0.26843 0.726321 0.673779 -0.135943 0 128 0
-2.29808 -1.27239 0.448544 0.949159 0.2296 -0.215361 0 128 0
1.74625 -0.703379 -0.258323 0.961515 0.0605355 -0.268 0 128 0
1.80915 -0.93583 0.0124963 0.96554 0.0523464 -0.254935 0 128 0
-1.27662 -2.62931 0.230806 0.463608 0.883364 -0.0688141 0 128 0
-1.04913 -2.73221 0.229461 -0.375794 -0.925995 0.0362304 0 128 0
-1.81635 0.404993 0.880213 0.75458 -0.618635 -0.218861 0 128 0
-2.07326 -1.71328 0.670454 0.885963 0.41523 -0.206526 0 128 0
-1.72519 0.31471 1.31937 0.77327 -0.545069 -0.323964 0 128 0
-0.891926 -2.78808 0.251585 -0.303229 -0.952783 0.0159983 0 128 0
1.37231 0.365353 -0.250378 0.804657 0.560686 -0.195339 0 128 0
-0.608345 -2.85441 0.225098 -0.192547 -0.981194 0.0135626 0 128 0
-0.384946 -2.88493 0.222532 -0.0837649 -0.996095 -0.0279064 0 128 0
0.307601 -2.81926 0.208734 0.273142 -0.956484 -0.102621 0 128 0
0.363549 -2.80003 0.197872 0.290446 -0.951295 -0.103339 0 128 0
0.82332 -2.57737 0.170425 0.487408 -0.859835 -0.15204 0 128 0
-0.342845 1.23673 0.0379013 -0.294396 0.498025 -0.81566 0 128 0
0.57071 1.06455 -0.018335 -0.124181 -0.956004 0.265774 0 128 0
0.565479 1.1203 0.791978 -0.195928 -0.0459578 -0.979541 0 128 0
-0.376242 -2.88491 0.651951 -0.133804 -0.990338 0.036431 0 128 0
0.347754 1.15226 -0.0189921 -0.246534 0.865253 -0.436531 0 128 0
-0.148522 1.24317 -0.0119434 0.15251 -0.404415 0.90177 0 128 0
0.733108 -2.64317 0.222819 0.465562 -0.872444 -0.148636 0 128 0
1.11832 -2.40151 0.221511 -0.644804 0.741823 0.184191 0 128 0
-2.05256 -1.88669 0.425862 0.849812 0.492246 -0.188449 0 128 0
1.76801 -0.922702 -0.105476 0.964152 0.0495897 -0.260677 0 128 0
1.85704 -1.08665 0.215533 0.974651 -0.0673813 -0.213344 0 128 0
0.520176 -2.69795 0.00164586 0.437841 -0.885351 -0.156364 0 128 0
-1.36181 -2.5508 0.451898 -0.516338 -0.849438 0.108853 0 128 0
1.78809 -0.14973 0.315957 0.914632 0.344895 -0.210939 0 128 0
1.87603 -0.927368 0.196349 0.96662 0.0765811 -0.244502 0 128 0
-1.25202 -2.61804 0.43454 -0.463509 -0.881097 0.0939494 0 128 0
-1.05319 -2.70927 0.437999 -0.402215 -0.91363 0.0591949 0 128 0
-0.745744 -2.81362 0.425983 -0.246891 -0.968646 0.0277522 0 128 0
1.25218 -2.32313 0.405211 -0.652544 0.739725 0.164294 0 128 0
1.80504 -0.691188 -0.00284372 0.964566 0.0749652 -0.252969 0 128 0
1.49978 -2.07662 0.385858 0.684233 -0.698508 -0.209551 0 128 0
-1.91572 -1.98982 0.693307 0.797705 0.565284 -0.210048 0 128 0
-1.50648 -2.494 0.234764 0.567516 0.818767 -0.0868729 0 128 0
1.57302 -1.98863 0.372904 0.696758 -0.687622 -0.204215 0 128 0
-2.33241 -1.08437 0.479389 0.969001 0.145029 -0.200008 0 128 0
1.72257 -0.924237 -0.263422 0.963215 0.05097 -0.263854 0 128 0
1.87366 -1.0783 0.338786 0.979036 -0.10033 -0.177265 0 128 0
1.45506 -2.04453 0.193127 0.704645 -0.677385 -0.211247 0 128 0
1.85512 -0.69066 0.194182 0.965359 0.111553 -0.235878 0 128 0
0.792001 0.907045 -0.257464 0.525684 0.838239 -0.144954 0 128 0
1.75523 -0.215482 0.16495 0.926638 0.293125 -0.235412 0 128 0
1.01615 -2.31666 -0.474626 -0.635934 0.736957 0.229093 0 128 0
-2.10201 -1.77063 0.459626 0.871156 0.442897 -0.211968 0 128 0
0.907109 -2.41872 -0.454375 -0.608227 0.762388 0.220963 0 128 0
-2.04001 -1.861 0.522627 0.858397 0.476516 -0.189963 0 128 0
-1.50608 -2.45813 0.443236 -0.58234 -0.802449 0.130217 0 128 0
-1.97081 -1.99639 0.466599 0.808691 0.556341 -0.191059 0 128 0
-1.86978 -2.14413 0.445983 0.751207 0.63491 -0.180492 0 128 0
-1.74594 -2.25605 0.475718 -0.694163 -0.703938 0.15036 0 128 0
-0.765992 1.13424 0.65276 0.275618 -0.954663 -0.112486 0 128 0
-0.211049 -2.88909 0.22708 0.00706394 -0.998828 -0.0478898 0 128 0
-0.776176 1.16147 0.435503 0.220572 -0.973721 -0.0567058 0 128 0
1.55245 -1.94049 0.223786 0.705059 -0.676912 -0.211382 0 128 0
-0.174414 -2.88242 0.440946 0.0255269 -0.999372 -0.0245806 0 128 0
0.37743 -2.82489 0.425294 0.358301 -0.9242 0.132188 0 128 0
0.425753 -2.81767 0.487859 0.358301 -0.9242 0.132188 0 128 0
1.46314 -1.91563 -0.0442511 0.723909 -0.653237 -0.221893 0 128 0
1.1846 0.605694 -0.258667 -0.70295 -0.687337 0.182835 0 128 0
1.61589 0.155889 0.206003 0.85224 0.486874 -0.19142 0 128 0
1.90279 -0.699542 0.335944 0.959697 0.12085 -0.253726 0 128 0
1.05173 -2.34434 -0.228038 0.64338 -0.737733 -0.204481 0 128 0
0.795947 0.932998 -0.0307309 -0.514463 -0.84779 0.128762 0 128 0
1.8421 -0.473626 0.199573 0.956004 0.148085 -0.253234 0 128 0
-1.53843 0.563846 1.15591 -0.67104 0.710322 0.212482 0 128 0
1.1994 -2.26848 -0.00501945 0.688129 -0.69618 -0.204478 0 128 0
1.25858 0.708399 0.568465 0.668671 0.733361 -0.122725 0 128 0
-1.14647 1.04301 0.421762 -0.419871 0.900013 0.116982 0 128 0
1.53735 0.265109 0.176419 0.825934 0.529634 -0.193188 0 128 0
1.15544 -2.23804 -0.217369 0.685971 -0.696256 -0.211359 0 128 0
1.04026 0.697338 -0.42433 -0.639639 -0.733684 0.229281 0 128 0
-1.43959 0.89859 0.269114 0.5555 -0.822618 -0.121326 0 128 0
1.80279 -0.516537 0.0206796 0.957954 0.134996 -0.253179 0 128 0
-2.06669 -1.92137 0.294768 0.841446 0.517785 -0.15449 0 128 0
-2.31933 -0.65953 0.48028 0.980564 -0.0509345 -0.189472 0 128 0
1.42234 0.417813 0.199169 0.776616 0.600103 -0.191688 0 128 0
1.5517 -0.198968 -0.627207 0.873495 0.304579 -0.379787 0 128 0
1.33756 0.519823 0.175932 0.742037 0.647316 -0.174247 0 128 0
1.05123 0.715901 -0.26218 0.644094 0.743078 -0.1816 0 128 0
-1.83771 -2.1141 0.670765 0.756052 0.624956 -0.194463 0 128 0
-2.30648 -0.402761 0.474267 0.953406 -0.211689 -0.214952 0 128 0
-2.27513 -1.22451 0.605072 0.954864 0.195268 -0.223841 0 128 0
-0.866178 -2.77374 0.655034 -0.348779 -0.936217 0.0430226 0 128 0
1.31808 -1.93415 -0.584199 0.715611 -0.663851 -0.217261 0 128 0
-0.749849 -2.81444 0.655047 -0.269537 -0.962164 0.0398719 0 128 0
-0.605616 -2.85416 0.655725 -0.218532 -0.975185 0.035479 0 128 0
-0.150322 -2.89306 0.651144 -0.0538449 0.989228 -0.136122 0 128 0
1.12778 0.769579 0.426235 0.617956 0.775786 -0.127619 0 128 0
1.83178 -0.243996 0.358938 0.93643 0.278155 -0.213842 0 128 0
1.397 0.386172 -0.0372875 0.799706 0.570223 -0.187925 0 128 0
1.55757 -0.153209 -0.58491 0.874026 0.319345 -0.366193 0 128 0
1.56631 0.0595252 -0.111107 0.864667 0.454603 -0.213747 0 128 0
1.34146 0.537786 0.3189 0.729856 0.661808 -0.17123 0 128 0
1.39474 0.577799 0.536649 0.724568 0.674305 -0.142528 0 128 0
1.23089 0.656004 0.191299 -0.681215 -0.71612 0.152046 0 128 0
-0.162366 1.24358 0.173391 0.649291 -0.00634881 -0.760514 0 128 0
-0.31639 1.25049 0.177264 0.959752 -0.16061 -0.230392 0 128 0
-0.566624 1.23342 0.232555 -0.153395 -0.700998 0.696471 0 128 0
-1.33758 -2.50794 0.941393 0.571884 0.808712 -0.137596 0 128 0
0.541643 -2.77231 0.439131 0.386289 -0.91156 0.140849 0 128 0
-0.772835 1.19813 0.212515 -0.124601 0.885832 -0.446964 0 128 0
1.12931 -2.20111 -0.442387 0.666466 -0.713109 -0.217484 0 128 0
1.58325 0.325336 0.488285 0.813894 0.557893 -0.162273 0 128 0
-1.41676 0.875684 0.438226 0.560308 -0.814632 -0.149765 0 128 0
-2.15728 0.0346606 0.427955 0.888728 -0.411854 -0.201344 0 128 0
-2.33806 -0.884328 0.484197 0.979666 0.0444121 -0.195659 0 128 0
-1.71968 -2.22326 0.70866 0.708476 0.680841 -0.18579 0 128 0
-0.998132 1.11429 0.21484 -0.26381 0.950127 -0.16632 0 128 0
-1.5887 -2.32481 0.781169 -0.66171 -0.730386 0.169339 0 128 0
-0.143066 -2.9068 0.798068 -0.136396 0.908136 -0.395835 0 128 0
-1.57139 0.628685 1.0524 0.665022 -0.713019 -0.222148 0 128 0
-0.0185292 -2.91981 0.799541 -0.212886 0.666371 -0.714583 0 128 0
1.73348 -0.0127079 0.373894 0.880639 0.429813 -0.19934 0 128 0
-1.9867 0.354439 0.339976 0.800615 -0.569244 -0.187019 0 128 0
-0.792181 -2.81806 0.216482 -0.248027 -0.96844 0.0246321 0 128 0
-2.12942 -1.54124 0.698422 0.911721 0.34761 -0.218935 0 128 0
0.719449 1.01738 0.227989 -0.463151 -0.880906 0.097452 0 128 0
0.551768 1.05263 -0.231032 -0.0507337 0.751444 -0.657843 0 128 0
-0.384313 -2.90032 0.84175 -0.141635 -0.9888 0.0470445 0 128 0
0.351023 1.15372 0.200019 -0.281117 0.908472 0.309276 0 128 0
-0.55223 1.1611 1.05222 -0.259786 0.278594 -0.924606 0 128 0
0.143186 1.20178 0.192849 0.743534 -0.0367948 0.667685 0 128 0
-2.05968 -1.29657 1.33406 0.929362 0.230207 -0.288602 0 128 0
0.399078 -2.80725 0.624384 0.375502 -0.52787 0.761808 0 128 0
-1.52347 0.556817 1.25596 -0.656223 0.721159 0.222039 0 128 0
-1.68866 -2.1955 0.911161 0.718453 0.669265 -0.189497 0 128 0
-2.28604 -0.880667 0.677168 0.967635 0.0245455 -0.251156 0 128 0
-0.275893 1.21861 0.924638 0.449062 -0.0117381 0.893424 0 128 0
-2.28452 -1.07403 0.664484 0.958333 0.137508 -0.250378 0 128 0
1.71019 -0.249486 -0.031048 0.928124 0.275856 -0.249977 0 128 0
1.01206 0.845229 0.193776 -0.585952 -0.797516 0.143626 0 128 0
0.89739 -2.61864 0.478815 -0.501899 0.855199 0.129354 0 128 0
-1.99369 -1.53969 1.32215 0.89271 0.353569 -0.279389 0 128 0
-0.0951458 1.22975 0.205546 -0.67099 -0.245465 0.699656 0 128 0
0.0398724 1.24645 0.590939 0.726094 0.650245 -0.223536 0 128 0
-2.18818 -1.53929 0.475904 0.917032 0.341 -0.206813 0 128 0
-0.803866 -2.82284 0.0219956 0.283323 0.958931 -0.0134232 0 128 0
-1.55806 0.797673 0.300393 -0.602191 0.788704 0.12374 0 128 0
0.119912 0.899904 0.236043 0.923269 -0.0606623 -0.379333 0 128 0
-1.75938 -2.03614 1.12725 0.7878 0.57128 -0.23024 0 128 0
0.503875 -2.64227 -0.414821 -0.319606 0.892279 0.31889 0 128 0
-1.35171 0.815513 1.03771 0.579675 -0.794363 -0.181562 0 128 0
-0.763542 1.09103 1.07306 -0.208269 0.956635 0.203652 0 128 0
-1.77542 0.567195 0.498224 0.723763 -0.658562 -0.206066 0 128 0
1.06632 -2.36839 -0.0695126 0.625757 -0.75479 -0.196774 0 128 0
-1.84184 0.436529 0.654305 0.762892 -0.612694 -0.206403 0 128 0
-2.04864 -1.71041 0.836035 0.879977 0.422006 -0.218063 0 128 0
-2.19446 -0.637336 0.918834 0.95951 -0.0747887 -0.271564 0 128 0
-1.19146 0.895957 1.11236 -0.54421 0.821645 0.169512 0 128 0
-0.877439 -2.7713 0.881208 0.372786 0.926492 -0.0514135 0 128 0
-0.61527 -2.86259 0.876307 0.237994 0.970207 -0.0453635 0 128 0
-2.22376 -1.52957 0.344038 0.913273 0.359737 -0.191105 0 128 0
1.6272 0.203696 0.395709 0.837868 0.513019 -0.186517 0 128 0
-0.28524 1.2497 0.0136572 -0.283908 0.458385 -0.842187 0 128 0
-2.27247 -0.434534 0.624061 0.952968 -0.198234 -0.229251 0 128 0
-1.37993 0.845218 0.655891 0.555694 -0.812906 -0.174324 0 128 0
-1.6938 0.502648 0.915926 0.725469 -0.656216 -0.207547 0 128 0
1.29236 -2.11517 -0.082423 0.721577 -0.655433 -0.223014 0 128 0
-1.52883 0.789555 0.467402 0.589621 -0.790295 -0.166674 0 128 0
-1.09013 1.02178 0.70638 0.431975 -0.890508 -0.142802 0 128 0
0.818364 0.953461 0.184302 -0.505038 -0.854833 0.119151 0 128 0
0.526352 -2.78648 0.614802 0.447176 -0.533532 0.717898 0 128 0
-1.78845 -2.0776 0.940909 0.769557 0.60456 -0.205642 0 128 0
0.683777 -2.62119 0.0132939 0.455976 -0.875493 -0.159995 0 128 0
-0.770254 1.12378 0.889717 -0.132349 0.981163 0.140725 0 128 0
-0.247878 -2.89204 0.0291435 -0.0539474 0.990134 0.129323 0 128 0
-0.902914 1.04399 1.08095 -0.387789 0.90399 0.180062 0 128 0
-2.27433 -0.234287 0.446777 0.927318 -0.300548 -0.223051 0 128 0
-1.98783 -2.04115 0.277336 0.806521 0.574407 -0.13993 0 128 0
-1.48325 -2.42904 0.68069 -0.616111 -0.775858 0.135841 0 128 0
-1.25382 0.985955 0.446185 0.477275 -0.867923 -0.137545 0 128 0
0.686152 -2.74092 0.619137 0.430458 -0.622512 0.653594 0 128 0
-1.67167 0.69793 0.444234 -0.656383 0.734623 0.171727 0 128 0
-2.23068 -0.370075 0.718419 0.946915 -0.229834 -0.224784 0 128 0
-2.10162 -0.873102 1.35513 0.944922 0.0109074 -0.327113 0 128 0
-2.24229 -0.654867 0.748499 0.968856 -0.057571 -0.24084 0 128 0
-1.20484 0.911098 0.886591 0.50808 -0.845515 -0.164191 0 128 0
-0.910881 -2.76964 1.04475 0.433402 0.897308 -0.0836773 0 128 0
1.31879 0.501004 -0.0484048 0.756774 0.62987 -0.174805 0 128 0
1.47895 0.435257 0.413232 0.773139 0.607914 -0.180822 0 128 0
1.38506 0.569703 0.456004 0.711114 0.683513 -0.164703 0 128 0
0.689392 1.00972 0.00784944 -0.391636 -0.914811 0.0987038 0 128 0
-1.98579 0.320939 0.462866 0.808657 -0.561239 -0.176307 0 128 0
1.23579 -2.30385 0.207109 0.66844 -0.714861 -0.205331 0 128 0
-2.03529 0.121212 0.717168 0.860407 -0.451233 -0.236828 0 128 0
-1.64166 -2.36159 0.447604 -0.635941 -0.759484 0.136976 0 128 0
-2.11755 -0.402496 1.10758 0.948837 -0.158896 -0.272873 0 128 0
1.11152 0.759271 0.161504 -0.628643 -0.762171 0.154607 0 128 0
0.362857 1.18216 0.639635 0.149526 0.282933 0.947413 0 128 0
-0.383378 -2.8769 0.432012 -0.166346 -0.985971 0.0137853 0 128 0
-2.03326 -1.6232 0.979261 0.893378 0.386966 -0.228328 0 128 0
-1.99212 -1.77612 0.922071 0.858984 0.456451 -0.231945 0 128 0
-1.20157 -2.59904 1.05767 0.532524 0.837051 -0.125555 0 128 0
-1.3999 -2.56894 0.162563 0.503673 0.860814 -0.0728919 0 128 0
-1.76999 -2.28626 0.248275 0.688487 0.717783 -0.103797 0 128 0
-1.07114 -2.67255 1.05546 0.468241 0.879624 -0.0837378 0 128 0
1.44261 0.535732 0.547741 0.745509 0.649387 -0.150043 0 128 0
-1.66553 -2.37904 0.225222 0.64768 0.752627 -0.118588 0 128 0
-2.1875 -0.40756 0.890718 0.941513 -0.239538 -0.237014 0 128 0
-0.977238 1.07578 0.663164 0.390621 -0.910178 -0.137808 0 128 0
-1.44262 -2.39321 1.12425 0.641076 0.747961 -0.171975 0 128 0
-1.28382 1.00609 0.255279 0.476968 -0.872754 -0.103928 0 128 0
0.519067 -2.74432 0.203335 0.422651 -0.89445 -0.146035 0 128 0
-1.31311 -2.50784 1.10925 0.58895 0.79019 -0.169522 0 128 0
-1.47478 0.740765 0.907589 0.615698 -0.763409 -0.19525 0 128 0
1.0245 0.870451 0.421687 0.579131 0.80744 -0.112467 0 128 0
-1.82154 -2.09575 0.770966 0.757515 0.619378 -0.206257 0 128 0
0.522896 -2.66237 -0.228175 -0.317883 0.912456 0.257632 0 128 0
1.38409 -2.21157 0.401196 0.666482 -0.720298 -0.192281 0 128 0
-1.22108 -2.60356 0.676031 -0.504464 -0.858528 0.091907 0 128 0
1.14071 0.781663 0.432999 0.617956 0.775786 -0.127619 0 128 0
-0.761027 -2.81736 0.883988 0.307606 0.948897 -0.0705154 0 128 0
-1.98277 0.142403 0.590146 0.852264 -0.480921 -0.20582 0 128 0
-2.15206 -0.261544 0.887656 0.926508 -0.281658 -0.249504 0 128 0
-1.65847 -2.15833 1.12371 0.721022 0.663279 -0.200469 0 128 0
-0.100389 1.23488 0.674416 0.906873 -0.341297 0.247178 0 128 0
-2.20393 -0.243465 0.682826 0.932365 -0.279875 -0.228836 0 128 0
0.578518 1.10153 0.422004 -0.0108525 0.999116 0.0406018 0 128 0
0.353993 1.16331 0.413731 -0.632409 0.74527 -0.211262 0 128 0
-1.79986 0.373036 1.05724 -0.741744 0.63825 0.20604 0 128 0
-1.76374 0.313241 1.19714 0.777188 -0.557294 -0.292237 0 128 0
1.16092 0.791176 0.586591 0.618602 0.779165 -0.101155 0 128 0
-0.949691 1.06156 0.864637 0.408531 -0.901801 -0.14092 0 128 0
-0.0751504 1.23206 0.424586 0.938992 0.317474 0.132305 0 128 0
-0.120124 1.2474 0.497959 0.945651 -0.289985 -0.147151 0 128 0
-0.256963 1.24998 0.477998 0.847239 -0.32123 -0.423082 0 128 0
-1.48661 0.769994 0.674131 0.606665 -0.771327 -0.192387 0 128 0
0.117218 1.21097 0.412912 0.917313 0.30361 0.257602 0 128 0
-0.584126 1.21334 0.437341 -0.219711 -0.973997 0.0552808 0 128 0
-1.93106 0.300688 0.676212 0.821814 -0.523768 -0.224253 0 128 0
-2.0182 -1.5859 1.15203 0.894713 0.380773 -0.233455 0 128 0
-2.14235 -1.08903 1.13593 0.956859 0.107746 -0.269838 0 128 0
-2.0932 -1.31445 1.12916 0.936922 0.249941 -0.244351 0 128 0
-1.79333 0.647487 0.316585 0.700245 -0.686316 -0.196535 0 128 0
-2.0685 -1.43997 1.27004 0.915768 0.307722 -0.258216 0 128 0
0.129181 1.21049 0.848289 -0.332493 -0.294318 -0.896005 0 128 0
1.10345 -2.1739 -0.602644 -0.654642 0.724097 0.21709 0 128 0
-1.66794 -2.13009 1.2865 0.741165 0.626629 -0.240853 0 128 0
-1.74924 -1.99157 1.28579 0.787786 0.556321 -0.264387 0 128 0
1.13542 -2.41634 0.411941 -0.629621 0.762698 0.147882 0 128 0
-2.24827 -0.851323 0.779337 0.969321 -0.000391989 -0.245798 0 128 0
-1.55086 -2.27683 1.14281 0.690503 0.691953 -0.210729 0 128 0
1.81561 -0.309727 0.224811 0.940798 0.238731 -0.240637 0 128 0
-2.27977 -0.626836 0.640303 0.974088 -0.0695187 -0.215219 0 128 0
-2.14138 -1.76768 0.318442 0.881166 0.439738 -0.173715 0 128 0
0.379089 1.1707 0.813977 0.168201 0.142343 0.975421 0 128 0
-0.260979 1.25047 0.578676 0.930108 -0.367258 -0.00463975 0 128 0
1.00048 -2.53933 0.450385 -0.544182 0.832179 0.106509 0 128 0
-1.89074 -1.75322 1.31793 0.862138 0.43119 -0.266072 0 128 0
-0.0546153 0.779491 0.198043 0.104594 0.989633 0.0984213 0 128 0
0.971436 -2.49449 0.220048 0.56445 -0.807174 -0.172819 0 128 0
-1.93519 -1.77576 1.15615 0.850194 0.464464 -0.247875 0 128 0
0.748138 -2.69091 0.451111 0.467828 -0.883751 0.0110332 0 128 0
-1.66097 0.736525 0.290682 0.650551 -0.746875 -0.137701 0 128 0
1.80734 -0.127476 0.411554 0.914632 0.344895 -0.210939 0 128 0
1.01123 0.890893 0.599917 0.571365 0.815631 -0.0910408 0 128 0
-1.28986 0.796029 1.18109 -0.572546 0.793395 0.206676 0 128 0
-2.22565 -0.883302 0.913666 0.963556 0.00148085 -0.267503 0 128 0
-1.63596 0.666583 0.663661 0.663214 -0.719831 -0.204917 0 128 0
-2.08305 -1.0876 1.33615 0.941525 0.101843 -0.321182 0 128 0
-0.863684 -2.77849 0.442179 -0.322776 -0.945561 0.041593 0 128 0
-1.21408 0.953502 0.664866 0.478234 -0.865118 -0.151207 0 128 0
1.07595 0.733037 -0.0548839 -0.641119 -0.754207 0.14191 0 128 0
-1.32303 -2.53839 0.694229 -0.554237 -0.824844 0.111597 0 128 0
-2.0576 -0.422307 1.32679 0.923581 -0.239452 -0.299434 0 128 0
-1.7335 0.530781 0.704547 0.740408 -0.636507 -0.215998 0 128 0
-1.35999 0.829889 0.89864 0.570254 -0.801808 -0.178647 0 128 0
-2.02732 -1.38371 1.3937 0.923411 0.26197 -0.280505 0 128 0
-0.0843938 1.24778 0.603752 0.914446 -0.404317 -0.0177654 0 128 0
0.867706 0.980413 0.618744 0.422468 0.90109 0.0977641 0 128 0
1.08831 -2.38167 -0.00666998 0.627454 -0.754848 -0.191068 0 128 0
-1.3025 0.765637 1.29646 -0.592468 0.776206 0.215607 0 128 0
-2.16921 -0.872789 1.13703 0.955003 0.0042474 -0.296566 0 128 0
-1.5927 0.636918 0.871333 0.677919 -0.706239 -0.204089 0 128 0
0.752602 1.03589 0.438495 -0.415974 -0.909374 -0.00195893 0 128 0
-2.08569 -1.52702 0.917214 0.915439 0.340872 -0.213958 0 128 0
-1.89765 0.279551 0.897825 0.810311 -0.52986 -0.250286 0 128 0
-1.44426 0.69603 1.11696 -0.637409 0.740531 0.212895 0 128 0
-2.09069 -0.261593 1.11773 0.916075 -0.289229 -0.277764 0 128 0
-1.97754 0.141 0.807572 0.847283 -0.471918 -0.243731 0 128 0
-1.06334 -2.68514 0.670463 -0.429325 -0.901399 0.0562085 0 128 0
-2.15538 -1.30694 0.906784 0.941623 0.245168 -0.230736 0 128 0
-1.87423 0.469357 0.452794 0.733944 -0.649955 -0.197191 0 128 0
-1.0002 1.08792 0.436791 -0.382687 0.917881 0.105094 0 128 0
-1.15403 0.882921 1.24341 -0.529341 0.824157 0.201403 0 128 0
-2.14497 -0.614121 1.12931 0.954692 -0.051052 -0.293185 0 128 0
0.758328 1.04152 0.640782 0.178591 0.853865 0.488896 0 128 0
-1.825 0.294707 1.11303 0.804605 -0.527289 -0.273087 0 128 0
0.859636 0.975123 0.404885 -0.491255 -0.86528 0.0997978 0 128 0
-1.04468 0.991351 0.910664 0.424154 -0.892774 -0.151812 0 128 0
-2.10851 -0.632598 1.34901 0.953562 -0.0280564 -0.299888 0 128 0
-0.0784152 1.22032 0.885422 0.346279 -0.0267475 0.93775 0 128 0
1.22855 -2.01898 -0.60643 0.689631 -0.691748 -0.214229 0 128 0
-2.03188 0.181021 0.650898 0.848022 -0.477538 -0.229817 0 128 0
1.60431 -0.0467636 -0.238194 0.899979 0.37593 -0.220714 0 128 0
-1.63955 0.457886 1.31643 -0.684714 0.696772 0.213719 0 128 0
-1.01022 0.9931 1.12372 -0.464502 0.868649 0.1723 0 128 0
-1.99814 -0.352868 1.43121 0.905893 -0.27311 -0.323681 0 128 0
-1.85563 -1.92544 1.10234 0.812278 0.536823 -0.228089 0 128 0
-2.22186 -0.159453 0.458628 0.92432 -0.326668 -0.197282 0 128 0
0.57763 1.11691 0.651966 -0.107364 -0.560545 -0.821135 0 128 0
0.103995 1.22846 0.618411 0.856417 0.496157 0.14275 0 128 0
1.35378 0.330015 -0.408948 0.815649 0.533111 -0.224741 0 128 0
-0.571567 1.18186 0.663033 0.157641 0.959186 0.234757 0 128 0
-1.4421 0.668335 1.28879 -0.626886 0.745802 0.225373 0 128 0
-2.24805 -1.1406 0.746143 0.955213 0.16729 -0.244096 0 128 0
-0.775256 1.21227 0.0680729 -0.237341 0.604627 -0.760326 0 128 0
-1.68182 0.464912 1.12654 -0.716054 0.664365 0.21421 0 128 0
-0.137701 1.23643 1.00055 0.247505 -0.0937269 0.964342 0 128 0
0.146192 1.19989 -0.0179945 -0.144549 0.401536 -0.904364 0 128 0
-0.542897 1.18248 0.885758 0.23388 0.820245 0.522013 0 128 0
-1.46298 -2.40072 0.926795 -0.633975 -0.758137 0.152653 0 128 0
-2.03022 -0.266839 1.29195 0.912971 -0.310302 -0.264946 0 128 0
-2.21561 -1.32563 0.686638 0.935828 0.265689 -0.231591 0 128 0
-0.0756528 1.22962 0.0123062 -0.0485934 -0.541515 0.839285 0 128 0
-2.06625 0.222778 0.43575 0.848971 -0.490002 -0.197852 0 128 0
1.23873 -2.06418 -0.454679 0.704458 -0.676086 -0.215978 0 128 0
-2.21156 -1.08479 0.918083 0.956963 0.129498 -0.259717 0 128 0
-0.600208 -2.84562 0.434729 -0.190032 -0.98159 0.0192306 0 128 0
1.86831 -0.447935 0.355436 0.958991 0.176529 -0.22175 0 128 0
-1.56355 -2.3077 0.932883 -0.670611 -0.720603 0.176103 0 128 0
-2.01663 -1.82351 0.696907 0.855031 0.469562 -0.220075 0 128 0
1.36047 -2.19188 0.231723 0.685797 -0.69868 -0.203788 0 128 0
-1.22534 -2.59276 0.909705 0.540893 0.834882 -0.102014 0 128 0
-0.321026 1.2152 1.02981 0.47891 -0.0841903 0.873818 0 128 0
-1.04621 -2.6984 0.891463 0.467234 0.882273 -0.0573295 0 128 0
-0.344546 1.23879 0.446537 0.874649 -0.110823 -0.471918 0 128 0
-1.09334 0.936201 1.2303 -0.488735 0.850177 0.195799 0 128 0
