ply
format ascii 1.0
comment Created by Open3D
element vertex 1272
property double x
property double y
property double z
property uchar red
property uchar green
property uchar blue
end_header
0.263392 -2.08243 1.10318 0 128 0
0.267266 -2.06418 0.967188 0 128 0
0.35097 -2.06758 0.852895 0 128 0
0.128003 -2.10076 0.800125 0 128 0
0.225207 -2.05008 0.672519 0 128 0
0.3066 -2.08901 0.577234 0 128 0
0.08035 -2.08563 0.515379 0 128 0
0.156201 -2.03598 0.402954 0 128 0
0.269285 -2.11553 0.31505 0 128 0
0.045028 -2.03485 0.254589 0 128 0
0.14533 -2.03728 0.157224 0 128 0
-0.067052 -2.10344 0.109297 0 128 0
0.059557 -2.00065 0.010966 0 128 0
-0.137378 -2.16412 -0.041823 0 128 0
-0.004177 -2.00368 -0.131607 0 128 0
0.126762 -2.11628 -0.243672 0 128 0
0.673629 -0.596459 0.408258 0 128 0
0.788856 -0.487503 0.368353 0 128 0
0.652663 -0.670617 0.371452 0 128 0
0.663045 -0.614529 0.334433 0 128 0
0.684328 -0.577996 0.308923 0 128 0
0.727246 -0.509018 0.282606 0 128 0
0.792491 -0.490855 0.272271 0 128 0
0.635287 -0.65414 0.267013 0 128 0
0.649621 -0.583662 0.234242 0 128 0
0.682883 -0.535965 0.212513 0 128 0
0.764079 -0.491286 0.197766 0 128 0
0.625831 -0.66654 0.198834 0 128 0
0.64193 -0.585243 0.170284 0 128 0
0.704941 -0.515705 0.149501 0 128 0
0.824063 -0.497427 0.138994 0 128 0
0.616044 -0.620068 0.129459 0 128 0
0.646602 -0.536132 0.105331 0 128 0
0.702733 -0.498374 0.087477 0 128 0
0.603523 -0.704154 0.091368 0 128 0
0.618094 -0.579472 0.066271 0 128 0
0.652563 -0.512774 0.046743 0 128 0
0.748571 -0.478888 0.026312 0 128 0
0.592021 -0.627435 0.02667 0 128 0
0.61583 -0.534475 0.008737 0 128 0
0.691916 -0.492241 -0.012819 0 128 0
0.572855 -0.670751 -0.014863 0 128 0
0.576358 -0.552108 -0.028042 0 128 0
0.633825 -0.512217 -0.048949 0 128 0
0.756791 -0.481751 -0.078974 0 128 0
0.558335 -0.61911 -0.070432 0 128 0
0.575321 -0.526906 -0.08233 0 128 0
0.650041 -0.484484 -0.106479 0 128 0
0.757811 -0.486853 -0.145006 0 128 0
0.550763 -0.585496 -0.124694 0 128 0
0.584136 -0.50568 -0.137216 0 128 0
0.681183 -0.487318 -0.173434 0 128 0
0.705102 -0.47226 -0.19816 0 128 0
-0.229974 0.790338 0.828296 0 128 0
-0.216544 0.779396 0.814211 0 128 0
-0.211218 0.798493 0.831113 0 128 0
-0.202923 0.807231 0.837451 0 128 0
-0.195087 0.818651 0.846607 0 128 0
-0.061079 0.600654 0.610679 0 128 0
0.0847 0.865126 0.874073 0 128 0
0.088505 0.805491 0.815619 0 128 0
0.096389 0.788853 0.800125 0 128 0
0.105367 0.78269 0.795196 0 128 0
0.114856 0.780636 0.794491 0 128 0
0.12501 0.78267 0.798013 0 128 0
0.133354 0.774088 0.79097 0 128 0
0.138701 0.750779 0.769138 0 128 0
0.147761 0.748325 0.768434 0 128 0
0.159194 0.756861 0.778998 0 128 0
0.17245 0.772147 0.796604 0 128 0
0.183086 0.774802 0.801534 0 128 0
0.194342 0.779374 0.808577 0 128 0
0.207029 0.788585 0.820549 0 128 0
0.217077 0.787351 0.821958 0 128 0
0.2233 0.773054 0.809985 0 128 0
0.226898 0.751264 0.790266 0 128 0
0.24373 0.772071 0.814915 0 128 0
-0.231177 0.769948 0.773841 0 128 0
-0.22272 0.776215 0.777279 0 128 0
-0.215495 0.787289 0.785531 0 128 0
-0.205633 0.789172 0.784843 0 128 0
-0.075478 0.629491 0.612944 0 128 0
-0.059802 0.558196 0.544185 0 128 0
0.180118 0.791661 0.781405 0 128 0
0.181739 0.755488 0.7484 0 128 0
0.189404 0.746863 0.742212 0 128 0
0.195028 0.731145 0.729148 0 128 0
0.207093 0.739891 0.740149 0 128 0
0.215954 0.736596 0.739462 0 128 0
0.243997 0.79641 0.801345 0 128 0
-0.246523 0.79043 0.75464 0 128 0
-0.230536 0.771929 0.734644 0 128 0
-0.224048 0.785471 0.744642 0 128 0
-0.221855 0.816261 0.770637 0 128 0
-0.214193 0.828318 0.779302 0 128 0
-0.07395 0.611819 0.565345 0 128 0
0.189304 0.743121 0.699984 0 128 0
0.197619 0.737867 0.697318 0 128 0
0.210166 0.747564 0.708649 0 128 0
-0.256614 0.789934 0.723236 0 128 0
-0.235066 0.755264 0.689499 0 128 0
-0.226436 0.760279 0.691445 0 128 0
-0.217928 0.765926 0.694041 0 128 0
-0.222964 0.821393 0.740753 0 128 0
-0.229736 0.888873 0.797846 0 128 0
-0.075957 0.584427 0.517571 0 128 0
0.181318 0.746465 0.670036 0 128 0
0.189903 0.741971 0.668089 0 128 0
0.198601 0.738114 0.666792 0 128 0
-0.251281 0.756415 0.658237 0 128 0
-0.242908 0.762416 0.660745 0 128 0
-0.235317 0.771311 0.665761 0 128 0
-0.229254 0.786127 0.675793 0 128 0
-0.22409 0.805418 0.689587 0 128 0
-0.084521 0.60658 0.509635 0 128 0
0.210047 0.938204 0.790536 0 128 0
0.177564 0.75384 0.640054 0 128 0
0.185453 0.746321 0.635664 0 128 0
0.192378 0.735712 0.628767 0 128 0
-0.255475 0.759587 0.63214 0 128 0
-0.246379 0.76342 0.632749 0 128 0
-0.239115 0.773204 0.638227 0 128 0
-0.239123 0.808018 0.663789 0 128 0
-0.231579 0.819287 0.670484 0 128 0
-0.082984 0.590087 0.474507 0 128 0
0.167509 0.765025 0.618142 0 128 0
0.174219 0.751312 0.609013 0 128 0
0.183426 0.749118 0.609013 0 128 0
-0.212345 0.577759 0.46442 0 128 0
-0.271066 0.770978 0.610426 0 128 0
-0.261075 0.772708 0.609254 0 128 0
-0.252801 0.779714 0.612185 0 128 0
-0.242741 0.781208 0.611013 0 128 0
-0.233136 0.784127 0.611013 0 128 0
-0.222629 0.783808 0.608667 0 128 0
-0.213201 0.787264 0.609254 0 128 0
-0.201744 0.782751 0.603976 0 128 0
-0.192312 0.785955 0.604563 0 128 0
-0.182117 0.785886 0.602804 0 128 0
-0.171954 0.785685 0.601044 0 128 0
-0.161822 0.785353 0.599285 0 128 0
-0.15262 0.789668 0.601044 0 128 0
-0.141246 0.781906 0.594008 0 128 0
-0.133195 0.793175 0.601044 0 128 0
-0.122733 0.789943 0.597526 0 128 0
-0.089839 0.622052 0.473802 0 128 0
0.16603 0.81095 0.618049 0 128 0
0.165196 0.760628 0.582281 0 128 0
0.175449 0.762485 0.585212 0 128 0
0.185577 0.763419 0.587558 0 128 0
-0.28087 0.775802 0.587674 0 128 0
-0.269423 0.77375 0.583704 0 128 0
-0.26017 0.777778 0.584271 0 128 0
-0.25339 0.789534 0.590509 0 128 0
-0.24709 0.803599 0.598449 0 128 0
-0.231132 0.786037 0.583704 0 128 0
-0.224158 0.798325 0.590509 0 128 0
-0.21413 0.800221 0.589942 0 128 0
-0.203885 0.801193 0.588808 0 128 0
-0.191311 0.79243 0.580868 0 128 0
-0.182867 0.800337 0.584838 0 128 0
-0.170581 0.791253 0.576898 0 128 0
-0.160693 0.79248 0.576331 0 128 0
-0.149714 0.787921 0.571794 0 128 0
-0.139888 0.788888 0.571227 0 128 0
-0.12952 0.786483 0.568391 0 128 0
-0.094786 0.625207 0.454966 0 128 0
-0.109719 0.786163 0.566123 0 128 0
-0.098799 0.777648 0.559317 0 128 0
-0.088772 0.774711 0.556482 0 128 0
-0.080026 0.783115 0.561586 0 128 0
-0.069507 0.774196 0.55478 0 128 0
-0.060262 0.778275 0.557049 0 128 0
-0.050817 0.780599 0.558183 0 128 0
-0.041279 0.781986 0.55875 0 128 0
-0.031749 0.78408 0.559884 0 128 0
-0.022075 0.782764 0.55875 0 128 0
-0.012409 0.779682 0.556482 0 128 0
-0.002836 0.778952 0.555915 0 128 0
0.006723 0.778928 0.555915 0 128 0
0.016438 0.787022 0.561586 0 128 0
0.026713 0.806518 0.575197 0 128 0
0.029114 0.634154 0.456668 0 128 0
0.160587 0.823572 0.597315 0 128 0
0.157226 0.756196 0.551378 0 128 0
0.168782 0.764669 0.55875 0 128 0
0.176852 0.756924 0.55478 0 128 0
-0.287926 0.777073 0.558387 0 128 0
-0.274483 0.769463 0.550768 0 128 0
-0.271983 0.793445 0.564917 0 128 0
-0.262225 0.796723 0.564917 0 128 0
-0.256648 0.813505 0.574169 0 128 0
-0.106615 0.661605 0.455533 0 128 0
-0.01949 0.82931 0.558931 0 128 0
-0.009117 0.795929 0.537163 0 128 0
0.000651 0.795981 0.537163 0 128 0
0.010372 0.793396 0.535531 0 128 0
0.02003 0.790694 0.533898 0 128 0
0.029659 0.788712 0.53281 0 128 0
0.038823 0.779074 0.526823 0 128 0
0.046561 0.751754 0.509409 0 128 0
0.057595 0.773706 0.524102 0 128 0
0.067395 0.776282 0.526279 0 128 0
0.07639 0.77039 0.523014 0 128 0
0.086523 0.775228 0.526823 0 128 0
0.096138 0.774939 0.527367 0 128 0
0.10564 0.773701 0.527367 0 128 0
0.115898 0.777321 0.530633 0 128 0
0.128339 0.793216 0.542061 0 128 0
0.146495 0.783238 0.537707 0 128 0
0.150858 0.755906 0.520837 0 128 0
0.160481 0.755637 0.521926 0 128 0
-0.293256 0.782728 0.536344 0 128 0
-0.282757 0.783866 0.534771 0 128 0
-0.276482 0.796924 0.541064 0 128 0
-0.267494 0.802679 0.542638 0 128 0
-0.261012 0.816438 0.549455 0 128 0
-0.104918 0.643449 0.423067 0 128 0
0.052559 0.625048 0.407859 0 128 0
0.082409 0.860018 0.553651 0 128 0
0.086011 0.793749 0.513269 0 128 0
0.09474 0.784179 0.508025 0 128 0
0.104023 0.780425 0.506452 0 128 0
0.112864 0.774033 0.503305 0 128 0
0.12117 0.765019 0.498585 0 128 0
0.128987 0.754239 0.492817 0 128 0
0.140212 0.76349 0.499634 0 128 0
0.148108 0.75419 0.494914 0 128 0
0.160116 0.765655 0.503305 0 128 0
-0.245881 0.607062 0.401905 0 128 0
-0.311486 0.800751 0.520154 0 128 0
-0.293544 0.782593 0.506626 0 128 0
-0.287106 0.795107 0.512137 0 128 0
-0.276767 0.796932 0.511135 0 128 0
-0.27209 0.815893 0.520655 0 128 0
-0.138476 0.78301 0.483076 0 128 0
0.099381 0.635999 0.395391 0 128 0
0.132657 0.779628 0.480571 0 128 0
0.139489 0.763484 0.472053 0 128 0
0.145945 0.747292 0.463535 0 128 0
-0.198604 0.49645 0.316455 0 128 0
-0.299926 0.775085 0.478925 0 128 0
-0.285775 0.766391 0.471715 0 128 0
-0.288256 0.802833 0.490942 0 128 0
-0.278383 0.80631 0.490942 0 128 0
-0.273182 0.823807 0.499114 0 128 0
-0.128882 0.689367 0.407784 0 128 0
0.094304 0.638261 0.377021 0 128 0
0.137182 0.858787 0.500075 0 128 0
0.12971 0.751583 0.441432 0 128 0
0.136077 0.734409 0.43278 0 128 0
0.1606 0.811851 0.477003 0 128 0
-0.340395 0.837084 0.488841 0 128 0
-0.306987 0.781476 0.455929 0 128 0
-0.301725 0.796851 0.462329 0 128 0
-0.292224 0.801331 0.462786 0 128 0
-0.287593 0.81999 0.471014 0 128 0
-0.32369 0.962755 0.546435 0 128 0
-0.160233 0.832332 0.460043 0 128 0
0.089576 0.637681 0.355368 0 128 0
0.118168 0.766518 0.423018 0 128 0
0.128624 0.771146 0.426218 0 128 0
0.13484 0.752018 0.417076 0 128 0
-0.199022 0.481537 0.277518 0 128 0
-0.313625 0.783697 0.434048 0 128 0
-0.303008 0.78497 0.432739 0 128 0
-0.296188 0.796216 0.436664 0 128 0
-0.294015 0.820959 0.447564 0 128 0
-0.293337 0.851719 0.461517 0 128 0
-0.16736 0.840215 0.440152 0 128 0
0.08808 0.647371 0.341612 0 128 0
0.112446 0.758437 0.39655 0 128 0
0.119766 0.744557 0.390446 0 128 0
0.130264 0.751014 0.39437 0 128 0
-0.228602 0.534802 0.28905 0 128 0
-0.324203 0.790125 0.412235 0 128 0
-0.310506 0.783858 0.407292 0 128 0
-0.308245 0.807224 0.416767 0 128 0
-0.30173 0.820369 0.421299 0 128 0
-0.301236 0.851544 0.434483 0 128 0
0.08214 0.655759 0.324893 0 128 0
0.108781 0.783667 0.383808 0 128 0
0.112603 0.745365 0.366916 0 128 0
0.120981 0.739435 0.364856 0 128 0
-0.406994 0.950704 0.465258 0 128 0
-0.322575 0.780471 0.384834 0 128 0
-0.307492 0.770698 0.378587 0 128 0
-0.311957 0.810478 0.394984 0 128 0
-0.305203 0.822872 0.398888 0 128 0
-0.346998 0.971272 0.464087 0 128 0
-0.153419 0.686719 0.325101 0 128 0
0.10211 0.746411 0.346183 0 128 0
0.110859 0.742369 0.345012 0 128 0
0.117196 0.72368 0.337594 0 128 0
-0.338362 0.791151 0.366247 0 128 0
-0.325116 0.786627 0.362585 0 128 0
-0.321229 0.805278 0.36881 0 128 0
-0.316603 0.823081 0.374669 0 128 0
-0.31063 0.838266 0.379429 0 128 0
-0.173985 0.733096 0.324136 0 128 0
0.094962 0.768083 0.332192 0 128 0
0.101251 0.744747 0.323404 0 128 0
0.110807 0.746207 0.324502 0 128 0
-0.388006 0.87831 0.380404 0 128 0
-0.336497 0.78809 0.34253 0 128 0
-0.322847 0.782619 0.338742 0 128 0
-0.318799 0.800469 0.344251 0 128 0
-0.305572 0.795562 0.340808 0 128 0
-0.291532 0.787812 0.336332 0 128 0
-0.281842 0.79133 0.336332 0 128 0
-0.273638 0.799168 0.338054 0 128 0
-0.257329 0.782854 0.330479 0 128 0
-0.247419 0.785058 0.330134 0 128 0
-0.239402 0.793426 0.3322 0 128 0
-0.235926 0.817944 0.340464 0 128 0
-0.255182 0.92664 0.380749 0 128 0
-0.165747 0.633753 0.268502 0 128 0
-0.20566 0.826073 0.340464 0 128 0
-0.14233 0.604747 0.256107 0 128 0
-0.14663 0.658661 0.275733 0 128 0
0.054425 0.47924 0.205148 0 128 0
0.095432 0.763669 0.310508 0 128 0
0.105049 0.764301 0.311197 0 128 0
0.116622 0.777814 0.316706 0 128 0
-0.358911 0.806973 0.327394 0 128 0
-0.339352 0.788643 0.319075 0 128 0
-0.335043 0.805896 0.323875 0 128 0
-0.327919 0.816994 0.326434 0 128 0
-0.320235 0.827152 0.328674 0 128 0
-0.33165 0.889705 0.349791 0 128 0
-0.306795 0.85441 0.335713 0 128 0
-0.284995 0.824924 0.323875 0 128 0
-0.266907 0.804043 0.315236 0 128 0
-0.262116 0.823533 0.320995 0 128 0
-0.246007 0.806721 0.313956 0 128 0
-0.236089 0.809679 0.313956 0 128 0
-0.216649 0.777785 0.301798 0 128 0
-0.206373 0.777634 0.300838 0 128 0
-0.178418 0.705604 0.274922 0 128 0
-0.189169 0.790767 0.303718 0 128 0
-0.175566 0.775452 0.297639 0 128 0
-0.166037 0.777548 0.297639 0 128 0
-0.156119 0.777668 0.296999 0 128 0
-0.146053 0.776729 0.296039 0 128 0
-0.136511 0.778463 0.296039 0 128 0
-0.1268 0.779143 0.295719 0 128 0
-0.117229 0.780641 0.295719 0 128 0
-0.105154 0.763236 0.28932 0 128 0
-0.102549 0.82091 0.308517 0 128 0
-0.06543 0.570591 0.22309 0 128 0
0.084094 0.771561 0.29124 0 128 0
0.091888 0.757312 0.28676 0 128 0
0.100521 0.751435 0.285161 0 128 0
-0.347941 0.789034 0.298509 0 128 0
-0.337104 0.790612 0.297617 0 128 0
-0.337962 0.820272 0.306245 0 128 0
-0.328933 0.827018 0.307138 0 128 0
-0.372649 0.970859 0.353852 0 128 0
-0.126256 0.603928 0.222041 0 128 0
-0.180735 0.917266 0.321122 0 128 0
-0.150109 0.815225 0.288095 0 128 0
-0.135534 0.790665 0.279764 0 128 0
-0.123552 0.778129 0.275301 0 128 0
-0.114553 0.783365 0.276491 0 128 0
-0.105571 0.789442 0.277979 0 128 0
-0.095759 0.78973 0.277681 0 128 0
-0.084698 0.77851 0.273813 0 128 0
-0.076163 0.789942 0.277086 0 128 0
-0.065485 0.779403 0.273516 0 128 0
-0.055846 0.779196 0.273218 0 128 0
-0.046861 0.789352 0.276194 0 128 0
-0.036939 0.785099 0.274706 0 128 0
-0.027337 0.786448 0.275004 0 128 0
-0.01743 0.776225 0.271731 0 128 0
-0.007756 0.76397 0.267863 0 128 0
0.001551 0.587387 0.212817 0 128 0
0.088618 0.88273 0.306245 0 128 0
0.086243 0.76297 0.269053 0 128 0
0.094896 0.756169 0.267267 0 128 0
0.125558 0.911979 0.316659 0 128 0
-0.396361 0.859364 0.299266 0 128 0
-0.361315 0.808718 0.282059 0 128 0
-0.341169 0.789202 0.274685 0 128 0
-0.34356 0.822678 0.283698 0 128 0
-0.339842 0.84292 0.288614 0 128 0
-0.201452 0.75348 0.252016 0 128 0
-0.049403 0.628903 0.209683 0 128 0
-0.055926 0.867608 0.277416 0 128 0
-0.041258 0.78367 0.253382 0 128 0
-0.03157 0.782194 0.252836 0 128 0
-0.021815 0.775791 0.250924 0 128 0
-0.012334 0.779848 0.252016 0 128 0
-0.00276 0.781864 0.252562 0 128 0
0.006768 0.77703 0.251197 0 128 0
0.016303 0.776888 0.251197 0 128 0
0.02591 0.778552 0.251743 0 128 0
0.035608 0.781058 0.252562 0 128 0
0.045856 0.791123 0.255567 0 128 0
0.055561 0.790501 0.255567 0 128 0
0.063323 0.767718 0.249285 0 128 0
0.071685 0.756354 0.246281 0 128 0
0.0815 0.760197 0.247646 0 128 0
0.090822 0.75914 0.247646 0 128 0
-0.25697 0.547668 0.187643 0 128 0
-0.354039 0.777969 0.252241 0 128 0
-0.349163 0.792881 0.255245 0 128 0
-0.349303 0.820251 0.261755 0 128 0
-0.338472 0.822686 0.261255 0 128 0
-0.36099 0.90861 0.284039 0 128 0
-0.19044 0.695535 0.217688 0 128 0
0.016607 0.600856 0.186641 0 128 0
0.032379 0.823122 0.244229 0 128 0
0.04001 0.773349 0.231459 0 128 0
0.048955 0.764103 0.229206 0 128 0
0.060058 0.786616 0.235215 0 128 0
0.068028 0.76653 0.230207 0 128 0
0.077429 0.765637 0.230207 0 128 0
0.086604 0.762705 0.229707 0 128 0
0.112314 0.893209 0.264009 0 128 0
-0.25108 0.52184 0.166102 0 128 0
-0.369145 0.796826 0.235371 0 128 0
-0.350263 0.780809 0.230181 0 128 0
-0.352548 0.812809 0.237176 0 128 0
-0.349999 0.835077 0.241688 0 128 0
-0.359249 0.88816 0.253872 0 128 0
-0.251895 0.896054 0.247555 0 128 0
0.041987 0.621523 0.176255 0 128 0
0.062767 0.773345 0.211679 0 128 0
0.0712 0.761853 0.209197 0 128 0
0.081189 0.766731 0.210551 0 128 0
-0.275369 0.568978 0.1636 0 128 0
-0.370662 0.789312 0.213324 0 128 0
-0.357288 0.785784 0.211498 0 128 0
-0.360676 0.819667 0.218195 0 128 0
-0.357514 0.84024 0.221849 0 128 0
-0.361372 0.878958 0.229561 0 128 0
-0.256859 0.894618 0.225502 0 128 0
0.060168 0.784518 0.195667 0 128 0
0.067574 0.758358 0.19039 0 128 0
0.076778 0.756498 0.190187 0 128 0
-0.291651 0.58705 0.15199 0 128 0
-0.376336 0.784412 0.190819 0 128 0
-0.36545 0.786288 0.190285 0 128 0
-0.364167 0.809596 0.194025 0 128 0
-0.354593 0.814908 0.194203 0 128 0
-0.359287 0.854639 0.20115 0 128 0
0.052835 0.780656 0.174967 0 128 0
0.060158 0.753476 0.170158 0 128 0
0.069495 0.75366 0.170336 0 128 0
-0.293952 0.588963 0.137257 0 128 0
-0.38607 0.796864 0.17292 0 128 0
-0.37542 0.799755 0.17261 0 128 0
-0.370499 0.815086 0.174471 0 128 0
-0.366454 0.833128 0.176796 0 128 0
-0.360082 0.846647 0.178347 0 128 0
0.049729 0.770249 0.155089 0 128 0
0.056436 0.733131 0.149352 0 128 0
0.066721 0.747146 0.151677 0 128 0
-0.326637 0.636924 0.128775 0 128 0
-0.4057 0.818017 0.154716 0 128 0
-0.378175 0.786223 0.149371 0 128 0
-0.347762 0.745776 0.142853 0 128 0
-0.372087 0.825151 0.153673 0 128 0
-0.37096 0.850596 0.156671 0 128 0
-0.221222 0.743052 0.136597 0 128 0
0.042977 0.789979 0.138682 0 128 0
0.049193 0.740934 0.132295 0 128 0
0.057867 0.735335 0.131643 0 128 0
0.085727 0.929974 0.157453 0 128 0
-0.412719 0.826458 0.134815 0 128 0
-0.388207 0.801949 0.13128 0 128 0
-0.368173 0.785064 0.128709 0 128 0
-0.381194 0.83928 0.134601 0 128 0
-0.372873 0.848443 0.135137 0 128 0
0.039815 0.756695 0.116924 0 128 0
0.058073 0.751524 0.116496 0 128 0
-0.446122 0.871987 0.116851 0 128 0
-0.391883 0.788841 0.108705 0 128 0
-0.370606 0.769295 0.106483 0 128 0
-0.389935 0.836231 0.112161 0 128 0
-0.379644 0.840953 0.112161 0 128 0
0.018297 0.648355 0.089532 0 128 0
0.032971 0.792433 0.101464 0 128 0
0.037658 0.706409 0.094387 0 128 0
0.046253 0.704899 0.094305 0 128 0
0.070411 0.889998 0.109692 0 128 0
-0.477726 0.900351 0.096792 0 128 0
-0.417161 0.810358 0.090425 0 128 0
-0.392874 0.786857 0.088538 0 128 0
-0.385806 0.797007 0.088892 0 128 0
-0.390028 0.831486 0.090838 0 128 0
-0.391389 0.861643 0.092488 0 128 0
-0.407378 0.926661 0.09638 0 128 0
-0.398325 0.9371 0.096733 0 128 0
0.030139 0.747107 0.080756 0 128 0
-0.297564 0.544363 0.058507 0 128 0
-0.429303 0.812795 0.068733 0 128 0
-0.409803 0.799285 0.068015 0 128 0
-0.393787 0.791698 0.067536 0 128 0
-0.386623 0.801884 0.067741 0 128 0
-0.377172 0.807475 0.067776 0 128 0
-0.365604 0.808393 0.067639 0 128 0
-0.34931 0.798141 0.067092 0 128 0
-0.338334 0.799601 0.066989 0 128 0
-0.333731 0.816668 0.067468 0 128 0
-0.328398 0.832809 0.067912 0 128 0
-0.354669 0.93409 0.071469 0 128 0
-0.208029 0.610921 0.059362 0 128 0
-0.234042 0.718127 0.063124 0 128 0
0.022748 0.789954 0.064321 0 128 0
0.05054 0.770637 0.063706 0 128 0
-0.272743 0.515199 0.044113 0 128 0
-0.418304 0.812571 0.047637 0 128 0
-0.39531 0.791718 0.047328 0 128 0
-0.401733 0.829787 0.047722 0 128 0
-0.402593 0.858177 0.047999 0 128 0
-0.25557 0.563709 0.044496 0 128 0
-0.258319 0.58876 0.044752 0 128 0
-0.383288 0.901846 0.04834 0 128 0
-0.335615 0.817729 0.047318 0 128 0
-0.317053 0.800416 0.047073 0 128 0
-0.30864 0.807981 0.047115 0 128 0
-0.288647 0.784508 0.046807 0 128 0
-0.278663 0.787049 0.046796 0 128 0
-0.269954 0.793248 0.046828 0 128 0
-0.246202 0.786281 0.046679 0 128 0
-0.243748 0.813178 0.046945 0 128 0
-0.244822 0.854543 0.047371 0 128 0
-0.173373 0.635718 0.044922 0 128 0
0.020606 0.733641 0.045721 0 128 0
-0.321031 0.587704 0.029331 0 128 0
-0.42362 0.801592 0.026063 0 128 0
-0.406512 0.792463 0.026284 0 128 0
-0.413975 0.832381 0.025746 0 128 0
-0.407604 0.845521 0.025622 0 128 0
-0.430746 0.923076 0.024519 0 128 0
-0.266002 0.817459 0.026711 0 128 0
-0.247443 0.792941 0.027111 0 128 0
-0.239101 0.800715 0.027042 0 128 0
-0.229257 0.803589 0.027042 0 128 0
-0.218863 0.804409 0.02707 0 128 0
-0.204545 0.78959 0.027318 0 128 0
-0.197885 0.804678 0.027139 0 128 0
-0.184217 0.790472 0.027373 0 128 0
-0.173241 0.786808 0.027456 0 128 0
-0.162779 0.784955 0.027511 0 128 0
-0.170827 0.880222 0.026201 0 128 0
0.012523 0.771557 0.027925 0 128 0
0.040332 0.760591 0.028063 0 128 0
-0.421203 0.7935 0.005638 0 128 0
-0.411434 0.798609 0.005638 0 128 0
-0.417283 0.834861 0.004331 0 128 0
-0.411814 0.849805 0.00392 0 128 0
-0.172762 0.664417 0.013554 0 128 0
-0.124038 0.503577 0.019827 0 128 0
-0.191059 0.815318 0.007915 0 128 0
-0.174078 0.78639 0.00911 0 128 0
-0.163592 0.784555 0.00926 0 128 0
-0.155887 0.796308 0.008886 0 128 0
-0.144833 0.791282 0.009148 0 128 0
-0.135451 0.794969 0.009073 0 128 0
-0.125056 0.792624 0.009222 0 128 0
-0.115029 0.792122 0.009297 0 128 0
-0.105832 0.797436 0.009148 0 128 0
-0.093742 0.779827 0.009857 0 128 0
-0.088622 0.821647 0.008326 0 128 0
-0.059519 0.62673 0.015682 0 128 0
0.011705 0.759369 0.010828 0 128 0
-0.352613 0.628199 -0.004832 0 128 0
-0.440909 0.810885 -0.017402 0 128 0
-0.430001 0.814465 -0.017278 0 128 0
-0.418619 0.81701 -0.017092 0 128 0
-0.421774 0.848956 -0.01895 0 128 0
-0.42077 0.87389 -0.020312 0 128 0
-0.106483 0.625564 0.000493 0 128 0
-0.13449 0.862679 -0.014306 0 128 0
-0.113877 0.792097 -0.009785 0 128 0
-0.103522 0.788483 -0.009476 0 128 0
-0.093274 0.784736 -0.009166 0 128 0
-0.082831 0.777878 -0.008671 0 128 0
-0.073368 0.77983 -0.008733 0 128 0
-0.063716 0.779676 -0.008671 0 128 0
-0.054272 0.782391 -0.008795 0 128 0
-0.044252 0.775025 -0.008299 0 128 0
-0.035253 0.788474 -0.009104 0 128 0
-0.025575 0.788847 -0.009104 0 128 0
-0.016165 0.807065 -0.010219 0 128 0
0.00359 0.801231 -0.009847 0 128 0
0.011502 0.712318 -0.004337 0 128 0
0.020208 0.711126 -0.004275 0 128 0
0.032388 0.7856 -0.008919 0 128 0
0.042725 0.7971 -0.009662 0 128 0
-0.444038 0.812206 -0.038998 0 128 0
-0.428416 0.807041 -0.037971 0 128 0
-0.426717 0.828169 -0.039512 0 128 0
-0.425902 0.852045 -0.041309 0 128 0
-0.429357 0.88588 -0.044048 0 128 0
-0.053269 0.644491 -0.015033 0 128 0
-0.066628 0.939242 -0.040367 0 128 0
-0.046267 0.792796 -0.0277 0 128 0
-0.036819 0.799276 -0.028213 0 128 0
-0.026374 0.781744 -0.026673 0 128 0
-0.01572 0.73619 -0.022736 0 128 0
-0.007138 0.778171 -0.026331 0 128 0
0.002409 0.776207 -0.026159 0 128 0
0.01162 0.753206 -0.024191 0 128 0
0.020086 0.723127 -0.021623 0 128 0
0.031092 0.77858 -0.026416 0 128 0
0.040644 0.778139 -0.026416 0 128 0
0.052128 0.808407 -0.02907 0 128 0
0.065108 0.848441 -0.032579 0 128 0
-0.375503 0.650743 -0.041915 0 128 0
-0.468637 0.837885 -0.064996 0 128 0
-0.435243 0.800684 -0.05961 0 128 0
-0.432287 0.81918 -0.061259 0 128 0
-0.428942 0.837721 -0.062907 0 128 0
-0.426082 0.858087 -0.064776 0 128 0
-0.013637 0.6478 -0.030485 0 128 0
-0.006153 0.817882 -0.049279 0 128 0
0.003477 0.775158 -0.044553 0 128 0
0.012989 0.775057 -0.044553 0 128 0
0.022905 0.78676 -0.045872 0 128 0
0.032466 0.784434 -0.045652 0 128 0
0.045467 0.841526 -0.052026 0 128 0
0.054946 0.829007 -0.050708 0 128 0
0.06982 0.884729 -0.056972 0 128 0
0.087301 0.953065 -0.064666 0 128 0
-0.465207 0.825615 -0.085781 0 128 0
-0.441205 0.80607 -0.08191 0 128 0
-0.437809 0.823666 -0.083779 0 128 0
-0.431313 0.836018 -0.084846 0 128 0
-0.429473 0.858075 -0.087382 0 128 0
-0.007407 0.767252 -0.06149 0 128 0
0.002001 0.759356 -0.060422 0 128 0
0.011307 0.758284 -0.060288 0 128 0
-0.48751 0.848543 -0.114085 0 128 0
-0.453643 0.812122 -0.106344 0 128 0
-0.450185 0.829806 -0.108555 0 128 0
-0.44636 0.847526 -0.110767 0 128 0
-0.441721 0.864394 -0.112821 0 128 0
-0.021332 0.654393 -0.062266 0 128 0
-0.015648 0.818504 -0.088491 0 128 0
-0.005536 0.786049 -0.083278 0 128 0
0.004121 0.787045 -0.083436 0 128 0
0.017021 0.931065 -0.106502 0 128 0
-0.494607 0.852703 -0.138794 0 128 0
-0.457482 0.811629 -0.128809 0 128 0
-0.446067 0.814597 -0.128264 0 128 0
-0.445296 0.837362 -0.131895 0 128 0
-0.439961 0.852368 -0.133892 0 128 0
-0.017142 0.775135 -0.099943 0 128 0
-0.007493 0.763488 -0.097764 0 128 0
0.001883 0.771389 -0.099217 0 128 0
-0.507891 0.860927 -0.16573 0 128 0
-0.468758 0.81689 -0.153624 0 128 0
-0.456432 0.842811 -0.157112 0 128 0
-0.447411 0.850953 -0.157728 0 128 0
-0.262523 0.666917 -0.106433 0 128 0
-0.025008 0.813234 -0.126745 0 128 0
-0.014493 0.774334 -0.118538 0 128 0
-0.00499 0.774454 -0.118538 0 128 0
-0.461191 0.816896 -0.176151 0 128 0
-0.461926 0.842109 -0.181419 0 128 0
-0.452934 0.850289 -0.182106 0 128 0
-0.261403 0.657321 -0.121871 0 128 0
-0.027505 0.783809 -0.139964 0 128 0
-0.017908 0.785061 -0.140193 0 128 0
-0.008344 0.791062 -0.141567 0 128 0
-0.471071 0.800129 -0.197177 0 128 0
-0.436592 0.832585 -0.200207 0 128 0
-0.43722 0.859485 -0.206522 0 128 0
-0.417301 0.845657 -0.200965 0 128 0
-0.426755 0.892697 -0.213089 0 128 0
-0.280643 0.6908 -0.14944 0 128 0
-0.032372 0.768171 -0.155501 0 128 0
-0.022991 0.770445 -0.156007 0 128 0
-0.013606 0.776474 -0.157522 0 128 0
-0.590253 0.986318 -0.284697 0 128 0
-0.407539 0.811659 -0.215302 0 128 0
-0.401345 0.82437 -0.21779 0 128 0
-0.389142 0.824891 -0.216407 0 128 0
-0.377388 0.82611 -0.215302 0 128 0
-0.361764 0.818381 -0.211431 0 128 0
-0.355863 0.832473 -0.214472 0 128 0
-0.331261 0.802157 -0.20369 0 128 0
-0.336755 0.844524 -0.215578 0 128 0
-0.037039 0.77376 -0.176871 0 128 0
-0.027721 0.778959 -0.178254 0 128 0
-0.018208 0.781162 -0.178807 0 128 0
-0.312629 0.747304 -0.207556 0 128 0
-0.286491 0.708535 -0.193186 0 128 0
-0.313695 0.805521 -0.224621 0 128 0
-0.30478 0.811994 -0.225519 0 128 0
-0.300235 0.830953 -0.230608 0 128 0
-0.289707 0.833672 -0.230309 0 128 0
-0.040777 0.770819 -0.195581 0 128 0
-0.031281 0.770308 -0.195282 0 128 0
-0.021782 0.768726 -0.194683 0 128 0
-0.258723 0.625793 -0.183618 0 128 0
-0.342412 0.887892 -0.277267 0 128 0
-0.300712 0.809566 -0.247235 0 128 0
-0.290755 0.813195 -0.247235 0 128 0
-0.278899 0.811335 -0.245297 0 128 0
-0.265941 0.805714 -0.242068 0 128 0
-0.249431 0.788174 -0.23464 0 128 0
-0.23974 0.791176 -0.23464 0 128 0
-0.234516 0.809505 -0.24013 0 128 0
-0.225071 0.814145 -0.240776 0 128 0
-0.22064 0.837887 -0.248203 0 128 0
-0.047065 0.77132 -0.216234 0 128 0
-0.037214 0.764278 -0.21365 0 128 0
-0.028121 0.772243 -0.216234 0 128 0
-0.252779 0.828809 -0.271247 0 128 0
-0.239746 0.821926 -0.267443 0 128 0
-0.223952 0.803989 -0.25949 0 128 0
-0.213833 0.805769 -0.259144 0 128 0
-0.201453 0.798312 -0.25534 0 128 0
-0.188647 0.787933 -0.250499 0 128 0
-0.181598 0.802099 -0.254994 0 128 0
-0.175187 0.820802 -0.261219 0 128 0
-0.16348 0.814602 -0.258107 0 128 0
-0.161574 0.860851 -0.274704 0 128 0
-0.043579 0.55986 -0.158865 0 128 0
-0.048708 0.766432 -0.234939 0 128 0
-0.039299 0.766972 -0.234939 0 128 0
-0.03001 0.771148 -0.236322 0 128 0
-0.593663 0.961679 -0.399882 0 128 0
-0.208106 0.874316 -0.307976 0 128 0
-0.183388 0.81517 -0.282877 0 128 0
-0.166957 0.787367 -0.270697 0 128 0
-0.157649 0.791179 -0.271435 0 128 0
-0.147928 0.793054 -0.271435 0 128 0
-0.138185 0.79481 -0.271435 0 128 0
-0.127673 0.791859 -0.26959 0 128 0
-0.118776 0.79888 -0.271805 0 128 0
-0.110741 0.813167 -0.276972 0 128 0
-0.099482 0.804321 -0.272912 0 128 0
-0.0895 0.804558 -0.272543 0 128 0
-0.086501 0.874025 -0.299856 0 128 0
-0.057506 0.776725 -0.260362 0 128 0
-0.047146 0.764387 -0.255195 0 128 0
-0.037715 0.76398 -0.254826 0 128 0
-0.132441 0.824033 -0.305527 0 128 0
-0.118017 0.795538 -0.292606 0 128 0
-0.106577 0.784152 -0.287125 0 128 0
-0.095111 0.769866 -0.280468 0 128 0
-0.086043 0.774636 -0.282035 0 128 0
-0.077129 0.782047 -0.284775 0 128 0
-0.066338 0.76826 -0.278511 0 128 0
-0.056842 0.768098 -0.278119 0 128 0
-0.047206 0.765063 -0.276553 0 128 0
-0.04372 0.899798 -0.333717 0 128 0
-0.068847 0.787428 -0.309685 0 128 0
-0.057714 0.769161 -0.300976 0 128 0
-0.049444 0.787973 -0.30927 0 128 0
-0.693491 0.971899 -0.853562 0 128 0
-0.709028 1.02024 -0.890595 0 128 0
-0.710781 0.886135 -0.903196 0 128 0
-0.712252 0.983732 -0.969843 0 128 0
-0.735827 0.90581 -1.0364 0 128 0
-0.766705 1.04558 -1.15848 0 128 0
-0.580903 0.952982 -0.988396 0 128 0
-0.759889 0.738139 -0.991244 0 128 0
-1.37177 0.70295 1.39251 0 128 0
-1.01618 0.98099 1.2772 0 128 0
-0.688523 1.10341 1.17722 0 128 0
-0.385515 1.1929 1.13523 0 128 0
-1.17691 0.880431 1.26821 0 128 0
-0.852201 1.04743 1.16636 0 128 0
-0.545976 1.1673 1.1138 0 128 0
-0.131894 1.2383 1.07682 0 128 0
-1.52923 0.59235 1.33666 0 128 0
-1.16473 0.911 1.20687 0 128 0
-0.824584 1.05826 1.09652 0 128 0
-0.522729 1.18123 1.05639 0 128 0
-0.120483 1.22897 1.01062 0 128 0
-1.77292 0.229187 1.38866 0 128 0
-1.23865 0.860778 1.17442 0 128 0
-0.907184 1.03863 1.07522 0 128 0
-0.600125 1.17427 1.02896 0 128 0
-0.187809 1.21544 0.960797 0 128 0
0.127432 1.21607 0.955319 0 128 0
-1.60961 0.503122 1.2396 0 128 0
-1.28801 0.830415 1.12819 0 128 0
-0.956562 1.02067 1.03144 0 128 0
-0.647017 1.16293 0.982186 0 128 0
-0.03571 1.21201 0.896576 0 128 0
0.32239 1.18737 0.909476 0 128 0
-1.78198 0.278101 1.26142 0 128 0
-1.50166 0.635489 1.14232 0 128 0
-1.12147 0.934991 1.02493 0 128 0
-0.81011 1.11032 0.965946 0 128 0
-0.48721 1.20292 0.913203 0 128 0
0.386188 1.18633 0.878609 0 128 0
-2.02664 -0.439276 1.44744 0 128 0
-1.47007 0.701951 1.07755 0 128 0
-1.13095 0.934586 0.972523 0 128 0
-0.820429 1.11367 0.918103 0 128 0
-0.485104 1.18095 0.84899 0 128 0
-0.087532 1.23417 0.823412 0 128 0
0.526914 1.14167 0.836473 0 128 0
-2.07054 -0.788189 1.45795 0 128 0
-1.81038 0.307549 1.15255 0 128 0
-1.51372 0.664757 1.0398 0 128 0
-1.12744 0.942253 0.926522 0 128 0
-0.817537 1.1233 0.877225 0 128 0
-0.478873 1.18647 0.809573 0 128 0
-0.080182 1.24112 0.787547 0 128 0
0.387717 1.18621 0.790169 0 128 0
0.69011 1.09756 0.820062 0 128 0
-2.08853 -0.844143 1.409 0 128 0
-1.70561 0.471619 1.04727 0 128 0
-1.37974 0.803254 0.947055 0 128 0
-1.04866 1.02175 0.870394 0 128 0
-0.705641 1.14264 0.800246 0 128 0
-0.294371 1.23302 0.756654 0 128 0
0.029002 1.24483 0.743626 0 128 0
0.391296 1.18938 0.747635 0 128 0
0.686687 1.08713 0.767176 0 128 0
-2.00861 -1.37669 1.43258 0 128 0
-2.11405 -0.785043 1.32836 0 128 0
-1.85052 0.293957 1.05046 0 128 0
-1.55095 0.661326 0.947591 0 128 0
-1.16068 0.949035 0.845205 0 128 0
-0.829241 1.11405 0.784639 0 128 0
-0.500593 1.20285 0.737533 0 128 0
-0.0792 1.25564 0.713018 0 128 0
0.302657 1.21668 0.710614 0 128 0
0.60114 1.12913 0.724554 0 128 0
0.89623 0.992219 0.756279 0 128 0
-2.0396 -1.33322 1.35906 0 128 0
-2.10829 -0.56043 1.21918 0 128 0
-1.7016 0.48705 0.934054 0 128 0
-1.3517 0.825899 0.83852 0 128 0
-1.03217 1.04946 0.780926 0 128 0
-0.676692 1.14977 0.710076 0 128 0
-0.270769 1.25181 0.68265 0 128 0
0.055507 1.24394 0.664366 0 128 0
0.418099 1.18516 0.670308 0 128 0
0.719193 1.08653 0.694077 0 128 0
1.00839 0.921678 0.726531 0 128 0
-1.95503 -1.61345 1.32716 0 128 0
-2.12213 -1.01118 1.23254 0 128 0
-2.10524 -0.318887 1.11872 0 128 0
-1.67864 0.529777 0.877912 0 128 0
-1.36001 0.836117 0.798557 0 128 0
-0.969759 1.06799 0.723999 0 128 0
-0.628833 1.17409 0.670368 0 128 0
-0.187709 1.25857 0.641591 0 128 0
0.120523 1.23332 0.625459 0 128 0
0.479518 1.1602 0.633307 0 128 0
0.779139 1.05235 0.659468 0 128 0
1.08234 0.889865 0.703942 0 128 0
-1.91806 -1.74313 1.28079 0 128 0
-2.11365 -1.13331 1.18705 0 128 0
-2.12935 -0.372191 1.07238 0 128 0
-1.63747 0.574017 0.810631 0 128 0
-1.3175 0.867638 0.739357 0 128 0
-1.00758 1.09651 0.699394 0 128 0
-0.644739 1.18579 0.636359 0 128 0
-0.195348 1.25351 0.599692 0 128 0
0.112428 1.23529 0.58692 0 128 0
0.472387 1.16464 0.594336 0 128 0
0.770906 1.05533 0.616995 0 128 0
1.05477 0.878209 0.646659 0 128 0
-1.55179 -2.22966 1.25435 0 128 0
-1.95492 -1.70566 1.19914 0 128 0
-2.14264 -1.09406 1.11386 0 128 0
-2.14727 -0.385762 1.01251 0 128 0
-1.84373 0.437633 0.830291 0 128 0
-1.47939 0.767526 0.73347 0 128 0
-1.12501 1.01977 0.670614 0 128 0
-0.767203 1.14857 0.612442 0 128 0
-0.344797 1.24699 0.575354 0 128 0
-0.014873 1.23845 0.551929 0 128 0
0.349106 1.20271 0.557785 0 128 0
0.64384 1.10412 0.568717 0 128 0
0.941647 0.96471 0.598388 0 128 0
1.22617 0.755358 0.637429 0 128 0
-1.5236 -2.28189 1.19025 0 128 0
-1.95975 -1.73398 1.13637 0 128 0
-2.16388 -1.12345 1.06063 0 128 0
-2.15896 -0.347845 0.954051 0 128 0
-1.67993 0.607381 0.730592 0 128 0
-1.32784 0.893102 0.657357 0 128 0
-1.00273 1.11275 0.617077 0 128 0
-0.638501 1.20204 0.56325 0 128 0
-0.213823 1.24989 0.526632 0 128 0
0.092746 1.21986 0.509055 0 128 0
0.431464 1.15272 0.511985 0 128 0
0.735244 1.06608 0.537251 0 128 0
1.02409 0.900803 0.564348 0 128 0
1.31168 0.675842 0.608289 0 128 0
-1.27382 -2.50465 1.13339 0 128 0
-1.76897 -2.03383 1.08835 0 128 0
-2.06502 -1.44206 1.01877 0 128 0
-2.19256 -0.836034 0.95103 0 128 0
-1.99111 0.17254 0.761217 0 128 0
-1.70928 0.589192 0.691321 0 128 0
-1.35355 0.881922 0.620736 0 128 0
-0.990056 1.06746 0.562203 0 128 0
-0.657092 1.19625 0.528804 0 128 0
-0.059903 1.24323 0.484732 0 128 0
0.299234 1.18978 0.47819 0 128 0
0.595287 1.11122 0.490585 0 128 0
0.896624 0.987546 0.517442 0 128 0
1.16513 0.777129 0.541888 0 128 0
1.47019 0.524842 0.600766 0 128 0
-1.18853 -2.59253 1.0742 0 128 0
-1.70131 -2.12415 1.02634 0 128 0
-2.0514 -1.55955 0.973315 0 128 0
-2.21699 -0.94924 0.912716 0 128 0
-1.92016 0.311455 0.68606 0 128 0
-1.56846 0.743776 0.615351 0 128 0
-1.21949 1.00241 0.562239 0 128 0
-0.842184 1.1367 0.506887 0 128 0
-0.091016 1.23512 0.447376 0 128 0
0.253203 1.19586 0.441937 0 128 0
0.550411 1.12739 0.452815 0 128 0
0.845208 1.00397 0.472332 0 128 0
1.1254 0.812703 0.497928 0 128 0
1.41247 0.563736 0.542722 0 128 0
-0.609619 -2.85195 1.01401 0 128 0
-1.24875 -2.5461 0.986814 0 128 0
-1.7669 -2.09192 0.953859 0 128 0
-2.07831 -1.4966 0.894028 0 128 0
-2.22463 -0.885367 0.837717 0 128 0
-2.03001 0.151867 0.664188 0 128 0
-1.74011 0.577004 0.601109 0 128 0
-1.38326 0.878264 0.540411 0 128 0
-1.02838 1.08291 0.495184 0 128 0
-0.671895 1.18983 0.455611 0 128 0
0.046858 1.22328 0.411278 0 128 0
0.400562 1.15881 0.411873 0 128 0
0.694089 1.06356 0.42556 0 128 0
0.990488 0.917591 0.450553 0 128 0
1.25069 0.686225 0.474356 0 128 0
1.54059 0.404042 0.526129 0 128 0
-0.46702 -2.88698 0.941199 0 128 0
-1.13267 -2.6361 0.923942 0 128 0
-1.68083 -2.20517 0.89389 0 128 0
-2.04697 -1.63527 0.846283 0 128 0
-2.23538 -1.02137 0.795701 0 128 0
-1.99117 0.269649 0.601063 0 128 0
-1.6946 0.676524 0.548624 0 128 0
-1.312 0.946575 0.489904 0 128 0
-0.932652 1.1058 0.441288 0 128 0
-0.60153 1.22833 0.418892 0 128 0
-0.155277 1.24261 0.386118 0 128 0
0.396682 1.15935 0.378471 0 128 0
0.688055 1.06125 0.389669 0 128 0
0.991647 0.923697 0.415342 0 128 0
1.25301 0.691601 0.436918 0 128 0
1.54077 0.4076 0.483076 0 128 0
1.77833 0.022975 0.535515 0 128 0
-0.639465 -2.84454 0.858342 0 128 0
-1.27242 -2.52665 0.833761 0 128 0
-1.80855 -2.09593 0.816555 0 128 0
-2.11716 -1.49088 0.765755 0 128 0
-2.25611 -0.870405 0.717139 0 128 0
-2.07968 0.105386 0.569723 0 128 0
-1.78116 0.567434 0.514639 0 128 0
-1.41114 0.872841 0.460307 0 128 0
-1.04261 1.07235 0.417992 0 128 0
-0.697265 1.20149 0.390451 0 128 0
-0.242161 1.23 0.355397 0 128 0
0.195383 1.19908 0.345382 0 128 0
0.482408 1.11923 0.346384 0 128 0
0.783333 1.02544 0.364912 0 128 0
1.06802 0.851511 0.384441 0 128 0
1.32481 0.603903 0.407727 0 128 0
1.60224 0.295467 0.452545 0 128 0
1.82893 -0.115354 0.505125 0 128 0
-0.608416 -2.85471 0.786051 0 128 0
-1.25149 -2.55524 0.767022 0 128 0
-1.79679 -2.12942 0.751749 0 128 0
-2.11038 -1.52083 0.703926 0 128 0
-2.28538 -0.910107 0.667371 0 128 0
-2.09942 0.099608 0.518763 0 128 0
-1.74046 0.667533 0.463709 0 128 0
-1.34612 0.943608 0.412717 0 128 0
-0.987435 1.13911 0.381128 0 128 0
-0.623267 1.23003 0.351345 0 128 0
-0.172078 1.23941 0.321787 0 128 0
0.205097 1.20375 0.314793 0 128 0
0.495784 1.12764 0.317275 0 128 0
0.7795 1.00486 0.326526 0 128 0
1.0871 0.853055 0.352022 0 128 0
1.32949 0.593335 0.36917 0 128 0
1.6114 0.283287 0.410912 0 128 0
1.82723 -0.13119 0.456264 0 128 0
0.588514 -2.76366 0.686407 0 128 0
-0.52853 -2.85703 0.704909 0 128 0
-1.18944 -2.60491 0.695207 0 128 0
-1.75264 -2.19525 0.682572 0 128 0
-2.10944 -1.60924 0.646471 0 128 0
-2.28769 -0.984398 0.60879 0 128 0
-2.23286 -0.251136 0.552382 0 128 0
-1.94437 0.365878 0.442667 0 128 0
-1.5732 0.771743 0.395784 0 128 0
-1.2113 1.02354 0.361281 0 128 0
-0.839266 1.16645 0.330431 0 128 0
-0.395374 1.25785 0.305873 0 128 0
-0.04254 1.2326 0.288216 0 128 0
0.299337 1.18333 0.285578 0 128 0
0.584832 1.08808 0.288622 0 128 0
0.878439 0.96482 0.303032 0 128 0
1.15825 0.770244 0.320892 0 128 0
1.40293 0.498599 0.341188 0 128 0
1.66916 0.160963 0.380156 0 128 0
1.86452 -0.280298 0.423386 0 128 0
1.07951 -2.53043 0.602801 0 128 0
0.446357 -2.80488 0.62127 0 128 0
-0.676697 -2.8279 0.635274 0 128 0
-1.3223 -2.53791 0.625735 0 128 0
-1.85711 -2.09293 0.612543 0 128 0
-2.16938 -1.48276 0.577228 0 128 0
-2.27193 -0.654383 0.522633 0 128 0
-1.76809 0.602102 0.371428 0 128 0
-1.41034 0.910799 0.33723 0 128 0
-1.01938 1.08934 0.303388 0 128 0
-0.678035 1.22081 0.286111 0 128 0
-0.220664 1.2412 0.261531 0 128 0
0.144481 1.21372 0.254584 0 128 0
0.433648 1.13857 0.253872 0 128 0
0.714841 1.02404 0.259394 0 128 0
0.996584 0.866629 0.272396 0 128 0
1.2792 0.64993 0.293057 0 128 0
1.52645 0.348435 0.316747 0 128 0
1.75031 -0.037257 0.350232 0 128 0
1.88706 -0.516083 0.387458 0 128 0
1.90043 -1.06952 0.428069 0 128 0
1.20406 -2.37732 0.515701 0 128 0
0.623251 -2.74454 0.542775 0 128 0
-0.487191 -2.84783 0.556312 0 128 0
-1.16137 -2.6369 0.554887 0 128 0
-1.73282 -2.23144 0.544734 0 128 0
-2.10991 -1.65502 0.518729 0 128 0
-2.31484 -1.0332 0.49219 0 128 0
-1.37323 0.946617 0.295724 0 128 0
-0.983808 1.11779 0.267659 0 128 0
-0.641437 1.24348 0.253549 0 128 0
-0.182938 1.25451 0.232926 0 128 0
0.169139 1.22255 0.227655 0 128 0
0.461125 1.14481 0.227655 0 128 0
0.752726 1.03605 0.234942 0 128 0
1.01672 0.851312 0.242075 0 128 0
1.29616 0.628872 0.260061 0 128 0
1.54644 0.323738 0.281924 0 128 0
1.74954 -0.068254 0.308748 0 128 0
1.88633 -0.551316 0.342395 0 128 0
1.89795 -1.11132 0.379144 0 128 0
1.1926 -2.38069 0.451864 0 128 0
0.61367 -2.75725 0.477293 0 128 0
-0.535788 -2.84786 0.488768 0 128 0
-1.20675 -2.62156 0.486907 0 128 0
-1.77975 -2.21511 0.479929 0 128 0
-2.14658 -1.62672 0.456671 0 128 0
-1.17208 1.05266 0.241791 0 128 0
-0.808801 1.19806 0.224715 0 128 0
-0.332031 1.23407 0.202686 0 128 0
-0.021743 1.24405 0.198254 0 128 0
0.335661 1.1806 0.196038 0 128 0
0.617937 1.07309 0.197471 0 128 0
0.891943 0.923496 0.203468 0 128 0
1.19161 0.742238 0.21924 0 128 0
1.40992 0.453964 0.229408 0 128 0
1.66597 0.109713 0.254175 0 128 0
1.8504 -0.336603 0.28194 0 128 0
1.90804 -0.864907 0.310097 0 128 0
1.35614 -2.24449 0.379444 0 128 0
0.80896 -2.6338 0.396912 0 128 0
-0.273472 -2.87711 0.41464 0 128 0
-0.968674 -2.73658 0.416334 0 128 0
-1.58591 -2.39113 0.411902 0 128 0
-2.06072 -1.88074 0.401474 0 128 0
-0.88135 1.16481 0.192667 0 128 0
-0.451423 1.27262 0.180775 0 128 0
-0.104066 1.24954 0.170383 0 128 0
0.242203 1.19984 0.167169 0 128 0
0.531602 1.11581 0.168455 0 128 0
0.796904 0.965479 0.170169 0 128 0
1.07238 0.790771 0.178847 0 128 0
1.34752 0.534711 0.191488 0 128 0
1.60459 0.213713 0.209701 0 128 0
1.77935 -0.201839 0.228234 0 128 0
1.87815 -0.703323 0.251375 0 128 0
1.49801 -2.02956 0.307083 0 128 0
1.01983 -2.47796 0.32401 0 128 0
0.408213 -2.79512 0.339651 0 128 0
-0.747238 -2.80963 0.348543 0 128 0
-1.39791 -2.52646 0.346401 0 128 0
-1.92379 -2.06163 0.339116 0 128 0
-0.528881 1.2152 0.145405 0 128 0
-0.176183 1.24413 0.139727 0 128 0
0.201735 1.20388 0.136765 0 128 0
0.48901 1.1206 0.136929 0 128 0
0.754584 0.978435 0.137999 0 128 0
1.04341 0.823589 0.145734 0 128 0
1.31237 0.590061 0.154785 0 128 0
1.52634 0.272864 0.164001 0 128 0
1.72981 -0.119202 0.179142 0 128 0
1.85926 -0.6048 0.19741 0 128 0
1.51996 -1.93101 0.238882 0 128 0
1.08564 -2.42265 0.255175 0 128 0
0.490384 -2.76106 0.267518 0 128 0
-0.625141 -2.83584 0.275746 0 128 0
-1.29234 -2.59272 0.27517 0 128 0
-1.86152 -2.17529 0.272373 0 128 0
-0.182514 1.2546 0.111473 0 128 0
0.183311 1.2121 0.108997 0 128 0
0.473868 1.13492 0.109232 0 128 0
0.747351 1.00178 0.110412 0 128 0
1.01937 0.831873 0.114303 0 128 0
1.31127 0.596359 0.121673 0 128 0
1.51995 0.278877 0.127863 0 128 0
1.7195 -0.110012 0.138358 0 128 0
1.84858 -0.590614 0.15121 0 128 0
1.52046 -1.95758 0.182989 0 128 0
1.06894 -2.42637 0.193189 0 128 0
0.473024 -2.76293 0.20215 0 128 0
-0.678213 -2.82776 0.208341 0 128 0
-1.34451 -2.57733 0.208282 0 128 0
-0.225701 1.25486 0.080909 0 128 0
0.141962 1.21375 0.079096 0 128 0
0.43655 1.15315 0.079473 0 128 0
0.70939 1.02071 0.079815 0 128 0
0.978408 0.85444 0.08173 0 128 0
1.25029 0.638571 0.085321 0 128 0
1.46152 0.336951 0.088605 0 128 0
1.69244 -0.032405 0.095205 0 128 0
1.82954 -0.496167 0.102148 0 128 0
1.85102 -1.03656 0.109878 0 128 0
1.15917 -2.34762 0.126876 0 128 0
0.578153 -2.67129 0.130809 0 128 0
-0.554667 -2.85465 0.136795 0 128 0
-1.23506 -2.64156 0.137068 0 128 0
-0.104153 1.25057 0.051267 0 128 0
0.256462 1.19469 0.050916 0 128 0
0.542582 1.10375 0.051001 0 128 0
0.80806 0.954878 0.051225 0 128 0
1.07185 0.770237 0.051959 0 128 0
1.35663 0.500147 0.053301 0 128 0
1.58263 0.171355 0.054855 0 128 0
1.73732 -0.240416 0.05658 0 128 0
1.82074 -0.733292 0.058805 0 128 0
1.40554 -2.0588 0.064448 0 128 0
0.924881 -2.50557 0.066343 0 128 0
0.303433 -2.79338 0.067822 0 128 0
-0.856134 -2.79984 0.069079 0 128 0
-0.069076 1.24369 0.021389 0 128 0
0.289888 1.18981 0.021679 0 128 0
0.5703 1.08371 0.021679 0 128 0
0.836602 0.934955 0.021265 0 128 0
1.10507 0.748317 0.020162 0 128 0
1.3544 0.493754 0.018687 0 128 0
1.57404 0.164143 0.016743 0 128 0
1.73102 -0.247054 0.014454 0 128 0
1.81337 -0.739974 0.011559 0 128 0
1.3682 -2.081 0.004224 0 128 0
0.878695 -2.51541 0.001825 0 128 0
-0.199178 -2.88157 -0.001264 0 128 0
-0.904865 -2.78199 -0.001774 0 128 0
0.241222 1.19707 -0.006424 0 128 0
0.524859 1.10259 -0.006424 0 128 0
0.789737 0.957445 -0.00717 0 128 0
1.0413 0.76835 -0.00915 0 128 0
1.30948 0.538801 -0.013705 0 128 0
1.52178 0.22219 -0.018261 0 128 0
1.70218 -0.171424 -0.024721 0 128 0
1.81077 -0.652217 -0.032712 0 128 0
1.44565 -1.95729 -0.051719 0 128 0
0.999535 -2.42634 -0.058851 0 128 0
0.402244 -2.74776 -0.064564 0 128 0
0.097433 1.21854 -0.035977 0 128 0
0.388339 1.15173 -0.035544 0 128 0
0.660884 1.02956 -0.036039 0 128 0
0.923329 0.868109 -0.038764 0 128 0
1.19738 0.668059 -0.045203 0 128 0
1.41544 0.381532 -0.051086 0 128 0
1.6224 0.028555 -0.060807 0 128 0
1.75175 -0.406601 -0.071705 0 128 0
1.77791 -0.911468 -0.084089 0 128 0
1.22251 -2.19781 -0.116163 0 128 0
0.696084 -2.59487 -0.126813 0 128 0
0.107499 1.21283 -0.064076 0 128 0
0.397994 1.14754 -0.063819 0 128 0
0.689076 0.998999 -0.063734 0 128 0
0.959739 0.844458 -0.069297 0 128 0
1.25653 0.648183 -0.080937 0 128 0
1.43843 0.33809 -0.086415 0 128 0
1.64285 -0.023819 -0.100623 0 128 0
1.75636 -0.466965 -0.115602 0 128 0
1.76644 -0.977029 -0.132891 0 128 0
1.14238 -2.28055 -0.178597 0 128 0
0.588064 -2.64245 -0.192034 0 128 0
0.244849 1.19158 -0.093352 0 128 0
0.524873 1.0919 -0.092802 0 128 0
0.789762 0.949939 -0.09544 0 128 0
1.04756 0.766395 -0.102364 0 128 0
1.30379 0.529768 -0.114454 0 128 0
1.49386 0.211017 -0.125665 0 128 0
1.68417 -0.178158 -0.146108 0 128 0
1.79185 -0.656286 -0.169848 0 128 0
1.39353 -1.9604 -0.224802 0 128 0
0.952528 -2.43849 -0.248322 0 128 0
0.350632 -2.74872 -0.265248 0 128 0
0.415362 1.15365 -0.123285 0 128 0
0.709723 1.00351 -0.123685 0 128 0
0.965331 0.829436 -0.129558 0 128 0
1.21233 0.607383 -0.140769 0 128 0
1.43674 0.31991 -0.156385 0 128 0
1.62795 -0.042763 -0.177473 0 128 0
1.7397 -0.484512 -0.201363 0 128 0
1.74652 -0.993007 -0.228724 0 128 0
1.11138 -2.28537 -0.300396 0 128 0
0.552608 -2.6285 -0.319882 0 128 0
0.499144 1.10515 -0.151528 0 128 0
0.76133 0.961556 -0.153739 0 128 0
1.01452 0.780125 -0.162271 0 128 0
1.27704 0.5548 -0.180281 0 128 0
1.47201 0.243922 -0.196238 0 128 0
1.65936 -0.13553 -0.223885 0 128 0
1.76264 -0.598203 -0.255324 0 128 0
1.41861 -1.85014 -0.330525 0 128 0
1.01841 -2.35248 -0.367652 0 128 0
0.463193 1.11249 -0.17928 0 128 0
0.730766 0.9816 -0.182729 0 128 0
0.980082 0.801422 -0.190536 0 128 0
1.23526 0.581663 -0.208872 0 128 0
1.43893 0.283775 -0.227572 0 128 0
1.63172 -0.082687 -0.258435 0 128 0
1.73678 -0.529624 -0.292022 0 128 0
1.71202 -1.0294 -0.325608 0 128 0
1.05217 -2.3048 -0.424552 0 128 0
0.641058 1.02276 -0.209228 0 128 0
0.896551 0.861353 -0.216819 0 128 0
1.15811 0.662667 -0.235901 0 128 0
1.38248 0.38869 -0.25724 0 128 0
1.57247 0.044674 -0.285965 0 128 0
1.6919 -0.373487 -0.319409 0 128 0
1.71841 -0.857654 -0.358803 0 128 0
1.18157 -2.13176 -0.467138 0 128 0
0.773418 0.940234 -0.241883 0 128 0
1.0303 0.7624 -0.256999 0 128 0
1.27461 0.526456 -0.279902 0 128 0
1.46447 0.215824 -0.303721 0 128 0
1.63092 -0.16204 -0.341053 0 128 0
1.72964 -0.620372 -0.387775 0 128 0
1.37178 -1.90031 -0.506871 0 128 0
0.866398 0.872248 -0.275728 0 128 0
1.1171 0.674398 -0.295429 0 128 0
1.34471 0.412258 -0.321949 0 128 0
1.52441 0.07907 -0.353269 0 128 0
1.65168 -0.324262 -0.394186 0 128 0
1.70184 -0.800239 -0.445711 0 128 0
0.971462 0.7963 -0.315386 0 128 0
1.21835 0.575464 -0.341651 0 128 0
1.41308 0.280414 -0.368469 0 128 0
1.59629 -0.078998 -0.413811 0 128 0
1.70401 -0.517417 -0.466342 0 128 0
1.68058 -1.00777 -0.517766 0 128 0
1.19609 0.58611 -0.371314 0 128 0
1.38389 0.294995 -0.397359 0 128 0
1.58476 -0.056635 -0.450947 0 128 0
1.67831 -0.485136 -0.501541 0 128 0
1.66745 -0.970384 -0.558722 0 128 0
1.33832 0.388645 -0.428073 0 128 0
1.52694 0.056941 -0.473929 0 128 0
1.63024 -0.344217 -0.521076 0 128 0
1.65945 -0.80867 -0.582432 0 128 0
1.55942 -0.039186 -0.526785 0 128 0
