ply
format ascii 1.0
comment Created by Open3D
obj_info Generated by CloudCompare!
element vertex 617
property float x
property float y
property float z
end_header
0.814169 -2.211470 2.349500 
0.764114 -2.156330 2.281190 
0.722359 -2.120480 2.234000 
0.690367 -2.110960 2.214990 
0.659772 -2.104360 2.199500 
0.631874 -2.105490 2.192450 
0.607930 -2.119910 2.199500 
0.576669 -2.108030 2.179780 
0.552175 -2.120450 2.185410 
0.528983 -2.138780 2.197380 
0.502697 -2.145110 2.197380 
0.481499 -2.174700 2.221330 
0.735628 -2.148920 2.163470 
0.701704 -2.135030 2.140780 
0.666045 -2.113700 2.111210 
0.638165 -2.115460 2.105020 
0.605501 -2.100120 2.082330 
0.572153 -2.080090 2.055520 
0.544001 -2.077120 2.045890 
0.519174 -2.086460 2.048640 
0.497377 -2.108930 2.064460 
0.477801 -2.143210 2.091960 
0.450266 -2.143230 2.086460 
0.438181 -2.220530 2.155910 
0.726530 -2.169960 2.060380 
0.680823 -2.119060 2.004390 
0.649760 -2.110850 1.989060 
0.615240 -2.089330 1.961730 
0.585952 -2.083800 1.949730 
0.559762 -2.088670 1.947730 
0.533541 -2.093210 1.945730 
0.506599 -2.094530 1.941070 
0.480858 -2.100580 1.941070 
0.455979 -2.110700 1.945070 
0.432538 -2.128560 1.956400 
0.406109 -2.132250 1.955070 
0.727460 -2.230010 2.014970 
0.670452 -2.144370 1.930620 
0.634685 -2.121100 1.902730 
0.602946 -2.108970 1.885210 
0.572002 -2.097860 1.868990 
0.541806 -2.087790 1.854070 
0.515597 -2.092060 1.852120 
0.490406 -2.100450 1.854070 
0.464593 -2.106310 1.854070 
0.436070 -2.099190 1.843040 
0.415832 -2.132760 1.867690 
0.391683 -2.148930 1.877420 
0.644837 -2.142500 1.817580 
0.617214 -2.145760 1.813820 
0.577541 -2.104320 1.773060 
0.542885 -2.077310 1.744850 
0.514748 -2.073220 1.736070 
0.487677 -2.072560 1.730430 
0.460868 -2.072300 1.725410 
0.439354 -2.096870 1.741090 
0.415225 -2.110510 1.747980 
0.388041 -2.108550 1.742340 
0.371228 -2.166920 1.786230 
0.349186 -2.200560 1.810060 
0.641234 -2.157790 1.744090 
0.603847 -2.127330 1.713660 
0.563772 -2.083280 1.672890 
0.533800 -2.073140 1.659500 
0.506619 -2.072600 1.654020 
0.479172 -2.070160 1.647320 
0.451862 -2.067350 1.640630 
0.426780 -2.074300 1.641850 
0.403104 -2.088730 1.649150 
0.375745 -2.084150 1.641850 
0.352513 -2.102690 1.652800 
0.332179 -2.142130 1.680190 
0.591387 -2.110590 1.605500 
0.562333 -2.105940 1.596700 
0.529923 -2.086760 1.577350 
0.503712 -2.090740 1.575600 
0.475520 -2.085700 1.567390 
0.447360 -2.079500 1.558590 
0.420854 -2.080060 1.555070 
0.395595 -2.086660 1.556240 
0.370934 -2.096950 1.560350 
0.345562 -2.103740 1.562110 
0.326067 -2.150280 1.593190 
0.300205 -2.158130 1.596120 
0.572268 -2.129100 1.537610 
0.539347 -2.109630 1.518890 
0.508744 -2.096880 1.505280 
0.477057 -2.077280 1.487130 
0.450479 -2.078150 1.483730 
0.424943 -2.083520 1.483730 
0.397791 -2.080490 1.478060 
0.371358 -2.080350 1.474660 
0.347425 -2.094500 1.481460 
0.324830 -2.118960 1.495640 
0.302726 -2.150510 1.514920 
0.277682 -2.164690 1.522300 
0.552038 -2.132610 1.449790 
0.520861 -2.118850 1.436180 
0.488597 -2.098100 1.418220 
0.458707 -2.085090 1.405710 
0.427021 -2.060970 1.386110 
0.400430 -2.059460 1.381760 
0.375572 -2.066700 1.383390 
0.350596 -2.073640 1.385030 
0.324995 -2.076950 1.384480 
0.304782 -2.118160 1.408970 
0.283283 -2.156690 1.431830 
0.259132 -2.180000 1.444890 
0.550336 -2.163340 1.396410 
0.512129 -2.121930 1.366000 
0.481868 -2.109800 1.354460 
0.442986 -2.055630 1.316700 
0.415690 -2.050900 1.310410 
0.390331 -2.055010 1.309880 
0.364338 -2.055450 1.307260 
0.339920 -2.064810 1.310410 
0.314171 -2.066300 1.308830 
0.291273 -2.087710 1.319850 
0.267142 -2.102950 1.327190 
0.245411 -2.141600 1.349210 
0.501739 -2.115060 1.281260 
0.467862 -2.085580 1.260220 
0.439574 -2.078450 1.252700 
0.410863 -2.067560 1.243180 
0.385147 -2.070740 1.242180 
0.358685 -2.069340 1.238670 
0.332857 -2.071020 1.237170 
0.307543 -2.075810 1.237670 
0.281932 -2.078570 1.237170 
0.259211 -2.105070 1.250700 
0.233826 -2.112390 1.253200 
0.218578 -2.226230 1.317840 
0.473115 -2.086450 1.196100 
0.445268 -2.081810 1.190340 
0.417086 -2.074220 1.183130 
0.388669 -2.063680 1.174470 
0.363772 -2.070880 1.175920 
0.337907 -2.072590 1.174470 
0.311530 -2.070510 1.171110 
0.286459 -2.076790 1.172550 
0.262050 -2.088850 1.177360 
0.238675 -2.111940 1.188410 
0.214330 -2.130420 1.197070 
0.192674 -2.183550 1.224940 
0.482096 -2.116860 1.140200 
0.451825 -2.102610 1.129690 
0.423547 -2.095780 1.123290 
0.394358 -2.082460 1.113690 
0.367550 -2.080140 1.110040 
0.340004 -2.072200 1.103640 
0.313104 -2.066540 1.098610 
0.289168 -2.080800 1.104090 
0.263392 -2.082430 1.103180 
0.238214 -2.089040 1.105010 
0.215292 -2.119240 1.119180 
0.190273 -2.133240 1.125120 
0.449186 -2.108930 1.069760 
0.423273 -2.114280 1.069760 
0.389309 -2.076860 1.048830 
0.361461 -2.068190 1.042290 
0.335620 -2.069800 1.040980 
0.308724 -2.063980 1.036190 
0.282881 -2.064040 1.034440 
0.259432 -2.082540 1.041850 
0.234058 -2.087350 1.042730 
0.208875 -2.094550 1.044910 
0.186075 -2.130120 1.061040 
0.160668 -2.142120 1.065840 
0.433627 -2.113940 1.001800 
0.404586 -2.102990 0.994380 
0.372532 -2.072810 0.978312 
0.341875 -2.045760 0.963892 
0.315509 -2.041690 0.960184 
0.290304 -2.044510 0.959772 
0.267266 -2.064180 0.967188 
0.241395 -2.062780 0.965128 
0.216249 -2.067400 0.965952 
0.193399 -2.098030 0.978724 
0.170537 -2.137500 0.995615 
0.145544 -2.158520 1.004270 
0.425091 -2.134760 0.949757 
0.393445 -2.110860 0.937263 
0.357865 -2.060200 0.913448 
0.331234 -2.056260 0.909935 
0.302172 -2.034670 0.899003 
0.277679 -2.041880 0.900565 
0.253055 -2.048790 0.902127 
0.229836 -2.069120 0.909544 
0.204337 -2.070870 0.909154 
0.178988 -2.074140 0.909544 
0.155166 -2.098210 0.918914 
0.130550 -2.118340 0.926722 
0.419598 -2.151540 0.890245 
0.388209 -2.129060 0.879260 
0.350970 -2.067580 0.852895 
0.320864 -2.041390 0.840811 
0.294869 -2.038720 0.838248 
0.268869 -2.034810 0.835319 
0.243335 -2.033330 0.833488 
0.220019 -2.051900 0.839713 
0.194393 -2.049810 0.837882 
0.169000 -2.049260 0.836783 
0.147001 -2.097600 0.855092 
0.122390 -2.119680 0.863148 
0.396578 -2.135750 0.824915 
0.366002 -2.115480 0.815619 
0.330013 -2.057710 0.792550 
0.303082 -2.050460 0.788418 
0.277012 -2.047510 0.786008 
0.250715 -2.041440 0.782565 
0.225230 -2.040630 0.781187 
0.200540 -2.046980 0.782565 
0.176050 -2.056770 0.785319 
0.150867 -2.059710 0.785663 
0.128003 -2.100760 0.800125 
0.103599 -2.130310 0.810454 
0.411702 -2.230660 0.795163 
0.363014 -2.110380 0.752290 
0.329131 -2.064140 0.735013 
0.302010 -2.055830 0.730853 
0.276510 -2.057510 0.730213 
0.250338 -2.053220 0.727654 
0.225325 -2.058020 0.728294 
0.199605 -2.055910 0.726694 
0.174986 -2.065760 0.729253 
0.150288 -2.077200 0.732453 
0.125280 -2.087410 0.735332 
0.099872 -2.093520 0.736932 
0.075789 -2.142880 0.753250 
0.365640 -2.119900 0.700190 
0.332034 -2.077090 0.685313 
0.305262 -2.072510 0.682635 
0.276988 -2.055290 0.676089 
0.251163 -2.053800 0.674602 
0.225207 -2.050080 0.672519 
0.200125 -2.053640 0.672817 
0.175154 -2.058790 0.673709 
0.149876 -2.060790 0.673709 
0.125215 -2.072960 0.676982 
0.100651 -2.092450 0.682635 
0.075244 -2.101160 0.685016 
0.337216 -2.092010 0.632199 
0.311658 -2.096940 0.632472 
0.281936 -2.071050 0.624005 
0.255338 -2.064810 0.621274 
0.228622 -2.055350 0.617724 
0.203104 -2.055130 0.616904 
0.177950 -2.058430 0.617177 
0.152954 -2.064300 0.618270 
0.127955 -2.071780 0.619909 
0.102978 -2.082800 0.622640 
0.078325 -2.109870 0.630014 
0.052361 -2.107780 0.629195 
0.333895 -2.095610 0.579988 
0.306600 -2.089010 0.577234 
0.278353 -2.073430 0.572226 
0.250771 -2.059390 0.567720 
0.224528 -2.053650 0.565466 
0.199403 -2.057220 0.565717 
0.173814 -2.055650 0.564715 
0.148153 -2.051840 0.563213 
0.124016 -2.070900 0.567720 
0.098593 -2.072260 0.567720 
0.073677 -2.087830 0.571475 
0.048417 -2.104060 0.575481 
0.314025 -2.092970 0.522148 
0.289102 -2.102460 0.523502 
0.259352 -2.073940 0.516056 
0.231631 -2.056630 0.511318 
0.205232 -2.047690 0.508610 
0.180089 -2.050050 0.508610 
0.154918 -2.052110 0.508610 
0.129307 -2.047050 0.507031 
0.105271 -2.070860 0.512220 
0.080350 -2.085630 0.515379 
0.055129 -2.102040 0.518989 
0.029459 -2.113270 0.521471 
0.307059 -2.097130 0.471893 
0.280387 -2.093950 0.470472 
0.251823 -2.073910 0.465601 
0.223259 -2.048610 0.459716 
0.197819 -2.048280 0.459107 
0.173165 -2.056400 0.460325 
0.147987 -2.059350 0.460527 
0.122058 -2.050260 0.458295 
0.097357 -2.061380 0.460325 
0.072193 -2.066340 0.461136 
0.047286 -2.086650 0.465196 
0.021762 -2.094900 0.466819 
0.289960 -2.089840 0.415244 
0.263685 -2.088360 0.414354 
0.236287 -2.075800 0.411504 
0.207873 -2.049160 0.406161 
0.181003 -2.031950 0.402598 
0.156201 -2.035980 0.402954 
0.130714 -2.029890 0.401530 
0.105843 -2.032330 0.401708 
0.081193 -2.041340 0.403133 
0.056966 -2.074640 0.409010 
0.031568 -2.080100 0.409901 
0.006086 -2.126580 0.418272 
0.282367 -2.111430 0.368290 
0.255838 -2.109830 0.367514 
0.225414 -2.071560 0.361002 
0.197972 -2.053520 0.357746 
0.172840 -2.056780 0.357901 
0.146732 -2.046930 0.356040 
0.121543 -2.047590 0.355885 
0.096548 -2.051880 0.356350 
0.071536 -2.057850 0.357126 
0.046597 -2.072400 0.359296 
0.021205 -2.076770 0.359917 
-0.004322 -2.104530 0.364258 
-0.031014 -2.167540 0.374182 
0.269285 -2.115530 0.315050 
0.242303 -2.109810 0.313877 
0.212525 -2.074150 0.308793 
0.183921 -2.041040 0.304100 
0.158335 -2.036230 0.303188 
0.132707 -2.028120 0.301884 
0.107657 -2.026630 0.301493 
0.082933 -2.031760 0.302015 
0.058495 -2.051450 0.304491 
0.033402 -2.057970 0.305273 
0.008206 -2.087960 0.309184 
-0.017752 -2.120620 0.313486 
0.255296 -2.111440 0.264445 
0.227748 -2.099590 0.262838 
0.200053 -2.082430 0.260695 
0.171392 -2.048070 0.256731 
0.145319 -2.037130 0.255339 
0.119835 -2.030820 0.254482 
0.094905 -2.032140 0.254482 
0.069960 -2.033150 0.254482 
0.045028 -2.034850 0.254589 
0.020408 -2.069050 0.258231 
-0.004994 -2.075110 0.258874 
-0.030850 -2.102730 0.261874 
-0.058458 -2.170770 0.269266 
0.243271 -2.108600 0.211234 
0.217076 -2.108450 0.210987 
0.186166 -2.054370 0.206297 
0.160638 -2.052530 0.205967 
0.133465 -2.023510 0.203417 
0.107697 -2.007080 0.201935 
0.083176 -2.011240 0.202182 
0.059273 -2.041000 0.204569 
0.034192 -2.039580 0.204404 
0.009207 -2.057790 0.205885 
-0.016094 -2.062730 0.206297 
-0.042588 -2.116180 0.210740 
0.231909 -2.137730 0.163592 
0.201912 -2.101660 0.161292 
0.173506 -2.073140 0.159465 
0.145330 -2.037280 0.157224 
0.119486 -2.024960 0.156399 
0.094769 -2.029270 0.156576 
0.069370 -2.016310 0.155750 
0.044804 -2.024990 0.156222 
0.020076 -2.037370 0.156929 
-0.004923 -2.035460 0.156811 
-0.030519 -2.079170 0.159406 
-0.056636 -2.101590 0.160762 
0.217954 -2.106250 0.109741 
0.191202 -2.098810 0.109399 
0.161295 -2.047190 0.107552 
0.134680 -2.026080 0.106766 
0.108921 -2.010610 0.106184 
0.084160 -2.009800 0.106116 
0.059379 -2.006680 0.105979 
0.034796 -2.010260 0.106082 
0.010192 -2.032520 0.106834 
-0.014815 -2.039490 0.107073 
-0.040592 -2.074130 0.108270 
-0.067052 -2.103440 0.109297 
-0.095892 -2.168350 0.111554 
0.204078 -2.124070 0.060626 
0.176317 -2.106490 0.060413 
0.147296 -2.064610 0.059944 
0.118972 -2.016350 0.059412 
0.094314 -2.019660 0.059433 
0.069208 -2.011670 0.059337 
0.044471 -2.010370 0.059316 
0.019860 -2.016760 0.059380 
-0.004896 -2.019850 0.059412 
-0.030104 -2.049630 0.059731 
-0.056491 -2.096090 0.060232 
-0.083058 -2.117220 0.060466 
-0.110915 -2.152990 0.060860 
0.192723 -2.111750 0.009325 
0.166487 -2.109970 0.009380 
0.137095 -2.057970 0.010125 
0.109370 -2.012560 0.010773 
0.084785 -2.016750 0.010732 
0.059557 -2.000650 0.010966 
0.035173 -2.012230 0.010814 
0.010441 -2.001510 0.010966 
-0.014400 -2.032480 0.010538 
-0.039447 -2.037150 0.010470 
-0.065047 -2.054500 0.010221 
-0.091857 -2.088510 0.009739 
-0.121252 -2.152110 0.008843 
0.177520 -2.112060 -0.039993 
0.149859 -2.090160 -0.039097 
0.121266 -2.042960 -0.037268 
0.094806 -2.015350 -0.036185 
0.069997 -2.014370 -0.036110 
0.045018 -2.004080 -0.035699 
0.020454 -2.007480 -0.035811 
-0.004172 -2.000590 -0.035550 
-0.028969 -2.018370 -0.036222 
-0.053527 -2.009870 -0.035923 
-0.080175 -2.060990 -0.037865 
-0.107177 -2.093780 -0.039135 
-0.137378 -2.164120 -0.041823 
0.165163 -2.102240 -0.090962 
0.138712 -2.094150 -0.090343 
0.109474 -2.027920 -0.086132 
0.084462 -2.026110 -0.085947 
0.058934 -2.003050 -0.084460 
0.034243 -1.996640 -0.084027 
0.009741 -1.997910 -0.084089 
-0.014740 -1.993890 -0.083841 
-0.039681 -2.015510 -0.085203 
-0.064784 -2.025840 -0.085885 
-0.091021 -2.054800 -0.087742 
-0.119086 -2.102360 -0.090776 
-0.147273 -2.134590 -0.092882 
0.150709 -2.101910 -0.140509 
0.124188 -2.091670 -0.139482 
0.096422 -2.049250 -0.135716 
0.071303 -2.051270 -0.135801 
0.045205 -2.012150 -0.132378 
0.020412 -2.003590 -0.131607 
-0.004177 -2.003680 -0.131607 
-0.028737 -2.001490 -0.131436 
-0.053633 -2.013940 -0.132549 
-0.079258 -2.037020 -0.134603 
-0.106010 -2.070720 -0.137599 
-0.131226 -2.066280 -0.137342 
-0.161803 -2.134060 -0.143333 
0.138437 -2.095520 -0.191060 
0.112196 -2.087130 -0.189961 
0.084807 -2.043660 -0.185015 
0.059342 -2.030640 -0.183476 
0.034060 -2.007360 -0.180838 
0.009418 -2.005640 -0.180619 
-0.015157 -2.001630 -0.180179 
-0.039654 -1.998310 -0.179849 
-0.064884 -2.018530 -0.182157 
-0.090018 -2.025530 -0.183037 
-0.117080 -2.061980 -0.187213 
-0.144135 -2.085170 -0.189961 
-0.174583 -2.141680 -0.196445 
0.126762 -2.116280 -0.243672 
0.099924 -2.099860 -0.241270 
0.072191 -2.046450 -0.233929 
0.046417 -2.019440 -0.230192 
0.021519 -2.009950 -0.228858 
-0.003146 -2.008080 -0.228591 
-0.027866 -2.013840 -0.229391 
-0.052325 -2.003440 -0.228057 
-0.077504 -2.018490 -0.230192 
-0.102813 -2.028280 -0.231660 
-0.129546 -2.056530 -0.235664 
-0.157209 -2.087400 -0.240069 
-0.186422 -2.126790 -0.245674 
0.110573 -2.083590 -0.291345 
0.084113 -2.062100 -0.287711 
0.058093 -2.036320 -0.283446 
0.032704 -2.009240 -0.279022 
0.008051 -2.012450 -0.279496 
-0.016524 -2.000550 -0.277600 
-0.041073 -2.000190 -0.277600 
-0.065821 -2.005460 -0.278548 
-0.090334 -2.002530 -0.278232 
-0.116891 -2.034780 -0.283604 
-0.143829 -2.060770 -0.288027 
-0.170183 -2.071640 -0.290081 
-0.202226 -2.138200 -0.301140 
0.100079 -2.095580 -0.344126 
0.074001 -2.086830 -0.342311 
0.047568 -2.053170 -0.335957 
0.021926 -2.015250 -0.328876 
-0.002805 -2.014380 -0.328695 
-0.027434 -2.007310 -0.327424 
-0.052115 -2.008790 -0.327787 
-0.076873 -2.010950 -0.328331 
-0.101642 -2.011820 -0.328695 
-0.127482 -2.029070 -0.332144 
-0.154199 -2.051870 -0.336683 
-0.182516 -2.086070 -0.343400 
-0.210724 -2.110090 -0.348302 
0.083873 -2.093080 -0.395325 
0.056864 -2.043080 -0.384656 
0.031615 -2.030900 -0.381989 
0.006662 -2.010580 -0.377680 
-0.018022 -2.011490 -0.377885 
-0.042659 -2.009160 -0.377475 
-0.067242 -2.006530 -0.377064 
-0.091767 -2.003600 -0.376654 
-0.117639 -2.023810 -0.381168 
-0.142818 -2.027100 -0.382194 
-0.169667 -2.048600 -0.387118 
-0.198484 -2.084350 -0.395120 
-0.229269 -2.129430 -0.405174 
0.075960 -2.100930 -0.450071 
0.049815 -2.087110 -0.446636 
0.024068 -2.076850 -0.444117 
-0.001418 -2.034160 -0.434039 
-0.026224 -2.021340 -0.431062 
-0.050812 -2.012100 -0.429001 
-0.075500 -2.011330 -0.429001 
-0.100463 -2.016090 -0.430375 
-0.125734 -2.023440 -0.432436 
-0.150555 -2.021750 -0.432436 
-0.177860 -2.048840 -0.439307 
-0.207094 -2.088160 -0.449155 
-0.233455 -2.092240 -0.450759 
0.055051 -2.069510 -0.495216 
0.029567 -2.063250 -0.493448 
0.004243 -2.045080 -0.488649 
-0.020525 -2.017880 -0.481577 
-0.045333 -2.019410 -0.482082 
-0.069933 -2.013870 -0.480819 
-0.094499 -2.009960 -0.480062 
-0.119276 -2.010580 -0.480567 
-0.143798 -2.007040 -0.480062 
-0.169826 -2.021510 -0.484355 
-0.197840 -2.052010 -0.492943 
-0.225989 -2.076360 -0.500015 
-0.257723 -2.124330 -0.513402 
0.056368 -2.305820 -0.617574 
0.025127 -2.075720 -0.551220 
-0.000359 -2.050880 -0.544032 
-0.025379 -2.038230 -0.540437 
-0.049973 -2.020470 -0.535461 
-0.074764 -2.019710 -0.535461 
-0.099496 -2.017680 -0.535184 
-0.124366 -2.018220 -0.535737 
-0.149264 -2.018460 -0.536290 
-0.174924 -2.027010 -0.539332 
-0.201660 -2.043840 -0.544861 
-0.228941 -2.061270 -0.550667 
-0.255390 -2.067840 -0.553432 
0.026444 -2.070300 -0.603029 
0.001043 -2.065700 -0.601532 
-0.023783 -2.027390 -0.589557 
-0.048561 -2.023130 -0.588360 
-0.072801 -2.007130 -0.583570 
-0.097233 -2.002270 -0.582372 
-0.122635 -2.014260 -0.586564 
-0.147272 -2.011650 -0.586264 
-0.173113 -2.023000 -0.590455 
-0.199443 -2.035920 -0.595245 
-0.227395 -2.059860 -0.603628 
-0.253483 -2.063550 -0.605723 
0.001418 -2.058940 -0.655091 
-0.023590 -2.035150 -0.647018 
-0.048453 -2.029970 -0.645403 
-0.073226 -2.025440 -0.644111 
-0.097805 -2.018720 -0.642174 
-0.122343 -2.013590 -0.640882 
-0.146497 -2.004380 -0.638299 
-0.172602 -2.020350 -0.644434 
-0.197473 -2.019020 -0.644757 
-0.222853 -2.022090 -0.646695 
-0.250973 -2.046450 -0.656060 
-0.278211 -2.059160 -0.661549 
-0.002459 -2.047830 -0.706596 
-0.027516 -2.042950 -0.704867 
-0.052038 -2.022760 -0.697605 
-0.076669 -2.017290 -0.695876 
-0.100732 -2.003070 -0.691035 
-0.125305 -2.001690 -0.691035 
-0.150291 -2.005610 -0.693110 
-0.175309 -2.008290 -0.694839 
-0.200416 -2.010650 -0.696568 
-0.226670 -2.022030 -0.701755 
-0.253823 -2.037710 -0.708670 
-0.278810 -2.034440 -0.708670 
-0.022550 -2.070580 -0.773409 
-0.047080 -2.031120 -0.757907 
-0.071775 -2.023890 -0.755323 
-0.095732 -2.004290 -0.747941 
-0.120266 -2.002040 -0.747572 
-0.144692 -1.998560 -0.746834 
-0.168506 -1.988290 -0.743512 
-0.194052 -1.998100 -0.748310 
-0.218959 -1.999270 -0.749786 
-0.245714 -2.014880 -0.757168 
-0.273748 -2.036590 -0.767134 
-0.300333 -2.044110 -0.771563 
-0.031268 -2.036100 -0.816870 
-0.056007 -2.027280 -0.813347 
-0.080109 -2.008050 -0.805516 
-0.104296 -1.998650 -0.801992 
-0.128754 -1.996300 -0.801601 
-0.152808 -1.989070 -0.799251 
-0.177205 -1.987040 -0.799251 
-0.202430 -1.992960 -0.802775 
-0.227189 -1.993060 -0.803950 
-0.252099 -1.993780 -0.805516 
-0.280659 -2.019690 -0.818045 
-0.307238 -2.027920 -0.823135 
-0.045254 -2.043860 -0.881132 
-0.070270 -2.041330 -0.880302 
-0.093140 -1.993050 -0.858738 
-0.117696 -1.993570 -0.859568 
-0.142216 -1.992880 -0.859982 
-0.190562 -1.983360 -0.857494 
-0.062417 -2.074570 -0.955279 
-0.084199 -1.990950 -0.915137 
-0.108778 -1.992460 -0.916446 
-0.131981 -1.973020 -0.907719 
-0.156037 -1.969460 -0.906847 
-0.292588 -1.901970 -0.881976 
