ply
format ascii 1.0
comment Created by Open3D
obj_info Generated by CloudCompare!
element vertex 710
property float x
property float y
property float z
end_header
-0.229974 0.790338 0.828296 
-0.216544 0.779396 0.814211 
-0.211218 0.798493 0.831113 
-0.202923 0.807231 0.837451 
-0.195087 0.818651 0.846607 
-0.061079 0.600654 0.610679 
0.084700 0.865126 0.874073 
0.088505 0.805491 0.815619 
0.096389 0.788853 0.800125 
0.105367 0.782690 0.795196 
0.114856 0.780636 0.794491 
0.125010 0.782670 0.798013 
0.133354 0.774088 0.790970 
0.138701 0.750779 0.769138 
0.147761 0.748325 0.768434 
0.159194 0.756861 0.778998 
0.172450 0.772147 0.796604 
0.183086 0.774802 0.801534 
0.194342 0.779374 0.808577 
0.207029 0.788585 0.820549 
0.217077 0.787351 0.821958 
0.223300 0.773054 0.809985 
0.226898 0.751264 0.790266 
0.243730 0.772071 0.814915 
-0.231177 0.769948 0.773841 
-0.222720 0.776215 0.777279 
-0.215495 0.787289 0.785531 
-0.205633 0.789172 0.784843 
-0.075478 0.629491 0.612944 
-0.059802 0.558196 0.544185 
0.180118 0.791661 0.781405 
0.181739 0.755488 0.748400 
0.189404 0.746863 0.742212 
0.195028 0.731145 0.729148 
0.207093 0.739891 0.740149 
0.215954 0.736596 0.739462 
0.243997 0.796410 0.801345 
-0.246523 0.790430 0.754640 
-0.230536 0.771929 0.734644 
-0.224048 0.785471 0.744642 
-0.221855 0.816261 0.770637 
-0.214193 0.828318 0.779302 
-0.073950 0.611819 0.565345 
0.189304 0.743121 0.699984 
0.197619 0.737867 0.697318 
0.210166 0.747564 0.708649 
-0.256614 0.789934 0.723236 
-0.235066 0.755264 0.689499 
-0.226436 0.760279 0.691445 
-0.217928 0.765926 0.694041 
-0.222964 0.821393 0.740753 
-0.229736 0.888873 0.797846 
-0.075957 0.584427 0.517571 
0.181318 0.746465 0.670036 
0.189903 0.741971 0.668089 
0.198601 0.738114 0.666792 
-0.251281 0.756415 0.658237 
-0.242908 0.762416 0.660745 
-0.235317 0.771311 0.665761 
-0.229254 0.786127 0.675793 
-0.224090 0.805418 0.689587 
-0.084521 0.606580 0.509635 
0.210047 0.938204 0.790536 
0.177564 0.753840 0.640054 
0.185453 0.746321 0.635664 
0.192378 0.735712 0.628767 
-0.255475 0.759587 0.632140 
-0.246379 0.763420 0.632749 
-0.239115 0.773204 0.638227 
-0.239123 0.808018 0.663789 
-0.231579 0.819287 0.670484 
-0.082984 0.590087 0.474507 
0.167509 0.765025 0.618142 
0.174219 0.751312 0.609013 
0.183426 0.749118 0.609013 
-0.212345 0.577759 0.464420 
-0.271066 0.770978 0.610426 
-0.261075 0.772708 0.609254 
-0.252801 0.779714 0.612185 
-0.242741 0.781208 0.611013 
-0.233136 0.784127 0.611013 
-0.222629 0.783808 0.608667 
-0.213201 0.787264 0.609254 
-0.201744 0.782751 0.603976 
-0.192312 0.785955 0.604563 
-0.182117 0.785886 0.602804 
-0.171954 0.785685 0.601044 
-0.161822 0.785353 0.599285 
-0.152620 0.789668 0.601044 
-0.141246 0.781906 0.594008 
-0.133195 0.793175 0.601044 
-0.122733 0.789943 0.597526 
-0.089839 0.622052 0.473802 
0.166030 0.810950 0.618049 
0.165196 0.760628 0.582281 
0.175449 0.762485 0.585212 
0.185577 0.763419 0.587558 
-0.280870 0.775802 0.587674 
-0.269423 0.773750 0.583704 
-0.260170 0.777778 0.584271 
-0.253390 0.789534 0.590509 
-0.247090 0.803599 0.598449 
-0.231132 0.786037 0.583704 
-0.224158 0.798325 0.590509 
-0.214130 0.800221 0.589942 
-0.203885 0.801193 0.588808 
-0.191311 0.792430 0.580868 
-0.182867 0.800337 0.584838 
-0.170581 0.791253 0.576898 
-0.160693 0.792480 0.576331 
-0.149714 0.787921 0.571794 
-0.139888 0.788888 0.571227 
-0.129520 0.786483 0.568391 
-0.094786 0.625207 0.454966 
-0.109719 0.786163 0.566123 
-0.098799 0.777648 0.559317 
-0.088772 0.774711 0.556482 
-0.080026 0.783115 0.561586 
-0.069507 0.774196 0.554780 
-0.060262 0.778275 0.557049 
-0.050817 0.780599 0.558183 
-0.041279 0.781986 0.558750 
-0.031749 0.784080 0.559884 
-0.022075 0.782764 0.558750 
-0.012409 0.779682 0.556482 
-0.002836 0.778952 0.555915 
0.006723 0.778928 0.555915 
0.016438 0.787022 0.561586 
0.026713 0.806518 0.575197 
0.029114 0.634154 0.456668 
0.160587 0.823572 0.597315 
0.157226 0.756196 0.551378 
0.168782 0.764669 0.558750 
0.176852 0.756924 0.554780 
-0.287926 0.777073 0.558387 
-0.274483 0.769463 0.550768 
-0.271983 0.793445 0.564917 
-0.262225 0.796723 0.564917 
-0.256648 0.813505 0.574169 
-0.106615 0.661605 0.455533 
-0.019490 0.829310 0.558931 
-0.009117 0.795929 0.537163 
0.000651 0.795981 0.537163 
0.010372 0.793396 0.535531 
0.020030 0.790694 0.533898 
0.029659 0.788712 0.532810 
0.038823 0.779074 0.526823 
0.046561 0.751754 0.509409 
0.057595 0.773706 0.524102 
0.067395 0.776282 0.526279 
0.076390 0.770390 0.523014 
0.086523 0.775228 0.526823 
0.096138 0.774939 0.527367 
0.105640 0.773701 0.527367 
0.115898 0.777321 0.530633 
0.128339 0.793216 0.542061 
0.146495 0.783238 0.537707 
0.150858 0.755906 0.520837 
0.160481 0.755637 0.521926 
-0.293256 0.782728 0.536344 
-0.282757 0.783866 0.534771 
-0.276482 0.796924 0.541064 
-0.267494 0.802679 0.542638 
-0.261012 0.816438 0.549455 
-0.104918 0.643449 0.423067 
0.052559 0.625048 0.407859 
0.082409 0.860018 0.553651 
0.086011 0.793749 0.513269 
0.094740 0.784179 0.508025 
0.104023 0.780425 0.506452 
0.112864 0.774033 0.503305 
0.121170 0.765019 0.498585 
0.128987 0.754239 0.492817 
0.140212 0.763490 0.499634 
0.148108 0.754190 0.494914 
0.160116 0.765655 0.503305 
-0.245881 0.607062 0.401905 
-0.311486 0.800751 0.520154 
-0.293544 0.782593 0.506626 
-0.287106 0.795107 0.512137 
-0.276767 0.796932 0.511135 
-0.272090 0.815893 0.520655 
-0.138476 0.783010 0.483076 
0.099381 0.635999 0.395391 
0.132657 0.779628 0.480571 
0.139489 0.763484 0.472053 
0.145945 0.747292 0.463535 
-0.198604 0.496450 0.316455 
-0.299926 0.775085 0.478925 
-0.285775 0.766391 0.471715 
-0.288256 0.802833 0.490942 
-0.278383 0.806310 0.490942 
-0.273182 0.823807 0.499114 
-0.128882 0.689367 0.407784 
0.094304 0.638261 0.377021 
0.137182 0.858787 0.500075 
0.129710 0.751583 0.441432 
0.136077 0.734409 0.432780 
0.160600 0.811851 0.477003 
-0.340395 0.837084 0.488841 
-0.306987 0.781476 0.455929 
-0.301725 0.796851 0.462329 
-0.292224 0.801331 0.462786 
-0.287593 0.819990 0.471014 
-0.323690 0.962755 0.546435 
-0.160233 0.832332 0.460043 
0.089576 0.637681 0.355368 
0.118168 0.766518 0.423018 
0.128624 0.771146 0.426218 
0.134840 0.752018 0.417076 
-0.199022 0.481537 0.277518 
-0.313625 0.783697 0.434048 
-0.303008 0.784970 0.432739 
-0.296188 0.796216 0.436664 
-0.294015 0.820959 0.447564 
-0.293337 0.851719 0.461517 
-0.167360 0.840215 0.440152 
0.088080 0.647371 0.341612 
0.112446 0.758437 0.396550 
0.119766 0.744557 0.390446 
0.130264 0.751014 0.394370 
-0.228602 0.534802 0.289050 
-0.324203 0.790125 0.412235 
-0.310506 0.783858 0.407292 
-0.308245 0.807224 0.416767 
-0.301730 0.820369 0.421299 
-0.301236 0.851544 0.434483 
0.082140 0.655759 0.324893 
0.108781 0.783667 0.383808 
0.112603 0.745365 0.366916 
0.120981 0.739435 0.364856 
-0.406994 0.950704 0.465258 
-0.322575 0.780471 0.384834 
-0.307492 0.770698 0.378587 
-0.311957 0.810478 0.394984 
-0.305203 0.822872 0.398888 
-0.346998 0.971272 0.464087 
-0.153419 0.686719 0.325101 
0.102110 0.746411 0.346183 
0.110859 0.742369 0.345012 
0.117196 0.723680 0.337594 
-0.338362 0.791151 0.366247 
-0.325116 0.786627 0.362585 
-0.321229 0.805278 0.368810 
-0.316603 0.823081 0.374669 
-0.310630 0.838266 0.379429 
-0.173985 0.733096 0.324136 
0.094962 0.768083 0.332192 
0.101251 0.744747 0.323404 
0.110807 0.746207 0.324502 
-0.388006 0.878310 0.380404 
-0.336497 0.788090 0.342530 
-0.322847 0.782619 0.338742 
-0.318799 0.800469 0.344251 
-0.305572 0.795562 0.340808 
-0.291532 0.787812 0.336332 
-0.281842 0.791330 0.336332 
-0.273638 0.799168 0.338054 
-0.257329 0.782854 0.330479 
-0.247419 0.785058 0.330134 
-0.239402 0.793426 0.332200 
-0.235926 0.817944 0.340464 
-0.255182 0.926640 0.380749 
-0.165747 0.633753 0.268502 
-0.205660 0.826073 0.340464 
-0.142330 0.604747 0.256107 
-0.146630 0.658661 0.275733 
0.054425 0.479240 0.205148 
0.095432 0.763669 0.310508 
0.105049 0.764301 0.311197 
0.116622 0.777814 0.316706 
-0.358911 0.806973 0.327394 
-0.339352 0.788643 0.319075 
-0.335043 0.805896 0.323875 
-0.327919 0.816994 0.326434 
-0.320235 0.827152 0.328674 
-0.331650 0.889705 0.349791 
-0.306795 0.854410 0.335713 
-0.284995 0.824924 0.323875 
-0.266907 0.804043 0.315236 
-0.262116 0.823533 0.320995 
-0.246007 0.806721 0.313956 
-0.236089 0.809679 0.313956 
-0.216649 0.777785 0.301798 
-0.206373 0.777634 0.300838 
-0.178418 0.705604 0.274922 
-0.189169 0.790767 0.303718 
-0.175566 0.775452 0.297639 
-0.166037 0.777548 0.297639 
-0.156119 0.777668 0.296999 
-0.146053 0.776729 0.296039 
-0.136511 0.778463 0.296039 
-0.126800 0.779143 0.295719 
-0.117229 0.780641 0.295719 
-0.105154 0.763236 0.289320 
-0.102549 0.820910 0.308517 
-0.065430 0.570591 0.223090 
0.084094 0.771561 0.291240 
0.091888 0.757312 0.286760 
0.100521 0.751435 0.285161 
-0.347941 0.789034 0.298509 
-0.337104 0.790612 0.297617 
-0.337962 0.820272 0.306245 
-0.328933 0.827018 0.307138 
-0.372649 0.970859 0.353852 
-0.126256 0.603928 0.222041 
-0.180735 0.917266 0.321122 
-0.150109 0.815225 0.288095 
-0.135534 0.790665 0.279764 
-0.123552 0.778129 0.275301 
-0.114553 0.783365 0.276491 
-0.105571 0.789442 0.277979 
-0.095759 0.789730 0.277681 
-0.084698 0.778510 0.273813 
-0.076163 0.789942 0.277086 
-0.065485 0.779403 0.273516 
-0.055846 0.779196 0.273218 
-0.046861 0.789352 0.276194 
-0.036939 0.785099 0.274706 
-0.027337 0.786448 0.275004 
-0.017430 0.776225 0.271731 
-0.007756 0.763970 0.267863 
0.001551 0.587387 0.212817 
0.088618 0.882730 0.306245 
0.086243 0.762970 0.269053 
0.094896 0.756169 0.267267 
0.125558 0.911979 0.316659 
-0.396361 0.859364 0.299266 
-0.361315 0.808718 0.282059 
-0.341169 0.789202 0.274685 
-0.343560 0.822678 0.283698 
-0.339842 0.842920 0.288614 
-0.201452 0.753480 0.252016 
-0.049403 0.628903 0.209683 
-0.055926 0.867608 0.277416 
-0.041258 0.783670 0.253382 
-0.031570 0.782194 0.252836 
-0.021815 0.775791 0.250924 
-0.012334 0.779848 0.252016 
-0.002760 0.781864 0.252562 
0.006768 0.777030 0.251197 
0.016303 0.776888 0.251197 
0.025910 0.778552 0.251743 
0.035608 0.781058 0.252562 
0.045856 0.791123 0.255567 
0.055561 0.790501 0.255567 
0.063323 0.767718 0.249285 
0.071685 0.756354 0.246281 
0.081500 0.760197 0.247646 
0.090822 0.759140 0.247646 
-0.256970 0.547668 0.187643 
-0.354039 0.777969 0.252241 
-0.349163 0.792881 0.255245 
-0.349303 0.820251 0.261755 
-0.338472 0.822686 0.261255 
-0.360990 0.908610 0.284039 
-0.190440 0.695535 0.217688 
0.016607 0.600856 0.186641 
0.032379 0.823122 0.244229 
0.040010 0.773349 0.231459 
0.048955 0.764103 0.229206 
0.060058 0.786616 0.235215 
0.068028 0.766530 0.230207 
0.077429 0.765637 0.230207 
0.086604 0.762705 0.229707 
0.112314 0.893209 0.264009 
-0.251080 0.521840 0.166102 
-0.369145 0.796826 0.235371 
-0.350263 0.780809 0.230181 
-0.352548 0.812809 0.237176 
-0.349999 0.835077 0.241688 
-0.359249 0.888160 0.253872 
-0.251895 0.896054 0.247555 
0.041987 0.621523 0.176255 
0.062767 0.773345 0.211679 
0.071200 0.761853 0.209197 
0.081189 0.766731 0.210551 
-0.275369 0.568978 0.163600 
-0.370662 0.789312 0.213324 
-0.357288 0.785784 0.211498 
-0.360676 0.819667 0.218195 
-0.357514 0.840240 0.221849 
-0.361372 0.878958 0.229561 
-0.256859 0.894618 0.225502 
0.060168 0.784518 0.195667 
0.067574 0.758358 0.190390 
0.076778 0.756498 0.190187 
-0.291651 0.587050 0.151990 
-0.376336 0.784412 0.190819 
-0.365450 0.786288 0.190285 
-0.364167 0.809596 0.194025 
-0.354593 0.814908 0.194203 
-0.359287 0.854639 0.201150 
0.052835 0.780656 0.174967 
0.060158 0.753476 0.170158 
0.069495 0.753660 0.170336 
-0.293952 0.588963 0.137257 
-0.386070 0.796864 0.172920 
-0.375420 0.799755 0.172610 
-0.370499 0.815086 0.174471 
-0.366454 0.833128 0.176796 
-0.360082 0.846647 0.178347 
0.049729 0.770249 0.155089 
0.056436 0.733131 0.149352 
0.066721 0.747146 0.151677 
-0.326637 0.636924 0.128775 
-0.405700 0.818017 0.154716 
-0.378175 0.786223 0.149371 
-0.347762 0.745776 0.142853 
-0.372087 0.825151 0.153673 
-0.370960 0.850596 0.156671 
-0.221222 0.743052 0.136597 
0.042977 0.789979 0.138682 
0.049193 0.740934 0.132295 
0.057867 0.735335 0.131643 
0.085727 0.929974 0.157453 
-0.412719 0.826458 0.134815 
-0.388207 0.801949 0.131280 
-0.368173 0.785064 0.128709 
-0.381194 0.839280 0.134601 
-0.372873 0.848443 0.135137 
0.039815 0.756695 0.116924 
0.058073 0.751524 0.116496 
-0.446122 0.871987 0.116851 
-0.391883 0.788841 0.108705 
-0.370606 0.769295 0.106483 
-0.389935 0.836231 0.112161 
-0.379644 0.840953 0.112161 
0.018297 0.648355 0.089532 
0.032971 0.792433 0.101464 
0.037658 0.706409 0.094387 
0.046253 0.704899 0.094305 
0.070411 0.889998 0.109692 
-0.477726 0.900351 0.096792 
-0.417161 0.810358 0.090425 
-0.392874 0.786857 0.088538 
-0.385806 0.797007 0.088892 
-0.390028 0.831486 0.090838 
-0.391389 0.861643 0.092488 
-0.407378 0.926661 0.096380 
-0.398325 0.937100 0.096733 
0.030139 0.747107 0.080756 
-0.297564 0.544363 0.058507 
-0.429303 0.812795 0.068733 
-0.409803 0.799285 0.068015 
-0.393787 0.791698 0.067536 
-0.386623 0.801884 0.067741 
-0.377172 0.807475 0.067776 
-0.365604 0.808393 0.067639 
-0.349310 0.798141 0.067092 
-0.338334 0.799601 0.066989 
-0.333731 0.816668 0.067468 
-0.328398 0.832809 0.067912 
-0.354669 0.934090 0.071469 
-0.208029 0.610921 0.059362 
-0.234042 0.718127 0.063124 
0.022748 0.789954 0.064321 
0.050540 0.770637 0.063706 
-0.272743 0.515199 0.044113 
-0.418304 0.812571 0.047637 
-0.395310 0.791718 0.047328 
-0.401733 0.829787 0.047722 
-0.402593 0.858177 0.047999 
-0.255570 0.563709 0.044496 
-0.258319 0.588760 0.044752 
-0.383288 0.901846 0.048340 
-0.335615 0.817729 0.047318 
-0.317053 0.800416 0.047073 
-0.308640 0.807981 0.047115 
-0.288647 0.784508 0.046807 
-0.278663 0.787049 0.046796 
-0.269954 0.793248 0.046828 
-0.246202 0.786281 0.046679 
-0.243748 0.813178 0.046945 
-0.244822 0.854543 0.047371 
-0.173373 0.635718 0.044922 
0.020606 0.733641 0.045721 
-0.321031 0.587704 0.029331 
-0.423620 0.801592 0.026063 
-0.406512 0.792463 0.026284 
-0.413975 0.832381 0.025746 
-0.407604 0.845521 0.025622 
-0.430746 0.923076 0.024519 
-0.266002 0.817459 0.026711 
-0.247443 0.792941 0.027111 
-0.239101 0.800715 0.027042 
-0.229257 0.803589 0.027042 
-0.218863 0.804409 0.027070 
-0.204545 0.789590 0.027318 
-0.197885 0.804678 0.027139 
-0.184217 0.790472 0.027373 
-0.173241 0.786808 0.027456 
-0.162779 0.784955 0.027511 
-0.170827 0.880222 0.026201 
0.012523 0.771557 0.027925 
0.040332 0.760591 0.028063 
-0.421203 0.793500 0.005638 
-0.411434 0.798609 0.005638 
-0.417283 0.834861 0.004331 
-0.411814 0.849805 0.003920 
-0.172762 0.664417 0.013554 
-0.124038 0.503577 0.019827 
-0.191059 0.815318 0.007915 
-0.174078 0.786390 0.009110 
-0.163592 0.784555 0.009260 
-0.155887 0.796308 0.008886 
-0.144833 0.791282 0.009148 
-0.135451 0.794969 0.009073 
-0.125056 0.792624 0.009222 
-0.115029 0.792122 0.009297 
-0.105832 0.797436 0.009148 
-0.093742 0.779827 0.009857 
-0.088622 0.821647 0.008326 
-0.059519 0.626730 0.015682 
0.011705 0.759369 0.010828 
-0.352613 0.628199 -0.004832 
-0.440909 0.810885 -0.017402 
-0.430001 0.814465 -0.017278 
-0.418619 0.817010 -0.017092 
-0.421774 0.848956 -0.018950 
-0.420770 0.873890 -0.020312 
-0.106483 0.625564 0.000493 
-0.134490 0.862679 -0.014306 
-0.113877 0.792097 -0.009785 
-0.103522 0.788483 -0.009476 
-0.093274 0.784736 -0.009166 
-0.082831 0.777878 -0.008671 
-0.073368 0.779830 -0.008733 
-0.063716 0.779676 -0.008671 
-0.054272 0.782391 -0.008795 
-0.044252 0.775025 -0.008299 
-0.035253 0.788474 -0.009104 
-0.025575 0.788847 -0.009104 
-0.016165 0.807065 -0.010219 
0.003590 0.801231 -0.009847 
0.011502 0.712318 -0.004337 
0.020208 0.711126 -0.004275 
0.032388 0.785600 -0.008919 
0.042725 0.797100 -0.009662 
-0.444038 0.812206 -0.038998 
-0.428416 0.807041 -0.037971 
-0.426717 0.828169 -0.039512 
-0.425902 0.852045 -0.041309 
-0.429357 0.885880 -0.044048 
-0.053269 0.644491 -0.015033 
-0.066628 0.939242 -0.040367 
-0.046267 0.792796 -0.027700 
-0.036819 0.799276 -0.028213 
-0.026374 0.781744 -0.026673 
-0.015720 0.736190 -0.022736 
-0.007138 0.778171 -0.026331 
0.002409 0.776207 -0.026159 
0.011620 0.753206 -0.024191 
0.020086 0.723127 -0.021623 
0.031092 0.778580 -0.026416 
0.040644 0.778139 -0.026416 
0.052128 0.808407 -0.029070 
0.065108 0.848441 -0.032579 
-0.375503 0.650743 -0.041915 
-0.468637 0.837885 -0.064996 
-0.435243 0.800684 -0.059610 
-0.432287 0.819180 -0.061259 
-0.428942 0.837721 -0.062907 
-0.426082 0.858087 -0.064776 
-0.013637 0.647800 -0.030485 
-0.006153 0.817882 -0.049279 
0.003477 0.775158 -0.044553 
0.012989 0.775057 -0.044553 
0.022905 0.786760 -0.045872 
0.032466 0.784434 -0.045652 
0.045467 0.841526 -0.052026 
0.054946 0.829007 -0.050708 
0.069820 0.884729 -0.056972 
0.087301 0.953065 -0.064666 
-0.465207 0.825615 -0.085781 
-0.441205 0.806070 -0.081910 
-0.437809 0.823666 -0.083779 
-0.431313 0.836018 -0.084846 
-0.429473 0.858075 -0.087382 
-0.007407 0.767252 -0.061490 
0.002001 0.759356 -0.060422 
0.011307 0.758284 -0.060288 
-0.487510 0.848543 -0.114085 
-0.453643 0.812122 -0.106344 
-0.450185 0.829806 -0.108555 
-0.446360 0.847526 -0.110767 
-0.441721 0.864394 -0.112821 
-0.021332 0.654393 -0.062266 
-0.015648 0.818504 -0.088491 
-0.005536 0.786049 -0.083278 
0.004121 0.787045 -0.083436 
0.017021 0.931065 -0.106502 
-0.494607 0.852703 -0.138794 
-0.457482 0.811629 -0.128809 
-0.446067 0.814597 -0.128264 
-0.445296 0.837362 -0.131895 
-0.439961 0.852368 -0.133892 
-0.017142 0.775135 -0.099943 
-0.007493 0.763488 -0.097764 
0.001883 0.771389 -0.099217 
-0.507891 0.860927 -0.165730 
-0.468758 0.816890 -0.153624 
-0.456432 0.842811 -0.157112 
-0.447411 0.850953 -0.157728 
-0.262523 0.666917 -0.106433 
-0.025008 0.813234 -0.126745 
-0.014493 0.774334 -0.118538 
-0.004990 0.774454 -0.118538 
-0.461191 0.816896 -0.176151 
-0.461926 0.842109 -0.181419 
-0.452934 0.850289 -0.182106 
-0.261403 0.657321 -0.121871 
-0.027505 0.783809 -0.139964 
-0.017908 0.785061 -0.140193 
-0.008344 0.791062 -0.141567 
-0.471071 0.800129 -0.197177 
-0.436592 0.832585 -0.200207 
-0.437220 0.859485 -0.206522 
-0.417301 0.845657 -0.200965 
-0.426755 0.892697 -0.213089 
-0.280643 0.690800 -0.149440 
-0.032372 0.768171 -0.155501 
-0.022991 0.770445 -0.156007 
-0.013606 0.776474 -0.157522 
-0.590253 0.986318 -0.284697 
-0.407539 0.811659 -0.215302 
-0.401345 0.824370 -0.217790 
-0.389142 0.824891 -0.216407 
-0.377388 0.826110 -0.215302 
-0.361764 0.818381 -0.211431 
-0.355863 0.832473 -0.214472 
-0.331261 0.802157 -0.203690 
-0.336755 0.844524 -0.215578 
-0.037039 0.773760 -0.176871 
-0.027721 0.778959 -0.178254 
-0.018208 0.781162 -0.178807 
-0.312629 0.747304 -0.207556 
-0.286491 0.708535 -0.193186 
-0.313695 0.805521 -0.224621 
-0.304780 0.811994 -0.225519 
-0.300235 0.830953 -0.230608 
-0.289707 0.833672 -0.230309 
-0.040777 0.770819 -0.195581 
-0.031281 0.770308 -0.195282 
-0.021782 0.768726 -0.194683 
-0.258723 0.625793 -0.183618 
-0.342412 0.887892 -0.277267 
-0.300712 0.809566 -0.247235 
-0.290755 0.813195 -0.247235 
-0.278899 0.811335 -0.245297 
-0.265941 0.805714 -0.242068 
-0.249431 0.788174 -0.234640 
-0.239740 0.791176 -0.234640 
-0.234516 0.809505 -0.240130 
-0.225071 0.814145 -0.240776 
-0.220640 0.837887 -0.248203 
-0.047065 0.771320 -0.216234 
-0.037214 0.764278 -0.213650 
-0.028121 0.772243 -0.216234 
-0.252779 0.828809 -0.271247 
-0.239746 0.821926 -0.267443 
-0.223952 0.803989 -0.259490 
-0.213833 0.805769 -0.259144 
-0.201453 0.798312 -0.255340 
-0.188647 0.787933 -0.250499 
-0.181598 0.802099 -0.254994 
-0.175187 0.820802 -0.261219 
-0.163480 0.814602 -0.258107 
-0.161574 0.860851 -0.274704 
-0.043579 0.559860 -0.158865 
-0.048708 0.766432 -0.234939 
-0.039299 0.766972 -0.234939 
-0.030010 0.771148 -0.236322 
-0.593663 0.961679 -0.399882 
-0.208106 0.874316 -0.307976 
-0.183388 0.815170 -0.282877 
-0.166957 0.787367 -0.270697 
-0.157649 0.791179 -0.271435 
-0.147928 0.793054 -0.271435 
-0.138185 0.794810 -0.271435 
-0.127673 0.791859 -0.269590 
-0.118776 0.798880 -0.271805 
-0.110741 0.813167 -0.276972 
-0.099482 0.804321 -0.272912 
-0.089500 0.804558 -0.272543 
-0.086501 0.874025 -0.299856 
-0.057506 0.776725 -0.260362 
-0.047146 0.764387 -0.255195 
-0.037715 0.763980 -0.254826 
-0.132441 0.824033 -0.305527 
-0.118017 0.795538 -0.292606 
-0.106577 0.784152 -0.287125 
-0.095111 0.769866 -0.280468 
-0.086043 0.774636 -0.282035 
-0.077129 0.782047 -0.284775 
-0.066338 0.768260 -0.278511 
-0.056842 0.768098 -0.278119 
-0.047206 0.765063 -0.276553 
-0.043720 0.899798 -0.333717 
-0.068847 0.787428 -0.309685 
-0.057714 0.769161 -0.300976 
-0.049444 0.787973 -0.309270 
-0.693491 0.971899 -0.853562 
-0.709028 1.020240 -0.890595 
-0.710781 0.886135 -0.903196 
-0.712252 0.983732 -0.969843 
-0.735827 0.905810 -1.036400 
-0.766705 1.045580 -1.158480 
-0.580903 0.952982 -0.988396 
-0.759889 0.738139 -0.991244 
