ply
format ascii 1.0
comment Created by Open3D
element vertex 1047
property double x
property double y
property double z
property uchar red
property uchar green
property uchar blue
end_header
0.97164 -0.520176 1.10507 128 128 128
0.953401 -0.525494 1.09169 128 128 128
0.917935 -0.520554 1.05859 128 128 128
0.911478 -0.531779 1.05859 128 128 128
0.877171 -0.571179 1.05014 128 128 128
0.863037 -0.57713 1.04169 128 128 128
0.822643 -0.564608 1.00154 128 128 128
0.813918 -0.573425 0.999432 128 128 128
0.826307 -0.597613 1.02338 128 128 128
0.842767 -0.625597 1.05296 128 128 128
0.834463 -0.635459 1.05225 128 128 128
0.831061 -0.649169 1.05789 128 128 128
0.830208 -0.665124 1.06704 128 128 128
0.832911 -0.684327 1.08113 128 128 128
0.839052 -0.706915 1.10014 128 128 128
0.862421 -0.745151 1.1424 128 128 128
0.722359 -2.12048 2.234 128 128 128
0.690367 -2.11096 2.21499 128 128 128
0.576669 -2.10803 2.17978 128 128 128
0.502697 -2.14511 2.19738 128 128 128
0.481499 -2.1747 2.22133 128 128 128
0.981819 -0.512245 1.06126 128 128 128
0.921264 -0.509889 1.00969 128 128 128
0.915569 -0.521514 1.01037 128 128 128
0.910982 -0.533809 1.01244 128 128 128
0.894403 -0.538967 1.00144 128 128 128
0.884632 -0.547995 0.997997 128 128 128
0.880906 -0.560755 1.00144 128 128 128
0.869092 -0.568351 0.995934 128 128 128
0.863259 -0.579781 0.99731 128 128 128
0.857276 -0.591153 0.998685 128 128 128
0.835519 -0.62274 0.999372 128 128 128
0.827237 -0.632506 0.998685 128 128 128
0.827422 -0.64887 1.00831 128 128 128
0.817418 -0.674052 1.01587 128 128 128
0.828518 -0.70041 1.03994 128 128 128
0.788249 -0.700313 1.01106 128 128 128
0.735628 -2.14892 2.16347 128 128 128
0.519174 -2.08646 2.04864 128 128 128
1.02239 -0.506742 1.03458 128 128 128
0.991583 -0.506593 1.00992 128 128 128
0.959239 -0.520028 0.989926 128 128 128
0.939149 -0.524069 0.975929 128 128 128
0.922976 -0.529941 0.965931 128 128 128
0.911282 -0.538171 0.960599 128 128 128
0.911599 -0.553603 0.967931 128 128 128
0.817089 -0.509474 0.875283 128 128 128
0.809304 -0.532677 0.880615 128 128 128
0.888876 -0.601451 0.973929 128 128 128
0.880208 -0.611457 0.972596 128 128 128
0.870823 -0.620906 0.970597 128 128 128
0.834358 -0.610284 0.938603 128 128 128
0.8274 -0.620927 0.93927 128 128 128
0.820895 -0.631949 0.940603 128 128 128
0.817741 -0.645692 0.945935 128 128 128
0.818413 -0.662757 0.955933 128 128 128
0.819359 -0.680412 0.966597 128 128 128
0.817167 -0.69576 0.973929 128 128 128
0.81528 -0.711649 0.981928 128 128 128
0.829724 -0.742584 1.00992 128 128 128
0.64976 -2.11085 1.98906 128 128 128
0.61524 -2.08933 1.96173 128 128 128
0.480858 -2.10058 1.94107 128 128 128
0.948594 -0.527702 0.940579 128 128 128
0.928167 -0.531384 0.926954 128 128 128
0.884824 -0.521163 0.890622 128 128 128
0.871196 -0.527656 0.883486 128 128 128
0.858835 -0.534697 0.877647 128 128 128
0.849642 -0.543559 0.875051 128 128 128
0.842908 -0.553945 0.875051 128 128 128
0.82847 -0.559151 0.867266 128 128 128
0.825929 -0.572302 0.871807 128 128 128
0.819465 -0.582834 0.872456 128 128 128
0.812866 -0.593294 0.873105 128 128 128
0.809793 -0.606411 0.877647 128 128 128
0.80652 -0.619541 0.882188 128 128 128
0.80125 -0.631272 0.884783 128 128 128
0.795814 -0.642966 0.887378 128 128 128
0.794318 -0.658014 0.894515 128 128 128
0.808833 -0.686889 0.919818 128 128 128
0.802642 -0.698758 0.922413 128 128 128
0.813905 -0.726259 0.94512 128 128 128
0.775693 -0.709528 0.911383 128 128 128
0.670452 -2.14437 1.93062 128 128 128
0.43607 -2.09919 1.84304 128 128 128
0.415832 -2.13276 1.86769 128 128 128
0.977185 -0.506977 0.902771 128 128 128
0.957182 -0.511527 0.890231 128 128 128
0.94062 -0.517556 0.880826 128 128 128
0.911885 -0.516293 0.860135 128 128 128
0.883997 -0.514799 0.84007 128 128 128
0.863618 -0.517138 0.826903 128 128 128
0.849269 -0.522759 0.819379 128 128 128
0.803409 -0.507966 0.781758 128 128 128
0.791255 -0.513938 0.776115 128 128 128
0.752753 -0.529175 0.757305 128 128 128
0.797183 -0.575555 0.808093 128 128 128
0.79006 -0.585295 0.808093 128 128 128
0.782818 -0.594946 0.808093 128 128 128
0.782191 -0.609809 0.81499 128 128 128
0.779497 -0.623276 0.820006 128 128 128
0.778991 -0.638756 0.82753 128 128 128
0.777626 -0.653813 0.834427 128 128 128
0.777772 -0.670465 0.843205 128 128 128
0.777044 -0.6867 0.851357 128 128 128
0.809955 -0.734029 0.896501 128 128 128
0.819077 -0.760958 0.916566 128 128 128
0.577541 -2.10432 1.77306 128 128 128
0.542885 -2.07731 1.74485 128 128 128
0.845312 -0.486206 0.765429 128 128 128
0.866623 -0.512661 0.789774 128 128 128
0.842625 -0.512563 0.77395 128 128 128
0.835598 -0.522445 0.773341 128 128 128
0.828456 -0.532232 0.772732 128 128 128
0.821199 -0.541923 0.772124 128 128 128
0.813829 -0.551515 0.771515 128 128 128
0.807 -0.561461 0.771515 128 128 128
0.797464 -0.569481 0.769081 128 128 128
0.787852 -0.577352 0.766646 128 128 128
0.781343 -0.587453 0.767255 128 128 128
0.775962 -0.598448 0.769081 128 128 128
0.770429 -0.609398 0.770906 128 128 128
0.766595 -0.6218 0.774558 128 128 128
0.762572 -0.634199 0.77821 128 128 128
0.761382 -0.649162 0.784905 128 128 128
0.761136 -0.665233 0.792817 128 128 128
0.778953 -0.697779 0.819596 128 128 128
0.763309 -0.700857 0.812293 128 128 128
0.727455 -0.684654 0.783688 128 128 128
0.603847 -2.12733 1.71366 128 128 128
0.563772 -2.08328 1.67289 128 128 128
0.851844 -0.518177 0.740601 128 128 128
0.844051 -0.527727 0.739428 128 128 128
0.824601 -0.529666 0.728287 128 128 128
0.784047 -0.589382 0.728874 128 128 128
0.774838 -0.597466 0.727114 128 128 128
0.769347 -0.608446 0.728874 128 128 128
0.759316 -0.615789 0.726528 128 128 128
0.753563 -0.626623 0.728287 128 128 128
0.757482 -0.645863 0.739428 128 128 128
0.752536 -0.657789 0.74236 128 128 128
0.757625 -0.678928 0.75526 128 128 128
0.75696 -0.695332 0.762883 128 128 128
0.784782 -0.739159 0.799238 128 128 128
0.591387 -2.11059 1.6055 128 128 128
0.47552 -2.0857 1.56739 128 128 128
0.88571 -0.482799 0.714143 128 128 128
0.867884 -0.501104 0.709605 128 128 128
0.865213 -0.513814 0.712441 128 128 128
0.839846 -0.512832 0.697129 128 128 128
0.837679 -0.52572 0.700531 128 128 128
0.821464 -0.529725 0.692592 128 128 128
0.819713 -0.542943 0.696562 128 128 128
0.808217 -0.549726 0.692592 128 128 128
0.80141 -0.559602 0.692592 128 128 128
0.793812 -0.568916 0.692025 128 128 128
0.786771 -0.578614 0.692025 128 128 128
0.779611 -0.588226 0.692025 128 128 128
0.771682 -0.597245 0.691457 128 128 128
0.764941 -0.607181 0.692025 128 128 128
0.75999 -0.618598 0.694293 128 128 128
0.750442 -0.626298 0.692592 128 128 128
0.75022 -0.641874 0.699397 128 128 128
0.746627 -0.654827 0.703367 128 128 128
0.741601 -0.666689 0.706203 128 128 128
0.744282 -0.685769 0.716411 128 128 128
0.749602 -0.707837 0.729455 128 128 128
0.743823 -0.719842 0.732291 128 128 128
0.572268 -2.1291 1.53761 128 128 128
0.424943 -2.08352 1.48373 128 128 128
0.302726 -2.15051 1.51492 128 128 128
0.277682 -2.16469 1.5223 128 128 128
0.91551 -0.491868 0.694981 128 128 128
0.895491 -0.495289 0.684641 128 128 128
0.890072 -0.506659 0.685185 128 128 128
0.864291 -0.506012 0.670492 128 128 128
0.855866 -0.515272 0.668859 128 128 128
0.843787 -0.522178 0.664506 128 128 128
0.830257 -0.52796 0.659064 128 128 128
0.80971 -0.528868 0.64818 128 128 128
0.751459 -0.531013 0.617705 128 128 128
0.780078 -0.565978 0.646003 128 128 128
0.777768 -0.579037 0.649812 128 128 128
0.763295 -0.582902 0.643826 128 128 128
0.759375 -0.594827 0.646547 128 128 128
0.755928 -0.607272 0.649812 128 128 128
0.750999 -0.618648 0.651989 128 128 128
0.74782 -0.631627 0.655799 128 128 128
0.745067 -0.645173 0.660152 128 128 128
0.744592 -0.660985 0.666683 128 128 128
0.738278 -0.671775 0.668315 128 128 128
0.747697 -0.697458 0.684097 128 128 128
0.74029 -0.707745 0.685185 128 128 128
0.750643 -0.735649 0.7026 128 128 128
0.552038 -2.13261 1.44979 128 128 128
0.951177 -0.504782 0.684759 128 128 128
0.900049 -0.491976 0.653293 128 128 128
0.853507 -0.508257 0.633364 128 128 128
0.81886 -0.501395 0.612911 128 128 128
0.828515 -0.521359 0.624449 128 128 128
0.802015 -0.518573 0.609765 128 128 128
0.81547 -0.541535 0.624449 128 128 128
0.798201 -0.544322 0.616583 128 128 128
0.787272 -0.551152 0.613436 128 128 128
0.78391 -0.563251 0.616058 128 128 128
0.769392 -0.567281 0.610289 128 128 128
0.761013 -0.575655 0.60924 128 128 128
0.756586 -0.587034 0.611338 128 128 128
0.749325 -0.596274 0.611338 128 128 128
0.745914 -0.608649 0.614485 128 128 128
0.746889 -0.624846 0.621302 128 128 128
0.744342 -0.638391 0.625498 128 128 128
0.742215 -0.652529 0.630218 128 128 128
0.739851 -0.66671 0.634938 128 128 128
0.73913 -0.68266 0.641231 128 128 128
0.731316 -0.692263 0.641755 128 128 128
0.744185 -0.721905 0.66011 128 128 128
0.714107 -0.710002 0.641755 128 128 128
0.291273 -2.08771 1.31985 128 128 128
0.245411 -2.1416 1.34921 128 128 128
0.947178 -0.504071 0.643916 128 128 128
0.914418 -0.500992 0.626379 128 128 128
0.891657 -0.502754 0.615355 128 128 128
0.886167 -0.514095 0.615856 128 128 128
0.864966 -0.516 0.605835 128 128 128
0.824724 -0.505615 0.582787 128 128 128
0.814077 -0.51291 0.57978 128 128 128
0.803375 -0.52002 0.576774 128 128 128
0.771787 -0.512955 0.559237 128 128 128
0.70881 -0.496247 0.523662 128 128 128
0.730676 -0.52525 0.543704 128 128 128
0.723481 -0.533659 0.543203 128 128 128
0.74438 -0.56352 0.563245 128 128 128
0.734003 -0.569943 0.56074 128 128 128
0.72628 -0.578365 0.560239 128 128 128
0.728476 -0.594941 0.567254 128 128 128
0.723103 -0.605512 0.568757 128 128 128
0.721504 -0.619441 0.573266 128 128 128
0.722259 -0.635719 0.57978 128 128 128
0.728482 -0.657353 0.590803 128 128 128
0.726055 -0.671556 0.595313 128 128 128
0.728391 -0.690584 0.603831 128 128 128
0.727278 -0.70674 0.609844 128 128 128
0.741752 -0.738918 0.628884 128 128 128
0.467862 -2.08558 1.26022 128 128 128
0.259211 -2.10507 1.2507 128 128 128
0.921633 -0.505566 0.599577 128 128 128
0.940576 -0.531032 0.615439 128 128 128
0.835349 -0.499208 0.556796 128 128 128
0.845612 -0.519497 0.567371 128 128 128
0.814683 -0.51442 0.551508 128 128 128
0.789164 -0.511999 0.539011 128 128 128
0.776978 -0.517763 0.535165 128 128 128
0.76477 -0.523306 0.53132 128 128 128
0.759009 -0.533154 0.5318 128 128 128
0.746 -0.537823 0.527474 128 128 128
0.723112 -0.534967 0.516419 128 128 128
0.715094 -0.542742 0.515457 128 128 128
0.709073 -0.552014 0.515938 128 128 128
0.700873 -0.559582 0.514976 128 128 128
0.716373 -0.586437 0.530839 128 128 128
0.712485 -0.597997 0.533242 128 128 128
0.708421 -0.60955 0.535646 128 128 128
0.70418 -0.621093 0.538049 128 128 128
0.699762 -0.632623 0.540453 128 128 128
0.694522 -0.643543 0.542375 128 128 128
0.714589 -0.678545 0.563525 128 128 128
0.7232 -0.703752 0.576504 128 128 128
0.73254 -0.730505 0.590444 128 128 128
0.473115 -2.08645 1.1961 128 128 128
0.445268 -2.08181 1.19034 128 128 128
0.238675 -2.11194 1.18841 128 128 128
0.192674 -2.18355 1.22494 128 128 128
0.938404 -0.510317 0.573404 128 128 128
0.894129 -0.500353 0.551006 128 128 128
0.886384 -0.510394 0.550092 128 128 128
0.849519 -0.502975 0.531808 128 128 128
0.833433 -0.507307 0.525865 128 128 128
0.806842 -0.50467 0.513524 128 128 128
0.785668 -0.504849 0.504382 128 128 128
0.769053 -0.507545 0.497982 128 128 128
0.717262 -0.485796 0.469642 128 128 128
0.693782 -0.482289 0.458672 128 128 128
0.730373 -0.521461 0.485641 128 128 128
0.716769 -0.525094 0.48107 128 128 128
0.708855 -0.532775 0.480156 128 128 128
0.700158 -0.539794 0.478784 128 128 128
0.711551 -0.562776 0.490669 128 128 128
0.69771 -0.56583 0.486098 128 128 128
0.691395 -0.574922 0.486555 128 128 128
0.693725 -0.591486 0.492954 128 128 128
0.687081 -0.600543 0.493411 128 128 128
0.687576 -0.616089 0.498897 128 128 128
0.685834 -0.629922 0.503011 128 128 128
0.705134 -0.66402 0.522209 128 128 128
0.702668 -0.678207 0.526323 128 128 128
0.705624 -0.698087 0.53455 128 128 128
0.734314 -0.744849 0.561976 128 128 128
0.423547 -2.09578 1.12329 128 128 128
0.94007 -0.516688 0.544796 128 128 128
0.919549 -0.520227 0.536947 128 128 128
0.815318 -0.488215 0.485497 128 128 128
0.803129 -0.494418 0.482009 128 128 128
0.810704 -0.512877 0.489858 128 128 128
0.757416 -0.505695 0.466313 128 128 128
0.748181 -0.512921 0.464569 128 128 128
0.736673 -0.518446 0.461517 128 128 128
0.731716 -0.528498 0.462389 128 128 128
0.726623 -0.538507 0.463261 128 128 128
0.708484 -0.538686 0.456284 128 128 128
0.709636 -0.553416 0.461081 128 128 128
0.704199 -0.563204 0.461953 128 128 128
0.700718 -0.574652 0.464133 128 128 128
0.694303 -0.583785 0.464569 128 128 128
0.688452 -0.593435 0.465441 128 128 128
0.681118 -0.601838 0.465441 128 128 128
0.677688 -0.61377 0.468057 128 128 128
0.674069 -0.625708 0.470673 128 128 128
0.685928 -0.652512 0.483753 128 128 128
0.706907 -0.689108 0.503374 128 128 128
0.698397 -0.697731 0.503374 128 128 128
0.731343 -0.748683 0.532151 128 128 128
0.186075 -2.13012 1.06104 128 128 128
0.160668 -2.14212 1.06584 128 128 128
0.897811 -0.499025 0.490514 128 128 128
0.873471 -0.499525 0.481038 128 128 128
0.855523 -0.503227 0.474858 128 128 128
0.815066 -0.492793 0.456731 128 128 128
0.796609 -0.495008 0.450139 128 128 128
0.785114 -0.50129 0.447255 128 128 128
0.743278 -0.527532 0.438191 128 128 128
0.723535 -0.526896 0.430775 128 128 128
0.714833 -0.534089 0.429539 128 128 128
0.704622 -0.540032 0.427479 128 128 128
0.700797 -0.550905 0.429127 128 128 128
0.70317 -0.566941 0.434483 128 128 128
0.703855 -0.581949 0.439015 128 128 128
0.689045 -0.584027 0.434483 128 128 128
0.681826 -0.592438 0.434483 128 128 128
0.672472 -0.598933 0.433247 128 128 128
0.666412 -0.608375 0.434071 128 128 128
0.660883 -0.618384 0.435307 128 128 128
0.672887 -0.645459 0.447667 128 128 128
0.681087 -0.669711 0.457967 128 128 128
0.681763 -0.687113 0.463734 128 128 128
0.714292 -0.738158 0.490514 128 128 128
0.433627 -2.11394 1.0018 128 128 128
0.404586 -2.10299 0.99438 128 128 128
0.821988 -0.493331 0.433244 128 128 128
0.797835 -0.492288 0.424265 128 128 128
0.788621 -0.500074 0.422703 128 128 128
0.766983 -0.499686 0.414895 128 128 128
0.733986 -0.491181 0.401231 128 128 128
0.743095 -0.510555 0.409039 128 128 128
0.733008 -0.516988 0.407087 128 128 128
0.733328 -0.530792 0.410601 128 128 128
0.72306 -0.537012 0.408649 128 128 128
0.699207 -0.560389 0.406697 128 128 128
0.694414 -0.570677 0.407868 128 128 128
0.685244 -0.577379 0.406697 128 128 128
0.679502 -0.586947 0.407477 128 128 128
0.673629 -0.596459 0.408258 128 128 128
0.668307 -0.606534 0.409429 128 128 128
0.664653 -0.649351 0.420751 128 128 128
0.673575 -0.674371 0.430902 128 128 128
0.680049 -0.697729 0.439881 128 128 128
0.704475 -0.740666 0.460183 128 128 128
0.425091 -2.13476 0.949757 128 128 128
0.393445 -2.11086 0.937263 128 128 128
0.841951 -0.478478 0.408723 128 128 128
0.834413 -0.487828 0.407991 128 128 128
0.816432 -0.490787 0.402498 128 128 128
0.784296 -0.484513 0.390414 128 128 128
0.780641 -0.495608 0.391513 128 128 128
0.741743 -0.523594 0.384922 128 128 128
0.735262 -0.532657 0.384922 128 128 128
0.69125 -0.58289 0.383457 128 128 128
0.679838 -0.587658 0.38126 128 128 128
0.672575 -0.595957 0.38126 128 128 128
0.666564 -0.620566 0.38602 128 128 128
0.66292 -0.632572 0.388217 128 128 128
0.656432 -0.641966 0.38895 128 128 128
0.671405 -0.673133 0.401766 128 128 128
0.659863 -0.677973 0.399935 128 128 128
0.691678 -0.728705 0.423004 128 128 128
0.194393 -2.04981 0.837882 128 128 128
0.888776 -0.504865 0.403129 128 128 128
0.817328 -0.491298 0.377994 128 128 128
0.788856 -0.487503 0.368353 128 128 128
0.770915 -0.489614 0.363189 128 128 128
0.760126 -0.495966 0.361123 128 128 128
0.752422 -0.504214 0.360434 128 128 128
0.725743 -0.526068 0.356991 128 128 128
0.723758 -0.538289 0.359057 128 128 128
0.700522 -0.562218 0.35768 128 128 128
0.692119 -0.569581 0.356991 128 128 128
0.682203 -0.575614 0.355614 128 128 128
0.677932 -0.586395 0.356991 128 128 128
0.674905 -0.598401 0.359057 128 128 128
0.67099 -0.60979 0.360778 128 128 128
0.66552 -0.619895 0.361811 128 128 128
0.656827 -0.642597 0.365255 128 128 128
0.652876 -0.654591 0.36732 128 128 128
0.652663 -0.670617 0.371452 128 128 128
0.650859 -0.685374 0.374895 128 128 128
0.663489 -0.716006 0.386258 128 128 128
0.17605 -2.05677 0.785319 128 128 128
0.88665 -0.501538 0.373147 128 128 128
0.827327 -0.481193 0.35235 128 128 128
0.816494 -0.488371 0.350431 128 128 128
0.801585 -0.492856 0.346911 128 128 128
0.789886 -0.499089 0.344672 128 128 128
0.752797 -0.488491 0.332193 128 128 128
0.729453 -0.525956 0.332833 128 128 128
0.722944 -0.534868 0.332833 128 128 128
0.72159 -0.547733 0.335073 128 128 128
0.70215 -0.546594 0.329634 128 128 128
0.670996 -0.549177 0.321955 128 128 128
0.68517 -0.57513 0.331234 128 128 128
0.680207 -0.585359 0.332193 128 128 128
0.675803 -0.596182 0.333473 128 128 128
0.668436 -0.60443 0.333473 128 128 128
0.663045 -0.614529 0.334433 128 128 128
0.655453 -0.622619 0.334433 128 128 128
0.651819 -0.634599 0.336353 128 128 128
0.649324 -0.647928 0.338912 128 128 128
0.651874 -0.666733 0.344032 128 128 128
0.645596 -0.676747 0.344992 128 128 128
0.657802 -0.7069 0.35523 128 128 128
0.0757895 -2.14288 0.75325 128 128 128
0.786922 -0.486864 0.318147 128 128 128
0.767536 -0.501341 0.315469 128 128 128
0.756564 -0.507538 0.313684 128 128 128
0.743196 -0.51192 0.311006 128 128 128
0.729835 -0.516051 0.308328 128 128 128
0.686943 -0.565919 0.307138 128 128 128
0.684328 -0.577996 0.308923 128 128 128
0.675738 -0.585103 0.308328 128 128 128
0.672797 -0.597147 0.310113 128 128 128
0.663297 -0.603434 0.309221 128 128 128
0.656541 -0.612178 0.309518 128 128 128
0.657965 -0.628751 0.313386 128 128 128
0.653615 -0.640113 0.314874 128 128 128
0.64706 -0.649436 0.315469 128 128 128
0.641708 -0.660062 0.316659 128 128 128
0.644088 -0.678954 0.32142 128 128 128
0.644151 -0.695903 0.325288 128 128 128
0.619541 -0.686065 0.317849 128 128 128
0.0752435 -2.10116 0.685016 128 128 128
0.953428 -0.537519 0.341326 128 128 128
0.844628 -0.489433 0.307733 128 128 128
0.814653 -0.48538 0.299812 128 128 128
0.799636 -0.489775 0.296808 128 128 128
0.791941 -0.498519 0.296262 128 128 128
0.776098 -0.501889 0.292984 128 128 128
0.788257 -0.523697 0.299266 128 128 128
0.700636 -0.543496 0.282332 128 128 128
0.659575 -0.551541 0.274685 128 128 128
0.65203 -0.558964 0.274412 128 128 128
0.658794 -0.579053 0.279601 128 128 128
0.663738 -0.598096 0.284244 128 128 128
0.657756 -0.607507 0.284791 128 128 128
0.653034 -0.618191 0.285883 128 128 128
0.647461 -0.628177 0.286702 128 128 128
0.640383 -0.636756 0.286975 128 128 128
0.646605 -0.659049 0.292711 128 128 128
0.642442 -0.67112 0.29435 128 128 128
0.637426 -0.682483 0.295715 128 128 128
0.650929 -0.714524 0.305001 128 128 128
0.795135 -0.479099 0.27127 128 128 128
0.792491 -0.490855 0.272271 128 128 128
0.769662 -0.503283 0.269016 128 128 128
0.672658 -0.568753 0.259001 128 128 128
0.667093 -0.578231 0.259502 128 128 128
0.662121 -0.588299 0.260253 128 128 128
0.656285 -0.597682 0.260754 128 128 128
0.646324 -0.618286 0.262506 128 128 128
0.644226 -0.631585 0.264509 128 128 128
0.648451 -0.718721 0.281535 128 128 128
0.278353 -2.07343 0.572226 128 128 128
0.806984 -0.479281 0.24936 128 128 128
0.800212 -0.488636 0.249134 128 128 128
0.79251 -0.497377 0.248683 128 128 128
0.775732 -0.500156 0.24575 128 128 128
0.779255 -0.516135 0.248457 128 128 128
0.687991 -0.545772 0.235371 128 128 128
0.649915 -0.613538 0.238981 128 128 128
0.055129 -2.10204 0.518989 128 128 128
0.800424 -0.482646 0.226314 128 128 128
0.801104 -0.49655 0.227937 128 128 128
0.777592 -0.49532 0.223675 128 128 128
0.768995 -0.50322 0.223066 128 128 128
0.757067 -0.508803 0.221646 128 128 128
0.731405 -0.504736 0.216775 128 128 128
0.722757 -0.511979 0.216166 128 128 128
0.706046 -0.526641 0.215151 128 128 128
0.6528 -0.566265 0.211701 128 128 128
0.650198 -0.57813 0.212918 128 128 128
0.642644 -0.615192 0.216978 128 128 128
0.81627 -0.483536 0.205068 128 128 128
0.796862 -0.485271 0.202219 128 128 128
0.782529 -0.489757 0.200437 128 128 128
0.764079 -0.491286 0.197766 128 128 128
0.767818 -0.507176 0.199903 128 128 128
0.722562 -0.489878 0.191354 128 128 128
0.628861 -0.703793 0.204178 128 128 128
0.637551 -0.731558 0.208987 128 128 128
0.795415 -0.479818 0.179742 128 128 128
0.791988 -0.491102 0.180208 128 128 128
0.780064 -0.497075 0.179122 128 128 128
0.758187 -0.496352 0.176176 128 128 128
0.696995 -0.520094 0.170439 128 128 128
0.687419 -0.526211 0.169819 128 128 128
0.6848 -0.537651 0.170594 128 128 128
0.623868 -0.692253 0.180208 128 128 128
0.618592 -0.703562 0.180983 128 128 128
0.6112 -0.712598 0.181293 128 128 128
0.91186 -0.52441 0.172965 128 128 128
0.83128 -0.491367 0.161624 128 128 128
0.803213 -0.488053 0.158235 128 128 128
0.776195 -0.484655 0.154976 128 128 128
0.765196 -0.49091 0.154194 128 128 128
0.766544 -0.505205 0.155367 128 128 128
0.755375 -0.511218 0.154585 128 128 128
0.721444 -0.501096 0.150153 128 128 128
0.69856 -0.524317 0.149501 128 128 128
0.689724 -0.531025 0.14911 128 128 128
0.68083 -0.537595 0.148719 128 128 128
0.664201 -0.537753 0.147025 128 128 128
0.658325 -0.560352 0.148328 128 128 128
0.64247 -0.560525 0.146764 128 128 128
0.637751 -0.57036 0.147155 128 128 128
0.62037 -0.692784 0.156932 128 128 128
0.613769 -0.702593 0.157323 128 128 128
0.824063 -0.497427 0.138994 128 128 128
0.779848 -0.483963 0.134173 128 128 128
0.771334 -0.491896 0.133851 128 128 128
0.762742 -0.499694 0.13353 128 128 128
0.739213 -0.497385 0.13128 128 128 128
0.730597 -0.504727 0.130959 128 128 128
0.719477 -0.510211 0.130316 128 128 128
0.713162 -0.519002 0.130316 128 128 128
0.683611 -0.510497 0.127209 128 128 128
0.681246 -0.521865 0.127745 128 128 128
0.678704 -0.533251 0.12828 128 128 128
0.665908 -0.536558 0.127423 128 128 128
0.657739 -0.543425 0.127209 128 128 128
0.644943 -0.546324 0.126352 128 128 128
0.626604 -0.571699 0.126673 128 128 128
0.618468 -0.67005 0.13353 128 128 128
0.612198 -0.679802 0.133851 128 128 128
0.611697 -0.696216 0.135137 128 128 128
0.621253 -0.724782 0.138136 128 128 128
-0.0584579 -2.17077 0.269266 128 128 128
0.905917 -0.535269 0.122858 128 128 128
0.793903 -0.481788 0.112655 128 128 128
0.782028 -0.487777 0.112079 128 128 128
0.770125 -0.493548 0.111503 128 128 128
0.74824 -0.492482 0.109939 128 128 128
0.709375 -0.505146 0.107882 128 128 128
0.699113 -0.510855 0.107471 128 128 128
0.696765 -0.522403 0.107882 128 128 128
0.677706 -0.521136 0.106565 128 128 128
0.663463 -0.523206 0.105743 128 128 128
0.66008 -0.533829 0.106072 128 128 128
0.646602 -0.536132 0.105331 128 128 128
0.642999 -0.546622 0.10566 128 128 128
0.636991 -0.55513 0.105743 128 128 128
0.630131 -0.562905 0.105743 128 128 128
0.623737 -0.630369 0.109199 128 128 128
0.609752 -0.631496 0.108458 128 128 128
0.611479 -0.649129 0.10961 128 128 128
0.598098 -0.65069 0.108952 128 128 128
0.794793 -0.493208 0.0918399 128 128 128
0.785311 -0.500782 0.091604 128 128 128
0.748182 -0.490184 0.0894226 128 128 128
0.741281 -0.498773 0.0893636 128 128 128
0.728528 -0.503302 0.088892 128 128 128
0.702733 -0.498374 0.087477 128 128 128
0.703837 -0.512236 0.0880076 128 128 128
0.655285 -0.528025 0.0862978 128 128 128
0.647986 -0.535392 0.0862389 128 128 128
0.625365 -0.570572 0.0865926 128 128 128
0.616856 -0.576842 0.0864747 128 128 128
0.606844 -0.58161 0.0862389 128 128 128
0.60608 -0.595299 0.0867695 128 128 128
0.608492 -0.643276 0.088892 128 128 128
0.602586 -0.652892 0.0890688 128 128 128
0.610871 -0.730632 0.0928421 128 128 128
0.87432 -0.515839 0.0720166 128 128 128
0.810808 -0.491579 0.0697251 128 128 128
0.785256 -0.489254 0.0689384 128 128 128
0.768281 -0.491803 0.0684938 128 128 128
0.760522 -0.500088 0.0684254 128 128 128
0.736985 -0.497564 0.0677072 128 128 128
0.71117 -0.492819 0.0668863 128 128 128
0.705881 -0.502092 0.0669205 128 128 128
0.68438 -0.499453 0.0662707 128 128 128
0.678199 -0.507813 0.0662707 128 128 128
0.669547 -0.51426 0.0661681 128 128 128
0.652077 -0.526747 0.0659629 128 128 128
0.645564 -0.53471 0.0659629 128 128 128
0.636678 -0.54064 0.0658603 128 128 128
0.630746 -0.549072 0.0658945 128 128 128
0.618094 -0.579472 0.0662707 128 128 128
0.605197 -0.581447 0.0659971 128 128 128
0.599434 -0.590239 0.0660655 128 128 128
0.600548 -0.606108 0.0664759 128 128 128
0.611732 -0.632918 0.0673994 128 128 128
0.605966 -0.642567 0.067502 128 128 128
0.597987 -0.666205 0.0679124 128 128 128
0.608699 -0.730917 0.0698277 128 128 128
0.0101923 -2.03252 0.106834 128 128 128
-0.0148148 -2.03949 0.107073 128 128 128
-0.0958917 -2.16835 0.111554 128 128 128
0.779088 -0.483492 0.047669 128 128 128
0.765501 -0.488188 0.0475732 128 128 128
0.751918 -0.492624 0.0474773 128 128 128
0.715921 -0.481761 0.0470941 128 128 128
0.713249 -0.492779 0.0471367 128 128 128
0.693267 -0.491682 0.0469557 128 128 128
0.687991 -0.50074 0.0469663 128 128 128
0.601773 -0.562781 0.0466789 128 128 128
0.602775 -0.577722 0.046796 128 128 128
0.601825 -0.605799 0.0469983 128 128 128
0.595043 -0.613855 0.0470089 128 128 128
0.588842 -0.622562 0.0470302 128 128 128
0.586591 -0.635612 0.0471154 128 128 128
0.590811 -0.65612 0.047307 128 128 128
0.585611 -0.683314 0.047488 128 128 128
0.600309 -0.718034 0.0478713 128 128 128
-0.0564909 -2.09609 0.0602316 128 128 128
0.872692 -0.529244 0.0244917 128 128 128
0.784866 -0.488824 0.0258153 128 128 128
0.748571 -0.478888 0.0263116 128 128 128
0.780965 -0.513466 0.0256774 128 128 128
0.722545 -0.487544 0.026546 128 128 128
0.714049 -0.494654 0.0265874 128 128 128
0.689243 -0.489969 0.0269045 128 128 128
0.683178 -0.49839 0.0269045 128 128 128
0.674617 -0.504927 0.0269459 128 128 128
0.662838 -0.50888 0.0270424 128 128 128
0.633685 -0.524596 0.0272216 128 128 128
0.624163 -0.52973 0.0272768 128 128 128
0.621371 -0.540649 0.0272078 128 128 128
0.616919 -0.550241 0.0271665 128 128 128
0.607916 -0.555736 0.0272078 128 128 128
0.601051 -0.563154 0.0272078 128 128 128
0.599838 -0.576055 0.0270975 128 128 128
0.599817 -0.59042 0.0269597 128 128 128
0.595329 -0.600589 0.0269045 128 128 128
0.585147 -0.604962 0.0269597 128 128 128
0.592021 -0.627435 0.0266701 128 128 128
0.592364 -0.643517 0.0265047 128 128 128
0.583092 -0.649244 0.0265322 128 128 128
0.588849 -0.672205 0.0262427 128 128 128
0.592834 -0.693877 0.0259807 128 128 128
0.590643 -0.708808 0.0258429 128 128 128
0.566844 -0.697316 0.0261738 128 128 128
-0.0918567 -2.08851 0.00973886 128 128 128
0.797466 -0.494488 0.00414401 128 128 128
0.752537 -0.479589 0.00586171 128 128 128
0.734879 -0.481141 0.00638449 128 128 128
0.722279 -0.485672 0.00668322 128 128 128
0.703917 -0.486001 0.00724334 128 128 128
0.692186 -0.490566 0.00750473 128 128 128
0.680451 -0.494918 0.00776612 128 128 128
0.669516 -0.499652 0.00799017 128 128 128
0.640527 -0.502998 0.00877434 128 128 128
0.635865 -0.512071 0.00869965 128 128 128
0.627218 -0.51793 0.00881168 128 128 128
0.620815 -0.525588 0.00881168 128 128 128
0.595133 -0.542705 0.00911041 128 128 128
0.571612 -0.534301 0.00996926 128 128 128
0.58814 -0.563358 0.00877434 128 128 128
0.591182 -0.580318 0.00825156 128 128 128
0.579782 -0.583283 0.00847561 128 128 128
0.585124 -0.603246 0.00780346 128 128 128
0.570797 -0.603134 0.00817687 128 128 128
0.589157 -0.637952 0.0067579 128 128 128
0.579274 -0.642909 0.00686993 128 128 128
0.580594 -0.660464 0.00634715 128 128 128
0.575051 -0.670569 0.00619778 128 128 128
0.57834 -0.691355 0.00552564 128 128 128
0.59829 -0.733203 0.00384527 128 128 128
-0.137378 -2.16412 -0.0418232 128 128 128
0.781623 -0.487154 -0.0172777 128 128 128
0.747088 -0.478287 -0.0151725 128 128 128
0.749477 -0.49294 -0.0157917 128 128 128
0.731826 -0.494228 -0.0149248 128 128 128
0.695451 -0.481996 -0.0126338 128 128 128
0.691916 -0.492241 -0.0128195 128 128 128
0.685823 -0.500695 -0.0128195 128 128 128
0.679627 -0.509073 -0.0128195 128 128 128
0.655979 -0.503916 -0.0114573 128 128 128
0.648184 -0.510686 -0.0113335 128 128 128
0.636455 -0.514185 -0.0109 128 128 128
0.626269 -0.518755 -0.0105904 128 128 128
0.619098 -0.525751 -0.0105285 128 128 128
0.610351 -0.531332 -0.0103428 128 128 128
0.604526 -0.53945 -0.0104047 128 128 128
0.596394 -0.545474 -0.0102808 128 128 128
0.588931 -0.552065 -0.0102189 128 128 128
0.588559 -0.565505 -0.0107762 128 128 128
0.581576 -0.572685 -0.0107762 128 128 128
0.581495 -0.586902 -0.0113954 128 128 128
0.57563 -0.595435 -0.0115192 128 128 128
0.569642 -0.603913 -0.0116431 128 128 128
0.571603 -0.621184 -0.0125099 128 128 128
0.581183 -0.647541 -0.0141198 128 128 128
0.578426 -0.660655 -0.0146152 128 128 128
0.572855 -0.670751 -0.0148629 128 128 128
0.586266 -0.721923 -0.017835 128 128 128
0.747842 -0.476606 -0.0356599 128 128 128
0.741937 -0.485747 -0.0356599 128 128 128
0.733437 -0.493151 -0.0354032 128 128 128
0.700246 -0.483475 -0.0325787 128 128 128
0.689377 -0.488582 -0.0320651 128 128 128
0.686556 -0.499344 -0.0324075 128 128 128
0.661991 -0.494055 -0.0304389 128 128 128
0.651126 -0.498514 -0.0299254 128 128 128
0.637142 -0.513096 -0.0297542 128 128 128
0.628489 -0.518977 -0.0294974 128 128 128
0.611413 -0.517654 -0.0282991 128 128 128
0.611043 -0.530333 -0.0289839 128 128 128
0.59778 -0.531842 -0.0282135 128 128 128
0.590471 -0.538468 -0.0281279 128 128 128
0.58309 -0.544994 -0.0280424 128 128 128
0.576358 -0.552108 -0.0280424 128 128 128
0.581645 -0.570986 -0.0294974 128 128 128
0.57371 -0.591515 -0.0302677 128 128 128
0.565722 -0.597788 -0.0301821 128 128 128
0.564437 -0.611264 -0.0309524 128 128 128
0.57159 -0.634407 -0.0328355 128 128 128
0.569033 -0.647352 -0.0335202 128 128 128
0.570142 -0.664861 -0.0347184 128 128 128
0.563221 -0.673334 -0.0348896 128 128 128
0.566904 -0.694846 -0.0365159 128 128 128
0.583814 -0.73368 -0.0400251 128 128 128
-0.00417662 -2.00368 -0.131607 128 128 128
0.800273 -0.499076 -0.0631272 128 128 128
0.754026 -0.482952 -0.0578516 128 128 128
0.730451 -0.493471 -0.0563129 128 128 128
0.719455 -0.498977 -0.0556535 128 128 128
0.698749 -0.497328 -0.0536752 128 128 128
0.677394 -0.494657 -0.0515869 128 128 128
0.67048 -0.502333 -0.051477 128 128 128
0.66348 -0.509913 -0.0513671 128 128 128
0.641618 -0.505638 -0.0491689 128 128 128
0.633825 -0.512217 -0.0489491 128 128 128
0.620631 -0.514216 -0.04796 128 128 128
0.612765 -0.520499 -0.0477401 128 128 128
0.604839 -0.526667 -0.0475203 128 128 128
0.603498 -0.538707 -0.0482897 128 128 128
0.594652 -0.544049 -0.04796 128 128 128
0.586487 -0.549939 -0.0477401 128 128 128
0.589681 -0.566785 -0.0492788 128 128 128
0.572543 -0.592413 -0.0499383 128 128 128
0.56523 -0.599395 -0.0499383 128 128 128
0.56051 -0.609224 -0.0503779 128 128 128
0.552992 -0.616057 -0.0503779 128 128 128
0.578606 -0.661089 -0.0559832 128 128 128
0.57045 -0.66814 -0.0559832 128 128 128
0.56284 -0.675856 -0.0560931 128 128 128
0.574447 -0.70749 -0.0596102 128 128 128
0.571858 -0.722305 -0.0607093 128 128 128
-0.144135 -2.08517 -0.189961 128 128 128
0.763489 -0.472948 -0.0791073 128 128 128
0.756791 -0.481751 -0.0789738 128 128 128
0.729236 -0.47693 -0.0755036 128 128 128
0.721681 -0.48474 -0.0752367 128 128 128
0.709145 -0.489069 -0.074169 128 128 128
0.693373 -0.490877 -0.0725674 128 128 128
0.669638 -0.486561 -0.0696311 128 128 128
0.654866 -0.488239 -0.0681629 128 128 128
0.650402 -0.49744 -0.0684299 128 128 128
0.635661 -0.49867 -0.0669617 128 128 128
0.629493 -0.506433 -0.0669617 128 128 128
0.623231 -0.514119 -0.0669617 128 128 128
0.616875 -0.521729 -0.0669617 128 128 128
0.596179 -0.516947 -0.0644259 128 128 128
0.588307 -0.52291 -0.0641589 128 128 128
0.578911 -0.527425 -0.0636251 128 128 128
0.577473 -0.539216 -0.0645593 128 128 128
0.570813 -0.546262 -0.0645593 128 128 128
0.574697 -0.563617 -0.0665613 128 128 128
0.568437 -0.571328 -0.0666948 128 128 128
0.564543 -0.610758 -0.0701649 128 128 128
0.558335 -0.61911 -0.0704319 128 128 128
0.557254 -0.633345 -0.0717666 128 128 128
0.55914 -0.651401 -0.0737686 128 128 128
0.562577 -0.671874 -0.076171 128 128 128
0.557429 -0.682561 -0.0768383 128 128 128
0.571279 -0.717225 -0.0816431 128 128 128
0.0721912 -2.04645 -0.233929 128 128 128
-0.102813 -2.02828 -0.23166 128 128 128
0.755559 -0.484668 -0.10113 128 128 128
0.711735 -0.468745 -0.0938627 128 128 128
0.720606 -0.487469 -0.0967065 128 128 128
0.705677 -0.490039 -0.0949687 128 128 128
0.691595 -0.492894 -0.0933888 128 128 128
0.666431 -0.487266 -0.0895971 128 128 128
0.662762 -0.497196 -0.0900711 128 128 128
0.651933 -0.501657 -0.0891232 128 128 128
0.641095 -0.505926 -0.0881753 128 128 128
0.625663 -0.506257 -0.0862794 128 128 128
0.621674 -0.5158 -0.0867534 128 128 128
0.609305 -0.518242 -0.0854895 128 128 128
0.597712 -0.521112 -0.0843836 128 128 128
0.585408 -0.523115 -0.0831197 128 128 128
0.575321 -0.526906 -0.0823298 128 128 128
0.580993 -0.545477 -0.0850155 128 128 128
0.57992 -0.558071 -0.0862794 128 128 128
0.577926 -0.570023 -0.0873853 128 128 128
0.57296 -0.579188 -0.0878593 128 128 128
0.570586 -0.591172 -0.0889652 128 128 128
0.570024 -0.60535 -0.0905451 128 128 128
0.569199 -0.619602 -0.0921249 128 128 128
0.537295 -0.59922 -0.0862794 128 128 128
0.548003 -0.626667 -0.090703 128 128 128
0.562577 -0.659743 -0.0962325 128 128 128
0.571394 -0.687172 -0.100498 128 128 128
0.555495 -0.684896 -0.0986023 128 128 128
0.568976 -0.71964 -0.10429 128 128 128
0.756998 -0.481702 -0.122455 128 128 128
0.727137 -0.475386 -0.11719 128 128 128
0.717162 -0.481539 -0.116282 128 128 128
0.701473 -0.48362 -0.114104 128 128 128
0.690664 -0.488791 -0.113014 128 128 128
0.655937 -0.47647 -0.106479 128 128 128
0.650041 -0.484484 -0.106479 128 128 128
0.629186 -0.4811 -0.103029 128 128 128
0.628658 -0.493023 -0.1043 128 128 128
0.618724 -0.497626 -0.103392 128 128 128
0.611811 -0.504556 -0.103211 128 128 128
0.601061 -0.508224 -0.102121 128 128 128
0.58957 -0.511062 -0.100851 128 128 128
0.582518 -0.517606 -0.100669 128 128 128
0.576123 -0.524716 -0.100669 128 128 128
0.5646 -0.527057 -0.0993981 128 128 128
0.55809 -0.533946 -0.0993981 128 128 128
0.546294 -0.562578 -0.101577 128 128 128
0.541573 -0.630784 -0.110291 128 128 128
0.540749 -0.645664 -0.112288 128 128 128
0.549614 -0.672788 -0.11719 128 128 128
0.545614 -0.68486 -0.118461 128 128 128
-0.127482 -2.02907 -0.332144 128 128 128
0.757811 -0.486853 -0.145006 128 128 128
0.742005 -0.489604 -0.142544 128 128 128
0.701206 -0.474911 -0.133722 128 128 128
0.693723 -0.482355 -0.133311 128 128 128
0.684576 -0.488543 -0.13249 128 128 128
0.667513 -0.488759 -0.129618 128 128 128
0.656786 -0.493365 -0.128387 128 128 128
0.642186 -0.494775 -0.12613 128 128 128
0.636066 -0.502619 -0.12613 128 128 128
0.622276 -0.504187 -0.124078 128 128 128
0.612294 -0.50864 -0.123052 128 128 128
0.605264 -0.515477 -0.122847 128 128 128
0.595222 -0.519629 -0.121821 128 128 128
0.587349 -0.525582 -0.121411 128 128 128
0.578701 -0.530755 -0.120795 128 128 128
0.570724 -0.536468 -0.120385 128 128 128
0.565501 -0.544797 -0.120795 128 128 128
0.558773 -0.551695 -0.120795 128 128 128
0.555879 -0.576569 -0.124078 128 128 128
0.550763 -0.585496 -0.124694 128 128 128
0.546169 -0.595107 -0.125514 128 128 128
0.546617 -0.610553 -0.127977 128 128 128
0.55381 -0.63424 -0.132696 128 128 128
0.538411 -0.632012 -0.130233 128 128 128
0.543053 -0.653686 -0.134337 128 128 128
0.553981 -0.683963 -0.140698 128 128 128
0.547356 -0.693022 -0.141313 128 128 128
0.563745 -0.732367 -0.149931 128 128 128
0.747235 -0.487762 -0.165387 128 128 128
0.709629 -0.475803 -0.156454 128 128 128
0.701329 -0.482823 -0.155767 128 128 128
0.691372 -0.48859 -0.154622 128 128 128
0.675857 -0.490194 -0.151874 128 128 128
0.643991 -0.479315 -0.144316 128 128 128
0.633412 -0.483645 -0.142942 128 128 128
0.625127 -0.489584 -0.142254 128 128 128
0.616033 -0.494786 -0.141338 128 128 128
0.609162 -0.501691 -0.141109 128 128 128
0.584136 -0.50568 -0.137216 128 128 128
0.552236 -0.554165 -0.139506 128 128 128
0.549473 -0.56508 -0.14088 128 128 128
0.542497 -0.571781 -0.14088 128 128 128
0.537427 -0.580534 -0.141567 128 128 128
0.537312 -0.624984 -0.149354 128 128 128
0.533362 -0.636 -0.150729 128 128 128
0.540337 -0.660557 -0.156225 128 128 128
0.537056 -0.673218 -0.158058 128 128 128
0.543126 -0.698176 -0.163554 128 128 128
0.555736 -0.732678 -0.171799 128 128 128
0.753752 -0.485487 -0.188842 128 128 128
0.706502 -0.479758 -0.177728 128 128 128
0.686321 -0.478366 -0.173182 128 128 128
0.681183 -0.487318 -0.173434 128 128 128
0.66427 -0.487573 -0.169898 128 128 128
0.651306 -0.490416 -0.167625 128 128 128
0.633033 -0.488848 -0.163584 128 128 128
0.62472 -0.494766 -0.162826 128 128 128
0.614861 -0.499327 -0.161563 128 128 128
0.593879 -0.494377 -0.156512 128 128 128
0.587767 -0.501628 -0.156512 128 128 128
0.580842 -0.508162 -0.156259 128 128 128
0.572411 -0.513303 -0.155501 128 128 128
0.566778 -0.520947 -0.155754 128 128 128
0.561044 -0.52853 -0.156007 128 128 128
0.558671 -0.539429 -0.157522 128 128 128
0.54722 -0.541455 -0.155754 128 128 128
0.55405 -0.561978 -0.160806 128 128 128
0.539772 -0.561028 -0.158027 128 128 128
0.547337 -0.583203 -0.163584 128 128 128
0.538839 -0.588442 -0.163079 128 128 128
0.534141 -0.597909 -0.164089 128 128 128
0.539406 -0.619071 -0.169141 128 128 128
0.531768 -0.625643 -0.169141 128 128 128
0.54431 -0.656801 -0.177476 128 128 128
0.519882 -0.643037 -0.170656 128 128 128
0.53279 -0.676063 -0.179496 128 128 128
0.551409 -0.717969 -0.191115 128 128 128
0.546592 -0.730121 -0.192883 128 128 128
-0.19784 -2.05201 -0.492943 128 128 128
0.734213 -0.478759 -0.206178 128 128 128
0.705102 -0.47226 -0.19816 128 128 128
0.696083 -0.478704 -0.197054 128 128 128
0.680724 -0.480574 -0.193736 128 128 128
0.668542 -0.484391 -0.191525 128 128 128
0.647877 -0.481688 -0.186272 128 128 128
0.628145 -0.479135 -0.181295 128 128 128
0.622976 -0.487398 -0.181571 128 128 128
0.613945 -0.492605 -0.180466 128 128 128
0.606368 -0.498884 -0.179913 128 128 128
0.596522 -0.503195 -0.17853 128 128 128
0.580838 -0.502322 -0.174936 128 128 128
0.559138 -0.520746 -0.17383 128 128 128
0.550616 -0.525581 -0.173001 128 128 128
0.551007 -0.539007 -0.175765 128 128 128
0.5497 -0.564742 -0.180742 128 128 128
0.544054 -0.572836 -0.181295 128 128 128
0.538947 -0.581581 -0.182124 128 128 128
0.533061 -0.589574 -0.182677 128 128 128
0.529607 -0.600389 -0.184336 128 128 128
0.525968 -0.611207 -0.185995 128 128 128
0.530191 -0.631582 -0.191248 128 128 128
0.549851 -0.671457 -0.20369 128 128 128
0.53436 -0.669154 -0.200372 128 128 128
0.532616 -0.683991 -0.203413 128 128 128
0.530005 -0.698121 -0.206178 128 128 128
-0.174924 -2.02701 -0.539332 128 128 128
0.715542 -0.474766 -0.222824 128 128 128
0.705733 -0.480806 -0.221327 128 128 128
0.695103 -0.486127 -0.219531 128 128 128
0.683678 -0.4907 -0.217436 128 128 128
0.653873 -0.481399 -0.208155 128 128 128
0.640331 -0.483599 -0.205161 128 128 128
0.626835 -0.485539 -0.202167 128 128 128
0.614133 -0.487819 -0.199473 128 128 128
0.60589 -0.4935 -0.198575 128 128 128
0.582318 -0.511035 -0.196479 128 128 128
0.563114 -0.532122 -0.196479 128 128 128
0.54904 -0.531652 -0.193186 128 128 128
0.542475 -0.53835 -0.193186 128 128 128
0.535877 -0.586972 -0.202766 128 128 128
0.529896 -0.594935 -0.203365 128 128 128
0.527401 -0.622379 -0.209352 128 128 128
0.5306 -0.642096 -0.214741 128 128 128
0.533393 -0.661983 -0.22013 128 128 128
0.53519 -0.68128 -0.225219 128 128 128
0.53476 -0.716458 -0.233901 128 128 128
0.749995 -0.488112 -0.257891 128 128 128
0.718744 -0.480487 -0.247557 128 128 128
0.689359 -0.47324 -0.23787 128 128 128
0.671108 -0.472961 -0.232703 128 128 128
0.665253 -0.481161 -0.232703 128 128 128
0.644841 -0.478596 -0.226567 128 128 128
0.631379 -0.480753 -0.223338 128 128 128
0.614976 -0.480327 -0.218817 128 128 128
0.62087 -0.497284 -0.223984 128 128 128
0.593481 -0.487482 -0.214619 128 128 128
0.586005 -0.493512 -0.213973 128 128 128
0.579187 -0.500049 -0.21365 128 128 128
0.522946 -0.591859 -0.222046 128 128 128
0.519358 -0.602526 -0.223984 128 128 128
0.52169 -0.620428 -0.229151 128 128 128
0.511916 -0.656352 -0.236578 128 128 128
0.52162 -0.68591 -0.246589 128 128 128
0.526154 -0.709726 -0.254016 128 128 128
0.741945 -0.4812 -0.277817 128 128 128
0.621922 -0.48338 -0.2422 128 128 128
0.51374 -0.608185 -0.245312 128 128 128
0.50861 -0.617353 -0.246695 128 128 128
0.513265 -0.672334 -0.263639 128 128 128
0.516107 -0.693691 -0.270555 128 128 128
0.512481 -0.706832 -0.273667 128 128 128
0.58924 -0.483348 -0.253719 128 128 128
0.582552 -0.489946 -0.25335 128 128 128
0.572971 -0.49403 -0.251504 128 128 128
0.560588 -0.495496 -0.248182 128 128 128
0.501125 -0.641672 -0.274388 128 128 128
0.503934 -0.661804 -0.281401 128 128 128
0.496885 -0.669429 -0.282139 128 128 128
0.502282 -0.694279 -0.291367 128 128 128
0.589821 -0.483768 -0.274987 128 128 128
0.581737 -0.489181 -0.273812 128 128 128
0.572916 -0.493865 -0.272246 128 128 128
0.563381 -0.497793 -0.270289 128 128 128
0.507689 -0.634389 -0.29613 128 128 128
0.50324 -0.644941 -0.298479 128 128 128
0.503036 -0.66136 -0.303961 128 128 128
0.500325 -0.674902 -0.307876 128 128 128
0.609219 -0.486304 -0.304708 128 128 128
0.578253 -0.485349 -0.293511 128 128 128
0.57778 -0.497146 -0.296829 128 128 128
0.568902 -0.501797 -0.29517 128 128 128
0.507344 -0.601369 -0.308026 128 128 128
0.504562 -0.613162 -0.311343 128 128 128
0.498483 -0.610188 -0.33089 128 128 128
0.497611 -0.640788 -0.342235 128 128 128
0.48971 -0.646847 -0.342235 128 128 128
0.502427 -0.68115 -0.359252 128 128 128
0.577845 -0.48385 -0.337308 128 128 128
0.565787 -0.485709 -0.333176 128 128 128
0.490792 -0.57441 -0.360942 128 128 128
0.607082 -0.458461 -0.388811 128 128 128
0.499646 -0.534081 -0.371708 128 128 128
0.495558 -0.570346 -0.385792 128 128 128
0.4818 -0.568485 -0.379756 128 128 128
0.489139 -0.591646 -0.392835 128 128 128
0.480211 -0.595589 -0.391326 128 128 128
0.496849 -0.543422 -0.397977 128 128 128
0.488918 -0.561911 -0.403214 128 128 128
0.488007 -0.575049 -0.408974 128 128 128
0.48415 -0.58495 -0.412116 128 128 128
0.524164 -0.518725 -0.424712 128 128 128
0.484254 -0.56943 -0.431264 128 128 128
0.480447 -0.579192 -0.434539 128 128 128
0.454616 -0.645174 -0.485266 128 128 128
0.449441 -0.654798 -0.488662 128 128 128
0.451366 -0.675399 -0.501113 128 128 128
0.446911 -0.554353 -0.543433 128 128 128
0.436337 -0.554976 -0.538257 128 128 128
0.430414 -0.561505 -0.539551 128 128 128
0.415537 -0.548527 -0.585134 128 128 128
