ply
format ascii 1.0
comment Created by Open3D
element vertex 557
property double x
property double y
property double z
property uchar red
property uchar green
property uchar blue
end_header
0.814169 -2.21147 2.3495 128 128 128
0.764114 -2.15633 2.28119 128 128 128
0.552175 -2.12045 2.18541 128 128 128
0.817662 -0.708626 1.03719 128 128 128
0.701704 -2.13503 2.14078 128 128 128
0.666045 -2.1137 2.11121 128 128 128
0.638165 -2.11546 2.10502 128 128 128
0.605501 -2.10012 2.08233 128 128 128
0.572153 -2.08009 2.05552 128 128 128
0.544001 -2.07712 2.04589 128 128 128
0.497377 -2.10893 2.06446 128 128 128
0.477801 -2.14321 2.09196 128 128 128
0.438181 -2.22053 2.15591 128 128 128
0.798262 -0.511355 0.861952 128 128 128
0.72653 -2.16996 2.06038 128 128 128
0.680823 -2.11906 2.00439 128 128 128
0.585952 -2.0838 1.94973 128 128 128
0.559762 -2.08867 1.94773 128 128 128
0.533541 -2.09321 1.94573 128 128 128
0.506599 -2.09453 1.94107 128 128 128
0.455979 -2.1107 1.94507 128 128 128
0.432538 -2.12856 1.9564 128 128 128
0.634685 -2.1211 1.90273 128 128 128
0.602946 -2.10897 1.88521 128 128 128
0.572002 -2.09786 1.86899 128 128 128
0.541806 -2.08779 1.85407 128 128 128
0.490406 -2.10045 1.85407 128 128 128
0.464593 -2.10631 1.85407 128 128 128
0.391683 -2.14893 1.87742 128 128 128
0.644837 -2.1425 1.81758 128 128 128
0.617214 -2.14576 1.81382 128 128 128
0.514748 -2.07322 1.73607 128 128 128
0.487677 -2.07256 1.73043 128 128 128
0.460868 -2.0723 1.72541 128 128 128
0.439354 -2.09687 1.74109 128 128 128
0.415225 -2.11051 1.74798 128 128 128
0.388041 -2.10855 1.74234 128 128 128
0.371228 -2.16692 1.78623 128 128 128
0.349186 -2.20056 1.81006 128 128 128
0.641234 -2.15779 1.74409 128 128 128
0.5338 -2.07314 1.6595 128 128 128
0.506619 -2.0726 1.65402 128 128 128
0.479172 -2.07016 1.64732 128 128 128
0.451862 -2.06735 1.64063 128 128 128
0.42678 -2.0743 1.64185 128 128 128
0.403104 -2.08873 1.64915 128 128 128
0.375745 -2.08415 1.64185 128 128 128
0.352513 -2.10269 1.6528 128 128 128
0.332179 -2.14213 1.68019 128 128 128
0.936342 -0.493927 0.785165 128 128 128
0.920269 -0.499923 0.776956 128 128 128
0.880411 -0.506479 0.754088 128 128 128
0.562333 -2.10594 1.5967 128 128 128
0.529923 -2.08676 1.57735 128 128 128
0.503712 -2.09074 1.5756 128 128 128
0.44736 -2.0795 1.55859 128 128 128
0.420854 -2.08006 1.55507 128 128 128
0.395595 -2.08666 1.55624 128 128 128
0.370934 -2.09695 1.56035 128 128 128
0.345562 -2.10374 1.56211 128 128 128
0.326067 -2.15028 1.59319 128 128 128
0.300205 -2.15813 1.59612 128 128 128
0.970976 -0.513774 0.775959 128 128 128
0.539347 -2.10963 1.51889 128 128 128
0.508744 -2.09688 1.50528 128 128 128
0.477057 -2.07728 1.48713 128 128 128
0.450479 -2.07815 1.48373 128 128 128
0.397791 -2.08049 1.47806 128 128 128
0.371358 -2.08035 1.47466 128 128 128
0.347425 -2.0945 1.48146 128 128 128
0.32483 -2.11896 1.49564 128 128 128
0.520861 -2.11885 1.43618 128 128 128
0.488597 -2.0981 1.41822 128 128 128
0.458707 -2.08509 1.40571 128 128 128
0.427021 -2.06097 1.38611 128 128 128
0.40043 -2.05946 1.38176 128 128 128
0.375572 -2.0667 1.38339 128 128 128
0.350596 -2.07364 1.38503 128 128 128
0.324995 -2.07695 1.38448 128 128 128
0.304782 -2.11816 1.40897 128 128 128
0.283283 -2.15669 1.43183 128 128 128
0.259132 -2.18 1.44489 128 128 128
0.550336 -2.16334 1.39641 128 128 128
0.512129 -2.12193 1.366 128 128 128
0.481868 -2.1098 1.35446 128 128 128
0.442986 -2.05563 1.3167 128 128 128
0.41569 -2.0509 1.31041 128 128 128
0.390331 -2.05501 1.30988 128 128 128
0.364338 -2.05545 1.30726 128 128 128
0.33992 -2.06481 1.31041 128 128 128
0.314171 -2.0663 1.30883 128 128 128
0.267142 -2.10295 1.32719 128 128 128
0.501739 -2.11506 1.28126 128 128 128
0.439574 -2.07845 1.2527 128 128 128
0.410863 -2.06756 1.24318 128 128 128
0.385147 -2.07074 1.24218 128 128 128
0.358685 -2.06934 1.23867 128 128 128
0.332857 -2.07102 1.23717 128 128 128
0.307543 -2.07581 1.23767 128 128 128
0.281932 -2.07857 1.23717 128 128 128
0.233826 -2.11239 1.2532 128 128 128
0.218578 -2.22623 1.31784 128 128 128
0.417086 -2.07422 1.18313 128 128 128
0.388669 -2.06368 1.17447 128 128 128
0.363772 -2.07088 1.17592 128 128 128
0.337907 -2.07259 1.17447 128 128 128
0.31153 -2.07051 1.17111 128 128 128
0.286459 -2.07679 1.17255 128 128 128
0.26205 -2.08885 1.17736 128 128 128
0.21433 -2.13042 1.19707 128 128 128
0.482096 -2.11686 1.1402 128 128 128
0.451825 -2.10261 1.12969 128 128 128
0.394358 -2.08246 1.11369 128 128 128
0.36755 -2.08014 1.11004 128 128 128
0.340004 -2.0722 1.10364 128 128 128
0.313104 -2.06654 1.09861 128 128 128
0.289168 -2.0808 1.10409 128 128 128
0.263392 -2.08243 1.10318 128 128 128
0.215292 -2.11924 1.11918 128 128 128
0.190273 -2.13324 1.12512 128 128 128
0.449186 -2.10893 1.06976 128 128 128
0.423273 -2.11428 1.06976 128 128 128
0.389309 -2.07686 1.04883 128 128 128
0.361461 -2.06819 1.04229 128 128 128
0.33562 -2.0698 1.04098 128 128 128
0.308724 -2.06398 1.03619 128 128 128
0.282881 -2.06404 1.03444 128 128 128
0.259432 -2.08254 1.04185 128 128 128
0.234058 -2.08735 1.04273 128 128 128
0.208875 -2.09455 1.04491 128 128 128
1.00787 -0.544668 0.544073 128 128 128
0.372532 -2.07281 0.978312 128 128 128
0.341875 -2.04576 0.963892 128 128 128
0.315509 -2.04169 0.960184 128 128 128
0.290304 -2.04451 0.959772 128 128 128
0.267266 -2.06418 0.967188 128 128 128
0.241395 -2.06278 0.965128 128 128 128
0.216249 -2.0674 0.965952 128 128 128
0.193399 -2.09803 0.978724 128 128 128
0.170537 -2.1375 0.995615 128 128 128
0.145544 -2.15852 1.00427 128 128 128
0.331234 -2.05626 0.909935 128 128 128
0.302172 -2.03467 0.899003 128 128 128
0.277679 -2.04188 0.900565 128 128 128
0.253055 -2.04879 0.902127 128 128 128
0.229836 -2.06912 0.909544 128 128 128
0.204337 -2.07087 0.909154 128 128 128
0.178988 -2.07414 0.909544 128 128 128
0.155166 -2.09821 0.918914 128 128 128
0.13055 -2.11834 0.926722 128 128 128
0.419598 -2.15154 0.890245 128 128 128
0.388209 -2.12906 0.87926 128 128 128
0.35097 -2.06758 0.852895 128 128 128
0.320864 -2.04139 0.840811 128 128 128
0.294869 -2.03872 0.838248 128 128 128
0.268869 -2.03481 0.835319 128 128 128
0.243335 -2.03333 0.833488 128 128 128
0.220019 -2.0519 0.839713 128 128 128
0.169 -2.04926 0.836783 128 128 128
0.147001 -2.0976 0.855092 128 128 128
0.12239 -2.11968 0.863148 128 128 128
0.396578 -2.13575 0.824915 128 128 128
0.366002 -2.11548 0.815619 128 128 128
0.330013 -2.05771 0.79255 128 128 128
0.303082 -2.05046 0.788418 128 128 128
0.277012 -2.04751 0.786008 128 128 128
0.250715 -2.04144 0.782565 128 128 128
0.22523 -2.04063 0.781187 128 128 128
0.20054 -2.04698 0.782565 128 128 128
0.150867 -2.05971 0.785663 128 128 128
0.128003 -2.10076 0.800125 128 128 128
0.103599 -2.13031 0.810454 128 128 128
0.411702 -2.23066 0.795163 128 128 128
0.363014 -2.11038 0.75229 128 128 128
0.30201 -2.05583 0.730853 128 128 128
0.27651 -2.05751 0.730213 128 128 128
0.250338 -2.05322 0.727654 128 128 128
0.225325 -2.05802 0.728294 128 128 128
0.174986 -2.06576 0.729253 128 128 128
0.150288 -2.0772 0.732453 128 128 128
0.12528 -2.08741 0.735332 128 128 128
0.0998715 -2.09352 0.736932 128 128 128
0.36564 -2.1199 0.70019 128 128 128
0.332034 -2.07709 0.685313 128 128 128
0.305262 -2.07251 0.682635 128 128 128
0.276988 -2.05529 0.676089 128 128 128
0.251163 -2.0538 0.674602 128 128 128
0.225207 -2.05008 0.672519 128 128 128
0.175154 -2.05879 0.673709 128 128 128
0.149876 -2.06079 0.673709 128 128 128
0.125215 -2.07296 0.676982 128 128 128
0.337216 -2.09201 0.632199 128 128 128
0.311658 -2.09694 0.632472 128 128 128
0.281936 -2.07105 0.624005 128 128 128
0.255338 -2.06481 0.621274 128 128 128
0.228622 -2.05535 0.617724 128 128 128
0.203104 -2.05513 0.616904 128 128 128
0.152954 -2.0643 0.61827 128 128 128
0.127955 -2.07178 0.619909 128 128 128
0.102978 -2.0828 0.62264 128 128 128
0.0783248 -2.10987 0.630014 128 128 128
0.0523615 -2.10778 0.629195 128 128 128
0.333895 -2.09561 0.579988 128 128 128
0.3066 -2.08901 0.577234 128 128 128
0.250771 -2.05939 0.56772 128 128 128
0.224528 -2.05365 0.565466 128 128 128
0.173814 -2.05565 0.564715 128 128 128
0.148153 -2.05184 0.563213 128 128 128
0.124016 -2.0709 0.56772 128 128 128
0.0985931 -2.07226 0.56772 128 128 128
0.0736771 -2.08783 0.571475 128 128 128
0.0484167 -2.10406 0.575481 128 128 128
0.714655 -0.525304 0.237401 128 128 128
0.704279 -0.531084 0.236273 128 128 128
0.314025 -2.09297 0.522148 128 128 128
0.289102 -2.10246 0.523502 128 128 128
0.259352 -2.07394 0.516056 128 128 128
0.231631 -2.05663 0.511318 128 128 128
0.205232 -2.04769 0.50861 128 128 128
0.180089 -2.05005 0.50861 128 128 128
0.154918 -2.05211 0.50861 128 128 128
0.129307 -2.04705 0.507031 128 128 128
0.105271 -2.07086 0.51222 128 128 128
0.0803498 -2.08563 0.515379 128 128 128
0.0294588 -2.11327 0.521471 128 128 128
0.677782 -0.54553 0.212918 128 128 128
0.661196 -0.559474 0.212107 128 128 128
0.307059 -2.09713 0.471893 128 128 128
0.280387 -2.09395 0.470472 128 128 128
0.251823 -2.07391 0.465601 128 128 128
0.223259 -2.04861 0.459716 128 128 128
0.197819 -2.04828 0.459107 128 128 128
0.173165 -2.0564 0.460325 128 128 128
0.147987 -2.05935 0.460527 128 128 128
0.122058 -2.05026 0.458295 128 128 128
0.097357 -2.06138 0.460325 128 128 128
0.0472858 -2.08665 0.465196 128 128 128
0.0217621 -2.0949 0.466819 128 128 128
0.899551 -0.518494 0.221277 128 128 128
0.28996 -2.08984 0.415244 128 128 128
0.263685 -2.08836 0.414354 128 128 128
0.236287 -2.0758 0.411504 128 128 128
0.207873 -2.04916 0.406161 128 128 128
0.181003 -2.03195 0.402598 128 128 128
0.156201 -2.03598 0.402954 128 128 128
0.130714 -2.02989 0.40153 128 128 128
0.105843 -2.03233 0.401708 128 128 128
0.0811931 -2.04134 0.403133 128 128 128
0.0569661 -2.07464 0.40901 128 128 128
0.031568 -2.0801 0.409901 128 128 128
0.00608599 -2.12658 0.418272 128 128 128
0.728687 -0.503048 0.17292 128 128 128
0.718425 -0.509102 0.172145 128 128 128
0.708924 -0.515561 0.171525 128 128 128
0.633369 -0.621602 0.17323 128 128 128
0.626391 -0.630027 0.173385 128 128 128
0.255838 -2.10983 0.367514 128 128 128
0.225414 -2.07156 0.361002 128 128 128
0.197972 -2.05352 0.357746 128 128 128
0.17284 -2.05678 0.357901 128 128 128
0.146732 -2.04693 0.35604 128 128 128
0.121543 -2.04759 0.355885 128 128 128
0.0715358 -2.05785 0.357126 128 128 128
0.046597 -2.0724 0.359296 128 128 128
-0.00432183 -2.10453 0.364258 128 128 128
-0.0310143 -2.16754 0.374182 128 128 128
0.269285 -2.11553 0.31505 128 128 128
0.242303 -2.10981 0.313877 128 128 128
0.212525 -2.07415 0.308793 128 128 128
0.183921 -2.04104 0.3041 128 128 128
0.158335 -2.03623 0.303188 128 128 128
0.132707 -2.02812 0.301884 128 128 128
0.107657 -2.02663 0.301493 128 128 128
0.0584953 -2.05145 0.304491 128 128 128
0.0334016 -2.05797 0.305273 128 128 128
-0.0177519 -2.12062 0.313486 128 128 128
0.255296 -2.11144 0.264445 128 128 128
0.227748 -2.09959 0.262838 128 128 128
0.200053 -2.08243 0.260695 128 128 128
0.171392 -2.04807 0.256731 128 128 128
0.145319 -2.03713 0.255339 128 128 128
0.119835 -2.03082 0.254482 128 128 128
0.0949051 -2.03214 0.254482 128 128 128
0.0699605 -2.03315 0.254482 128 128 128
0.045028 -2.03485 0.254589 128 128 128
-0.00499436 -2.07511 0.258874 128 128 128
-0.0308502 -2.10273 0.261874 128 128 128
0.243271 -2.1086 0.211234 128 128 128
0.217076 -2.10845 0.210987 128 128 128
0.186166 -2.05437 0.206297 128 128 128
0.160638 -2.05253 0.205967 128 128 128
0.133465 -2.02351 0.203417 128 128 128
0.107697 -2.00708 0.201935 128 128 128
0.0831764 -2.01124 0.202182 128 128 128
0.0592727 -2.041 0.204569 128 128 128
0.00920719 -2.05779 0.205885 128 128 128
-0.0425879 -2.11618 0.21074 128 128 128
0.231909 -2.13773 0.163592 128 128 128
0.201912 -2.10166 0.161292 128 128 128
0.14533 -2.03728 0.157224 128 128 128
0.119486 -2.02496 0.156399 128 128 128
0.0947692 -2.02927 0.156576 128 128 128
0.0693704 -2.01631 0.15575 128 128 128
0.0448037 -2.02499 0.156222 128 128 128
0.0200761 -2.03737 0.156929 128 128 128
-0.0305189 -2.07917 0.159406 128 128 128
-0.0566358 -2.10159 0.160762 128 128 128
0.217954 -2.10625 0.109741 128 128 128
0.191202 -2.09881 0.109399 128 128 128
0.161295 -2.04719 0.107552 128 128 128
0.13468 -2.02608 0.106766 128 128 128
0.108921 -2.01061 0.106184 128 128 128
0.0841595 -2.0098 0.106116 128 128 128
0.0347958 -2.01026 0.106082 128 128 128
-0.0405915 -2.07413 0.10827 128 128 128
-0.0670519 -2.10344 0.109297 128 128 128
0.204078 -2.12407 0.0606255 128 128 128
0.176317 -2.10649 0.0604126 128 128 128
0.147296 -2.06461 0.0599442 128 128 128
0.118972 -2.01635 0.0594119 128 128 128
0.0692078 -2.01167 0.0593373 128 128 128
0.0444708 -2.01037 0.059316 128 128 128
0.0198601 -2.01676 0.0593799 128 128 128
-0.00489551 -2.01985 0.0594119 128 128 128
-0.110915 -2.15299 0.0608598 128 128 128
0.192723 -2.11175 0.00932523 128 128 128
0.166487 -2.10997 0.00938038 128 128 128
0.137095 -2.05797 0.0101249 128 128 128
0.10937 -2.01256 0.0107729 128 128 128
0.0595572 -2.00065 0.010966 128 128 128
0.0104409 -2.00151 0.010966 128 128 128
-0.0144004 -2.03248 0.0105385 128 128 128
-0.0394473 -2.03715 0.0104696 128 128 128
-0.0650469 -2.0545 0.0102214 128 128 128
-0.121252 -2.15211 0.00884266 128 128 128
0.17752 -2.11206 -0.0399935 128 128 128
0.149859 -2.09016 -0.0390973 128 128 128
0.121266 -2.04296 -0.0372676 128 128 128
0.0948062 -2.01535 -0.0361847 128 128 128
0.0699969 -2.01437 -0.03611 128 128 128
0.0450183 -2.00408 -0.0356992 128 128 128
-0.0289688 -2.01837 -0.036222 128 128 128
-0.0535274 -2.00987 -0.0359233 128 128 128
-0.080175 -2.06099 -0.037865 128 128 128
-0.107177 -2.09378 -0.0391346 128 128 128
0.165163 -2.10224 -0.090962 128 128 128
0.138712 -2.09415 -0.0903428 128 128 128
0.109474 -2.02792 -0.0861323 128 128 128
0.0844615 -2.02611 -0.0859465 128 128 128
0.0342426 -1.99664 -0.084027 128 128 128
0.00974108 -1.99791 -0.0840889 128 128 128
-0.0147397 -1.99389 -0.0838413 128 128 128
-0.0647838 -2.02584 -0.0858846 128 128 128
-0.0910209 -2.0548 -0.0877422 128 128 128
-0.119086 -2.10236 -0.0907763 128 128 128
0.803636 -0.498302 -0.0407098 128 128 128
0.150709 -2.10191 -0.140509 128 128 128
0.124188 -2.09167 -0.139482 128 128 128
0.0964224 -2.04925 -0.135716 128 128 128
0.071303 -2.05127 -0.135801 128 128 128
0.0452047 -2.01215 -0.132378 128 128 128
0.020412 -2.00359 -0.131607 128 128 128
-0.0287373 -2.00149 -0.131436 128 128 128
-0.0792576 -2.03702 -0.134603 128 128 128
-0.10601 -2.07072 -0.137599 128 128 128
-0.131226 -2.06628 -0.137342 128 128 128
-0.161803 -2.13406 -0.143333 128 128 128
0.138437 -2.09552 -0.19106 128 128 128
0.112196 -2.08713 -0.189961 128 128 128
0.0848065 -2.04366 -0.185015 128 128 128
0.0593415 -2.03064 -0.183476 128 128 128
0.0340597 -2.00736 -0.180838 128 128 128
0.00941831 -2.00564 -0.180619 128 128 128
-0.0151568 -2.00163 -0.180179 128 128 128
-0.064884 -2.01853 -0.182157 128 128 128
-0.0900179 -2.02553 -0.183037 128 128 128
-0.11708 -2.06198 -0.187213 128 128 128
-0.174583 -2.14168 -0.196445 128 128 128
0.126762 -2.11628 -0.243672 128 128 128
0.0999236 -2.09986 -0.24127 128 128 128
0.046417 -2.01944 -0.230192 128 128 128
-0.0278662 -2.01384 -0.229391 128 128 128
-0.0523247 -2.00344 -0.228057 128 128 128
-0.0775042 -2.01849 -0.230192 128 128 128
-0.129546 -2.05653 -0.235664 128 128 128
-0.157209 -2.0874 -0.240069 128 128 128
-0.186422 -2.12679 -0.245674 128 128 128
0.110573 -2.08359 -0.291345 128 128 128
0.0841131 -2.0621 -0.287711 128 128 128
0.0580928 -2.03632 -0.283446 128 128 128
0.0327036 -2.00924 -0.279022 128 128 128
0.00805079 -2.01245 -0.279496 128 128 128
-0.0165245 -2.00055 -0.2776 128 128 128
-0.0658214 -2.00546 -0.278548 128 128 128
-0.116891 -2.03478 -0.283604 128 128 128
-0.143829 -2.06077 -0.288027 128 128 128
-0.202226 -2.1382 -0.30114 128 128 128
0.100079 -2.09558 -0.344126 128 128 128
0.0740011 -2.08683 -0.342311 128 128 128
0.0219265 -2.01525 -0.328876 128 128 128
-0.00280463 -2.01438 -0.328695 128 128 128
-0.0274344 -2.00731 -0.327424 128 128 128
-0.0521149 -2.00879 -0.327787 128 128 128
-0.0768727 -2.01095 -0.328331 128 128 128
-0.101642 -2.01182 -0.328695 128 128 128
-0.154199 -2.05187 -0.336683 128 128 128
-0.182516 -2.08607 -0.3434 128 128 128
-0.210724 -2.11009 -0.348302 128 128 128
0.0838733 -2.09308 -0.395325 128 128 128
0.0568638 -2.04308 -0.384656 128 128 128
0.0316145 -2.0309 -0.381989 128 128 128
0.00666204 -2.01058 -0.37768 128 128 128
-0.0180221 -2.01149 -0.377885 128 128 128
-0.0426594 -2.00916 -0.377475 128 128 128
-0.0672423 -2.00653 -0.377064 128 128 128
-0.091767 -2.0036 -0.376654 128 128 128
-0.117639 -2.02381 -0.381168 128 128 128
-0.142818 -2.0271 -0.382194 128 128 128
-0.169667 -2.0486 -0.387118 128 128 128
-0.198484 -2.08435 -0.39512 128 128 128
-0.229269 -2.12943 -0.405174 128 128 128
0.0759597 -2.10093 -0.450071 128 128 128
0.0498147 -2.08711 -0.446636 128 128 128
0.024068 -2.07685 -0.444117 128 128 128
-0.00141809 -2.03416 -0.434039 128 128 128
-0.0262244 -2.02134 -0.431062 128 128 128
-0.050812 -2.0121 -0.429001 128 128 128
-0.0754998 -2.01133 -0.429001 128 128 128
-0.100463 -2.01609 -0.430375 128 128 128
-0.125734 -2.02344 -0.432436 128 128 128
-0.150555 -2.02175 -0.432436 128 128 128
-0.17786 -2.04884 -0.439307 128 128 128
-0.207094 -2.08816 -0.449155 128 128 128
-0.233455 -2.09224 -0.450759 128 128 128
0.055051 -2.06951 -0.495216 128 128 128
0.0295668 -2.06325 -0.493448 128 128 128
0.00424293 -2.04508 -0.488649 128 128 128
-0.0205247 -2.01788 -0.481577 128 128 128
-0.0453329 -2.01941 -0.482082 128 128 128
-0.0699334 -2.01387 -0.480819 128 128 128
-0.0944994 -2.00996 -0.480062 128 128 128
-0.119276 -2.01058 -0.480567 128 128 128
-0.143798 -2.00704 -0.480062 128 128 128
-0.169826 -2.02151 -0.484355 128 128 128
-0.225989 -2.07636 -0.500015 128 128 128
-0.257723 -2.12433 -0.513402 128 128 128
0.0563683 -2.30582 -0.617574 128 128 128
0.0251269 -2.07572 -0.55122 128 128 128
-0.000359166 -2.05088 -0.544032 128 128 128
-0.0253793 -2.03823 -0.540437 128 128 128
-0.0499734 -2.02047 -0.535461 128 128 128
-0.0747639 -2.01971 -0.535461 128 128 128
-0.0994965 -2.01768 -0.535184 128 128 128
-0.149264 -2.01846 -0.53629 128 128 128
-0.20166 -2.04384 -0.544861 128 128 128
-0.228941 -2.06127 -0.550667 128 128 128
-0.25539 -2.06784 -0.553432 128 128 128
0.576709 -0.518784 -0.196779 128 128 128
0.0264439 -2.0703 -0.603029 128 128 128
0.00104297 -2.0657 -0.601532 128 128 128
-0.0237831 -2.02739 -0.589557 128 128 128
-0.0485614 -2.02313 -0.58836 128 128 128
-0.0728008 -2.00713 -0.58357 128 128 128
-0.0972332 -2.00227 -0.582372 128 128 128
-0.122635 -2.01426 -0.586564 128 128 128
-0.147272 -2.01165 -0.586264 128 128 128
-0.173113 -2.023 -0.590455 128 128 128
-0.199443 -2.03592 -0.595245 128 128 128
-0.227395 -2.05986 -0.603628 128 128 128
-0.253483 -2.06355 -0.605723 128 128 128
0.55972 -0.507766 -0.210421 128 128 128
0.549281 -0.510737 -0.208483 128 128 128
0.00141784 -2.05894 -0.655091 128 128 128
-0.0235903 -2.03515 -0.647018 128 128 128
-0.0484532 -2.02997 -0.645403 128 128 128
-0.0732262 -2.02544 -0.644111 128 128 128
-0.0978051 -2.01872 -0.642174 128 128 128
-0.122343 -2.01359 -0.640882 128 128 128
-0.146497 -2.00438 -0.638299 128 128 128
-0.172602 -2.02035 -0.644434 128 128 128
-0.197473 -2.01902 -0.644757 128 128 128
-0.222853 -2.02209 -0.646695 128 128 128
-0.250973 -2.04645 -0.65606 128 128 128
-0.278211 -2.05916 -0.661549 128 128 128
0.543885 -0.502917 -0.224911 128 128 128
0.539028 -0.510852 -0.225602 128 128 128
0.533388 -0.518085 -0.225948 128 128 128
-0.00245864 -2.04783 -0.706596 128 128 128
-0.0275159 -2.04295 -0.704867 128 128 128
-0.0520377 -2.02276 -0.697605 128 128 128
-0.0766686 -2.01729 -0.695876 128 128 128
-0.100732 -2.00307 -0.691035 128 128 128
-0.125305 -2.00169 -0.691035 128 128 128
-0.150291 -2.00561 -0.69311 128 128 128
-0.175309 -2.00829 -0.694839 128 128 128
-0.22667 -2.02203 -0.701755 128 128 128
-0.253823 -2.03771 -0.70867 128 128 128
-0.27881 -2.03444 -0.70867 128 128 128
0.710387 -0.474226 -0.290259 128 128 128
-0.0225504 -2.07058 -0.773409 128 128 128
-0.04708 -2.03112 -0.757907 128 128 128
-0.0717754 -2.02389 -0.755323 128 128 128
-0.0957322 -2.00429 -0.747941 128 128 128
-0.120266 -2.00204 -0.747572 128 128 128
-0.144692 -1.99856 -0.746834 128 128 128
-0.168506 -1.98829 -0.743512 128 128 128
-0.194052 -1.9981 -0.74831 128 128 128
-0.218959 -1.99927 -0.749786 128 128 128
-0.245714 -2.01488 -0.757168 128 128 128
-0.273748 -2.03659 -0.767134 128 128 128
-0.300333 -2.04411 -0.771563 128 128 128
0.74256 -0.483575 -0.327453 128 128 128
0.702258 -0.469471 -0.309834 128 128 128
0.688127 -0.472284 -0.305527 128 128 128
-0.0312684 -2.0361 -0.81687 128 128 128
-0.0560066 -2.02728 -0.813347 128 128 128
-0.080109 -2.00805 -0.805516 128 128 128
-0.104296 -1.99865 -0.801992 128 128 128
-0.128754 -1.9963 -0.801601 128 128 128
-0.152808 -1.98907 -0.799251 128 128 128
-0.177205 -1.98704 -0.799251 128 128 128
-0.20243 -1.99296 -0.802775 128 128 128
-0.227189 -1.99306 -0.80395 128 128 128
-0.252099 -1.99378 -0.805516 128 128 128
-0.280659 -2.01969 -0.818045 128 128 128
-0.307238 -2.02792 -0.823135 128 128 128
-0.0452535 -2.04386 -0.881132 128 128 128
-0.07027 -2.04133 -0.880302 128 128 128
-0.0931396 -1.99305 -0.858738 128 128 128
-0.117696 -1.99357 -0.859568 128 128 128
-0.142216 -1.99288 -0.859982 128 128 128
-0.190562 -1.98336 -0.857494 128 128 128
0.541374 -0.504831 -0.307765 128 128 128
-0.0624171 -2.07457 -0.955279 128 128 128
-0.0841993 -1.99095 -0.915137 128 128 128
-0.108778 -1.99246 -0.916446 128 128 128
-0.131981 -1.97302 -0.907719 128 128 128
-0.156037 -1.96946 -0.906847 128 128 128
-0.292588 -1.90197 -0.881976 128 128 128
0.59662 -0.46218 -0.385289 128 128 128
0.597003 -0.474294 -0.389817 128 128 128
0.607258 -0.469911 -0.417353 128 128 128
0.601445 -0.477327 -0.417353 128 128 128
0.566765 -0.472711 -0.399024 128 128 128
0.409045 -0.624306 -0.572551 128 128 128
0.407848 -0.639605 -0.582904 128 128 128
0.455871 -0.529872 -0.564898 128 128 128
0.452693 -0.539408 -0.569573 128 128 128
0.438763 -0.550755 -0.600222 128 128 128
0.432856 -0.557254 -0.601594 128 128 128
0.39986 -0.601589 -0.617368 128 128 128
0.387662 -0.61555 -0.622169 128 128 128
0.457131 -0.515573 -0.621944 128 128 128
0.420981 -0.551738 -0.626887 128 128 128
0.416299 -0.559698 -0.630418 128 128 128
0.392293 -0.61745 -0.664311 128 128 128
0.391789 -0.633643 -0.677728 128 128 128
